M48
; DRILL file {KiCad 7.0.7} date Tue Oct 10 17:02:05 2023
; FORMAT={-:-/ absolute / inch / decimal}
; #@! TF.CreationDate,2023-10-10T17:02:05+13:00
; #@! TF.GenerationSoftware,Kicad,Pcbnew,7.0.7
; #@! TF.FileFunction,Plated,1,2,PTH
FMAT,2
INCH
; #@! TA.AperFunction,Plated,PTH,ViaDrill
T1C0.0118
; #@! TA.AperFunction,Plated,PTH,ComponentDrill
T2C0.0236
; #@! TA.AperFunction,Plated,PTH,ComponentDrill
T3C0.0315
; #@! TA.AperFunction,Plated,PTH,ComponentDrill
T4C0.0433
%
G90
G05
T1
X0.0315Y-0.3346
X0.0394Y-0.0906
X0.0945Y-0.4252
X0.122Y-0.3425
X0.126Y-0.1102
X0.1378Y-0.5512
X0.1575Y-0.3543
X0.1772Y-0.3067
X0.1969Y-0.0315
X0.2087Y-0.3386
X0.2673Y-0.2969
X0.2756Y-0.2126
X0.3268Y-0.2953
X0.3287Y-0.2161
X0.3394Y-0.111
X0.3425Y-0.374
X0.3615Y-0.215
X0.3616Y-0.2981
X0.3937Y-0.5394
X0.4193Y-0.2953
X0.4232Y-0.2165
X0.4331Y-0.0315
X0.4685Y-0.4409
X0.506Y-0.437
X0.5591Y-0.3425
X0.5709Y-0.5315
X0.5945Y-0.2559
X0.6063Y-0.1496
X0.6181Y-0.2008
X0.626Y-0.0315
X0.626Y-0.378
X0.6732Y-0.2047
X0.6772Y-0.1496
X0.689Y-0.4528
X0.7047Y-0.2638
X0.7064Y-0.3309
X0.7323Y-0.4909
X0.7502Y-0.4724
X0.7756Y-0.3622
X0.7874Y-0.0315
X0.8465Y-0.1102
X0.8583Y-0.4488
X0.8583Y-0.5236
X0.9035Y-0.372
X0.9094Y-0.2382
X0.9331Y-0.0315
X0.9606Y-0.1969
X0.9724Y-0.3071
X0.9803Y-0.0787
X1.0394Y-0.4724
X1.047Y-0.3821
X1.097Y-0.3821
X1.1457Y-0.5118
X1.147Y-0.3821
X1.2084Y-0.2753
X1.2283Y-0.1654
X1.3346Y-0.0315
X1.3386Y-0.3661
X1.3583Y-0.2047
X1.3819Y-0.2913
X1.4724Y-0.3543
X1.4961Y-0.248
X1.5315Y-0.0315
X1.5315Y-0.3661
X1.5906Y-0.5
X1.7323Y-0.2638
T2
X0.9528Y-0.4803
X1.0945Y-0.4803
X1.2362Y-0.4803
X1.378Y-0.4803
X1.5197Y-0.4803
X1.6614Y-0.4803
T3
X0.3022Y-0.1772
X0.3022Y-0.2559
X0.3022Y-0.3346
X0.3022Y-0.4134
X0.3809Y-0.1772
X0.3809Y-0.2559
X0.3809Y-0.3346
X0.3809Y-0.4134
T4
X0.9094Y-0.126
X0.9094Y-0.3071
X1.063Y-0.0787
X1.2441Y-0.0787
X1.4252Y-0.0787
T0
M30
