%TF.GenerationSoftware,KiCad,Pcbnew,7.0.7*%
%TF.CreationDate,2023-10-10T17:02:05+13:00*%
%TF.ProjectId,probeDaughterBoard,70726f62-6544-4617-9567-68746572426f,rev?*%
%TF.SameCoordinates,Original*%
%TF.FileFunction,Paste,Top*%
%TF.FilePolarity,Positive*%
%FSLAX46Y46*%
G04 Gerber Fmt 4.6, Leading zero omitted, Abs format (unit mm)*
G04 Created by KiCad (PCBNEW 7.0.7) date 2023-10-10 17:02:05*
%MOMM*%
%LPD*%
G01*
G04 APERTURE LIST*
G04 Aperture macros list*
%AMRoundRect*
0 Rectangle with rounded corners*
0 $1 Rounding radius*
0 $2 $3 $4 $5 $6 $7 $8 $9 X,Y pos of 4 corners*
0 Add a 4 corners polygon primitive as box body*
4,1,4,$2,$3,$4,$5,$6,$7,$8,$9,$2,$3,0*
0 Add four circle primitives for the rounded corners*
1,1,$1+$1,$2,$3*
1,1,$1+$1,$4,$5*
1,1,$1+$1,$6,$7*
1,1,$1+$1,$8,$9*
0 Add four rect primitives between the rounded corners*
20,1,$1+$1,$2,$3,$4,$5,0*
20,1,$1+$1,$4,$5,$6,$7,0*
20,1,$1+$1,$6,$7,$8,$9,0*
20,1,$1+$1,$8,$9,$2,$3,0*%
G04 Aperture macros list end*
%ADD10RoundRect,0.150000X0.400000X0.150000X-0.400000X0.150000X-0.400000X-0.150000X0.400000X-0.150000X0*%
%ADD11RoundRect,0.200000X0.200000X0.275000X-0.200000X0.275000X-0.200000X-0.275000X0.200000X-0.275000X0*%
%ADD12RoundRect,0.135000X-0.185000X0.135000X-0.185000X-0.135000X0.185000X-0.135000X0.185000X0.135000X0*%
%ADD13RoundRect,0.135000X-0.135000X-0.185000X0.135000X-0.185000X0.135000X0.185000X-0.135000X0.185000X0*%
%ADD14RoundRect,0.135000X0.185000X-0.135000X0.185000X0.135000X-0.185000X0.135000X-0.185000X-0.135000X0*%
%ADD15RoundRect,0.200000X0.275000X-0.200000X0.275000X0.200000X-0.275000X0.200000X-0.275000X-0.200000X0*%
%ADD16RoundRect,0.135000X0.135000X0.185000X-0.135000X0.185000X-0.135000X-0.185000X0.135000X-0.185000X0*%
%ADD17RoundRect,0.043333X-0.681667X0.086667X-0.681667X-0.086667X0.681667X-0.086667X0.681667X0.086667X0*%
%ADD18RoundRect,0.100000X-0.200000X-0.675000X0.200000X-0.675000X0.200000X0.675000X-0.200000X0.675000X0*%
%ADD19RoundRect,0.150000X0.325000X0.350000X-0.325000X0.350000X-0.325000X-0.350000X0.325000X-0.350000X0*%
%ADD20RoundRect,0.200000X-0.275000X0.200000X-0.275000X-0.200000X0.275000X-0.200000X0.275000X0.200000X0*%
%ADD21RoundRect,0.100000X-0.675000X0.200000X-0.675000X-0.200000X0.675000X-0.200000X0.675000X0.200000X0*%
%ADD22O,0.568402X1.950216*%
G04 APERTURE END LIST*
D10*
%TO.C,ESD1*%
X33149987Y-8050038D03*
X33149987Y-9000000D03*
X33149987Y-9949962D03*
X35850013Y-9949962D03*
X35850013Y-9000000D03*
X35850013Y-8050038D03*
%TD*%
D11*
%TO.C,R1*%
X7505000Y-13620000D03*
X5855000Y-13620000D03*
%TD*%
D12*
%TO.C,R9*%
X32000000Y-9290000D03*
X32000000Y-10310000D03*
%TD*%
D13*
%TO.C,C9*%
X14190000Y-10700000D03*
X15210000Y-10700000D03*
%TD*%
D14*
%TO.C,R12*%
X32000000Y-8010000D03*
X32000000Y-6990000D03*
%TD*%
D15*
%TO.C,R3*%
X6100000Y-4825000D03*
X6100000Y-3175000D03*
%TD*%
D16*
%TO.C,R13*%
X34010000Y-6000000D03*
X32990000Y-6000000D03*
%TD*%
D17*
%TO.C,ADC1*%
X12200000Y-12000000D03*
X12200000Y-12500127D03*
X12200000Y-13000000D03*
X12200000Y-13500127D03*
X12200000Y-14000000D03*
X16600000Y-14000000D03*
X16600000Y-13500127D03*
X16600000Y-13000000D03*
X16600000Y-12500127D03*
X16600000Y-12000000D03*
%TD*%
D18*
%TO.C,OP1*%
X1795000Y-11900000D03*
X3065000Y-11900000D03*
X4335000Y-11900000D03*
X5605000Y-11900000D03*
X5605000Y-6500000D03*
X4335000Y-6500000D03*
X3065000Y-6500000D03*
X1795000Y-6500000D03*
%TD*%
D11*
%TO.C,R4*%
X4625000Y-4800000D03*
X2975000Y-4800000D03*
%TD*%
D16*
%TO.C,R11*%
X34010000Y-4500000D03*
X32990000Y-4500000D03*
%TD*%
D19*
%TO.C,LED1*%
X35400000Y-4500000D03*
X37000000Y-4500000D03*
%TD*%
D20*
%TO.C,FB1*%
X43500000Y-8512500D03*
X43500000Y-10162500D03*
%TD*%
D19*
%TO.C,LED2*%
X35400000Y-6000000D03*
X37000000Y-6000000D03*
%TD*%
D13*
%TO.C,C6*%
X6740000Y-12250000D03*
X7760000Y-12250000D03*
%TD*%
D16*
%TO.C,C11*%
X17210000Y-10700000D03*
X16190000Y-10700000D03*
%TD*%
D12*
%TO.C,C5*%
X25400000Y-4090000D03*
X25400000Y-5110000D03*
%TD*%
D16*
%TO.C,C3*%
X42010000Y-9437500D03*
X40990000Y-9437500D03*
%TD*%
D14*
%TO.C,C1*%
X1700000Y-5110000D03*
X1700000Y-4090000D03*
%TD*%
D21*
%TO.C,OP2*%
X13700000Y-3960000D03*
X13700000Y-5230000D03*
X13700000Y-6500000D03*
X13700000Y-7770000D03*
X19100000Y-7770000D03*
X19100000Y-6500000D03*
X19100000Y-5230000D03*
X19100000Y-3960000D03*
%TD*%
D22*
%TO.C,EEPROM1*%
X26594996Y-9705105D03*
X27864999Y-9705105D03*
X29135001Y-9705105D03*
X30405004Y-9705105D03*
X30405004Y-4294895D03*
X29135001Y-4294895D03*
X27864999Y-4294895D03*
X26594996Y-4294895D03*
%TD*%
D16*
%TO.C,C10*%
X42010000Y-8437500D03*
X40990000Y-8437500D03*
%TD*%
%TO.C,R14*%
X38010000Y-8000000D03*
X36990000Y-8000000D03*
%TD*%
D12*
%TO.C,C8*%
X18000000Y-13090000D03*
X18000000Y-14110000D03*
%TD*%
D11*
%TO.C,R17*%
X15425000Y-2500000D03*
X13775000Y-2500000D03*
%TD*%
D20*
%TO.C,R5*%
X12000000Y-7575000D03*
X12000000Y-9225000D03*
%TD*%
D16*
%TO.C,C2*%
X19110000Y-2800000D03*
X18090000Y-2800000D03*
%TD*%
D11*
%TO.C,R2*%
X4325000Y-13620000D03*
X2675000Y-13620000D03*
%TD*%
D20*
%TO.C,FB2*%
X39500000Y-8512500D03*
X39500000Y-10162500D03*
%TD*%
D15*
%TO.C,R8*%
X20800000Y-6725000D03*
X20800000Y-5075000D03*
%TD*%
D11*
%TO.C,R18*%
X10625000Y-12100000D03*
X8975000Y-12100000D03*
%TD*%
D16*
%TO.C,R10*%
X38010000Y-10000000D03*
X36990000Y-10000000D03*
%TD*%
D20*
%TO.C,R6*%
X20800000Y-8875000D03*
X20800000Y-10525000D03*
%TD*%
D13*
%TO.C,C7*%
X14190000Y-9500000D03*
X15210000Y-9500000D03*
%TD*%
D15*
%TO.C,R7*%
X12000000Y-5425000D03*
X12000000Y-3775000D03*
%TD*%
%TO.C,R15*%
X18700000Y-10825000D03*
X18700000Y-9175000D03*
%TD*%
D16*
%TO.C,C4*%
X42010000Y-10437500D03*
X40990000Y-10437500D03*
%TD*%
M02*
