%TF.GenerationSoftware,KiCad,Pcbnew,7.0.7*%
%TF.CreationDate,2023-11-14T13:36:37+13:00*%
%TF.ProjectId,probeDaughterBoard,70726f62-6544-4617-9567-68746572426f,rev?*%
%TF.SameCoordinates,Original*%
%TF.FileFunction,Soldermask,Bot*%
%TF.FilePolarity,Negative*%
%FSLAX46Y46*%
G04 Gerber Fmt 4.6, Leading zero omitted, Abs format (unit mm)*
G04 Created by KiCad (PCBNEW 7.0.7) date 2023-11-14 13:36:37*
%MOMM*%
%LPD*%
G01*
G04 APERTURE LIST*
G04 APERTURE END LIST*
G36*
X22762664Y-18691602D02*
G01*
X22925000Y-18763878D01*
X23068761Y-18868327D01*
X23187664Y-19000383D01*
X23276514Y-19154274D01*
X23331425Y-19323275D01*
X23350000Y-19500000D01*
X23331425Y-19676725D01*
X23276514Y-19845726D01*
X23187664Y-19999617D01*
X23068761Y-20131673D01*
X22925000Y-20236122D01*
X22762664Y-20308398D01*
X22588849Y-20345344D01*
X22411151Y-20345344D01*
X22237336Y-20308398D01*
X22075000Y-20236122D01*
X21931239Y-20131673D01*
X21812336Y-19999617D01*
X21723486Y-19845726D01*
X21668575Y-19676725D01*
X21650000Y-19500000D01*
X21668575Y-19323275D01*
X21723486Y-19154274D01*
X21812336Y-19000383D01*
X21931239Y-18868327D01*
X22075000Y-18763878D01*
X22237336Y-18691602D01*
X22411151Y-18654656D01*
X22588849Y-18654656D01*
X22762664Y-18691602D01*
G37*
G36*
X22762664Y-15091602D02*
G01*
X22925000Y-15163878D01*
X23068761Y-15268327D01*
X23187664Y-15400383D01*
X23276514Y-15554274D01*
X23331425Y-15723275D01*
X23350000Y-15900000D01*
X23331425Y-16076725D01*
X23276514Y-16245726D01*
X23187664Y-16399617D01*
X23068761Y-16531673D01*
X22925000Y-16636122D01*
X22762664Y-16708398D01*
X22588849Y-16745344D01*
X22411151Y-16745344D01*
X22237336Y-16708398D01*
X22075000Y-16636122D01*
X21931239Y-16531673D01*
X21812336Y-16399617D01*
X21723486Y-16245726D01*
X21668575Y-16076725D01*
X21650000Y-15900000D01*
X21668575Y-15723275D01*
X21723486Y-15554274D01*
X21812336Y-15400383D01*
X21931239Y-15268327D01*
X22075000Y-15163878D01*
X22237336Y-15091602D01*
X22411151Y-15054656D01*
X22588849Y-15054656D01*
X22762664Y-15091602D01*
G37*
G36*
X14834059Y-13754484D02*
G01*
X14866239Y-13754484D01*
X14903136Y-13763578D01*
X14942350Y-13768741D01*
X14969193Y-13779859D01*
X14994860Y-13786186D01*
X15033774Y-13806610D01*
X15075000Y-13823686D01*
X15093808Y-13838118D01*
X15112164Y-13847752D01*
X15149692Y-13880999D01*
X15188909Y-13911091D01*
X15200054Y-13925615D01*
X15211323Y-13935599D01*
X15243638Y-13982416D01*
X15276314Y-14025000D01*
X15281239Y-14036890D01*
X15286578Y-14044625D01*
X15309740Y-14105700D01*
X15331259Y-14157650D01*
X15332224Y-14164984D01*
X15333554Y-14168490D01*
X15343850Y-14253292D01*
X15350000Y-14300000D01*
X15343850Y-14346711D01*
X15333554Y-14431509D01*
X15332224Y-14435013D01*
X15331259Y-14442350D01*
X15309736Y-14494310D01*
X15286578Y-14555374D01*
X15281240Y-14563107D01*
X15276314Y-14575000D01*
X15243631Y-14617592D01*
X15211323Y-14664400D01*
X15200056Y-14674381D01*
X15188909Y-14688909D01*
X15149684Y-14719007D01*
X15112164Y-14752247D01*
X15093812Y-14761878D01*
X15075000Y-14776314D01*
X15033765Y-14793393D01*
X14994860Y-14813813D01*
X14969198Y-14820138D01*
X14942350Y-14831259D01*
X14903134Y-14836421D01*
X14866239Y-14845516D01*
X14834059Y-14845516D01*
X14800000Y-14850000D01*
X14765941Y-14845516D01*
X14733761Y-14845516D01*
X14696865Y-14836421D01*
X14657650Y-14831259D01*
X14630803Y-14820138D01*
X14605139Y-14813813D01*
X14566229Y-14793391D01*
X14525000Y-14776314D01*
X14506189Y-14761880D01*
X14487835Y-14752247D01*
X14450308Y-14719001D01*
X14411091Y-14688909D01*
X14399945Y-14674383D01*
X14388676Y-14664400D01*
X14356358Y-14617579D01*
X14323686Y-14575000D01*
X14318761Y-14563111D01*
X14313421Y-14555374D01*
X14290251Y-14494281D01*
X14268741Y-14442350D01*
X14267775Y-14435017D01*
X14266445Y-14431509D01*
X14256136Y-14346613D01*
X14250000Y-14300000D01*
X14256136Y-14253390D01*
X14266445Y-14168490D01*
X14267775Y-14164980D01*
X14268741Y-14157650D01*
X14290247Y-14105729D01*
X14313421Y-14044625D01*
X14318762Y-14036886D01*
X14323686Y-14025000D01*
X14356351Y-13982429D01*
X14388676Y-13935599D01*
X14399948Y-13925612D01*
X14411091Y-13911091D01*
X14450299Y-13881005D01*
X14487835Y-13847752D01*
X14506193Y-13838116D01*
X14525000Y-13823686D01*
X14566220Y-13806612D01*
X14605139Y-13786186D01*
X14630807Y-13779859D01*
X14657650Y-13768741D01*
X14696862Y-13763578D01*
X14733761Y-13754484D01*
X14765941Y-13754484D01*
X14800000Y-13750000D01*
X14834059Y-13754484D01*
G37*
G36*
X7161328Y-12793177D02*
G01*
X7314566Y-12846798D01*
X7452030Y-12933172D01*
X7566828Y-13047970D01*
X7653202Y-13185434D01*
X7706823Y-13338672D01*
X7725000Y-13500000D01*
X7706823Y-13661328D01*
X7653202Y-13814566D01*
X7566828Y-13952030D01*
X7452030Y-14066828D01*
X7314566Y-14153202D01*
X7161328Y-14206823D01*
X7000000Y-14225000D01*
X6838672Y-14206823D01*
X6685434Y-14153202D01*
X6547970Y-14066828D01*
X6433172Y-13952030D01*
X6346798Y-13814566D01*
X6293177Y-13661328D01*
X6275000Y-13500000D01*
X6293177Y-13338672D01*
X6346798Y-13185434D01*
X6433172Y-13047970D01*
X6547970Y-12933172D01*
X6685434Y-12846798D01*
X6838672Y-12793177D01*
X7000000Y-12775000D01*
X7161328Y-12793177D01*
G37*
G36*
X9161328Y-12793177D02*
G01*
X9314566Y-12846798D01*
X9452030Y-12933172D01*
X9566828Y-13047970D01*
X9653202Y-13185434D01*
X9706823Y-13338672D01*
X9725000Y-13500000D01*
X9706823Y-13661328D01*
X9653202Y-13814566D01*
X9566828Y-13952030D01*
X9452030Y-14066828D01*
X9314566Y-14153202D01*
X9161328Y-14206823D01*
X9000000Y-14225000D01*
X8838672Y-14206823D01*
X8685434Y-14153202D01*
X8547970Y-14066828D01*
X8433172Y-13952030D01*
X8346798Y-13814566D01*
X8293177Y-13661328D01*
X8275000Y-13500000D01*
X8293177Y-13338672D01*
X8346798Y-13185434D01*
X8433172Y-13047970D01*
X8547970Y-12933172D01*
X8685434Y-12846798D01*
X8838672Y-12793177D01*
X9000000Y-12775000D01*
X9161328Y-12793177D01*
G37*
G36*
X22762664Y-11491602D02*
G01*
X22925000Y-11563878D01*
X23068761Y-11668327D01*
X23187664Y-11800383D01*
X23276514Y-11954274D01*
X23331425Y-12123275D01*
X23350000Y-12300000D01*
X23331425Y-12476725D01*
X23276514Y-12645726D01*
X23187664Y-12799617D01*
X23068761Y-12931673D01*
X22925000Y-13036122D01*
X22762664Y-13108398D01*
X22588849Y-13145344D01*
X22411151Y-13145344D01*
X22237336Y-13108398D01*
X22075000Y-13036122D01*
X21931239Y-12931673D01*
X21812336Y-12799617D01*
X21723486Y-12645726D01*
X21668575Y-12476725D01*
X21650000Y-12300000D01*
X21668575Y-12123275D01*
X21723486Y-11954274D01*
X21812336Y-11800383D01*
X21931239Y-11668327D01*
X22075000Y-11563878D01*
X22237336Y-11491602D01*
X22411151Y-11454656D01*
X22588849Y-11454656D01*
X22762664Y-11491602D01*
G37*
G36*
X7161328Y-10793177D02*
G01*
X7314566Y-10846798D01*
X7452030Y-10933172D01*
X7566828Y-11047970D01*
X7653202Y-11185434D01*
X7706823Y-11338672D01*
X7725000Y-11500000D01*
X7706823Y-11661328D01*
X7653202Y-11814566D01*
X7566828Y-11952030D01*
X7452030Y-12066828D01*
X7314566Y-12153202D01*
X7161328Y-12206823D01*
X7000000Y-12225000D01*
X6838672Y-12206823D01*
X6685434Y-12153202D01*
X6547970Y-12066828D01*
X6433172Y-11952030D01*
X6346798Y-11814566D01*
X6293177Y-11661328D01*
X6275000Y-11500000D01*
X6293177Y-11338672D01*
X6346798Y-11185434D01*
X6433172Y-11047970D01*
X6547970Y-10933172D01*
X6685434Y-10846798D01*
X6838672Y-10793177D01*
X7000000Y-10775000D01*
X7161328Y-10793177D01*
G37*
G36*
X9161328Y-10793177D02*
G01*
X9314566Y-10846798D01*
X9452030Y-10933172D01*
X9566828Y-11047970D01*
X9653202Y-11185434D01*
X9706823Y-11338672D01*
X9725000Y-11500000D01*
X9706823Y-11661328D01*
X9653202Y-11814566D01*
X9566828Y-11952030D01*
X9452030Y-12066828D01*
X9314566Y-12153202D01*
X9161328Y-12206823D01*
X9000000Y-12225000D01*
X8838672Y-12206823D01*
X8685434Y-12153202D01*
X8547970Y-12066828D01*
X8433172Y-11952030D01*
X8346798Y-11814566D01*
X8293177Y-11661328D01*
X8275000Y-11500000D01*
X8293177Y-11338672D01*
X8346798Y-11185434D01*
X8433172Y-11047970D01*
X8547970Y-10933172D01*
X8685434Y-10846798D01*
X8838672Y-10793177D01*
X9000000Y-10775000D01*
X9161328Y-10793177D01*
G37*
G36*
X7161328Y-8793177D02*
G01*
X7314566Y-8846798D01*
X7452030Y-8933172D01*
X7566828Y-9047970D01*
X7653202Y-9185434D01*
X7706823Y-9338672D01*
X7725000Y-9500000D01*
X7706823Y-9661328D01*
X7653202Y-9814566D01*
X7566828Y-9952030D01*
X7452030Y-10066828D01*
X7314566Y-10153202D01*
X7161328Y-10206823D01*
X7000000Y-10225000D01*
X6838672Y-10206823D01*
X6685434Y-10153202D01*
X6547970Y-10066828D01*
X6433172Y-9952030D01*
X6346798Y-9814566D01*
X6293177Y-9661328D01*
X6275000Y-9500000D01*
X6293177Y-9338672D01*
X6346798Y-9185434D01*
X6433172Y-9047970D01*
X6547970Y-8933172D01*
X6685434Y-8846798D01*
X6838672Y-8793177D01*
X7000000Y-8775000D01*
X7161328Y-8793177D01*
G37*
G36*
X9161328Y-8793177D02*
G01*
X9314566Y-8846798D01*
X9452030Y-8933172D01*
X9566828Y-9047970D01*
X9653202Y-9185434D01*
X9706823Y-9338672D01*
X9725000Y-9500000D01*
X9706823Y-9661328D01*
X9653202Y-9814566D01*
X9566828Y-9952030D01*
X9452030Y-10066828D01*
X9314566Y-10153202D01*
X9161328Y-10206823D01*
X9000000Y-10225000D01*
X8838672Y-10206823D01*
X8685434Y-10153202D01*
X8547970Y-10066828D01*
X8433172Y-9952030D01*
X8346798Y-9814566D01*
X8293177Y-9661328D01*
X8275000Y-9500000D01*
X8293177Y-9338672D01*
X8346798Y-9185434D01*
X8433172Y-9047970D01*
X8547970Y-8933172D01*
X8685434Y-8846798D01*
X8838672Y-8793177D01*
X9000000Y-8775000D01*
X9161328Y-8793177D01*
G37*
G36*
X22762664Y-7891602D02*
G01*
X22925000Y-7963878D01*
X23068761Y-8068327D01*
X23187664Y-8200383D01*
X23276514Y-8354274D01*
X23331425Y-8523275D01*
X23350000Y-8700000D01*
X23331425Y-8876725D01*
X23276514Y-9045726D01*
X23187664Y-9199617D01*
X23068761Y-9331673D01*
X22925000Y-9436122D01*
X22762664Y-9508398D01*
X22588849Y-9545344D01*
X22411151Y-9545344D01*
X22237336Y-9508398D01*
X22075000Y-9436122D01*
X21931239Y-9331673D01*
X21812336Y-9199617D01*
X21723486Y-9045726D01*
X21668575Y-8876725D01*
X21650000Y-8700000D01*
X21668575Y-8523275D01*
X21723486Y-8354274D01*
X21812336Y-8200383D01*
X21931239Y-8068327D01*
X22075000Y-7963878D01*
X22237336Y-7891602D01*
X22411151Y-7854656D01*
X22588849Y-7854656D01*
X22762664Y-7891602D01*
G37*
G36*
X7161328Y-6793177D02*
G01*
X7314566Y-6846798D01*
X7452030Y-6933172D01*
X7566828Y-7047970D01*
X7653202Y-7185434D01*
X7706823Y-7338672D01*
X7725000Y-7500000D01*
X7706823Y-7661328D01*
X7653202Y-7814566D01*
X7566828Y-7952030D01*
X7452030Y-8066828D01*
X7314566Y-8153202D01*
X7161328Y-8206823D01*
X7000000Y-8225000D01*
X6838672Y-8206823D01*
X6685434Y-8153202D01*
X6547970Y-8066828D01*
X6433172Y-7952030D01*
X6346798Y-7814566D01*
X6293177Y-7661328D01*
X6275000Y-7500000D01*
X6293177Y-7338672D01*
X6346798Y-7185434D01*
X6433172Y-7047970D01*
X6547970Y-6933172D01*
X6685434Y-6846798D01*
X6838672Y-6793177D01*
X7000000Y-6775000D01*
X7161328Y-6793177D01*
G37*
G36*
X9694134Y-6778806D02*
G01*
X9710355Y-6789645D01*
X9721194Y-6805866D01*
X9725000Y-6825000D01*
X9725000Y-8175000D01*
X9721194Y-8194134D01*
X9710355Y-8210355D01*
X9694134Y-8221194D01*
X9675000Y-8225000D01*
X8325000Y-8225000D01*
X8305866Y-8221194D01*
X8289645Y-8210355D01*
X8278806Y-8194134D01*
X8275000Y-8175000D01*
X8275000Y-6825000D01*
X8278806Y-6805866D01*
X8289645Y-6789645D01*
X8305866Y-6778806D01*
X8325000Y-6775000D01*
X9675000Y-6775000D01*
X9694134Y-6778806D01*
G37*
G36*
X22762664Y-4291602D02*
G01*
X22925000Y-4363878D01*
X23068761Y-4468327D01*
X23187664Y-4600383D01*
X23276514Y-4754274D01*
X23331425Y-4923275D01*
X23350000Y-5100000D01*
X23331425Y-5276725D01*
X23276514Y-5445726D01*
X23187664Y-5599617D01*
X23068761Y-5731673D01*
X22925000Y-5836122D01*
X22762664Y-5908398D01*
X22588849Y-5945344D01*
X22411151Y-5945344D01*
X22237336Y-5908398D01*
X22075000Y-5836122D01*
X21931239Y-5731673D01*
X21812336Y-5599617D01*
X21723486Y-5445726D01*
X21668575Y-5276725D01*
X21650000Y-5100000D01*
X21668575Y-4923275D01*
X21723486Y-4754274D01*
X21812336Y-4600383D01*
X21931239Y-4468327D01*
X22075000Y-4363878D01*
X22237336Y-4291602D01*
X22411151Y-4254656D01*
X22588849Y-4254656D01*
X22762664Y-4291602D01*
G37*
G36*
X23118685Y-657969D02*
G01*
X23127893Y-662034D01*
X23134724Y-663030D01*
X23177422Y-683903D01*
X23219541Y-702501D01*
X23223441Y-706401D01*
X23223801Y-706577D01*
X23293422Y-776198D01*
X23293597Y-776557D01*
X23297499Y-780459D01*
X23316100Y-822588D01*
X23336969Y-865275D01*
X23337963Y-872103D01*
X23342031Y-881315D01*
X23350000Y-950000D01*
X23350000Y-2050000D01*
X23342031Y-2118685D01*
X23337963Y-2127896D01*
X23336969Y-2134724D01*
X23316105Y-2177401D01*
X23297499Y-2219541D01*
X23293597Y-2223442D01*
X23293422Y-2223801D01*
X23223801Y-2293422D01*
X23223442Y-2293597D01*
X23219541Y-2297499D01*
X23177401Y-2316105D01*
X23134724Y-2336969D01*
X23127896Y-2337963D01*
X23118685Y-2342031D01*
X23050000Y-2350000D01*
X21950000Y-2350000D01*
X21881315Y-2342031D01*
X21872103Y-2337963D01*
X21865275Y-2336969D01*
X21822588Y-2316100D01*
X21780459Y-2297499D01*
X21776557Y-2293597D01*
X21776198Y-2293422D01*
X21706577Y-2223801D01*
X21706401Y-2223441D01*
X21702501Y-2219541D01*
X21683903Y-2177422D01*
X21663030Y-2134724D01*
X21662034Y-2127893D01*
X21657969Y-2118685D01*
X21650000Y-2050000D01*
X21650000Y-950000D01*
X21657969Y-881315D01*
X21662034Y-872107D01*
X21663030Y-865275D01*
X21683908Y-822567D01*
X21702501Y-780459D01*
X21706400Y-776559D01*
X21706577Y-776198D01*
X21776198Y-706577D01*
X21776559Y-706400D01*
X21780459Y-702501D01*
X21822567Y-683908D01*
X21865275Y-663030D01*
X21872107Y-662034D01*
X21881315Y-657969D01*
X21950000Y-650000D01*
X23050000Y-650000D01*
X23118685Y-657969D01*
G37*
M02*
