%TF.GenerationSoftware,KiCad,Pcbnew,7.0.7*%
%TF.CreationDate,2023-11-14T13:36:37+13:00*%
%TF.ProjectId,probeDaughterBoard,70726f62-6544-4617-9567-68746572426f,rev?*%
%TF.SameCoordinates,Original*%
%TF.FileFunction,Soldermask,Top*%
%TF.FilePolarity,Negative*%
%FSLAX46Y46*%
G04 Gerber Fmt 4.6, Leading zero omitted, Abs format (unit mm)*
G04 Created by KiCad (PCBNEW 7.0.7) date 2023-11-14 13:36:37*
%MOMM*%
%LPD*%
G01*
G04 APERTURE LIST*
G04 APERTURE END LIST*
G36*
X22762664Y-18691602D02*
G01*
X22925000Y-18763878D01*
X23068761Y-18868327D01*
X23187664Y-19000383D01*
X23276514Y-19154274D01*
X23331425Y-19323275D01*
X23350000Y-19500000D01*
X23331425Y-19676725D01*
X23276514Y-19845726D01*
X23187664Y-19999617D01*
X23068761Y-20131673D01*
X22925000Y-20236122D01*
X22762664Y-20308398D01*
X22588849Y-20345344D01*
X22411151Y-20345344D01*
X22237336Y-20308398D01*
X22075000Y-20236122D01*
X21931239Y-20131673D01*
X21812336Y-19999617D01*
X21723486Y-19845726D01*
X21668575Y-19676725D01*
X21650000Y-19500000D01*
X21668575Y-19323275D01*
X21723486Y-19154274D01*
X21812336Y-19000383D01*
X21931239Y-18868327D01*
X22075000Y-18763878D01*
X22237336Y-18691602D01*
X22411151Y-18654656D01*
X22588849Y-18654656D01*
X22762664Y-18691602D01*
G37*
G36*
X17553484Y-18750005D02*
G01*
X17583763Y-18770237D01*
X17603995Y-18800516D01*
X17611099Y-18836234D01*
X17611100Y-20199567D01*
X17603995Y-20235284D01*
X17583763Y-20265563D01*
X17553484Y-20285795D01*
X17517766Y-20292899D01*
X17511370Y-20292899D01*
X17511366Y-20292900D01*
X17350834Y-20292900D01*
X17350833Y-20292899D01*
X17344433Y-20292900D01*
X17308716Y-20285795D01*
X17278437Y-20265563D01*
X17258205Y-20235284D01*
X17251101Y-20199566D01*
X17251100Y-20193171D01*
X17251100Y-20193166D01*
X17251100Y-18842633D01*
X17251100Y-18842632D01*
X17251100Y-18836233D01*
X17258205Y-18800516D01*
X17278437Y-18770237D01*
X17308716Y-18750005D01*
X17344434Y-18742901D01*
X17350829Y-18742900D01*
X17350834Y-18742900D01*
X17511366Y-18742900D01*
X17517767Y-18742900D01*
X17553484Y-18750005D01*
G37*
G36*
X18053357Y-18750005D02*
G01*
X18083636Y-18770237D01*
X18103868Y-18800516D01*
X18110972Y-18836234D01*
X18110972Y-18842627D01*
X18110973Y-18842633D01*
X18110973Y-19565385D01*
X18110973Y-20199567D01*
X18103868Y-20235284D01*
X18083636Y-20265563D01*
X18053357Y-20285795D01*
X18017639Y-20292899D01*
X18011243Y-20292899D01*
X18011239Y-20292900D01*
X17850707Y-20292900D01*
X17850706Y-20292899D01*
X17844306Y-20292900D01*
X17808589Y-20285795D01*
X17778310Y-20265563D01*
X17758078Y-20235284D01*
X17750974Y-20199566D01*
X17750973Y-20193171D01*
X17750973Y-20193166D01*
X17750973Y-18842633D01*
X17750973Y-18842632D01*
X17750973Y-18836233D01*
X17758078Y-18800516D01*
X17778310Y-18770237D01*
X17808589Y-18750005D01*
X17844307Y-18742901D01*
X17850702Y-18742900D01*
X17850707Y-18742900D01*
X18011239Y-18742900D01*
X18017640Y-18742900D01*
X18053357Y-18750005D01*
G37*
G36*
X18553484Y-18750005D02*
G01*
X18583763Y-18770237D01*
X18603995Y-18800516D01*
X18611099Y-18836234D01*
X18611100Y-20199567D01*
X18603995Y-20235284D01*
X18583763Y-20265563D01*
X18553484Y-20285795D01*
X18517766Y-20292899D01*
X18511370Y-20292899D01*
X18511366Y-20292900D01*
X18350834Y-20292900D01*
X18350833Y-20292899D01*
X18344433Y-20292900D01*
X18308716Y-20285795D01*
X18278437Y-20265563D01*
X18258205Y-20235284D01*
X18251101Y-20199566D01*
X18251100Y-20193176D01*
X18251099Y-20193166D01*
X18251099Y-18842633D01*
X18251100Y-18842627D01*
X18251100Y-18836233D01*
X18258205Y-18800516D01*
X18278437Y-18770237D01*
X18308716Y-18750005D01*
X18344434Y-18742901D01*
X18350829Y-18742900D01*
X18350834Y-18742900D01*
X18511366Y-18742900D01*
X18517767Y-18742900D01*
X18553484Y-18750005D01*
G37*
G36*
X19053357Y-18750005D02*
G01*
X19083636Y-18770237D01*
X19103868Y-18800516D01*
X19110972Y-18836234D01*
X19110972Y-18842627D01*
X19110973Y-18842633D01*
X19110973Y-19565385D01*
X19110973Y-20199567D01*
X19103868Y-20235284D01*
X19083636Y-20265563D01*
X19053357Y-20285795D01*
X19017639Y-20292899D01*
X19011243Y-20292899D01*
X19011239Y-20292900D01*
X18850707Y-20292900D01*
X18850706Y-20292899D01*
X18844306Y-20292900D01*
X18808589Y-20285795D01*
X18778310Y-20265563D01*
X18758078Y-20235284D01*
X18750974Y-20199566D01*
X18750973Y-20193171D01*
X18750973Y-20193166D01*
X18750973Y-18842633D01*
X18750973Y-18842632D01*
X18750973Y-18836233D01*
X18758078Y-18800516D01*
X18778310Y-18770237D01*
X18808589Y-18750005D01*
X18844307Y-18742901D01*
X18850702Y-18742900D01*
X18850707Y-18742900D01*
X19011239Y-18742900D01*
X19017640Y-18742900D01*
X19053357Y-18750005D01*
G37*
G36*
X19553484Y-18750005D02*
G01*
X19583763Y-18770237D01*
X19603995Y-18800516D01*
X19611099Y-18836234D01*
X19611100Y-20199567D01*
X19603995Y-20235284D01*
X19583763Y-20265563D01*
X19553484Y-20285795D01*
X19517766Y-20292899D01*
X19511370Y-20292899D01*
X19511366Y-20292900D01*
X19350834Y-20292900D01*
X19350833Y-20292899D01*
X19344433Y-20292900D01*
X19308716Y-20285795D01*
X19278437Y-20265563D01*
X19258205Y-20235284D01*
X19251101Y-20199566D01*
X19251100Y-20193176D01*
X19251099Y-20193166D01*
X19251099Y-18842633D01*
X19251100Y-18842627D01*
X19251100Y-18836233D01*
X19258205Y-18800516D01*
X19278437Y-18770237D01*
X19308716Y-18750005D01*
X19344434Y-18742901D01*
X19350829Y-18742900D01*
X19350834Y-18742900D01*
X19511366Y-18742900D01*
X19517767Y-18742900D01*
X19553484Y-18750005D01*
G37*
G36*
X13824285Y-18304669D02*
G01*
X13833493Y-18308734D01*
X13840324Y-18309730D01*
X13883022Y-18330603D01*
X13925141Y-18349201D01*
X13929041Y-18353101D01*
X13929401Y-18353277D01*
X13999022Y-18422898D01*
X13999197Y-18423257D01*
X14003099Y-18427159D01*
X14021700Y-18469288D01*
X14042569Y-18511975D01*
X14043563Y-18518803D01*
X14047631Y-18528015D01*
X14055600Y-18596700D01*
X14055600Y-19496700D01*
X14047631Y-19565385D01*
X14043563Y-19574596D01*
X14042569Y-19581424D01*
X14021705Y-19624101D01*
X14003099Y-19666241D01*
X13999197Y-19670142D01*
X13999022Y-19670501D01*
X13929401Y-19740122D01*
X13929042Y-19740297D01*
X13925141Y-19744199D01*
X13883001Y-19762805D01*
X13840324Y-19783669D01*
X13833496Y-19784663D01*
X13824285Y-19788731D01*
X13755600Y-19796700D01*
X13230600Y-19796700D01*
X13161915Y-19788731D01*
X13152703Y-19784663D01*
X13145875Y-19783669D01*
X13103188Y-19762800D01*
X13061059Y-19744199D01*
X13057157Y-19740297D01*
X13056798Y-19740122D01*
X12987177Y-19670501D01*
X12987001Y-19670141D01*
X12983101Y-19666241D01*
X12964503Y-19624122D01*
X12943630Y-19581424D01*
X12942634Y-19574593D01*
X12938569Y-19565385D01*
X12930600Y-19496700D01*
X12930600Y-18596700D01*
X12938569Y-18528015D01*
X12942634Y-18518807D01*
X12943630Y-18511975D01*
X12964508Y-18469267D01*
X12983101Y-18427159D01*
X12987000Y-18423259D01*
X12987177Y-18422898D01*
X13056798Y-18353277D01*
X13057159Y-18353100D01*
X13061059Y-18349201D01*
X13103167Y-18330608D01*
X13145875Y-18309730D01*
X13152707Y-18308734D01*
X13161915Y-18304669D01*
X13230600Y-18296700D01*
X13755600Y-18296700D01*
X13824285Y-18304669D01*
G37*
G36*
X15649285Y-18304669D02*
G01*
X15658493Y-18308734D01*
X15665324Y-18309730D01*
X15708022Y-18330603D01*
X15750141Y-18349201D01*
X15754041Y-18353101D01*
X15754401Y-18353277D01*
X15824022Y-18422898D01*
X15824197Y-18423257D01*
X15828099Y-18427159D01*
X15846700Y-18469288D01*
X15867569Y-18511975D01*
X15868563Y-18518803D01*
X15872631Y-18528015D01*
X15880600Y-18596700D01*
X15880600Y-19496700D01*
X15872631Y-19565385D01*
X15868563Y-19574596D01*
X15867569Y-19581424D01*
X15846705Y-19624101D01*
X15828099Y-19666241D01*
X15824197Y-19670142D01*
X15824022Y-19670501D01*
X15754401Y-19740122D01*
X15754042Y-19740297D01*
X15750141Y-19744199D01*
X15708001Y-19762805D01*
X15665324Y-19783669D01*
X15658496Y-19784663D01*
X15649285Y-19788731D01*
X15580600Y-19796700D01*
X15055600Y-19796700D01*
X14986915Y-19788731D01*
X14977703Y-19784663D01*
X14970875Y-19783669D01*
X14928188Y-19762800D01*
X14886059Y-19744199D01*
X14882157Y-19740297D01*
X14881798Y-19740122D01*
X14812177Y-19670501D01*
X14812001Y-19670141D01*
X14808101Y-19666241D01*
X14789503Y-19624122D01*
X14768630Y-19581424D01*
X14767634Y-19574593D01*
X14763569Y-19565385D01*
X14755600Y-19496700D01*
X14755600Y-18596700D01*
X14763569Y-18528015D01*
X14767634Y-18518807D01*
X14768630Y-18511975D01*
X14789508Y-18469267D01*
X14808101Y-18427159D01*
X14812000Y-18423259D01*
X14812177Y-18422898D01*
X14881798Y-18353277D01*
X14882159Y-18353100D01*
X14886059Y-18349201D01*
X14928167Y-18330608D01*
X14970875Y-18309730D01*
X14977707Y-18308734D01*
X14986915Y-18304669D01*
X15055600Y-18296700D01*
X15580600Y-18296700D01*
X15649285Y-18304669D01*
G37*
G36*
X2095796Y-18444082D02*
G01*
X2155815Y-18484185D01*
X2195918Y-18544204D01*
X2210000Y-18615000D01*
X2210000Y-18985000D01*
X2195918Y-19055796D01*
X2155815Y-19115815D01*
X2095796Y-19155918D01*
X2025000Y-19170000D01*
X1755000Y-19170000D01*
X1684204Y-19155918D01*
X1624185Y-19115815D01*
X1584082Y-19055796D01*
X1570000Y-18985000D01*
X1570000Y-18615000D01*
X1584082Y-18544204D01*
X1624185Y-18484185D01*
X1684204Y-18444082D01*
X1755000Y-18430000D01*
X2025000Y-18430000D01*
X2095796Y-18444082D01*
G37*
G36*
X3115796Y-18444082D02*
G01*
X3175815Y-18484185D01*
X3215918Y-18544204D01*
X3230000Y-18615000D01*
X3230000Y-18985000D01*
X3215918Y-19055796D01*
X3175815Y-19115815D01*
X3115796Y-19155918D01*
X3045000Y-19170000D01*
X2775000Y-19170000D01*
X2704204Y-19155918D01*
X2644185Y-19115815D01*
X2604082Y-19055796D01*
X2590000Y-18985000D01*
X2590000Y-18615000D01*
X2604082Y-18544204D01*
X2644185Y-18484185D01*
X2704204Y-18444082D01*
X2775000Y-18430000D01*
X3045000Y-18430000D01*
X3115796Y-18444082D01*
G37*
G36*
X4095796Y-18444082D02*
G01*
X4155815Y-18484185D01*
X4195918Y-18544204D01*
X4210000Y-18615000D01*
X4210000Y-18985000D01*
X4195918Y-19055796D01*
X4155815Y-19115815D01*
X4095796Y-19155918D01*
X4025000Y-19170000D01*
X3755000Y-19170000D01*
X3684204Y-19155918D01*
X3624185Y-19115815D01*
X3584082Y-19055796D01*
X3570000Y-18985000D01*
X3570000Y-18615000D01*
X3584082Y-18544204D01*
X3624185Y-18484185D01*
X3684204Y-18444082D01*
X3755000Y-18430000D01*
X4025000Y-18430000D01*
X4095796Y-18444082D01*
G37*
G36*
X5115796Y-18444082D02*
G01*
X5175815Y-18484185D01*
X5215918Y-18544204D01*
X5230000Y-18615000D01*
X5230000Y-18985000D01*
X5215918Y-19055796D01*
X5175815Y-19115815D01*
X5115796Y-19155918D01*
X5045000Y-19170000D01*
X4775000Y-19170000D01*
X4704204Y-19155918D01*
X4644185Y-19115815D01*
X4604082Y-19055796D01*
X4590000Y-18985000D01*
X4590000Y-18615000D01*
X4604082Y-18544204D01*
X4644185Y-18484185D01*
X4704204Y-18444082D01*
X4775000Y-18430000D01*
X5045000Y-18430000D01*
X5115796Y-18444082D01*
G37*
G36*
X20760896Y-17634882D02*
G01*
X20820915Y-17674985D01*
X20861018Y-17735004D01*
X20875100Y-17805800D01*
X20875100Y-18075800D01*
X20861018Y-18146596D01*
X20820915Y-18206615D01*
X20760896Y-18246718D01*
X20690100Y-18260800D01*
X20320100Y-18260800D01*
X20249304Y-18246718D01*
X20189285Y-18206615D01*
X20149182Y-18146596D01*
X20135100Y-18075800D01*
X20135100Y-17805800D01*
X20149182Y-17735004D01*
X20189285Y-17674985D01*
X20249304Y-17634882D01*
X20320100Y-17620800D01*
X20690100Y-17620800D01*
X20760896Y-17634882D01*
G37*
G36*
X1752403Y-16386418D02*
G01*
X1801066Y-16418934D01*
X1833582Y-16467597D01*
X1845000Y-16525000D01*
X1845000Y-17875000D01*
X1833582Y-17932403D01*
X1801066Y-17981066D01*
X1752403Y-18013582D01*
X1695000Y-18025000D01*
X1295000Y-18025000D01*
X1237597Y-18013582D01*
X1188934Y-17981066D01*
X1156418Y-17932403D01*
X1145000Y-17875000D01*
X1145000Y-16525000D01*
X1156418Y-16467597D01*
X1188934Y-16418934D01*
X1237597Y-16386418D01*
X1295000Y-16375000D01*
X1695000Y-16375000D01*
X1752403Y-16386418D01*
G37*
G36*
X3022403Y-16386418D02*
G01*
X3071066Y-16418934D01*
X3103582Y-16467597D01*
X3115000Y-16525000D01*
X3115000Y-17875000D01*
X3103582Y-17932403D01*
X3071066Y-17981066D01*
X3022403Y-18013582D01*
X2965000Y-18025000D01*
X2565000Y-18025000D01*
X2507597Y-18013582D01*
X2458934Y-17981066D01*
X2426418Y-17932403D01*
X2415000Y-17875000D01*
X2415000Y-16525000D01*
X2426418Y-16467597D01*
X2458934Y-16418934D01*
X2507597Y-16386418D01*
X2565000Y-16375000D01*
X2965000Y-16375000D01*
X3022403Y-16386418D01*
G37*
G36*
X4292403Y-16386418D02*
G01*
X4341066Y-16418934D01*
X4373582Y-16467597D01*
X4385000Y-16525000D01*
X4385000Y-17875000D01*
X4373582Y-17932403D01*
X4341066Y-17981066D01*
X4292403Y-18013582D01*
X4235000Y-18025000D01*
X3835000Y-18025000D01*
X3777597Y-18013582D01*
X3728934Y-17981066D01*
X3696418Y-17932403D01*
X3685000Y-17875000D01*
X3685000Y-16525000D01*
X3696418Y-16467597D01*
X3728934Y-16418934D01*
X3777597Y-16386418D01*
X3835000Y-16375000D01*
X4235000Y-16375000D01*
X4292403Y-16386418D01*
G37*
G36*
X5562403Y-16386418D02*
G01*
X5611066Y-16418934D01*
X5643582Y-16467597D01*
X5655000Y-16525000D01*
X5655000Y-17875000D01*
X5643582Y-17932403D01*
X5611066Y-17981066D01*
X5562403Y-18013582D01*
X5505000Y-18025000D01*
X5105000Y-18025000D01*
X5047597Y-18013582D01*
X4998934Y-17981066D01*
X4966418Y-17932403D01*
X4955000Y-17875000D01*
X4955000Y-16525000D01*
X4966418Y-16467597D01*
X4998934Y-16418934D01*
X5047597Y-16386418D01*
X5105000Y-16375000D01*
X5505000Y-16375000D01*
X5562403Y-16386418D01*
G37*
G36*
X15342496Y-17220282D02*
G01*
X15402515Y-17260385D01*
X15442618Y-17320404D01*
X15456700Y-17391200D01*
X15456700Y-17661200D01*
X15442618Y-17731996D01*
X15402515Y-17792015D01*
X15342496Y-17832118D01*
X15271700Y-17846200D01*
X14901700Y-17846200D01*
X14830904Y-17832118D01*
X14770885Y-17792015D01*
X14730782Y-17731996D01*
X14716700Y-17661200D01*
X14716700Y-17391200D01*
X14730782Y-17320404D01*
X14770885Y-17260385D01*
X14830904Y-17220282D01*
X14901700Y-17206200D01*
X15271700Y-17206200D01*
X15342496Y-17220282D01*
G37*
G36*
X11640096Y-16805382D02*
G01*
X11700115Y-16845485D01*
X11740218Y-16905504D01*
X11754300Y-16976300D01*
X11754300Y-17246300D01*
X11740218Y-17317096D01*
X11700115Y-17377115D01*
X11640096Y-17417218D01*
X11569300Y-17431300D01*
X11199300Y-17431300D01*
X11128504Y-17417218D01*
X11068485Y-17377115D01*
X11028382Y-17317096D01*
X11014300Y-17246300D01*
X11014300Y-16976300D01*
X11028382Y-16905504D01*
X11068485Y-16845485D01*
X11128504Y-16805382D01*
X11199300Y-16791300D01*
X11569300Y-16791300D01*
X11640096Y-16805382D01*
G37*
G36*
X13231296Y-16600082D02*
G01*
X13291315Y-16640185D01*
X13331418Y-16700204D01*
X13345500Y-16771000D01*
X13345500Y-17141000D01*
X13331418Y-17211796D01*
X13291315Y-17271815D01*
X13231296Y-17311918D01*
X13160500Y-17326000D01*
X12890500Y-17326000D01*
X12819704Y-17311918D01*
X12759685Y-17271815D01*
X12719582Y-17211796D01*
X12705500Y-17141000D01*
X12705500Y-16771000D01*
X12719582Y-16700204D01*
X12759685Y-16640185D01*
X12819704Y-16600082D01*
X12890500Y-16586000D01*
X13160500Y-16586000D01*
X13231296Y-16600082D01*
G37*
G36*
X14251296Y-16600082D02*
G01*
X14311315Y-16640185D01*
X14351418Y-16700204D01*
X14365500Y-16771000D01*
X14365500Y-17141000D01*
X14351418Y-17211796D01*
X14311315Y-17271815D01*
X14251296Y-17311918D01*
X14180500Y-17326000D01*
X13910500Y-17326000D01*
X13839704Y-17311918D01*
X13779685Y-17271815D01*
X13739582Y-17211796D01*
X13725500Y-17141000D01*
X13725500Y-16771000D01*
X13739582Y-16700204D01*
X13779685Y-16640185D01*
X13839704Y-16600082D01*
X13910500Y-16586000D01*
X14180500Y-16586000D01*
X14251296Y-16600082D01*
G37*
G36*
X20760896Y-16614882D02*
G01*
X20820915Y-16654985D01*
X20861018Y-16715004D01*
X20875100Y-16785800D01*
X20875100Y-17055800D01*
X20861018Y-17126596D01*
X20820915Y-17186615D01*
X20760896Y-17226718D01*
X20690100Y-17240800D01*
X20320100Y-17240800D01*
X20249304Y-17226718D01*
X20189285Y-17186615D01*
X20149182Y-17126596D01*
X20135100Y-17055800D01*
X20135100Y-16785800D01*
X20149182Y-16715004D01*
X20189285Y-16654985D01*
X20249304Y-16614882D01*
X20320100Y-16600800D01*
X20690100Y-16600800D01*
X20760896Y-16614882D01*
G37*
G36*
X16449096Y-16428982D02*
G01*
X16509115Y-16469085D01*
X16549218Y-16529104D01*
X16563300Y-16599900D01*
X16563300Y-16869900D01*
X16549218Y-16940696D01*
X16509115Y-17000715D01*
X16449096Y-17040818D01*
X16378300Y-17054900D01*
X16008300Y-17054900D01*
X15937504Y-17040818D01*
X15877485Y-17000715D01*
X15837382Y-16940696D01*
X15823300Y-16869900D01*
X15823300Y-16599900D01*
X15837382Y-16529104D01*
X15877485Y-16469085D01*
X15937504Y-16428982D01*
X16008300Y-16414900D01*
X16378300Y-16414900D01*
X16449096Y-16428982D01*
G37*
G36*
X10549596Y-16317382D02*
G01*
X10609615Y-16357485D01*
X10649718Y-16417504D01*
X10663800Y-16488300D01*
X10663800Y-16758300D01*
X10649718Y-16829096D01*
X10609615Y-16889115D01*
X10549596Y-16929218D01*
X10478800Y-16943300D01*
X10108800Y-16943300D01*
X10038004Y-16929218D01*
X9977985Y-16889115D01*
X9937882Y-16829096D01*
X9923800Y-16758300D01*
X9923800Y-16488300D01*
X9937882Y-16417504D01*
X9977985Y-16357485D01*
X10038004Y-16317382D01*
X10108800Y-16303300D01*
X10478800Y-16303300D01*
X10549596Y-16317382D01*
G37*
G36*
X15342496Y-16200282D02*
G01*
X15402515Y-16240385D01*
X15442618Y-16300404D01*
X15456700Y-16371200D01*
X15456700Y-16641200D01*
X15442618Y-16711996D01*
X15402515Y-16772015D01*
X15342496Y-16812118D01*
X15271700Y-16826200D01*
X14901700Y-16826200D01*
X14830904Y-16812118D01*
X14770885Y-16772015D01*
X14730782Y-16711996D01*
X14716700Y-16641200D01*
X14716700Y-16371200D01*
X14730782Y-16300404D01*
X14770885Y-16240385D01*
X14830904Y-16200282D01*
X14901700Y-16186200D01*
X15271700Y-16186200D01*
X15342496Y-16200282D01*
G37*
G36*
X22762664Y-15091602D02*
G01*
X22925000Y-15163878D01*
X23068761Y-15268327D01*
X23187664Y-15400383D01*
X23276514Y-15554274D01*
X23331425Y-15723275D01*
X23350000Y-15900000D01*
X23331425Y-16076725D01*
X23276514Y-16245726D01*
X23187664Y-16399617D01*
X23068761Y-16531673D01*
X22925000Y-16636122D01*
X22762664Y-16708398D01*
X22588849Y-16745344D01*
X22411151Y-16745344D01*
X22237336Y-16708398D01*
X22075000Y-16636122D01*
X21931239Y-16531673D01*
X21812336Y-16399617D01*
X21723486Y-16245726D01*
X21668575Y-16076725D01*
X21650000Y-15900000D01*
X21668575Y-15723275D01*
X21723486Y-15554274D01*
X21812336Y-15400383D01*
X21931239Y-15268327D01*
X22075000Y-15163878D01*
X22237336Y-15091602D01*
X22411151Y-15054656D01*
X22588849Y-15054656D01*
X22762664Y-15091602D01*
G37*
G36*
X11640096Y-15785382D02*
G01*
X11700115Y-15825485D01*
X11740218Y-15885504D01*
X11754300Y-15956300D01*
X11754300Y-16226300D01*
X11740218Y-16297096D01*
X11700115Y-16357115D01*
X11640096Y-16397218D01*
X11569300Y-16411300D01*
X11199300Y-16411300D01*
X11128504Y-16397218D01*
X11068485Y-16357115D01*
X11028382Y-16297096D01*
X11014300Y-16226300D01*
X11014300Y-15956300D01*
X11028382Y-15885504D01*
X11068485Y-15825485D01*
X11128504Y-15785382D01*
X11199300Y-15771300D01*
X11569300Y-15771300D01*
X11640096Y-15785382D01*
G37*
G36*
X9459096Y-15594482D02*
G01*
X9519115Y-15634585D01*
X9559218Y-15694604D01*
X9573300Y-15765400D01*
X9573300Y-16035400D01*
X9559218Y-16106196D01*
X9519115Y-16166215D01*
X9459096Y-16206318D01*
X9388300Y-16220400D01*
X9018300Y-16220400D01*
X8947504Y-16206318D01*
X8887485Y-16166215D01*
X8847382Y-16106196D01*
X8833300Y-16035400D01*
X8833300Y-15765400D01*
X8847382Y-15694604D01*
X8887485Y-15634585D01*
X8947504Y-15594482D01*
X9018300Y-15580400D01*
X9388300Y-15580400D01*
X9459096Y-15594482D01*
G37*
G36*
X16449096Y-15408982D02*
G01*
X16509115Y-15449085D01*
X16549218Y-15509104D01*
X16563300Y-15579900D01*
X16563300Y-15849900D01*
X16549218Y-15920696D01*
X16509115Y-15980715D01*
X16449096Y-16020818D01*
X16378300Y-16034900D01*
X16008300Y-16034900D01*
X15937504Y-16020818D01*
X15877485Y-15980715D01*
X15837382Y-15920696D01*
X15823300Y-15849900D01*
X15823300Y-15579900D01*
X15837382Y-15509104D01*
X15877485Y-15449085D01*
X15937504Y-15408982D01*
X16008300Y-15394900D01*
X16378300Y-15394900D01*
X16449096Y-15408982D01*
G37*
G36*
X12853196Y-15234582D02*
G01*
X12913215Y-15274685D01*
X12953318Y-15334704D01*
X12967400Y-15405500D01*
X12967400Y-15775500D01*
X12953318Y-15846296D01*
X12913215Y-15906315D01*
X12853196Y-15946418D01*
X12782400Y-15960500D01*
X12512400Y-15960500D01*
X12441604Y-15946418D01*
X12381585Y-15906315D01*
X12341482Y-15846296D01*
X12327400Y-15775500D01*
X12327400Y-15405500D01*
X12341482Y-15334704D01*
X12381585Y-15274685D01*
X12441604Y-15234582D01*
X12512400Y-15220500D01*
X12782400Y-15220500D01*
X12853196Y-15234582D01*
G37*
G36*
X13873196Y-15234582D02*
G01*
X13933215Y-15274685D01*
X13973318Y-15334704D01*
X13987400Y-15405500D01*
X13987400Y-15775500D01*
X13973318Y-15846296D01*
X13933215Y-15906315D01*
X13873196Y-15946418D01*
X13802400Y-15960500D01*
X13532400Y-15960500D01*
X13461604Y-15946418D01*
X13401585Y-15906315D01*
X13361482Y-15846296D01*
X13347400Y-15775500D01*
X13347400Y-15405500D01*
X13361482Y-15334704D01*
X13401585Y-15274685D01*
X13461604Y-15234582D01*
X13532400Y-15220500D01*
X13802400Y-15220500D01*
X13873196Y-15234582D01*
G37*
G36*
X10549596Y-15297382D02*
G01*
X10609615Y-15337485D01*
X10649718Y-15397504D01*
X10663800Y-15468300D01*
X10663800Y-15738300D01*
X10649718Y-15809096D01*
X10609615Y-15869115D01*
X10549596Y-15909218D01*
X10478800Y-15923300D01*
X10108800Y-15923300D01*
X10038004Y-15909218D01*
X9977985Y-15869115D01*
X9937882Y-15809096D01*
X9923800Y-15738300D01*
X9923800Y-15468300D01*
X9937882Y-15397504D01*
X9977985Y-15337485D01*
X10038004Y-15297382D01*
X10108800Y-15283300D01*
X10478800Y-15283300D01*
X10549596Y-15297382D01*
G37*
G36*
X17553484Y-14350005D02*
G01*
X17583763Y-14370237D01*
X17603995Y-14400516D01*
X17611099Y-14436234D01*
X17611100Y-15799567D01*
X17603995Y-15835284D01*
X17583763Y-15865563D01*
X17553484Y-15885795D01*
X17517766Y-15892899D01*
X17511370Y-15892899D01*
X17511366Y-15892900D01*
X17350834Y-15892900D01*
X17350833Y-15892899D01*
X17344433Y-15892900D01*
X17308716Y-15885795D01*
X17278437Y-15865563D01*
X17258205Y-15835284D01*
X17251101Y-15799566D01*
X17251100Y-15793171D01*
X17251100Y-15793166D01*
X17251100Y-14442633D01*
X17251100Y-14442632D01*
X17251100Y-14436233D01*
X17258205Y-14400516D01*
X17278437Y-14370237D01*
X17308716Y-14350005D01*
X17344434Y-14342901D01*
X17350829Y-14342900D01*
X17350834Y-14342900D01*
X17511366Y-14342900D01*
X17517767Y-14342900D01*
X17553484Y-14350005D01*
G37*
G36*
X18053357Y-14350005D02*
G01*
X18083636Y-14370237D01*
X18103868Y-14400516D01*
X18110972Y-14436234D01*
X18110972Y-14442627D01*
X18110973Y-14442633D01*
X18110973Y-15145314D01*
X18110973Y-15799567D01*
X18103868Y-15835284D01*
X18083636Y-15865563D01*
X18053357Y-15885795D01*
X18017639Y-15892899D01*
X18011243Y-15892899D01*
X18011239Y-15892900D01*
X17850707Y-15892900D01*
X17850706Y-15892899D01*
X17844306Y-15892900D01*
X17808589Y-15885795D01*
X17778310Y-15865563D01*
X17758078Y-15835284D01*
X17750974Y-15799566D01*
X17750973Y-15793171D01*
X17750973Y-15793166D01*
X17750973Y-14442633D01*
X17750973Y-14442632D01*
X17750973Y-14436233D01*
X17758078Y-14400516D01*
X17778310Y-14370237D01*
X17808589Y-14350005D01*
X17844307Y-14342901D01*
X17850702Y-14342900D01*
X17850707Y-14342900D01*
X18011239Y-14342900D01*
X18017640Y-14342900D01*
X18053357Y-14350005D01*
G37*
G36*
X18553484Y-14350005D02*
G01*
X18583763Y-14370237D01*
X18603995Y-14400516D01*
X18611099Y-14436234D01*
X18611100Y-15799567D01*
X18603995Y-15835284D01*
X18583763Y-15865563D01*
X18553484Y-15885795D01*
X18517766Y-15892899D01*
X18511370Y-15892899D01*
X18511366Y-15892900D01*
X18350834Y-15892900D01*
X18350833Y-15892899D01*
X18344433Y-15892900D01*
X18308716Y-15885795D01*
X18278437Y-15865563D01*
X18258205Y-15835284D01*
X18251101Y-15799566D01*
X18251100Y-15793176D01*
X18251099Y-15793166D01*
X18251099Y-14442633D01*
X18251100Y-14442627D01*
X18251100Y-14436233D01*
X18258205Y-14400516D01*
X18278437Y-14370237D01*
X18308716Y-14350005D01*
X18344434Y-14342901D01*
X18350829Y-14342900D01*
X18350834Y-14342900D01*
X18511366Y-14342900D01*
X18517767Y-14342900D01*
X18553484Y-14350005D01*
G37*
G36*
X19053357Y-14350005D02*
G01*
X19083636Y-14370237D01*
X19103868Y-14400516D01*
X19110972Y-14436234D01*
X19110972Y-14442627D01*
X19110973Y-14442633D01*
X19110973Y-15145314D01*
X19110973Y-15799567D01*
X19103868Y-15835284D01*
X19083636Y-15865563D01*
X19053357Y-15885795D01*
X19017639Y-15892899D01*
X19011243Y-15892899D01*
X19011239Y-15892900D01*
X18850707Y-15892900D01*
X18850706Y-15892899D01*
X18844306Y-15892900D01*
X18808589Y-15885795D01*
X18778310Y-15865563D01*
X18758078Y-15835284D01*
X18750974Y-15799566D01*
X18750973Y-15793171D01*
X18750973Y-15793166D01*
X18750973Y-14442633D01*
X18750973Y-14442632D01*
X18750973Y-14436233D01*
X18758078Y-14400516D01*
X18778310Y-14370237D01*
X18808589Y-14350005D01*
X18844307Y-14342901D01*
X18850702Y-14342900D01*
X18850707Y-14342900D01*
X19011239Y-14342900D01*
X19017640Y-14342900D01*
X19053357Y-14350005D01*
G37*
G36*
X19553484Y-14350005D02*
G01*
X19583763Y-14370237D01*
X19603995Y-14400516D01*
X19611099Y-14436234D01*
X19611100Y-15799567D01*
X19603995Y-15835284D01*
X19583763Y-15865563D01*
X19553484Y-15885795D01*
X19517766Y-15892899D01*
X19511370Y-15892899D01*
X19511366Y-15892900D01*
X19350834Y-15892900D01*
X19350833Y-15892899D01*
X19344433Y-15892900D01*
X19308716Y-15885795D01*
X19278437Y-15865563D01*
X19258205Y-15835284D01*
X19251101Y-15799566D01*
X19251100Y-15793176D01*
X19251099Y-15793166D01*
X19251099Y-14442633D01*
X19251100Y-14442627D01*
X19251100Y-14436233D01*
X19258205Y-14400516D01*
X19278437Y-14370237D01*
X19308716Y-14350005D01*
X19344434Y-14342901D01*
X19350829Y-14342900D01*
X19350834Y-14342900D01*
X19511366Y-14342900D01*
X19517767Y-14342900D01*
X19553484Y-14350005D01*
G37*
G36*
X15055796Y-15204082D02*
G01*
X15115815Y-15244185D01*
X15155918Y-15304204D01*
X15170000Y-15375000D01*
X15170000Y-15645000D01*
X15155918Y-15715796D01*
X15115815Y-15775815D01*
X15055796Y-15815918D01*
X14985000Y-15830000D01*
X14615000Y-15830000D01*
X14544204Y-15815918D01*
X14484185Y-15775815D01*
X14444082Y-15715796D01*
X14430000Y-15645000D01*
X14430000Y-15375000D01*
X14444082Y-15304204D01*
X14484185Y-15244185D01*
X14544204Y-15204082D01*
X14615000Y-15190000D01*
X14985000Y-15190000D01*
X15055796Y-15204082D01*
G37*
G36*
X9459096Y-14574482D02*
G01*
X9519115Y-14614585D01*
X9559218Y-14674604D01*
X9573300Y-14745400D01*
X9573300Y-15015400D01*
X9559218Y-15086196D01*
X9519115Y-15146215D01*
X9459096Y-15186318D01*
X9388300Y-15200400D01*
X9018300Y-15200400D01*
X8947504Y-15186318D01*
X8887485Y-15146215D01*
X8847382Y-15086196D01*
X8833300Y-15015400D01*
X8833300Y-14745400D01*
X8847382Y-14674604D01*
X8887485Y-14614585D01*
X8947504Y-14574482D01*
X9018300Y-14560400D01*
X9388300Y-14560400D01*
X9459096Y-14574482D01*
G37*
G36*
X11195796Y-14144082D02*
G01*
X11255815Y-14184185D01*
X11295918Y-14244204D01*
X11310000Y-14315000D01*
X11310000Y-14685000D01*
X11295918Y-14755796D01*
X11255815Y-14815815D01*
X11195796Y-14855918D01*
X11125000Y-14870000D01*
X10855000Y-14870000D01*
X10784204Y-14855918D01*
X10724185Y-14815815D01*
X10684082Y-14755796D01*
X10670000Y-14685000D01*
X10670000Y-14315000D01*
X10684082Y-14244204D01*
X10724185Y-14184185D01*
X10784204Y-14144082D01*
X10855000Y-14130000D01*
X11125000Y-14130000D01*
X11195796Y-14144082D01*
G37*
G36*
X12215796Y-14144082D02*
G01*
X12275815Y-14184185D01*
X12315918Y-14244204D01*
X12330000Y-14315000D01*
X12330000Y-14685000D01*
X12315918Y-14755796D01*
X12275815Y-14815815D01*
X12215796Y-14855918D01*
X12145000Y-14870000D01*
X11875000Y-14870000D01*
X11804204Y-14855918D01*
X11744185Y-14815815D01*
X11704082Y-14755796D01*
X11690000Y-14685000D01*
X11690000Y-14315000D01*
X11704082Y-14244204D01*
X11744185Y-14184185D01*
X11804204Y-14144082D01*
X11875000Y-14130000D01*
X12145000Y-14130000D01*
X12215796Y-14144082D01*
G37*
G36*
X15055796Y-14184082D02*
G01*
X15115815Y-14224185D01*
X15155918Y-14284204D01*
X15170000Y-14355000D01*
X15170000Y-14625000D01*
X15155918Y-14695796D01*
X15115815Y-14755815D01*
X15055796Y-14795918D01*
X14985000Y-14810000D01*
X14615000Y-14810000D01*
X14544204Y-14795918D01*
X14484185Y-14755815D01*
X14444082Y-14695796D01*
X14430000Y-14625000D01*
X14430000Y-14355000D01*
X14444082Y-14284204D01*
X14484185Y-14224185D01*
X14544204Y-14184082D01*
X14615000Y-14170000D01*
X14985000Y-14170000D01*
X15055796Y-14184082D01*
G37*
G36*
X7161328Y-12793177D02*
G01*
X7314566Y-12846798D01*
X7452030Y-12933172D01*
X7566828Y-13047970D01*
X7653202Y-13185434D01*
X7706823Y-13338672D01*
X7725000Y-13500000D01*
X7706823Y-13661328D01*
X7653202Y-13814566D01*
X7566828Y-13952030D01*
X7452030Y-14066828D01*
X7314566Y-14153202D01*
X7161328Y-14206823D01*
X7000000Y-14225000D01*
X6838672Y-14206823D01*
X6685434Y-14153202D01*
X6547970Y-14066828D01*
X6433172Y-13952030D01*
X6346798Y-13814566D01*
X6293177Y-13661328D01*
X6275000Y-13500000D01*
X6293177Y-13338672D01*
X6346798Y-13185434D01*
X6433172Y-13047970D01*
X6547970Y-12933172D01*
X6685434Y-12846798D01*
X6838672Y-12793177D01*
X7000000Y-12775000D01*
X7161328Y-12793177D01*
G37*
G36*
X9161328Y-12793177D02*
G01*
X9314566Y-12846798D01*
X9452030Y-12933172D01*
X9566828Y-13047970D01*
X9653202Y-13185434D01*
X9706823Y-13338672D01*
X9725000Y-13500000D01*
X9706823Y-13661328D01*
X9653202Y-13814566D01*
X9566828Y-13952030D01*
X9452030Y-14066828D01*
X9314566Y-14153202D01*
X9161328Y-14206823D01*
X9000000Y-14225000D01*
X8838672Y-14206823D01*
X8685434Y-14153202D01*
X8547970Y-14066828D01*
X8433172Y-13952030D01*
X8346798Y-13814566D01*
X8293177Y-13661328D01*
X8275000Y-13500000D01*
X8293177Y-13338672D01*
X8346798Y-13185434D01*
X8433172Y-13047970D01*
X8547970Y-12933172D01*
X8685434Y-12846798D01*
X8838672Y-12793177D01*
X9000000Y-12775000D01*
X9161328Y-12793177D01*
G37*
G36*
X12132403Y-12966418D02*
G01*
X12181066Y-12998934D01*
X12213582Y-13047597D01*
X12225000Y-13105000D01*
X12225000Y-13505000D01*
X12213582Y-13562403D01*
X12181066Y-13611066D01*
X12132403Y-13643582D01*
X12075000Y-13655000D01*
X10725000Y-13655000D01*
X10667597Y-13643582D01*
X10618934Y-13611066D01*
X10586418Y-13562403D01*
X10575000Y-13505000D01*
X10575000Y-13105000D01*
X10586418Y-13047597D01*
X10618934Y-12998934D01*
X10667597Y-12966418D01*
X10725000Y-12955000D01*
X12075000Y-12955000D01*
X12132403Y-12966418D01*
G37*
G36*
X17532403Y-12966418D02*
G01*
X17581066Y-12998934D01*
X17613582Y-13047597D01*
X17625000Y-13105000D01*
X17625000Y-13505000D01*
X17613582Y-13562403D01*
X17581066Y-13611066D01*
X17532403Y-13643582D01*
X17475000Y-13655000D01*
X16125000Y-13655000D01*
X16067597Y-13643582D01*
X16018934Y-13611066D01*
X15986418Y-13562403D01*
X15975000Y-13505000D01*
X15975000Y-13105000D01*
X15986418Y-13047597D01*
X16018934Y-12998934D01*
X16067597Y-12966418D01*
X16125000Y-12955000D01*
X17475000Y-12955000D01*
X17532403Y-12966418D01*
G37*
G36*
X20906596Y-12545582D02*
G01*
X20966615Y-12585685D01*
X21006718Y-12645704D01*
X21020800Y-12716500D01*
X21020800Y-12986500D01*
X21006718Y-13057296D01*
X20966615Y-13117315D01*
X20906596Y-13157418D01*
X20835800Y-13171500D01*
X20465800Y-13171500D01*
X20395004Y-13157418D01*
X20334985Y-13117315D01*
X20294882Y-13057296D01*
X20280800Y-12986500D01*
X20280800Y-12716500D01*
X20294882Y-12645704D01*
X20334985Y-12585685D01*
X20395004Y-12545582D01*
X20465800Y-12531500D01*
X20835800Y-12531500D01*
X20906596Y-12545582D01*
G37*
G36*
X22762664Y-11491602D02*
G01*
X22925000Y-11563878D01*
X23068761Y-11668327D01*
X23187664Y-11800383D01*
X23276514Y-11954274D01*
X23331425Y-12123275D01*
X23350000Y-12300000D01*
X23331425Y-12476725D01*
X23276514Y-12645726D01*
X23187664Y-12799617D01*
X23068761Y-12931673D01*
X22925000Y-13036122D01*
X22762664Y-13108398D01*
X22588849Y-13145344D01*
X22411151Y-13145344D01*
X22237336Y-13108398D01*
X22075000Y-13036122D01*
X21931239Y-12931673D01*
X21812336Y-12799617D01*
X21723486Y-12645726D01*
X21668575Y-12476725D01*
X21650000Y-12300000D01*
X21668575Y-12123275D01*
X21723486Y-11954274D01*
X21812336Y-11800383D01*
X21931239Y-11668327D01*
X22075000Y-11563878D01*
X22237336Y-11491602D01*
X22411151Y-11454656D01*
X22588849Y-11454656D01*
X22762664Y-11491602D01*
G37*
G36*
X1752403Y-10986418D02*
G01*
X1801066Y-11018934D01*
X1833582Y-11067597D01*
X1845000Y-11125000D01*
X1845000Y-12475000D01*
X1833582Y-12532403D01*
X1801066Y-12581066D01*
X1752403Y-12613582D01*
X1695000Y-12625000D01*
X1295000Y-12625000D01*
X1237597Y-12613582D01*
X1188934Y-12581066D01*
X1156418Y-12532403D01*
X1145000Y-12475000D01*
X1145000Y-11125000D01*
X1156418Y-11067597D01*
X1188934Y-11018934D01*
X1237597Y-10986418D01*
X1295000Y-10975000D01*
X1695000Y-10975000D01*
X1752403Y-10986418D01*
G37*
G36*
X3022403Y-10986418D02*
G01*
X3071066Y-11018934D01*
X3103582Y-11067597D01*
X3115000Y-11125000D01*
X3115000Y-12475000D01*
X3103582Y-12532403D01*
X3071066Y-12581066D01*
X3022403Y-12613582D01*
X2965000Y-12625000D01*
X2565000Y-12625000D01*
X2507597Y-12613582D01*
X2458934Y-12581066D01*
X2426418Y-12532403D01*
X2415000Y-12475000D01*
X2415000Y-11125000D01*
X2426418Y-11067597D01*
X2458934Y-11018934D01*
X2507597Y-10986418D01*
X2565000Y-10975000D01*
X2965000Y-10975000D01*
X3022403Y-10986418D01*
G37*
G36*
X4292403Y-10986418D02*
G01*
X4341066Y-11018934D01*
X4373582Y-11067597D01*
X4385000Y-11125000D01*
X4385000Y-12475000D01*
X4373582Y-12532403D01*
X4341066Y-12581066D01*
X4292403Y-12613582D01*
X4235000Y-12625000D01*
X3835000Y-12625000D01*
X3777597Y-12613582D01*
X3728934Y-12581066D01*
X3696418Y-12532403D01*
X3685000Y-12475000D01*
X3685000Y-11125000D01*
X3696418Y-11067597D01*
X3728934Y-11018934D01*
X3777597Y-10986418D01*
X3835000Y-10975000D01*
X4235000Y-10975000D01*
X4292403Y-10986418D01*
G37*
G36*
X5562403Y-10986418D02*
G01*
X5611066Y-11018934D01*
X5643582Y-11067597D01*
X5655000Y-11125000D01*
X5655000Y-12475000D01*
X5643582Y-12532403D01*
X5611066Y-12581066D01*
X5562403Y-12613582D01*
X5505000Y-12625000D01*
X5105000Y-12625000D01*
X5047597Y-12613582D01*
X4998934Y-12581066D01*
X4966418Y-12532403D01*
X4955000Y-12475000D01*
X4955000Y-11125000D01*
X4966418Y-11067597D01*
X4998934Y-11018934D01*
X5047597Y-10986418D01*
X5105000Y-10975000D01*
X5505000Y-10975000D01*
X5562403Y-10986418D01*
G37*
G36*
X12132403Y-11696418D02*
G01*
X12181066Y-11728934D01*
X12213582Y-11777597D01*
X12225000Y-11835000D01*
X12225000Y-12235000D01*
X12213582Y-12292403D01*
X12181066Y-12341066D01*
X12132403Y-12373582D01*
X12075000Y-12385000D01*
X10725000Y-12385000D01*
X10667597Y-12373582D01*
X10618934Y-12341066D01*
X10586418Y-12292403D01*
X10575000Y-12235000D01*
X10575000Y-11835000D01*
X10586418Y-11777597D01*
X10618934Y-11728934D01*
X10667597Y-11696418D01*
X10725000Y-11685000D01*
X12075000Y-11685000D01*
X12132403Y-11696418D01*
G37*
G36*
X17532403Y-11696418D02*
G01*
X17581066Y-11728934D01*
X17613582Y-11777597D01*
X17625000Y-11835000D01*
X17625000Y-12235000D01*
X17613582Y-12292403D01*
X17581066Y-12341066D01*
X17532403Y-12373582D01*
X17475000Y-12385000D01*
X16125000Y-12385000D01*
X16067597Y-12373582D01*
X16018934Y-12341066D01*
X15986418Y-12292403D01*
X15975000Y-12235000D01*
X15975000Y-11835000D01*
X15986418Y-11777597D01*
X16018934Y-11728934D01*
X16067597Y-11696418D01*
X16125000Y-11685000D01*
X17475000Y-11685000D01*
X17532403Y-11696418D01*
G37*
G36*
X19820196Y-11647182D02*
G01*
X19880215Y-11687285D01*
X19920318Y-11747304D01*
X19934400Y-11818100D01*
X19934400Y-12088100D01*
X19920318Y-12158896D01*
X19880215Y-12218915D01*
X19820196Y-12259018D01*
X19749400Y-12273100D01*
X19379400Y-12273100D01*
X19308604Y-12259018D01*
X19248585Y-12218915D01*
X19208482Y-12158896D01*
X19194400Y-12088100D01*
X19194400Y-11818100D01*
X19208482Y-11747304D01*
X19248585Y-11687285D01*
X19308604Y-11647182D01*
X19379400Y-11633100D01*
X19749400Y-11633100D01*
X19820196Y-11647182D01*
G37*
G36*
X7161328Y-10793177D02*
G01*
X7314566Y-10846798D01*
X7452030Y-10933172D01*
X7566828Y-11047970D01*
X7653202Y-11185434D01*
X7706823Y-11338672D01*
X7725000Y-11500000D01*
X7706823Y-11661328D01*
X7653202Y-11814566D01*
X7566828Y-11952030D01*
X7452030Y-12066828D01*
X7314566Y-12153202D01*
X7161328Y-12206823D01*
X7000000Y-12225000D01*
X6838672Y-12206823D01*
X6685434Y-12153202D01*
X6547970Y-12066828D01*
X6433172Y-11952030D01*
X6346798Y-11814566D01*
X6293177Y-11661328D01*
X6275000Y-11500000D01*
X6293177Y-11338672D01*
X6346798Y-11185434D01*
X6433172Y-11047970D01*
X6547970Y-10933172D01*
X6685434Y-10846798D01*
X6838672Y-10793177D01*
X7000000Y-10775000D01*
X7161328Y-10793177D01*
G37*
G36*
X9161328Y-10793177D02*
G01*
X9314566Y-10846798D01*
X9452030Y-10933172D01*
X9566828Y-11047970D01*
X9653202Y-11185434D01*
X9706823Y-11338672D01*
X9725000Y-11500000D01*
X9706823Y-11661328D01*
X9653202Y-11814566D01*
X9566828Y-11952030D01*
X9452030Y-12066828D01*
X9314566Y-12153202D01*
X9161328Y-12206823D01*
X9000000Y-12225000D01*
X8838672Y-12206823D01*
X8685434Y-12153202D01*
X8547970Y-12066828D01*
X8433172Y-11952030D01*
X8346798Y-11814566D01*
X8293177Y-11661328D01*
X8275000Y-11500000D01*
X8293177Y-11338672D01*
X8346798Y-11185434D01*
X8433172Y-11047970D01*
X8547970Y-10933172D01*
X8685434Y-10846798D01*
X8838672Y-10793177D01*
X9000000Y-10775000D01*
X9161328Y-10793177D01*
G37*
G36*
X20906596Y-11525582D02*
G01*
X20966615Y-11565685D01*
X21006718Y-11625704D01*
X21020800Y-11696500D01*
X21020800Y-11966500D01*
X21006718Y-12037296D01*
X20966615Y-12097315D01*
X20906596Y-12137418D01*
X20835800Y-12151500D01*
X20465800Y-12151500D01*
X20395004Y-12137418D01*
X20334985Y-12097315D01*
X20294882Y-12037296D01*
X20280800Y-11966500D01*
X20280800Y-11696500D01*
X20294882Y-11625704D01*
X20334985Y-11565685D01*
X20395004Y-11525582D01*
X20465800Y-11511500D01*
X20835800Y-11511500D01*
X20906596Y-11525582D01*
G37*
G36*
X22003296Y-10690682D02*
G01*
X22063315Y-10730785D01*
X22103418Y-10790804D01*
X22117500Y-10861600D01*
X22117500Y-11131600D01*
X22103418Y-11202396D01*
X22063315Y-11262415D01*
X22003296Y-11302518D01*
X21932500Y-11316600D01*
X21562500Y-11316600D01*
X21491704Y-11302518D01*
X21431685Y-11262415D01*
X21391582Y-11202396D01*
X21377500Y-11131600D01*
X21377500Y-10861600D01*
X21391582Y-10790804D01*
X21431685Y-10730785D01*
X21491704Y-10690682D01*
X21562500Y-10676600D01*
X21932500Y-10676600D01*
X22003296Y-10690682D01*
G37*
G36*
X19820196Y-10627182D02*
G01*
X19880215Y-10667285D01*
X19920318Y-10727304D01*
X19934400Y-10798100D01*
X19934400Y-11068100D01*
X19920318Y-11138896D01*
X19880215Y-11198915D01*
X19820196Y-11239018D01*
X19749400Y-11253100D01*
X19379400Y-11253100D01*
X19308604Y-11239018D01*
X19248585Y-11198915D01*
X19208482Y-11138896D01*
X19194400Y-11068100D01*
X19194400Y-10798100D01*
X19208482Y-10727304D01*
X19248585Y-10667285D01*
X19308604Y-10627182D01*
X19379400Y-10613100D01*
X19749400Y-10613100D01*
X19820196Y-10627182D01*
G37*
G36*
X12132403Y-10426418D02*
G01*
X12181066Y-10458934D01*
X12213582Y-10507597D01*
X12225000Y-10565000D01*
X12225000Y-10965000D01*
X12213582Y-11022403D01*
X12181066Y-11071066D01*
X12132403Y-11103582D01*
X12075000Y-11115000D01*
X10725000Y-11115000D01*
X10667597Y-11103582D01*
X10618934Y-11071066D01*
X10586418Y-11022403D01*
X10575000Y-10965000D01*
X10575000Y-10565000D01*
X10586418Y-10507597D01*
X10618934Y-10458934D01*
X10667597Y-10426418D01*
X10725000Y-10415000D01*
X12075000Y-10415000D01*
X12132403Y-10426418D01*
G37*
G36*
X17532403Y-10426418D02*
G01*
X17581066Y-10458934D01*
X17613582Y-10507597D01*
X17625000Y-10565000D01*
X17625000Y-10965000D01*
X17613582Y-11022403D01*
X17581066Y-11071066D01*
X17532403Y-11103582D01*
X17475000Y-11115000D01*
X16125000Y-11115000D01*
X16067597Y-11103582D01*
X16018934Y-11071066D01*
X15986418Y-11022403D01*
X15975000Y-10965000D01*
X15975000Y-10565000D01*
X15986418Y-10507597D01*
X16018934Y-10458934D01*
X16067597Y-10426418D01*
X16125000Y-10415000D01*
X17475000Y-10415000D01*
X17532403Y-10426418D01*
G37*
G36*
X18692596Y-10134482D02*
G01*
X18752615Y-10174585D01*
X18792718Y-10234604D01*
X18806800Y-10305400D01*
X18806800Y-10575400D01*
X18792718Y-10646196D01*
X18752615Y-10706215D01*
X18692596Y-10746318D01*
X18621800Y-10760400D01*
X18251800Y-10760400D01*
X18181004Y-10746318D01*
X18120985Y-10706215D01*
X18080882Y-10646196D01*
X18066800Y-10575400D01*
X18066800Y-10305400D01*
X18080882Y-10234604D01*
X18120985Y-10174585D01*
X18181004Y-10134482D01*
X18251800Y-10120400D01*
X18621800Y-10120400D01*
X18692596Y-10134482D01*
G37*
G36*
X22003296Y-9670682D02*
G01*
X22063315Y-9710785D01*
X22103418Y-9770804D01*
X22117500Y-9841600D01*
X22117500Y-10111600D01*
X22103418Y-10182396D01*
X22063315Y-10242415D01*
X22003296Y-10282518D01*
X21932500Y-10296600D01*
X21562500Y-10296600D01*
X21491704Y-10282518D01*
X21431685Y-10242415D01*
X21391582Y-10182396D01*
X21377500Y-10111600D01*
X21377500Y-9841600D01*
X21391582Y-9770804D01*
X21431685Y-9710785D01*
X21491704Y-9670682D01*
X21562500Y-9656600D01*
X21932500Y-9656600D01*
X22003296Y-9670682D01*
G37*
G36*
X7161328Y-8793177D02*
G01*
X7314566Y-8846798D01*
X7452030Y-8933172D01*
X7566828Y-9047970D01*
X7653202Y-9185434D01*
X7706823Y-9338672D01*
X7725000Y-9500000D01*
X7706823Y-9661328D01*
X7653202Y-9814566D01*
X7566828Y-9952030D01*
X7452030Y-10066828D01*
X7314566Y-10153202D01*
X7161328Y-10206823D01*
X7000000Y-10225000D01*
X6838672Y-10206823D01*
X6685434Y-10153202D01*
X6547970Y-10066828D01*
X6433172Y-9952030D01*
X6346798Y-9814566D01*
X6293177Y-9661328D01*
X6275000Y-9500000D01*
X6293177Y-9338672D01*
X6346798Y-9185434D01*
X6433172Y-9047970D01*
X6547970Y-8933172D01*
X6685434Y-8846798D01*
X6838672Y-8793177D01*
X7000000Y-8775000D01*
X7161328Y-8793177D01*
G37*
G36*
X9161328Y-8793177D02*
G01*
X9314566Y-8846798D01*
X9452030Y-8933172D01*
X9566828Y-9047970D01*
X9653202Y-9185434D01*
X9706823Y-9338672D01*
X9725000Y-9500000D01*
X9706823Y-9661328D01*
X9653202Y-9814566D01*
X9566828Y-9952030D01*
X9452030Y-10066828D01*
X9314566Y-10153202D01*
X9161328Y-10206823D01*
X9000000Y-10225000D01*
X8838672Y-10206823D01*
X8685434Y-10153202D01*
X8547970Y-10066828D01*
X8433172Y-9952030D01*
X8346798Y-9814566D01*
X8293177Y-9661328D01*
X8275000Y-9500000D01*
X8293177Y-9338672D01*
X8346798Y-9185434D01*
X8433172Y-9047970D01*
X8547970Y-8933172D01*
X8685434Y-8846798D01*
X8838672Y-8793177D01*
X9000000Y-8775000D01*
X9161328Y-8793177D01*
G37*
G36*
X4537396Y-9558982D02*
G01*
X4597415Y-9599085D01*
X4637518Y-9659104D01*
X4651600Y-9729900D01*
X4651600Y-9999900D01*
X4637518Y-10070696D01*
X4597415Y-10130715D01*
X4537396Y-10170818D01*
X4466600Y-10184900D01*
X4096600Y-10184900D01*
X4025804Y-10170818D01*
X3965785Y-10130715D01*
X3925682Y-10070696D01*
X3911600Y-9999900D01*
X3911600Y-9729900D01*
X3925682Y-9659104D01*
X3965785Y-9599085D01*
X4025804Y-9558982D01*
X4096600Y-9544900D01*
X4466600Y-9544900D01*
X4537396Y-9558982D01*
G37*
G36*
X12132403Y-9156418D02*
G01*
X12181066Y-9188934D01*
X12213582Y-9237597D01*
X12225000Y-9295000D01*
X12225000Y-9695000D01*
X12213582Y-9752403D01*
X12181066Y-9801066D01*
X12132403Y-9833582D01*
X12075000Y-9845000D01*
X10725000Y-9845000D01*
X10667597Y-9833582D01*
X10618934Y-9801066D01*
X10586418Y-9752403D01*
X10575000Y-9695000D01*
X10575000Y-9295000D01*
X10586418Y-9237597D01*
X10618934Y-9188934D01*
X10667597Y-9156418D01*
X10725000Y-9145000D01*
X12075000Y-9145000D01*
X12132403Y-9156418D01*
G37*
G36*
X17532403Y-9156418D02*
G01*
X17581066Y-9188934D01*
X17613582Y-9237597D01*
X17625000Y-9295000D01*
X17625000Y-9695000D01*
X17613582Y-9752403D01*
X17581066Y-9801066D01*
X17532403Y-9833582D01*
X17475000Y-9845000D01*
X16125000Y-9845000D01*
X16067597Y-9833582D01*
X16018934Y-9801066D01*
X15986418Y-9752403D01*
X15975000Y-9695000D01*
X15975000Y-9295000D01*
X15986418Y-9237597D01*
X16018934Y-9188934D01*
X16067597Y-9156418D01*
X16125000Y-9145000D01*
X17475000Y-9145000D01*
X17532403Y-9156418D01*
G37*
G36*
X18692596Y-9114482D02*
G01*
X18752615Y-9154585D01*
X18792718Y-9214604D01*
X18806800Y-9285400D01*
X18806800Y-9555400D01*
X18792718Y-9626196D01*
X18752615Y-9686215D01*
X18692596Y-9726318D01*
X18621800Y-9740400D01*
X18251800Y-9740400D01*
X18181004Y-9726318D01*
X18120985Y-9686215D01*
X18080882Y-9626196D01*
X18066800Y-9555400D01*
X18066800Y-9285400D01*
X18080882Y-9214604D01*
X18120985Y-9154585D01*
X18181004Y-9114482D01*
X18251800Y-9100400D01*
X18621800Y-9100400D01*
X18692596Y-9114482D01*
G37*
G36*
X22762664Y-7891602D02*
G01*
X22925000Y-7963878D01*
X23068761Y-8068327D01*
X23187664Y-8200383D01*
X23276514Y-8354274D01*
X23331425Y-8523275D01*
X23350000Y-8700000D01*
X23331425Y-8876725D01*
X23276514Y-9045726D01*
X23187664Y-9199617D01*
X23068761Y-9331673D01*
X22925000Y-9436122D01*
X22762664Y-9508398D01*
X22588849Y-9545344D01*
X22411151Y-9545344D01*
X22237336Y-9508398D01*
X22075000Y-9436122D01*
X21931239Y-9331673D01*
X21812336Y-9199617D01*
X21723486Y-9045726D01*
X21668575Y-8876725D01*
X21650000Y-8700000D01*
X21668575Y-8523275D01*
X21723486Y-8354274D01*
X21812336Y-8200383D01*
X21931239Y-8068327D01*
X22075000Y-7963878D01*
X22237336Y-7891602D01*
X22411151Y-7854656D01*
X22588849Y-7854656D01*
X22762664Y-7891602D01*
G37*
G36*
X4537396Y-8538982D02*
G01*
X4597415Y-8579085D01*
X4637518Y-8639104D01*
X4651600Y-8709900D01*
X4651600Y-8979900D01*
X4637518Y-9050696D01*
X4597415Y-9110715D01*
X4537396Y-9150818D01*
X4466600Y-9164900D01*
X4096600Y-9164900D01*
X4025804Y-9150818D01*
X3965785Y-9110715D01*
X3925682Y-9050696D01*
X3911600Y-8979900D01*
X3911600Y-8709900D01*
X3925682Y-8639104D01*
X3965785Y-8579085D01*
X4025804Y-8538982D01*
X4096600Y-8524900D01*
X4466600Y-8524900D01*
X4537396Y-8538982D01*
G37*
G36*
X13552496Y-7923782D02*
G01*
X13612515Y-7963885D01*
X13652618Y-8023904D01*
X13666700Y-8094700D01*
X13666700Y-8464700D01*
X13652618Y-8535496D01*
X13612515Y-8595515D01*
X13552496Y-8635618D01*
X13481700Y-8649700D01*
X13211700Y-8649700D01*
X13140904Y-8635618D01*
X13080885Y-8595515D01*
X13040782Y-8535496D01*
X13026700Y-8464700D01*
X13026700Y-8094700D01*
X13040782Y-8023904D01*
X13080885Y-7963885D01*
X13140904Y-7923782D01*
X13211700Y-7909700D01*
X13481700Y-7909700D01*
X13552496Y-7923782D01*
G37*
G36*
X14572496Y-7923782D02*
G01*
X14632515Y-7963885D01*
X14672618Y-8023904D01*
X14686700Y-8094700D01*
X14686700Y-8464700D01*
X14672618Y-8535496D01*
X14632515Y-8595515D01*
X14572496Y-8635618D01*
X14501700Y-8649700D01*
X14231700Y-8649700D01*
X14160904Y-8635618D01*
X14100885Y-8595515D01*
X14060782Y-8535496D01*
X14046700Y-8464700D01*
X14046700Y-8094700D01*
X14060782Y-8023904D01*
X14100885Y-7963885D01*
X14160904Y-7923782D01*
X14231700Y-7909700D01*
X14501700Y-7909700D01*
X14572496Y-7923782D01*
G37*
G36*
X15593996Y-7923782D02*
G01*
X15654015Y-7963885D01*
X15694118Y-8023904D01*
X15708200Y-8094700D01*
X15708200Y-8464700D01*
X15694118Y-8535496D01*
X15654015Y-8595515D01*
X15593996Y-8635618D01*
X15523200Y-8649700D01*
X15253200Y-8649700D01*
X15182404Y-8635618D01*
X15122385Y-8595515D01*
X15082282Y-8535496D01*
X15068200Y-8464700D01*
X15068200Y-8094700D01*
X15082282Y-8023904D01*
X15122385Y-7963885D01*
X15182404Y-7923782D01*
X15253200Y-7909700D01*
X15523200Y-7909700D01*
X15593996Y-7923782D01*
G37*
G36*
X16613996Y-7923782D02*
G01*
X16674015Y-7963885D01*
X16714118Y-8023904D01*
X16728200Y-8094700D01*
X16728200Y-8464700D01*
X16714118Y-8535496D01*
X16674015Y-8595515D01*
X16613996Y-8635618D01*
X16543200Y-8649700D01*
X16273200Y-8649700D01*
X16202404Y-8635618D01*
X16142385Y-8595515D01*
X16102282Y-8535496D01*
X16088200Y-8464700D01*
X16088200Y-8094700D01*
X16102282Y-8023904D01*
X16142385Y-7963885D01*
X16202404Y-7923782D01*
X16273200Y-7909700D01*
X16543200Y-7909700D01*
X16613996Y-7923782D01*
G37*
G36*
X1316096Y-7890882D02*
G01*
X1376115Y-7930985D01*
X1416218Y-7991004D01*
X1430300Y-8061800D01*
X1430300Y-8431800D01*
X1416218Y-8502596D01*
X1376115Y-8562615D01*
X1316096Y-8602718D01*
X1245300Y-8616800D01*
X975300Y-8616800D01*
X904504Y-8602718D01*
X844485Y-8562615D01*
X804382Y-8502596D01*
X790300Y-8431800D01*
X790300Y-8061800D01*
X804382Y-7991004D01*
X844485Y-7930985D01*
X904504Y-7890882D01*
X975300Y-7876800D01*
X1245300Y-7876800D01*
X1316096Y-7890882D01*
G37*
G36*
X2336096Y-7890882D02*
G01*
X2396115Y-7930985D01*
X2436218Y-7991004D01*
X2450300Y-8061800D01*
X2450300Y-8431800D01*
X2436218Y-8502596D01*
X2396115Y-8562615D01*
X2336096Y-8602718D01*
X2265300Y-8616800D01*
X1995300Y-8616800D01*
X1924504Y-8602718D01*
X1864485Y-8562615D01*
X1824382Y-8502596D01*
X1810300Y-8431800D01*
X1810300Y-8061800D01*
X1824382Y-7991004D01*
X1864485Y-7930985D01*
X1924504Y-7890882D01*
X1995300Y-7876800D01*
X2265300Y-7876800D01*
X2336096Y-7890882D01*
G37*
G36*
X10974696Y-7776482D02*
G01*
X11034715Y-7816585D01*
X11074818Y-7876604D01*
X11088900Y-7947400D01*
X11088900Y-8217400D01*
X11074818Y-8288196D01*
X11034715Y-8348215D01*
X10974696Y-8388318D01*
X10903900Y-8402400D01*
X10533900Y-8402400D01*
X10463104Y-8388318D01*
X10403085Y-8348215D01*
X10362982Y-8288196D01*
X10348900Y-8217400D01*
X10348900Y-7947400D01*
X10362982Y-7876604D01*
X10403085Y-7816585D01*
X10463104Y-7776482D01*
X10533900Y-7762400D01*
X10903900Y-7762400D01*
X10974696Y-7776482D01*
G37*
G36*
X7161328Y-6793177D02*
G01*
X7314566Y-6846798D01*
X7452030Y-6933172D01*
X7566828Y-7047970D01*
X7653202Y-7185434D01*
X7706823Y-7338672D01*
X7725000Y-7500000D01*
X7706823Y-7661328D01*
X7653202Y-7814566D01*
X7566828Y-7952030D01*
X7452030Y-8066828D01*
X7314566Y-8153202D01*
X7161328Y-8206823D01*
X7000000Y-8225000D01*
X6838672Y-8206823D01*
X6685434Y-8153202D01*
X6547970Y-8066828D01*
X6433172Y-7952030D01*
X6346798Y-7814566D01*
X6293177Y-7661328D01*
X6275000Y-7500000D01*
X6293177Y-7338672D01*
X6346798Y-7185434D01*
X6433172Y-7047970D01*
X6547970Y-6933172D01*
X6685434Y-6846798D01*
X6838672Y-6793177D01*
X7000000Y-6775000D01*
X7161328Y-6793177D01*
G37*
G36*
X9694134Y-6778806D02*
G01*
X9710355Y-6789645D01*
X9721194Y-6805866D01*
X9725000Y-6825000D01*
X9725000Y-8175000D01*
X9721194Y-8194134D01*
X9710355Y-8210355D01*
X9694134Y-8221194D01*
X9675000Y-8225000D01*
X8325000Y-8225000D01*
X8305866Y-8221194D01*
X8289645Y-8210355D01*
X8278806Y-8194134D01*
X8275000Y-8175000D01*
X8275000Y-6825000D01*
X8278806Y-6805866D01*
X8289645Y-6789645D01*
X8305866Y-6778806D01*
X8325000Y-6775000D01*
X9675000Y-6775000D01*
X9694134Y-6778806D01*
G37*
G36*
X4917696Y-6889382D02*
G01*
X4977715Y-6929485D01*
X5017818Y-6989504D01*
X5031900Y-7060300D01*
X5031900Y-7430300D01*
X5017818Y-7501096D01*
X4977715Y-7561115D01*
X4917696Y-7601218D01*
X4846900Y-7615300D01*
X4576900Y-7615300D01*
X4506104Y-7601218D01*
X4446085Y-7561115D01*
X4405982Y-7501096D01*
X4391900Y-7430300D01*
X4391900Y-7060300D01*
X4405982Y-6989504D01*
X4446085Y-6929485D01*
X4506104Y-6889382D01*
X4576900Y-6875300D01*
X4846900Y-6875300D01*
X4917696Y-6889382D01*
G37*
G36*
X5937696Y-6889382D02*
G01*
X5997715Y-6929485D01*
X6037818Y-6989504D01*
X6051900Y-7060300D01*
X6051900Y-7430300D01*
X6037818Y-7501096D01*
X5997715Y-7561115D01*
X5937696Y-7601218D01*
X5866900Y-7615300D01*
X5596900Y-7615300D01*
X5526104Y-7601218D01*
X5466085Y-7561115D01*
X5425982Y-7501096D01*
X5411900Y-7430300D01*
X5411900Y-7060300D01*
X5425982Y-6989504D01*
X5466085Y-6929485D01*
X5526104Y-6889382D01*
X5596900Y-6875300D01*
X5866900Y-6875300D01*
X5937696Y-6889382D01*
G37*
G36*
X11964996Y-6833482D02*
G01*
X12025015Y-6873585D01*
X12065118Y-6933604D01*
X12079200Y-7004400D01*
X12079200Y-7374400D01*
X12065118Y-7445196D01*
X12025015Y-7505215D01*
X11964996Y-7545318D01*
X11894200Y-7559400D01*
X11624200Y-7559400D01*
X11553404Y-7545318D01*
X11493385Y-7505215D01*
X11453282Y-7445196D01*
X11439200Y-7374400D01*
X11439200Y-7004400D01*
X11453282Y-6933604D01*
X11493385Y-6873585D01*
X11553404Y-6833482D01*
X11624200Y-6819400D01*
X11894200Y-6819400D01*
X11964996Y-6833482D01*
G37*
G36*
X12984996Y-6833482D02*
G01*
X13045015Y-6873585D01*
X13085118Y-6933604D01*
X13099200Y-7004400D01*
X13099200Y-7374400D01*
X13085118Y-7445196D01*
X13045015Y-7505215D01*
X12984996Y-7545318D01*
X12914200Y-7559400D01*
X12644200Y-7559400D01*
X12573404Y-7545318D01*
X12513385Y-7505215D01*
X12473282Y-7445196D01*
X12459200Y-7374400D01*
X12459200Y-7004400D01*
X12473282Y-6933604D01*
X12513385Y-6873585D01*
X12573404Y-6833482D01*
X12644200Y-6819400D01*
X12914200Y-6819400D01*
X12984996Y-6833482D01*
G37*
G36*
X15402996Y-6833282D02*
G01*
X15463015Y-6873385D01*
X15503118Y-6933404D01*
X15517200Y-7004200D01*
X15517200Y-7374200D01*
X15503118Y-7444996D01*
X15463015Y-7505015D01*
X15402996Y-7545118D01*
X15332200Y-7559200D01*
X15062200Y-7559200D01*
X14991404Y-7545118D01*
X14931385Y-7505015D01*
X14891282Y-7444996D01*
X14877200Y-7374200D01*
X14877200Y-7004200D01*
X14891282Y-6933404D01*
X14931385Y-6873385D01*
X14991404Y-6833282D01*
X15062200Y-6819200D01*
X15332200Y-6819200D01*
X15402996Y-6833282D01*
G37*
G36*
X16422996Y-6833282D02*
G01*
X16483015Y-6873385D01*
X16523118Y-6933404D01*
X16537200Y-7004200D01*
X16537200Y-7374200D01*
X16523118Y-7444996D01*
X16483015Y-7505015D01*
X16422996Y-7545118D01*
X16352200Y-7559200D01*
X16082200Y-7559200D01*
X16011404Y-7545118D01*
X15951385Y-7505015D01*
X15911282Y-7444996D01*
X15897200Y-7374200D01*
X15897200Y-7004200D01*
X15911282Y-6933404D01*
X15951385Y-6873385D01*
X16011404Y-6833282D01*
X16082200Y-6819200D01*
X16352200Y-6819200D01*
X16422996Y-6833282D01*
G37*
G36*
X10974696Y-6756482D02*
G01*
X11034715Y-6796585D01*
X11074818Y-6856604D01*
X11088900Y-6927400D01*
X11088900Y-7197400D01*
X11074818Y-7268196D01*
X11034715Y-7328215D01*
X10974696Y-7368318D01*
X10903900Y-7382400D01*
X10533900Y-7382400D01*
X10463104Y-7368318D01*
X10403085Y-7328215D01*
X10362982Y-7268196D01*
X10348900Y-7197400D01*
X10348900Y-6927400D01*
X10362982Y-6856604D01*
X10403085Y-6796585D01*
X10463104Y-6756482D01*
X10533900Y-6742400D01*
X10903900Y-6742400D01*
X10974696Y-6756482D01*
G37*
G36*
X3010384Y-5851905D02*
G01*
X3040663Y-5872137D01*
X3060895Y-5902416D01*
X3067999Y-5938134D01*
X3067999Y-5944528D01*
X3068000Y-5944533D01*
X3068000Y-6105066D01*
X3068000Y-6111467D01*
X3060895Y-6147184D01*
X3040663Y-6177463D01*
X3010384Y-6197695D01*
X2974666Y-6204799D01*
X2968271Y-6204799D01*
X2968266Y-6204800D01*
X1617734Y-6204800D01*
X1617733Y-6204799D01*
X1611333Y-6204800D01*
X1575616Y-6197695D01*
X1545337Y-6177463D01*
X1525105Y-6147184D01*
X1518001Y-6111466D01*
X1518000Y-6105070D01*
X1518000Y-6105066D01*
X1518000Y-5944533D01*
X1518000Y-5944532D01*
X1518000Y-5938133D01*
X1525105Y-5902416D01*
X1545337Y-5872137D01*
X1575616Y-5851905D01*
X1611334Y-5844801D01*
X1617728Y-5844800D01*
X1617734Y-5844800D01*
X2968266Y-5844800D01*
X2974667Y-5844800D01*
X3010384Y-5851905D01*
G37*
G36*
X7410384Y-5851905D02*
G01*
X7440663Y-5872137D01*
X7460895Y-5902416D01*
X7467999Y-5938134D01*
X7467999Y-5944528D01*
X7468000Y-5944533D01*
X7468000Y-6105066D01*
X7468000Y-6111467D01*
X7460895Y-6147184D01*
X7440663Y-6177463D01*
X7410384Y-6197695D01*
X7374666Y-6204799D01*
X7368271Y-6204799D01*
X7368266Y-6204800D01*
X6017734Y-6204800D01*
X6017733Y-6204799D01*
X6011333Y-6204800D01*
X5975616Y-6197695D01*
X5945337Y-6177463D01*
X5925105Y-6147184D01*
X5918001Y-6111466D01*
X5918000Y-6105070D01*
X5918000Y-6105066D01*
X5918000Y-5944533D01*
X5918000Y-5944532D01*
X5918000Y-5938133D01*
X5925105Y-5902416D01*
X5945337Y-5872137D01*
X5975616Y-5851905D01*
X6011334Y-5844801D01*
X6017728Y-5844800D01*
X6017734Y-5844800D01*
X7368266Y-5844800D01*
X7374667Y-5844800D01*
X7410384Y-5851905D01*
G37*
G36*
X22762664Y-4291602D02*
G01*
X22925000Y-4363878D01*
X23068761Y-4468327D01*
X23187664Y-4600383D01*
X23276514Y-4754274D01*
X23331425Y-4923275D01*
X23350000Y-5100000D01*
X23331425Y-5276725D01*
X23276514Y-5445726D01*
X23187664Y-5599617D01*
X23068761Y-5731673D01*
X22925000Y-5836122D01*
X22762664Y-5908398D01*
X22588849Y-5945344D01*
X22411151Y-5945344D01*
X22237336Y-5908398D01*
X22075000Y-5836122D01*
X21931239Y-5731673D01*
X21812336Y-5599617D01*
X21723486Y-5445726D01*
X21668575Y-5276725D01*
X21650000Y-5100000D01*
X21668575Y-4923275D01*
X21723486Y-4754274D01*
X21812336Y-4600383D01*
X21931239Y-4468327D01*
X22075000Y-4363878D01*
X22237336Y-4291602D01*
X22411151Y-4254656D01*
X22588849Y-4254656D01*
X22762664Y-4291602D01*
G37*
G36*
X3010384Y-5352032D02*
G01*
X3040663Y-5372264D01*
X3060895Y-5402543D01*
X3067999Y-5438261D01*
X3067999Y-5444655D01*
X3068000Y-5444660D01*
X3068000Y-5551777D01*
X3068000Y-5611594D01*
X3060895Y-5647311D01*
X3040663Y-5677590D01*
X3010384Y-5697822D01*
X2974666Y-5704926D01*
X2968271Y-5704926D01*
X2968266Y-5704927D01*
X1617734Y-5704927D01*
X1617733Y-5704926D01*
X1611333Y-5704927D01*
X1575616Y-5697822D01*
X1545337Y-5677590D01*
X1525105Y-5647311D01*
X1518001Y-5611593D01*
X1518000Y-5605197D01*
X1518000Y-5605193D01*
X1518000Y-5444660D01*
X1518000Y-5444659D01*
X1518000Y-5438260D01*
X1525105Y-5402543D01*
X1545337Y-5372264D01*
X1575616Y-5352032D01*
X1611334Y-5344928D01*
X1617728Y-5344927D01*
X1617734Y-5344927D01*
X2968266Y-5344927D01*
X2974667Y-5344927D01*
X3010384Y-5352032D01*
G37*
G36*
X7410384Y-5352032D02*
G01*
X7440663Y-5372264D01*
X7460895Y-5402543D01*
X7467999Y-5438261D01*
X7467999Y-5444655D01*
X7468000Y-5444660D01*
X7468000Y-5551777D01*
X7468000Y-5611594D01*
X7460895Y-5647311D01*
X7440663Y-5677590D01*
X7410384Y-5697822D01*
X7374666Y-5704926D01*
X7368271Y-5704926D01*
X7368266Y-5704927D01*
X6017734Y-5704927D01*
X6017733Y-5704926D01*
X6011333Y-5704927D01*
X5975616Y-5697822D01*
X5945337Y-5677590D01*
X5925105Y-5647311D01*
X5918001Y-5611593D01*
X5918000Y-5605197D01*
X5918000Y-5605193D01*
X5918000Y-5444660D01*
X5918000Y-5444659D01*
X5918000Y-5438260D01*
X5925105Y-5402543D01*
X5945337Y-5372264D01*
X5975616Y-5352032D01*
X6011334Y-5344928D01*
X6017728Y-5344927D01*
X6017734Y-5344927D01*
X7368266Y-5344927D01*
X7374667Y-5344927D01*
X7410384Y-5352032D01*
G37*
G36*
X18983339Y-4576658D02*
G01*
X19038125Y-4583871D01*
X19051906Y-4590297D01*
X19070671Y-4594030D01*
X19095526Y-4610637D01*
X19117819Y-4621033D01*
X19131380Y-4634594D01*
X19151777Y-4648223D01*
X19165405Y-4668619D01*
X19178966Y-4682180D01*
X19189360Y-4704470D01*
X19205970Y-4729329D01*
X19209702Y-4748095D01*
X19216128Y-4761874D01*
X19223338Y-4816648D01*
X19225000Y-4825000D01*
X19225000Y-5375000D01*
X19223338Y-5383353D01*
X19216128Y-5438125D01*
X19209703Y-5451903D01*
X19205970Y-5470671D01*
X19189358Y-5495531D01*
X19178966Y-5517819D01*
X19165407Y-5531377D01*
X19151777Y-5551777D01*
X19131377Y-5565407D01*
X19117819Y-5578966D01*
X19095531Y-5589358D01*
X19070671Y-5605970D01*
X19051903Y-5609703D01*
X19038125Y-5616128D01*
X18983353Y-5623338D01*
X18975000Y-5625000D01*
X18575000Y-5625000D01*
X18566648Y-5623338D01*
X18511874Y-5616128D01*
X18498095Y-5609702D01*
X18479329Y-5605970D01*
X18454470Y-5589360D01*
X18432180Y-5578966D01*
X18418619Y-5565405D01*
X18398223Y-5551777D01*
X18384594Y-5531380D01*
X18371033Y-5517819D01*
X18360637Y-5495526D01*
X18344030Y-5470671D01*
X18340297Y-5451906D01*
X18333871Y-5438125D01*
X18326658Y-5383339D01*
X18325000Y-5375000D01*
X18325000Y-4825000D01*
X18326658Y-4816662D01*
X18333871Y-4761874D01*
X18340297Y-4748091D01*
X18344030Y-4729329D01*
X18360636Y-4704475D01*
X18371033Y-4682180D01*
X18384596Y-4668616D01*
X18398223Y-4648223D01*
X18418616Y-4634596D01*
X18432180Y-4621033D01*
X18454475Y-4610636D01*
X18479329Y-4594030D01*
X18498091Y-4590297D01*
X18511874Y-4583871D01*
X18566662Y-4576658D01*
X18575000Y-4575000D01*
X18975000Y-4575000D01*
X18983339Y-4576658D01*
G37*
G36*
X20633339Y-4576658D02*
G01*
X20688125Y-4583871D01*
X20701906Y-4590297D01*
X20720671Y-4594030D01*
X20745526Y-4610637D01*
X20767819Y-4621033D01*
X20781380Y-4634594D01*
X20801777Y-4648223D01*
X20815405Y-4668619D01*
X20828966Y-4682180D01*
X20839360Y-4704470D01*
X20855970Y-4729329D01*
X20859702Y-4748095D01*
X20866128Y-4761874D01*
X20873338Y-4816648D01*
X20875000Y-4825000D01*
X20875000Y-5375000D01*
X20873338Y-5383353D01*
X20866128Y-5438125D01*
X20859703Y-5451903D01*
X20855970Y-5470671D01*
X20839358Y-5495531D01*
X20828966Y-5517819D01*
X20815407Y-5531377D01*
X20801777Y-5551777D01*
X20781377Y-5565407D01*
X20767819Y-5578966D01*
X20745531Y-5589358D01*
X20720671Y-5605970D01*
X20701903Y-5609703D01*
X20688125Y-5616128D01*
X20633353Y-5623338D01*
X20625000Y-5625000D01*
X20225000Y-5625000D01*
X20216648Y-5623338D01*
X20161874Y-5616128D01*
X20148095Y-5609702D01*
X20129329Y-5605970D01*
X20104470Y-5589360D01*
X20082180Y-5578966D01*
X20068619Y-5565405D01*
X20048223Y-5551777D01*
X20034594Y-5531380D01*
X20021033Y-5517819D01*
X20010637Y-5495526D01*
X19994030Y-5470671D01*
X19990297Y-5451906D01*
X19983871Y-5438125D01*
X19976658Y-5383339D01*
X19975000Y-5375000D01*
X19975000Y-4825000D01*
X19976658Y-4816662D01*
X19983871Y-4761874D01*
X19990297Y-4748091D01*
X19994030Y-4729329D01*
X20010636Y-4704475D01*
X20021033Y-4682180D01*
X20034596Y-4668616D01*
X20048223Y-4648223D01*
X20068616Y-4634596D01*
X20082180Y-4621033D01*
X20104475Y-4610636D01*
X20129329Y-4594030D01*
X20148091Y-4590297D01*
X20161874Y-4583871D01*
X20216662Y-4576658D01*
X20225000Y-4575000D01*
X20625000Y-4575000D01*
X20633339Y-4576658D01*
G37*
G36*
X10388946Y-4849463D02*
G01*
X10446825Y-4858630D01*
X10449943Y-4860218D01*
X10458105Y-4861658D01*
X10498204Y-4884809D01*
X10539766Y-4905986D01*
X10546434Y-4912654D01*
X10558622Y-4919691D01*
X10585484Y-4951704D01*
X10613519Y-4979739D01*
X10620492Y-4993425D01*
X10633229Y-5008604D01*
X10645737Y-5042971D01*
X10660875Y-5072680D01*
X10664206Y-5093713D01*
X10672926Y-5117671D01*
X10672926Y-5148768D01*
X10677192Y-5175704D01*
X10672926Y-5202638D01*
X10672926Y-5233737D01*
X10664206Y-5257695D01*
X10660875Y-5278727D01*
X10645739Y-5308431D01*
X10633229Y-5342805D01*
X10620490Y-5357986D01*
X10613519Y-5371668D01*
X10585491Y-5399695D01*
X10558622Y-5431717D01*
X10546432Y-5438754D01*
X10539766Y-5445421D01*
X10498219Y-5466590D01*
X10458105Y-5489750D01*
X10449940Y-5491189D01*
X10446825Y-5492777D01*
X10388972Y-5501940D01*
X10343802Y-5509905D01*
X10338685Y-5509905D01*
X8967105Y-5509905D01*
X8961988Y-5509905D01*
X8916821Y-5501940D01*
X8858964Y-5492777D01*
X8855848Y-5491189D01*
X8847685Y-5489750D01*
X8807577Y-5466594D01*
X8766023Y-5445421D01*
X8759355Y-5438753D01*
X8747168Y-5431717D01*
X8720305Y-5399703D01*
X8692270Y-5371668D01*
X8685296Y-5357981D01*
X8672561Y-5342804D01*
X8660053Y-5308439D01*
X8644914Y-5278727D01*
X8641582Y-5257689D01*
X8632864Y-5233737D01*
X8632864Y-5202645D01*
X8628597Y-5175704D01*
X8632864Y-5148762D01*
X8632864Y-5117671D01*
X8641581Y-5093718D01*
X8644914Y-5072680D01*
X8660053Y-5042966D01*
X8672561Y-5008603D01*
X8685295Y-4993426D01*
X8692270Y-4979739D01*
X8720308Y-4951700D01*
X8747168Y-4919691D01*
X8759352Y-4912656D01*
X8766023Y-4905986D01*
X8807592Y-4884805D01*
X8847685Y-4861658D01*
X8855845Y-4860219D01*
X8858964Y-4858630D01*
X8916847Y-4849462D01*
X8961988Y-4841503D01*
X10343802Y-4841503D01*
X10388946Y-4849463D01*
G37*
G36*
X15799156Y-4849463D02*
G01*
X15857035Y-4858630D01*
X15860153Y-4860218D01*
X15868315Y-4861658D01*
X15908414Y-4884809D01*
X15949976Y-4905986D01*
X15956644Y-4912654D01*
X15968832Y-4919691D01*
X15995694Y-4951704D01*
X16023729Y-4979739D01*
X16030702Y-4993425D01*
X16043439Y-5008604D01*
X16055947Y-5042971D01*
X16071085Y-5072680D01*
X16074416Y-5093713D01*
X16083136Y-5117671D01*
X16083136Y-5148768D01*
X16087402Y-5175704D01*
X16083136Y-5202638D01*
X16083136Y-5233737D01*
X16074416Y-5257695D01*
X16071085Y-5278727D01*
X16055949Y-5308431D01*
X16043439Y-5342805D01*
X16030700Y-5357986D01*
X16023729Y-5371668D01*
X15995701Y-5399695D01*
X15968832Y-5431717D01*
X15956642Y-5438754D01*
X15949976Y-5445421D01*
X15908429Y-5466590D01*
X15868315Y-5489750D01*
X15860150Y-5491189D01*
X15857035Y-5492777D01*
X15799182Y-5501940D01*
X15754012Y-5509905D01*
X15748895Y-5509905D01*
X14377315Y-5509905D01*
X14372198Y-5509905D01*
X14327031Y-5501940D01*
X14269174Y-5492777D01*
X14266058Y-5491189D01*
X14257895Y-5489750D01*
X14217787Y-5466594D01*
X14176233Y-5445421D01*
X14169565Y-5438753D01*
X14157378Y-5431717D01*
X14130515Y-5399703D01*
X14102480Y-5371668D01*
X14095506Y-5357981D01*
X14082771Y-5342804D01*
X14070263Y-5308439D01*
X14055124Y-5278727D01*
X14051792Y-5257689D01*
X14043074Y-5233737D01*
X14043074Y-5202645D01*
X14038807Y-5175704D01*
X14043074Y-5148762D01*
X14043074Y-5117671D01*
X14051791Y-5093718D01*
X14055124Y-5072680D01*
X14070263Y-5042966D01*
X14082771Y-5008603D01*
X14095505Y-4993426D01*
X14102480Y-4979739D01*
X14130518Y-4951700D01*
X14157378Y-4919691D01*
X14169562Y-4912656D01*
X14176233Y-4905986D01*
X14217802Y-4884805D01*
X14257895Y-4861658D01*
X14266055Y-4860219D01*
X14269174Y-4858630D01*
X14327057Y-4849462D01*
X14372198Y-4841503D01*
X15754012Y-4841503D01*
X15799156Y-4849463D01*
G37*
G36*
X3010384Y-4851905D02*
G01*
X3040663Y-4872137D01*
X3060895Y-4902416D01*
X3067999Y-4938134D01*
X3067999Y-4944528D01*
X3068000Y-4944533D01*
X3068000Y-5072680D01*
X3068000Y-5111467D01*
X3060895Y-5147184D01*
X3040663Y-5177463D01*
X3010384Y-5197695D01*
X2974666Y-5204799D01*
X2968271Y-5204799D01*
X2968266Y-5204800D01*
X1617734Y-5204800D01*
X1617733Y-5204799D01*
X1611333Y-5204800D01*
X1575616Y-5197695D01*
X1545337Y-5177463D01*
X1525105Y-5147184D01*
X1518001Y-5111466D01*
X1518000Y-5105070D01*
X1518000Y-5105066D01*
X1518000Y-4944533D01*
X1518000Y-4944532D01*
X1518000Y-4938133D01*
X1525105Y-4902416D01*
X1545337Y-4872137D01*
X1575616Y-4851905D01*
X1611334Y-4844801D01*
X1617728Y-4844800D01*
X1617734Y-4844800D01*
X2968266Y-4844800D01*
X2974667Y-4844800D01*
X3010384Y-4851905D01*
G37*
G36*
X7410384Y-4851905D02*
G01*
X7440663Y-4872137D01*
X7460895Y-4902416D01*
X7467999Y-4938134D01*
X7467999Y-4944528D01*
X7468000Y-4944533D01*
X7468000Y-5072680D01*
X7468000Y-5111467D01*
X7460895Y-5147184D01*
X7440663Y-5177463D01*
X7410384Y-5197695D01*
X7374666Y-5204799D01*
X7368271Y-5204799D01*
X7368266Y-5204800D01*
X6017734Y-5204800D01*
X6017733Y-5204799D01*
X6011333Y-5204800D01*
X5975616Y-5197695D01*
X5945337Y-5177463D01*
X5925105Y-5147184D01*
X5918001Y-5111466D01*
X5918000Y-5105070D01*
X5918000Y-5105066D01*
X5918000Y-4944533D01*
X5918000Y-4944532D01*
X5918000Y-4938133D01*
X5925105Y-4902416D01*
X5945337Y-4872137D01*
X5975616Y-4851905D01*
X6011334Y-4844801D01*
X6017728Y-4844800D01*
X6017734Y-4844800D01*
X7368266Y-4844800D01*
X7374667Y-4844800D01*
X7410384Y-4851905D01*
G37*
G36*
X3010384Y-4352032D02*
G01*
X3040663Y-4372264D01*
X3060895Y-4402543D01*
X3067999Y-4438261D01*
X3067999Y-4444655D01*
X3068000Y-4444660D01*
X3068000Y-4575000D01*
X3068000Y-4611594D01*
X3060895Y-4647311D01*
X3040663Y-4677590D01*
X3010384Y-4697822D01*
X2974666Y-4704926D01*
X2968271Y-4704926D01*
X2968266Y-4704927D01*
X1617734Y-4704927D01*
X1617733Y-4704926D01*
X1611333Y-4704927D01*
X1575616Y-4697822D01*
X1545337Y-4677590D01*
X1525105Y-4647311D01*
X1518001Y-4611593D01*
X1518000Y-4605197D01*
X1518000Y-4605193D01*
X1518000Y-4444660D01*
X1518000Y-4444659D01*
X1518000Y-4438260D01*
X1525105Y-4402543D01*
X1545337Y-4372264D01*
X1575616Y-4352032D01*
X1611334Y-4344928D01*
X1617728Y-4344927D01*
X1617734Y-4344927D01*
X2968266Y-4344927D01*
X2974667Y-4344927D01*
X3010384Y-4352032D01*
G37*
G36*
X7410384Y-4352032D02*
G01*
X7440663Y-4372264D01*
X7460895Y-4402543D01*
X7467999Y-4438261D01*
X7467999Y-4444655D01*
X7468000Y-4444660D01*
X7468000Y-4575000D01*
X7468000Y-4611594D01*
X7460895Y-4647311D01*
X7440663Y-4677590D01*
X7410384Y-4697822D01*
X7374666Y-4704926D01*
X7368271Y-4704926D01*
X7368266Y-4704927D01*
X6017734Y-4704927D01*
X6017733Y-4704926D01*
X6011333Y-4704927D01*
X5975616Y-4697822D01*
X5945337Y-4677590D01*
X5925105Y-4647311D01*
X5918001Y-4611593D01*
X5918000Y-4605197D01*
X5918000Y-4605193D01*
X5918000Y-4444660D01*
X5918000Y-4444659D01*
X5918000Y-4438260D01*
X5925105Y-4402543D01*
X5945337Y-4372264D01*
X5975616Y-4352032D01*
X6011334Y-4344928D01*
X6017728Y-4344927D01*
X6017734Y-4344927D01*
X7368266Y-4344927D01*
X7374667Y-4344927D01*
X7410384Y-4352032D01*
G37*
G36*
X10388946Y-3579460D02*
G01*
X10446825Y-3588627D01*
X10449943Y-3590215D01*
X10458105Y-3591655D01*
X10498204Y-3614806D01*
X10539766Y-3635983D01*
X10546434Y-3642651D01*
X10558622Y-3649688D01*
X10585484Y-3681701D01*
X10613519Y-3709736D01*
X10620492Y-3723422D01*
X10633229Y-3738601D01*
X10645737Y-3772968D01*
X10660875Y-3802677D01*
X10664206Y-3823710D01*
X10672926Y-3847668D01*
X10672926Y-3878765D01*
X10677192Y-3905701D01*
X10672926Y-3932635D01*
X10672926Y-3963734D01*
X10664206Y-3987692D01*
X10660875Y-4008724D01*
X10645739Y-4038428D01*
X10633229Y-4072802D01*
X10620490Y-4087983D01*
X10613519Y-4101665D01*
X10585491Y-4129692D01*
X10558622Y-4161714D01*
X10546432Y-4168751D01*
X10539766Y-4175418D01*
X10498219Y-4196587D01*
X10458105Y-4219747D01*
X10449940Y-4221186D01*
X10446825Y-4222774D01*
X10388972Y-4231937D01*
X10343802Y-4239902D01*
X10338685Y-4239902D01*
X8967105Y-4239902D01*
X8961988Y-4239902D01*
X8916821Y-4231937D01*
X8858964Y-4222774D01*
X8855848Y-4221186D01*
X8847685Y-4219747D01*
X8807577Y-4196591D01*
X8766023Y-4175418D01*
X8759355Y-4168750D01*
X8747168Y-4161714D01*
X8720305Y-4129700D01*
X8692270Y-4101665D01*
X8685296Y-4087978D01*
X8672561Y-4072801D01*
X8660053Y-4038436D01*
X8644914Y-4008724D01*
X8641582Y-3987686D01*
X8632864Y-3963734D01*
X8632864Y-3932642D01*
X8628597Y-3905701D01*
X8632864Y-3878759D01*
X8632864Y-3847668D01*
X8641581Y-3823715D01*
X8644914Y-3802677D01*
X8660053Y-3772963D01*
X8672561Y-3738600D01*
X8685295Y-3723423D01*
X8692270Y-3709736D01*
X8720308Y-3681697D01*
X8747168Y-3649688D01*
X8759352Y-3642653D01*
X8766023Y-3635983D01*
X8807592Y-3614802D01*
X8847685Y-3591655D01*
X8855845Y-3590216D01*
X8858964Y-3588627D01*
X8916847Y-3579459D01*
X8961988Y-3571500D01*
X10343802Y-3571500D01*
X10388946Y-3579460D01*
G37*
G36*
X15799156Y-3579460D02*
G01*
X15857035Y-3588627D01*
X15860153Y-3590215D01*
X15868315Y-3591655D01*
X15908414Y-3614806D01*
X15949976Y-3635983D01*
X15956644Y-3642651D01*
X15968832Y-3649688D01*
X15995694Y-3681701D01*
X16023729Y-3709736D01*
X16030702Y-3723422D01*
X16043439Y-3738601D01*
X16055947Y-3772968D01*
X16071085Y-3802677D01*
X16074416Y-3823710D01*
X16083136Y-3847668D01*
X16083136Y-3878765D01*
X16087402Y-3905701D01*
X16083136Y-3932635D01*
X16083136Y-3963734D01*
X16074416Y-3987692D01*
X16071085Y-4008724D01*
X16055949Y-4038428D01*
X16043439Y-4072802D01*
X16030700Y-4087983D01*
X16023729Y-4101665D01*
X15995701Y-4129692D01*
X15968832Y-4161714D01*
X15956642Y-4168751D01*
X15949976Y-4175418D01*
X15908429Y-4196587D01*
X15868315Y-4219747D01*
X15860150Y-4221186D01*
X15857035Y-4222774D01*
X15799182Y-4231937D01*
X15754012Y-4239902D01*
X15748895Y-4239902D01*
X14377315Y-4239902D01*
X14372198Y-4239902D01*
X14327031Y-4231937D01*
X14269174Y-4222774D01*
X14266058Y-4221186D01*
X14257895Y-4219747D01*
X14217787Y-4196591D01*
X14176233Y-4175418D01*
X14169565Y-4168750D01*
X14157378Y-4161714D01*
X14130515Y-4129700D01*
X14102480Y-4101665D01*
X14095506Y-4087978D01*
X14082771Y-4072801D01*
X14070263Y-4038436D01*
X14055124Y-4008724D01*
X14051792Y-3987686D01*
X14043074Y-3963734D01*
X14043074Y-3932642D01*
X14038807Y-3905701D01*
X14043074Y-3878759D01*
X14043074Y-3847668D01*
X14051791Y-3823715D01*
X14055124Y-3802677D01*
X14070263Y-3772963D01*
X14082771Y-3738600D01*
X14095505Y-3723423D01*
X14102480Y-3709736D01*
X14130518Y-3681697D01*
X14157378Y-3649688D01*
X14169562Y-3642653D01*
X14176233Y-3635983D01*
X14217802Y-3614802D01*
X14257895Y-3591655D01*
X14266055Y-3590216D01*
X14269174Y-3588627D01*
X14327057Y-3579459D01*
X14372198Y-3571500D01*
X15754012Y-3571500D01*
X15799156Y-3579460D01*
G37*
G36*
X3010384Y-3851905D02*
G01*
X3040663Y-3872137D01*
X3060895Y-3902416D01*
X3067999Y-3938134D01*
X3067999Y-3944528D01*
X3068000Y-3944533D01*
X3068000Y-4072801D01*
X3068000Y-4111467D01*
X3060895Y-4147184D01*
X3040663Y-4177463D01*
X3010384Y-4197695D01*
X2974666Y-4204799D01*
X2968271Y-4204799D01*
X2968266Y-4204800D01*
X1617734Y-4204800D01*
X1617733Y-4204799D01*
X1611333Y-4204800D01*
X1575616Y-4197695D01*
X1545337Y-4177463D01*
X1525105Y-4147184D01*
X1518001Y-4111466D01*
X1518000Y-4105070D01*
X1518000Y-4105066D01*
X1518000Y-3944533D01*
X1518000Y-3944532D01*
X1518000Y-3938133D01*
X1525105Y-3902416D01*
X1545337Y-3872137D01*
X1575616Y-3851905D01*
X1611334Y-3844801D01*
X1617728Y-3844800D01*
X1617734Y-3844800D01*
X2968266Y-3844800D01*
X2974667Y-3844800D01*
X3010384Y-3851905D01*
G37*
G36*
X7410384Y-3851905D02*
G01*
X7440663Y-3872137D01*
X7460895Y-3902416D01*
X7467999Y-3938134D01*
X7467999Y-3944528D01*
X7468000Y-3944533D01*
X7468000Y-4072801D01*
X7468000Y-4111467D01*
X7460895Y-4147184D01*
X7440663Y-4177463D01*
X7410384Y-4197695D01*
X7374666Y-4204799D01*
X7368271Y-4204799D01*
X7368266Y-4204800D01*
X6017734Y-4204800D01*
X6017733Y-4204799D01*
X6011333Y-4204800D01*
X5975616Y-4197695D01*
X5945337Y-4177463D01*
X5925105Y-4147184D01*
X5918001Y-4111466D01*
X5918000Y-4105070D01*
X5918000Y-4105066D01*
X5918000Y-3944533D01*
X5918000Y-3944532D01*
X5918000Y-3938133D01*
X5925105Y-3902416D01*
X5945337Y-3872137D01*
X5975616Y-3851905D01*
X6011334Y-3844801D01*
X6017728Y-3844800D01*
X6017734Y-3844800D01*
X7368266Y-3844800D01*
X7374667Y-3844800D01*
X7410384Y-3851905D01*
G37*
G36*
X18655796Y-3504082D02*
G01*
X18715815Y-3544185D01*
X18755918Y-3604204D01*
X18770000Y-3675000D01*
X18770000Y-3945000D01*
X18755918Y-4015796D01*
X18715815Y-4075815D01*
X18655796Y-4115918D01*
X18585000Y-4130000D01*
X18215000Y-4130000D01*
X18144204Y-4115918D01*
X18084185Y-4075815D01*
X18044082Y-4015796D01*
X18030000Y-3945000D01*
X18030000Y-3675000D01*
X18044082Y-3604204D01*
X18084185Y-3544185D01*
X18144204Y-3504082D01*
X18215000Y-3490000D01*
X18585000Y-3490000D01*
X18655796Y-3504082D01*
G37*
G36*
X19755796Y-3504082D02*
G01*
X19815815Y-3544185D01*
X19855918Y-3604204D01*
X19870000Y-3675000D01*
X19870000Y-3945000D01*
X19855918Y-4015796D01*
X19815815Y-4075815D01*
X19755796Y-4115918D01*
X19685000Y-4130000D01*
X19315000Y-4130000D01*
X19244204Y-4115918D01*
X19184185Y-4075815D01*
X19144082Y-4015796D01*
X19130000Y-3945000D01*
X19130000Y-3675000D01*
X19144082Y-3604204D01*
X19184185Y-3544185D01*
X19244204Y-3504082D01*
X19315000Y-3490000D01*
X19685000Y-3490000D01*
X19755796Y-3504082D01*
G37*
G36*
X20855796Y-3504082D02*
G01*
X20915815Y-3544185D01*
X20955918Y-3604204D01*
X20970000Y-3675000D01*
X20970000Y-3945000D01*
X20955918Y-4015796D01*
X20915815Y-4075815D01*
X20855796Y-4115918D01*
X20785000Y-4130000D01*
X20415000Y-4130000D01*
X20344204Y-4115918D01*
X20284185Y-4075815D01*
X20244082Y-4015796D01*
X20230000Y-3945000D01*
X20230000Y-3675000D01*
X20244082Y-3604204D01*
X20284185Y-3544185D01*
X20344204Y-3504082D01*
X20415000Y-3490000D01*
X20785000Y-3490000D01*
X20855796Y-3504082D01*
G37*
G36*
X18655796Y-2484082D02*
G01*
X18715815Y-2524185D01*
X18755918Y-2584204D01*
X18770000Y-2655000D01*
X18770000Y-2925000D01*
X18755918Y-2995796D01*
X18715815Y-3055815D01*
X18655796Y-3095918D01*
X18585000Y-3110000D01*
X18215000Y-3110000D01*
X18144204Y-3095918D01*
X18084185Y-3055815D01*
X18044082Y-2995796D01*
X18030000Y-2925000D01*
X18030000Y-2655000D01*
X18044082Y-2584204D01*
X18084185Y-2524185D01*
X18144204Y-2484082D01*
X18215000Y-2470000D01*
X18585000Y-2470000D01*
X18655796Y-2484082D01*
G37*
G36*
X19755796Y-2484082D02*
G01*
X19815815Y-2524185D01*
X19855918Y-2584204D01*
X19870000Y-2655000D01*
X19870000Y-2925000D01*
X19855918Y-2995796D01*
X19815815Y-3055815D01*
X19755796Y-3095918D01*
X19685000Y-3110000D01*
X19315000Y-3110000D01*
X19244204Y-3095918D01*
X19184185Y-3055815D01*
X19144082Y-2995796D01*
X19130000Y-2925000D01*
X19130000Y-2655000D01*
X19144082Y-2584204D01*
X19184185Y-2524185D01*
X19244204Y-2484082D01*
X19315000Y-2470000D01*
X19685000Y-2470000D01*
X19755796Y-2484082D01*
G37*
G36*
X20855796Y-2484082D02*
G01*
X20915815Y-2524185D01*
X20955918Y-2584204D01*
X20970000Y-2655000D01*
X20970000Y-2925000D01*
X20955918Y-2995796D01*
X20915815Y-3055815D01*
X20855796Y-3095918D01*
X20785000Y-3110000D01*
X20415000Y-3110000D01*
X20344204Y-3095918D01*
X20284185Y-3055815D01*
X20244082Y-2995796D01*
X20230000Y-2925000D01*
X20230000Y-2655000D01*
X20244082Y-2584204D01*
X20284185Y-2524185D01*
X20344204Y-2484082D01*
X20415000Y-2470000D01*
X20785000Y-2470000D01*
X20855796Y-2484082D01*
G37*
G36*
X5176996Y-2279182D02*
G01*
X5237015Y-2319285D01*
X5277118Y-2379304D01*
X5291200Y-2450100D01*
X5291200Y-2820100D01*
X5277118Y-2890896D01*
X5237015Y-2950915D01*
X5176996Y-2991018D01*
X5106200Y-3005100D01*
X4836200Y-3005100D01*
X4765404Y-2991018D01*
X4705385Y-2950915D01*
X4665282Y-2890896D01*
X4651200Y-2820100D01*
X4651200Y-2450100D01*
X4665282Y-2379304D01*
X4705385Y-2319285D01*
X4765404Y-2279182D01*
X4836200Y-2265100D01*
X5106200Y-2265100D01*
X5176996Y-2279182D01*
G37*
G36*
X6196996Y-2279182D02*
G01*
X6257015Y-2319285D01*
X6297118Y-2379304D01*
X6311200Y-2450100D01*
X6311200Y-2820100D01*
X6297118Y-2890896D01*
X6257015Y-2950915D01*
X6196996Y-2991018D01*
X6126200Y-3005100D01*
X5856200Y-3005100D01*
X5785404Y-2991018D01*
X5725385Y-2950915D01*
X5685282Y-2890896D01*
X5671200Y-2820100D01*
X5671200Y-2450100D01*
X5685282Y-2379304D01*
X5725385Y-2319285D01*
X5785404Y-2279182D01*
X5856200Y-2265100D01*
X6126200Y-2265100D01*
X6196996Y-2279182D01*
G37*
G36*
X10388946Y-2309458D02*
G01*
X10446825Y-2318625D01*
X10449943Y-2320213D01*
X10458105Y-2321653D01*
X10498204Y-2344804D01*
X10539766Y-2365981D01*
X10546434Y-2372649D01*
X10558622Y-2379686D01*
X10585484Y-2411699D01*
X10613519Y-2439734D01*
X10620492Y-2453420D01*
X10633229Y-2468599D01*
X10645737Y-2502966D01*
X10660875Y-2532675D01*
X10664206Y-2553708D01*
X10672926Y-2577666D01*
X10672926Y-2608763D01*
X10677192Y-2635699D01*
X10672926Y-2662633D01*
X10672926Y-2693732D01*
X10664206Y-2717690D01*
X10660875Y-2738722D01*
X10645739Y-2768426D01*
X10633229Y-2802800D01*
X10620490Y-2817981D01*
X10613519Y-2831663D01*
X10585491Y-2859690D01*
X10558622Y-2891712D01*
X10546432Y-2898749D01*
X10539766Y-2905416D01*
X10498219Y-2926585D01*
X10458105Y-2949745D01*
X10449940Y-2951184D01*
X10446825Y-2952772D01*
X10388972Y-2961935D01*
X10343802Y-2969900D01*
X10338685Y-2969900D01*
X8967105Y-2969900D01*
X8961988Y-2969900D01*
X8916821Y-2961935D01*
X8858964Y-2952772D01*
X8855848Y-2951184D01*
X8847685Y-2949745D01*
X8807577Y-2926589D01*
X8766023Y-2905416D01*
X8759355Y-2898748D01*
X8747168Y-2891712D01*
X8720305Y-2859698D01*
X8692270Y-2831663D01*
X8685296Y-2817976D01*
X8672561Y-2802799D01*
X8660053Y-2768434D01*
X8644914Y-2738722D01*
X8641582Y-2717684D01*
X8632864Y-2693732D01*
X8632864Y-2662640D01*
X8628597Y-2635699D01*
X8632864Y-2608757D01*
X8632864Y-2577666D01*
X8641581Y-2553713D01*
X8644914Y-2532675D01*
X8660053Y-2502961D01*
X8672561Y-2468598D01*
X8685295Y-2453421D01*
X8692270Y-2439734D01*
X8720308Y-2411695D01*
X8747168Y-2379686D01*
X8759352Y-2372651D01*
X8766023Y-2365981D01*
X8807592Y-2344800D01*
X8847685Y-2321653D01*
X8855845Y-2320214D01*
X8858964Y-2318625D01*
X8916847Y-2309457D01*
X8961988Y-2301498D01*
X10343802Y-2301498D01*
X10388946Y-2309458D01*
G37*
G36*
X15799156Y-2309458D02*
G01*
X15857035Y-2318625D01*
X15860153Y-2320213D01*
X15868315Y-2321653D01*
X15908414Y-2344804D01*
X15949976Y-2365981D01*
X15956644Y-2372649D01*
X15968832Y-2379686D01*
X15995694Y-2411699D01*
X16023729Y-2439734D01*
X16030702Y-2453420D01*
X16043439Y-2468599D01*
X16055947Y-2502966D01*
X16071085Y-2532675D01*
X16074416Y-2553708D01*
X16083136Y-2577666D01*
X16083136Y-2608763D01*
X16087402Y-2635699D01*
X16083136Y-2662633D01*
X16083136Y-2693732D01*
X16074416Y-2717690D01*
X16071085Y-2738722D01*
X16055949Y-2768426D01*
X16043439Y-2802800D01*
X16030700Y-2817981D01*
X16023729Y-2831663D01*
X15995701Y-2859690D01*
X15968832Y-2891712D01*
X15956642Y-2898749D01*
X15949976Y-2905416D01*
X15908429Y-2926585D01*
X15868315Y-2949745D01*
X15860150Y-2951184D01*
X15857035Y-2952772D01*
X15799182Y-2961935D01*
X15754012Y-2969900D01*
X15748895Y-2969900D01*
X14377315Y-2969900D01*
X14372198Y-2969900D01*
X14327031Y-2961935D01*
X14269174Y-2952772D01*
X14266058Y-2951184D01*
X14257895Y-2949745D01*
X14217787Y-2926589D01*
X14176233Y-2905416D01*
X14169565Y-2898748D01*
X14157378Y-2891712D01*
X14130515Y-2859698D01*
X14102480Y-2831663D01*
X14095506Y-2817976D01*
X14082771Y-2802799D01*
X14070263Y-2768434D01*
X14055124Y-2738722D01*
X14051792Y-2717684D01*
X14043074Y-2693732D01*
X14043074Y-2662640D01*
X14038807Y-2635699D01*
X14043074Y-2608757D01*
X14043074Y-2577666D01*
X14051791Y-2553713D01*
X14055124Y-2532675D01*
X14070263Y-2502961D01*
X14082771Y-2468598D01*
X14095505Y-2453421D01*
X14102480Y-2439734D01*
X14130518Y-2411695D01*
X14157378Y-2379686D01*
X14169562Y-2372651D01*
X14176233Y-2365981D01*
X14217802Y-2344800D01*
X14257895Y-2321653D01*
X14266055Y-2320214D01*
X14269174Y-2318625D01*
X14327057Y-2309457D01*
X14372198Y-2301498D01*
X15754012Y-2301498D01*
X15799156Y-2309458D01*
G37*
G36*
X17142296Y-1945382D02*
G01*
X17202315Y-1985485D01*
X17242418Y-2045504D01*
X17256500Y-2116300D01*
X17256500Y-2386300D01*
X17242418Y-2457096D01*
X17202315Y-2517115D01*
X17142296Y-2557218D01*
X17071500Y-2571300D01*
X16701500Y-2571300D01*
X16630704Y-2557218D01*
X16570685Y-2517115D01*
X16530582Y-2457096D01*
X16516500Y-2386300D01*
X16516500Y-2116300D01*
X16530582Y-2045504D01*
X16570685Y-1985485D01*
X16630704Y-1945382D01*
X16701500Y-1931300D01*
X17071500Y-1931300D01*
X17142296Y-1945382D01*
G37*
G36*
X23118685Y-657969D02*
G01*
X23127893Y-662034D01*
X23134724Y-663030D01*
X23177422Y-683903D01*
X23219541Y-702501D01*
X23223441Y-706401D01*
X23223801Y-706577D01*
X23293422Y-776198D01*
X23293597Y-776557D01*
X23297499Y-780459D01*
X23316100Y-822588D01*
X23336969Y-865275D01*
X23337963Y-872103D01*
X23342031Y-881315D01*
X23350000Y-950000D01*
X23350000Y-2050000D01*
X23342031Y-2118685D01*
X23337963Y-2127896D01*
X23336969Y-2134724D01*
X23316105Y-2177401D01*
X23297499Y-2219541D01*
X23293597Y-2223442D01*
X23293422Y-2223801D01*
X23223801Y-2293422D01*
X23223442Y-2293597D01*
X23219541Y-2297499D01*
X23177401Y-2316105D01*
X23134724Y-2336969D01*
X23127896Y-2337963D01*
X23118685Y-2342031D01*
X23050000Y-2350000D01*
X21950000Y-2350000D01*
X21881315Y-2342031D01*
X21872103Y-2337963D01*
X21865275Y-2336969D01*
X21822588Y-2316100D01*
X21780459Y-2297499D01*
X21776557Y-2293597D01*
X21776198Y-2293422D01*
X21706577Y-2223801D01*
X21706401Y-2223441D01*
X21702501Y-2219541D01*
X21683903Y-2177422D01*
X21663030Y-2134724D01*
X21662034Y-2127893D01*
X21657969Y-2118685D01*
X21650000Y-2050000D01*
X21650000Y-950000D01*
X21657969Y-881315D01*
X21662034Y-872107D01*
X21663030Y-865275D01*
X21683908Y-822567D01*
X21702501Y-780459D01*
X21706400Y-776559D01*
X21706577Y-776198D01*
X21776198Y-706577D01*
X21776559Y-706400D01*
X21780459Y-702501D01*
X21822567Y-683908D01*
X21865275Y-663030D01*
X21872107Y-662034D01*
X21881315Y-657969D01*
X21950000Y-650000D01*
X23050000Y-650000D01*
X23118685Y-657969D01*
G37*
G36*
X18983339Y-976658D02*
G01*
X19038125Y-983871D01*
X19051906Y-990297D01*
X19070671Y-994030D01*
X19095526Y-1010637D01*
X19117819Y-1021033D01*
X19131380Y-1034594D01*
X19151777Y-1048223D01*
X19165405Y-1068619D01*
X19178966Y-1082180D01*
X19189360Y-1104470D01*
X19205970Y-1129329D01*
X19209702Y-1148095D01*
X19216128Y-1161874D01*
X19223338Y-1216648D01*
X19225000Y-1225000D01*
X19225000Y-1775000D01*
X19223338Y-1783353D01*
X19216128Y-1838125D01*
X19209703Y-1851903D01*
X19205970Y-1870671D01*
X19189358Y-1895531D01*
X19178966Y-1917819D01*
X19165407Y-1931377D01*
X19151777Y-1951777D01*
X19131377Y-1965407D01*
X19117819Y-1978966D01*
X19095531Y-1989358D01*
X19070671Y-2005970D01*
X19051903Y-2009703D01*
X19038125Y-2016128D01*
X18983353Y-2023338D01*
X18975000Y-2025000D01*
X18575000Y-2025000D01*
X18566648Y-2023338D01*
X18511874Y-2016128D01*
X18498095Y-2009702D01*
X18479329Y-2005970D01*
X18454470Y-1989360D01*
X18432180Y-1978966D01*
X18418619Y-1965405D01*
X18398223Y-1951777D01*
X18384594Y-1931380D01*
X18371033Y-1917819D01*
X18360637Y-1895526D01*
X18344030Y-1870671D01*
X18340297Y-1851906D01*
X18333871Y-1838125D01*
X18326658Y-1783339D01*
X18325000Y-1775000D01*
X18325000Y-1225000D01*
X18326658Y-1216662D01*
X18333871Y-1161874D01*
X18340297Y-1148091D01*
X18344030Y-1129329D01*
X18360636Y-1104475D01*
X18371033Y-1082180D01*
X18384596Y-1068616D01*
X18398223Y-1048223D01*
X18418616Y-1034596D01*
X18432180Y-1021033D01*
X18454475Y-1010636D01*
X18479329Y-994030D01*
X18498091Y-990297D01*
X18511874Y-983871D01*
X18566662Y-976658D01*
X18575000Y-975000D01*
X18975000Y-975000D01*
X18983339Y-976658D01*
G37*
G36*
X20633339Y-976658D02*
G01*
X20688125Y-983871D01*
X20701906Y-990297D01*
X20720671Y-994030D01*
X20745526Y-1010637D01*
X20767819Y-1021033D01*
X20781380Y-1034594D01*
X20801777Y-1048223D01*
X20815405Y-1068619D01*
X20828966Y-1082180D01*
X20839360Y-1104470D01*
X20855970Y-1129329D01*
X20859702Y-1148095D01*
X20866128Y-1161874D01*
X20873338Y-1216648D01*
X20875000Y-1225000D01*
X20875000Y-1775000D01*
X20873338Y-1783353D01*
X20866128Y-1838125D01*
X20859703Y-1851903D01*
X20855970Y-1870671D01*
X20839358Y-1895531D01*
X20828966Y-1917819D01*
X20815407Y-1931377D01*
X20801777Y-1951777D01*
X20781377Y-1965407D01*
X20767819Y-1978966D01*
X20745531Y-1989358D01*
X20720671Y-2005970D01*
X20701903Y-2009703D01*
X20688125Y-2016128D01*
X20633353Y-2023338D01*
X20625000Y-2025000D01*
X20225000Y-2025000D01*
X20216648Y-2023338D01*
X20161874Y-2016128D01*
X20148095Y-2009702D01*
X20129329Y-2005970D01*
X20104470Y-1989360D01*
X20082180Y-1978966D01*
X20068619Y-1965405D01*
X20048223Y-1951777D01*
X20034594Y-1931380D01*
X20021033Y-1917819D01*
X20010637Y-1895526D01*
X19994030Y-1870671D01*
X19990297Y-1851906D01*
X19983871Y-1838125D01*
X19976658Y-1783339D01*
X19975000Y-1775000D01*
X19975000Y-1225000D01*
X19976658Y-1216662D01*
X19983871Y-1161874D01*
X19990297Y-1148091D01*
X19994030Y-1129329D01*
X20010636Y-1104475D01*
X20021033Y-1082180D01*
X20034596Y-1068616D01*
X20048223Y-1048223D01*
X20068616Y-1034596D01*
X20082180Y-1021033D01*
X20104475Y-1010636D01*
X20129329Y-994030D01*
X20148091Y-990297D01*
X20161874Y-983871D01*
X20216662Y-976658D01*
X20225000Y-975000D01*
X20625000Y-975000D01*
X20633339Y-976658D01*
G37*
G36*
X10388946Y-1039455D02*
G01*
X10446825Y-1048622D01*
X10449943Y-1050210D01*
X10458105Y-1051650D01*
X10498204Y-1074801D01*
X10539766Y-1095978D01*
X10546434Y-1102646D01*
X10558622Y-1109683D01*
X10585484Y-1141696D01*
X10613519Y-1169731D01*
X10620492Y-1183417D01*
X10633229Y-1198596D01*
X10645737Y-1232963D01*
X10660875Y-1262672D01*
X10664206Y-1283705D01*
X10672926Y-1307663D01*
X10672926Y-1338760D01*
X10677192Y-1365696D01*
X10672926Y-1392630D01*
X10672926Y-1423729D01*
X10664206Y-1447687D01*
X10660875Y-1468719D01*
X10645739Y-1498423D01*
X10633229Y-1532797D01*
X10620490Y-1547978D01*
X10613519Y-1561660D01*
X10585491Y-1589687D01*
X10558622Y-1621709D01*
X10546432Y-1628746D01*
X10539766Y-1635413D01*
X10498219Y-1656582D01*
X10458105Y-1679742D01*
X10449940Y-1681181D01*
X10446825Y-1682769D01*
X10388972Y-1691932D01*
X10343802Y-1699897D01*
X10338685Y-1699897D01*
X8967105Y-1699897D01*
X8961988Y-1699897D01*
X8916821Y-1691932D01*
X8858964Y-1682769D01*
X8855848Y-1681181D01*
X8847685Y-1679742D01*
X8807577Y-1656586D01*
X8766023Y-1635413D01*
X8759355Y-1628745D01*
X8747168Y-1621709D01*
X8720305Y-1589695D01*
X8692270Y-1561660D01*
X8685296Y-1547973D01*
X8672561Y-1532796D01*
X8660053Y-1498431D01*
X8644914Y-1468719D01*
X8641582Y-1447681D01*
X8632864Y-1423729D01*
X8632864Y-1392637D01*
X8628597Y-1365696D01*
X8632864Y-1338754D01*
X8632864Y-1307663D01*
X8641581Y-1283710D01*
X8644914Y-1262672D01*
X8660053Y-1232958D01*
X8672561Y-1198595D01*
X8685295Y-1183418D01*
X8692270Y-1169731D01*
X8720308Y-1141692D01*
X8747168Y-1109683D01*
X8759352Y-1102648D01*
X8766023Y-1095978D01*
X8807592Y-1074797D01*
X8847685Y-1051650D01*
X8855845Y-1050211D01*
X8858964Y-1048622D01*
X8916847Y-1039454D01*
X8961988Y-1031495D01*
X10343802Y-1031495D01*
X10388946Y-1039455D01*
G37*
G36*
X15799156Y-1039455D02*
G01*
X15857035Y-1048622D01*
X15860153Y-1050210D01*
X15868315Y-1051650D01*
X15908414Y-1074801D01*
X15949976Y-1095978D01*
X15956644Y-1102646D01*
X15968832Y-1109683D01*
X15995694Y-1141696D01*
X16023729Y-1169731D01*
X16030702Y-1183417D01*
X16043439Y-1198596D01*
X16055947Y-1232963D01*
X16071085Y-1262672D01*
X16074416Y-1283705D01*
X16083136Y-1307663D01*
X16083136Y-1338760D01*
X16087402Y-1365696D01*
X16083136Y-1392630D01*
X16083136Y-1423729D01*
X16074416Y-1447687D01*
X16071085Y-1468719D01*
X16055949Y-1498423D01*
X16043439Y-1532797D01*
X16030700Y-1547978D01*
X16023729Y-1561660D01*
X15995701Y-1589687D01*
X15968832Y-1621709D01*
X15956642Y-1628746D01*
X15949976Y-1635413D01*
X15908429Y-1656582D01*
X15868315Y-1679742D01*
X15860150Y-1681181D01*
X15857035Y-1682769D01*
X15799182Y-1691932D01*
X15754012Y-1699897D01*
X15748895Y-1699897D01*
X14377315Y-1699897D01*
X14372198Y-1699897D01*
X14327031Y-1691932D01*
X14269174Y-1682769D01*
X14266058Y-1681181D01*
X14257895Y-1679742D01*
X14217787Y-1656586D01*
X14176233Y-1635413D01*
X14169565Y-1628745D01*
X14157378Y-1621709D01*
X14130515Y-1589695D01*
X14102480Y-1561660D01*
X14095506Y-1547973D01*
X14082771Y-1532796D01*
X14070263Y-1498431D01*
X14055124Y-1468719D01*
X14051792Y-1447681D01*
X14043074Y-1423729D01*
X14043074Y-1392637D01*
X14038807Y-1365696D01*
X14043074Y-1338754D01*
X14043074Y-1307663D01*
X14051791Y-1283710D01*
X14055124Y-1262672D01*
X14070263Y-1232958D01*
X14082771Y-1198595D01*
X14095505Y-1183418D01*
X14102480Y-1169731D01*
X14130518Y-1141692D01*
X14157378Y-1109683D01*
X14169562Y-1102648D01*
X14176233Y-1095978D01*
X14217802Y-1074797D01*
X14257895Y-1051650D01*
X14266055Y-1050211D01*
X14269174Y-1048622D01*
X14327057Y-1039454D01*
X14372198Y-1031495D01*
X15754012Y-1031495D01*
X15799156Y-1039455D01*
G37*
G36*
X2001537Y-565224D02*
G01*
X2066421Y-608579D01*
X2109776Y-673463D01*
X2125000Y-750000D01*
X2125000Y-1450000D01*
X2109776Y-1526537D01*
X2066421Y-1591421D01*
X2001537Y-1634776D01*
X1925000Y-1650000D01*
X1275000Y-1650000D01*
X1198463Y-1634776D01*
X1133579Y-1591421D01*
X1090224Y-1526537D01*
X1075000Y-1450000D01*
X1075000Y-750000D01*
X1090224Y-673463D01*
X1133579Y-608579D01*
X1198463Y-565224D01*
X1275000Y-550000D01*
X1925000Y-550000D01*
X2001537Y-565224D01*
G37*
G36*
X3601537Y-565224D02*
G01*
X3666421Y-608579D01*
X3709776Y-673463D01*
X3725000Y-750000D01*
X3725000Y-1450000D01*
X3709776Y-1526537D01*
X3666421Y-1591421D01*
X3601537Y-1634776D01*
X3525000Y-1650000D01*
X2875000Y-1650000D01*
X2798463Y-1634776D01*
X2733579Y-1591421D01*
X2690224Y-1526537D01*
X2675000Y-1450000D01*
X2675000Y-750000D01*
X2690224Y-673463D01*
X2733579Y-608579D01*
X2798463Y-565224D01*
X2875000Y-550000D01*
X3525000Y-550000D01*
X3601537Y-565224D01*
G37*
G36*
X17142296Y-925382D02*
G01*
X17202315Y-965485D01*
X17242418Y-1025504D01*
X17256500Y-1096300D01*
X17256500Y-1366300D01*
X17242418Y-1437096D01*
X17202315Y-1497115D01*
X17142296Y-1537218D01*
X17071500Y-1551300D01*
X16701500Y-1551300D01*
X16630704Y-1537218D01*
X16570685Y-1497115D01*
X16530582Y-1437096D01*
X16516500Y-1366300D01*
X16516500Y-1096300D01*
X16530582Y-1025504D01*
X16570685Y-965485D01*
X16630704Y-925382D01*
X16701500Y-911300D01*
X17071500Y-911300D01*
X17142296Y-925382D01*
G37*
G36*
X4495796Y-744082D02*
G01*
X4555815Y-784185D01*
X4595918Y-844204D01*
X4610000Y-915000D01*
X4610000Y-1285000D01*
X4595918Y-1355796D01*
X4555815Y-1415815D01*
X4495796Y-1455918D01*
X4425000Y-1470000D01*
X4155000Y-1470000D01*
X4084204Y-1455918D01*
X4024185Y-1415815D01*
X3984082Y-1355796D01*
X3970000Y-1285000D01*
X3970000Y-915000D01*
X3984082Y-844204D01*
X4024185Y-784185D01*
X4084204Y-744082D01*
X4155000Y-730000D01*
X4425000Y-730000D01*
X4495796Y-744082D01*
G37*
G36*
X5515796Y-744082D02*
G01*
X5575815Y-784185D01*
X5615918Y-844204D01*
X5630000Y-915000D01*
X5630000Y-1285000D01*
X5615918Y-1355796D01*
X5575815Y-1415815D01*
X5515796Y-1455918D01*
X5445000Y-1470000D01*
X5175000Y-1470000D01*
X5104204Y-1455918D01*
X5044185Y-1415815D01*
X5004082Y-1355796D01*
X4990000Y-1285000D01*
X4990000Y-915000D01*
X5004082Y-844204D01*
X5044185Y-784185D01*
X5104204Y-744082D01*
X5175000Y-730000D01*
X5445000Y-730000D01*
X5515796Y-744082D01*
G37*
M02*
