%TF.GenerationSoftware,KiCad,Pcbnew,7.0.7*%
%TF.CreationDate,2023-10-10T17:02:05+13:00*%
%TF.ProjectId,probeDaughterBoard,70726f62-6544-4617-9567-68746572426f,rev?*%
%TF.SameCoordinates,Original*%
%TF.FileFunction,Copper,L2,Bot*%
%TF.FilePolarity,Positive*%
%FSLAX46Y46*%
G04 Gerber Fmt 4.6, Leading zero omitted, Abs format (unit mm)*
G04 Created by KiCad (PCBNEW 7.0.7) date 2023-10-10 17:02:05*
%MOMM*%
%LPD*%
G01*
G04 APERTURE LIST*
G04 Aperture macros list*
%AMRoundRect*
0 Rectangle with rounded corners*
0 $1 Rounding radius*
0 $2 $3 $4 $5 $6 $7 $8 $9 X,Y pos of 4 corners*
0 Add a 4 corners polygon primitive as box body*
4,1,4,$2,$3,$4,$5,$6,$7,$8,$9,$2,$3,0*
0 Add four circle primitives for the rounded corners*
1,1,$1+$1,$2,$3*
1,1,$1+$1,$4,$5*
1,1,$1+$1,$6,$7*
1,1,$1+$1,$8,$9*
0 Add four rect primitives between the rounded corners*
20,1,$1+$1,$2,$3,$4,$5,0*
20,1,$1+$1,$4,$5,$6,$7,0*
20,1,$1+$1,$6,$7,$8,$9,0*
20,1,$1+$1,$8,$9,$2,$3,0*%
%AMFreePoly0*
4,1,19,0.550000,-0.750000,0.000000,-0.750000,0.000000,-0.744911,-0.071157,-0.744911,-0.207708,-0.704816,-0.327430,-0.627875,-0.420627,-0.520320,-0.479746,-0.390866,-0.500000,-0.250000,-0.500000,0.250000,-0.479746,0.390866,-0.420627,0.520320,-0.327430,0.627875,-0.207708,0.704816,-0.071157,0.744911,0.000000,0.744911,0.000000,0.750000,0.550000,0.750000,0.550000,-0.750000,0.550000,-0.750000,
$1*%
%AMFreePoly1*
4,1,19,0.000000,0.744911,0.071157,0.744911,0.207708,0.704816,0.327430,0.627875,0.420627,0.520320,0.479746,0.390866,0.500000,0.250000,0.500000,-0.250000,0.479746,-0.390866,0.420627,-0.520320,0.327430,-0.627875,0.207708,-0.704816,0.071157,-0.744911,0.000000,-0.744911,0.000000,-0.750000,-0.550000,-0.750000,-0.550000,0.750000,0.000000,0.750000,0.000000,0.744911,0.000000,0.744911,
$1*%
G04 Aperture macros list end*
%TA.AperFunction,EtchedComponent*%
%ADD10C,0.200000*%
%TD*%
%TA.AperFunction,SMDPad,CuDef*%
%ADD11FreePoly0,90.000000*%
%TD*%
%TA.AperFunction,SMDPad,CuDef*%
%ADD12R,1.500000X1.000000*%
%TD*%
%TA.AperFunction,SMDPad,CuDef*%
%ADD13FreePoly1,90.000000*%
%TD*%
%TA.AperFunction,ComponentPad*%
%ADD14RoundRect,0.250001X0.799999X0.799999X-0.799999X0.799999X-0.799999X-0.799999X0.799999X-0.799999X0*%
%TD*%
%TA.AperFunction,ComponentPad*%
%ADD15C,2.100000*%
%TD*%
%TA.AperFunction,ComponentPad*%
%ADD16C,1.200000*%
%TD*%
%TA.AperFunction,ComponentPad*%
%ADD17RoundRect,0.250001X0.799999X-0.799999X0.799999X0.799999X-0.799999X0.799999X-0.799999X-0.799999X0*%
%TD*%
%TA.AperFunction,ComponentPad*%
%ADD18RoundRect,0.250000X0.550000X0.550000X-0.550000X0.550000X-0.550000X-0.550000X0.550000X-0.550000X0*%
%TD*%
%TA.AperFunction,ComponentPad*%
%ADD19C,1.600000*%
%TD*%
%TA.AperFunction,ViaPad*%
%ADD20C,0.500000*%
%TD*%
%TA.AperFunction,Conductor*%
%ADD21C,0.200000*%
%TD*%
%TA.AperFunction,Conductor*%
%ADD22C,0.130000*%
%TD*%
G04 APERTURE END LIST*
%TO.C,JP2*%
D10*
X29664999Y-7700000D02*
X29064999Y-7700000D01*
X29064999Y-7200000D01*
X29664999Y-7200000D01*
X29664999Y-7700000D01*
%TA.AperFunction,EtchedComponent*%
G36*
X29664999Y-7700000D02*
G01*
X29064999Y-7700000D01*
X29064999Y-7200000D01*
X29664999Y-7200000D01*
X29664999Y-7700000D01*
G37*
%TD.AperFunction*%
%TO.C,JP3*%
X32464999Y-7700000D02*
X31864999Y-7700000D01*
X31864999Y-7200000D01*
X32464999Y-7200000D01*
X32464999Y-7700000D01*
%TA.AperFunction,EtchedComponent*%
G36*
X32464999Y-7700000D02*
G01*
X31864999Y-7700000D01*
X31864999Y-7200000D01*
X32464999Y-7200000D01*
X32464999Y-7700000D01*
G37*
%TD.AperFunction*%
%TO.C,JP1*%
X26864999Y-7700000D02*
X26264999Y-7700000D01*
X26264999Y-7200000D01*
X26864999Y-7200000D01*
X26864999Y-7700000D01*
%TA.AperFunction,EtchedComponent*%
G36*
X26864999Y-7700000D02*
G01*
X26264999Y-7700000D01*
X26264999Y-7200000D01*
X26864999Y-7200000D01*
X26864999Y-7700000D01*
G37*
%TD.AperFunction*%
%TD*%
D11*
%TO.P,JP2,1,A*%
%TO.N,GND*%
X29364999Y-8100000D03*
D12*
%TO.P,JP2,2,C*%
%TO.N,Net-(EEPROM1-A1)*%
X29364999Y-6800000D03*
D13*
%TO.P,JP2,3,B*%
%TO.N,+3.3V*%
X29364999Y-5500000D03*
%TD*%
D11*
%TO.P,JP3,1,A*%
%TO.N,GND*%
X32164999Y-8100000D03*
D12*
%TO.P,JP3,2,C*%
%TO.N,Net-(EEPROM1-A2)*%
X32164999Y-6800000D03*
D13*
%TO.P,JP3,3,B*%
%TO.N,+3.3V*%
X32164999Y-5500000D03*
%TD*%
D14*
%TO.P,J2,1,Pin_1*%
%TO.N,+3.3V*%
X36200000Y-2000000D03*
D15*
%TO.P,J2,2,Pin_2*%
%TO.N,/TEMP_OW*%
X31600000Y-2000000D03*
%TO.P,J2,3,Pin_3*%
%TO.N,GND*%
X27000000Y-2000000D03*
%TD*%
D16*
%TO.P,J1,1,Pin_1*%
%TO.N,/VREF*%
X9675000Y-4500000D03*
%TO.P,J1,2,Pin_2*%
%TO.N,unconnected-(J1-Pin_2-Pad2)*%
X7675000Y-4500000D03*
%TO.P,J1,3,Pin_3*%
%TO.N,/ORP_IN*%
X9675000Y-6500000D03*
%TO.P,J1,4,Pin_4*%
%TO.N,/PH_IN*%
X7675000Y-6500000D03*
%TO.P,J1,5,Pin_5*%
%TO.N,/EC_INA*%
X9675000Y-8500000D03*
%TO.P,J1,6,Pin_6*%
%TO.N,/TEMP_INB*%
X7675000Y-8500000D03*
%TO.P,J1,7,Pin_7*%
%TO.N,/EC_INB*%
X9675000Y-10500000D03*
%TO.P,J1,8,Pin_8*%
%TO.N,/TEMP_INA*%
X7675000Y-10500000D03*
%TD*%
D11*
%TO.P,JP1,1,A*%
%TO.N,GND*%
X26564999Y-8100000D03*
D12*
%TO.P,JP1,2,C*%
%TO.N,Net-(EEPROM1-A0)*%
X26564999Y-6800000D03*
D13*
%TO.P,JP1,3,B*%
%TO.N,+3.3V*%
X26564999Y-5500000D03*
%TD*%
D17*
%TO.P,J3,1,Pin_1*%
%TO.N,/NITRATE_IN*%
X23100000Y-7800000D03*
D15*
%TO.P,J3,2,Pin_2*%
%TO.N,/VREF*%
X23100000Y-3200000D03*
%TD*%
D18*
%TO.P,J4,1,Pin_1*%
%TO.N,/3V3_IN*%
X42200000Y-12200000D03*
D19*
%TO.P,J4,2,Pin_2*%
%TO.N,/GND_IN*%
X38600000Y-12200000D03*
%TO.P,J4,3,Pin_3*%
%TO.N,/SDA*%
X35000000Y-12200000D03*
%TO.P,J4,4,Pin_4*%
%TO.N,/SCL*%
X31400000Y-12200000D03*
%TO.P,J4,5,Pin_5*%
%TO.N,/INT*%
X27800000Y-12200000D03*
%TO.P,J4,6,Pin_6*%
%TO.N,/TEMP_OW*%
X24200000Y-12200000D03*
%TD*%
D20*
%TO.N,/GND_IN*%
X34000000Y-9300000D03*
%TO.N,/SCL*%
X19055273Y-12000000D03*
%TO.N,/SDA*%
X18600000Y-12469000D03*
%TO.N,/3V3_IN*%
X37400000Y-9000000D03*
%TO.N,/INT*%
X35100000Y-7400000D03*
X12853503Y-11100000D03*
%TO.N,/VREF*%
X3100000Y-8700000D03*
X15900000Y-9600000D03*
%TO.N,+3.3V*%
X30693767Y-6993767D03*
%TO.N,GND*%
X14500000Y-13500000D03*
X17500000Y-11500000D03*
X26400000Y-12000000D03*
X40400000Y-12700000D03*
X24900000Y-2000000D03*
X10000000Y-13700000D03*
X5300000Y-8600000D03*
X29100000Y-13000000D03*
X11900000Y-11200000D03*
X24400000Y-5000000D03*
X8620000Y-2820000D03*
X4000000Y-9000000D03*
X3200000Y-2800000D03*
X20000000Y-800000D03*
X15700000Y-5100000D03*
X38900000Y-9300000D03*
X44000000Y-6700000D03*
X5000000Y-800000D03*
X34500000Y-5200000D03*
X17100000Y-5200000D03*
X1000000Y-2300000D03*
X21500000Y-2800000D03*
X14200000Y-8700000D03*
X31200000Y-4200000D03*
X3500000Y-14000000D03*
X38900000Y-800000D03*
X2400000Y-10800000D03*
X21800000Y-11400000D03*
X17200000Y-3800000D03*
X38000000Y-6300000D03*
X23700000Y-800000D03*
X800000Y-8500000D03*
X33900000Y-800000D03*
X15400000Y-3800000D03*
X8700000Y-9500000D03*
X11000000Y-800000D03*
X21800000Y-13300000D03*
X15900000Y-800000D03*
%TO.N,Net-(EEPROM1-A0)*%
X26594996Y-9705105D03*
%TO.N,Net-(EEPROM1-A1)*%
X27864999Y-9705105D03*
%TO.N,Net-(EEPROM1-A2)*%
X29135001Y-9705105D03*
%TO.N,/PH_RING*%
X8350000Y-5490000D03*
X7000000Y-5400000D03*
X8300000Y-7500000D03*
X6790000Y-7540000D03*
X4500000Y-7790000D03*
%TO.N,/ORP_RING*%
X15100000Y-6500000D03*
X9185136Y-7571836D03*
X10750000Y-5500000D03*
X9181798Y-5461680D03*
X10650000Y-7500000D03*
%TO.N,/NITRATE_RING*%
X24700000Y-7800000D03*
X23100000Y-6050000D03*
X19700000Y-9200000D03*
X17943492Y-8405891D03*
X17900000Y-6700000D03*
X22950000Y-9450000D03*
%TD*%
D21*
%TO.N,/GND_IN*%
X34000000Y-9300000D02*
X34000000Y-9579142D01*
X37766135Y-11366135D02*
X38600000Y-12200000D01*
X35836526Y-10566865D02*
X35046085Y-10566865D01*
X34524072Y-10382356D02*
X34197383Y-10055667D01*
X33999968Y-9579142D02*
G75*
G03*
X34197383Y-10055667I673932J42D01*
G01*
X34524082Y-10382343D02*
G75*
G03*
X35046085Y-10566865I525518J656043D01*
G01*
X37766113Y-11366157D02*
G75*
G03*
X35836526Y-10566865I-1929613J-1929543D01*
G01*
D22*
%TO.N,/SCL*%
X24713499Y-13600000D02*
X29010050Y-13600000D01*
X30700000Y-12900000D02*
X31400000Y-12200000D01*
X22983349Y-12883349D02*
X22900000Y-12800000D01*
X20968629Y-12000000D02*
X19055273Y-12000000D01*
X22983350Y-12883348D02*
G75*
G03*
X24713499Y-13600000I1730150J1730148D01*
G01*
X22899991Y-12800009D02*
G75*
G03*
X20968629Y-12000000I-1931391J-1931391D01*
G01*
X29010050Y-13600020D02*
G75*
G03*
X30699999Y-12899999I-50J2390020D01*
G01*
%TO.N,/SDA*%
X31585786Y-14200000D02*
X24724001Y-14200000D01*
X34000000Y-13200000D02*
X35000000Y-12200000D01*
X20544998Y-12469000D02*
X18600000Y-12469000D01*
X22634501Y-13334499D02*
G75*
G03*
X20544998Y-12469000I-2089501J-2089501D01*
G01*
X22634499Y-13334501D02*
G75*
G03*
X24724001Y-14200000I2089501J2089501D01*
G01*
X31585786Y-14199994D02*
G75*
G03*
X34000000Y-13200000I14J3414194D01*
G01*
D21*
%TO.N,/3V3_IN*%
X41393618Y-12200000D02*
X42200000Y-12200000D01*
X37400000Y-9006382D02*
X37400000Y-9000000D01*
X40017037Y-11629801D02*
X37404512Y-9017276D01*
X40017024Y-11629814D02*
G75*
G03*
X41393618Y-12200000I1376576J1376614D01*
G01*
X37400011Y-9006382D02*
G75*
G03*
X37404512Y-9017276I15389J-18D01*
G01*
D22*
%TO.N,/INT*%
X27746966Y-12146966D02*
X27165500Y-11565500D01*
X34337500Y-8162500D02*
X35100000Y-7400000D01*
X27950000Y-12200000D02*
X27875000Y-12200000D01*
X12853503Y-11100000D02*
X12938003Y-11015500D01*
X28206066Y-12093933D02*
X30597182Y-9702817D01*
X32475000Y-8925000D02*
X32496662Y-8925000D01*
X25633681Y-10931000D02*
X13142004Y-10931000D01*
X32475000Y-8924990D02*
G75*
G03*
X30597183Y-9702818I0J-2655610D01*
G01*
X27950000Y-12200008D02*
G75*
G03*
X28206066Y-12093933I0J362108D01*
G01*
X32496662Y-8924984D02*
G75*
G03*
X34337500Y-8162500I38J2603284D01*
G01*
X27165505Y-11565495D02*
G75*
G03*
X25633681Y-10931000I-1531805J-1531805D01*
G01*
X13142004Y-10931003D02*
G75*
G03*
X12938003Y-11015500I-4J-288497D01*
G01*
X27746959Y-12146973D02*
G75*
G03*
X27875000Y-12200000I128041J128073D01*
G01*
D21*
%TO.N,/VREF*%
X15900000Y-9600000D02*
X16200000Y-9300000D01*
X22450000Y-3850000D02*
X23100000Y-3200000D01*
X8458688Y-3575000D02*
X5020495Y-3575000D01*
X10002036Y-4500000D02*
X20880761Y-4500000D01*
X3100000Y-5495495D02*
X3100000Y-8700000D01*
X16500000Y-8575735D02*
X16500000Y-4500000D01*
X9443750Y-4268750D02*
X8955989Y-3780989D01*
X8955997Y-3780981D02*
G75*
G03*
X8458688Y-3575000I-497297J-497319D01*
G01*
X3662501Y-4137501D02*
G75*
G03*
X3100000Y-5495495I1357999J-1357999D01*
G01*
X16199989Y-9299989D02*
G75*
G03*
X16500000Y-8575735I-724289J724289D01*
G01*
X5020495Y-3574998D02*
G75*
G03*
X3662500Y-4137500I5J-1920502D01*
G01*
X9443739Y-4268761D02*
G75*
G03*
X10002036Y-4500000I558261J558261D01*
G01*
X20880761Y-4499983D02*
G75*
G03*
X22449999Y-3849999I39J2219183D01*
G01*
%TO.N,+3.3V*%
X30699999Y-6903639D02*
X30699999Y-6811686D01*
X31897498Y-5500000D02*
X32432499Y-5500000D01*
X30700000Y-6811686D02*
X30700000Y-6627781D01*
X30693767Y-6993767D02*
X30696883Y-6996883D01*
X30700000Y-6964941D02*
X30699999Y-6903639D01*
X30699999Y-6811686D02*
X30699999Y-6627781D01*
X30700000Y-5959819D02*
X30700000Y-5500000D01*
X26565694Y-5500695D02*
X26564999Y-5500000D01*
X29370903Y-5500000D02*
X31897498Y-5500000D01*
X28012500Y-5687500D02*
X28075000Y-5625000D01*
X30700000Y-6964941D02*
X30700000Y-6995592D01*
X30700000Y-6903639D02*
X30700000Y-6964941D01*
X30699999Y-6259971D02*
X30699999Y-6627781D01*
X29359094Y-5500000D02*
X28376776Y-5500000D01*
X30699999Y-6259971D02*
X30699999Y-5959820D01*
X31897498Y-5500000D02*
X30835126Y-5500000D01*
X32889151Y-5310848D02*
X36200000Y-2000000D01*
X29369174Y-5504175D02*
X29373349Y-5508350D01*
X30700000Y-6259971D02*
X30700000Y-5959819D01*
X30700000Y-6259971D02*
X30700000Y-6627781D01*
X30699999Y-5959820D02*
X30699999Y-5687141D01*
X31897498Y-5500000D02*
X32432499Y-5500000D01*
X27825000Y-5625000D02*
X27887500Y-5687500D01*
X29370903Y-5500000D02*
X29359094Y-5500000D01*
X30700000Y-6903639D02*
X30700000Y-6811686D01*
X26567373Y-5501391D02*
X27579226Y-5501391D01*
X30700001Y-6903639D02*
G75*
G03*
X30699999Y-6903639I-1J0D01*
G01*
X30700000Y-5959819D02*
G75*
G03*
X30699999Y-5959820I0J-1D01*
G01*
X30700001Y-6627781D02*
G75*
G03*
X30699999Y-6627781I-1J0D01*
G01*
X30700001Y-6811686D02*
G75*
G03*
X30699999Y-6811686I-1J0D01*
G01*
X30696911Y-6996856D02*
G75*
G03*
X30700000Y-6995592I1289J1256D01*
G01*
X29369186Y-5504163D02*
G75*
G03*
X29359094Y-5500000I-10086J-10137D01*
G01*
X27824985Y-5625015D02*
G75*
G03*
X27579226Y-5501392I-315085J-320285D01*
G01*
X28376776Y-5499991D02*
G75*
G03*
X28075000Y-5625000I24J-426809D01*
G01*
X32432499Y-5499999D02*
G75*
G03*
X32889150Y-5310847I1J645799D01*
G01*
X31897498Y-5500000D02*
G75*
G02*
X31897498Y-5500000I0J0D01*
G01*
X30700001Y-6259971D02*
G75*
G03*
X30699999Y-6259971I-1J0D01*
G01*
X27887500Y-5687500D02*
G75*
G03*
X28012500Y-5687500I62500J62501D01*
G01*
X29370903Y-5499925D02*
G75*
G03*
X29369175Y-5504174I-3J-2475D01*
G01*
X26565704Y-5500685D02*
G75*
G03*
X26567373Y-5501391I1696J1685D01*
G01*
D22*
%TO.N,Net-(EEPROM1-A0)*%
X27700000Y-7818745D02*
X27700000Y-7030461D01*
X27469538Y-6800000D02*
X26564999Y-6800000D01*
X27147498Y-9152603D02*
X26594996Y-9705105D01*
X27700016Y-7030461D02*
G75*
G03*
X27632499Y-6867500I-230516J-39D01*
G01*
X27632488Y-6867511D02*
G75*
G03*
X27469538Y-6800000I-162988J-162989D01*
G01*
X27147484Y-9152589D02*
G75*
G03*
X27700000Y-7818745I-1333884J1333889D01*
G01*
%TO.N,Net-(EEPROM1-A1)*%
X28032499Y-9537604D02*
X27864999Y-9705105D01*
X28200000Y-7081670D02*
X28200000Y-9133222D01*
X28481670Y-6800000D02*
X29364999Y-6800000D01*
X28032492Y-9537597D02*
G75*
G03*
X28200000Y-9133222I-404392J404397D01*
G01*
X28282508Y-6882508D02*
G75*
G03*
X28200000Y-7081670I199192J-199192D01*
G01*
X28481670Y-6799988D02*
G75*
G03*
X28282500Y-6882500I30J-281712D01*
G01*
%TO.N,Net-(EEPROM1-A2)*%
X31535597Y-6964401D02*
X30574959Y-7925040D01*
X29155811Y-9705105D02*
X29135001Y-9705105D01*
X29191335Y-9690390D02*
X30305038Y-8576687D01*
X31932499Y-6800000D02*
X32164999Y-6800000D01*
X31932499Y-6799998D02*
G75*
G03*
X31535598Y-6964402I1J-561302D01*
G01*
X30574974Y-7925055D02*
G75*
G03*
X30439999Y-8250864I325826J-325845D01*
G01*
X29155811Y-9705122D02*
G75*
G03*
X29191335Y-9690390I-11J50222D01*
G01*
X30305060Y-8576709D02*
G75*
G03*
X30439999Y-8250864I-325860J325809D01*
G01*
%TD*%
%TA.AperFunction,Conductor*%
%TO.N,/ORP_RING*%
G36*
X15148782Y-4745027D02*
G01*
X15202233Y-4788893D01*
X15211105Y-4797765D01*
X15301098Y-4907423D01*
X15315317Y-4954297D01*
X15311204Y-4968377D01*
X15312059Y-4968655D01*
X15310501Y-4973447D01*
X15290458Y-5099999D01*
X15290458Y-5100000D01*
X15310501Y-5226553D01*
X15310503Y-5226558D01*
X15353619Y-5311177D01*
X15368674Y-5340723D01*
X15459277Y-5431326D01*
X15463825Y-5433643D01*
X15495637Y-5470891D01*
X15498461Y-5484390D01*
X15499846Y-5498434D01*
X15500000Y-5501575D01*
X15500000Y-7098425D01*
X15499846Y-7101564D01*
X15481402Y-7288818D01*
X15478954Y-7301123D01*
X15425709Y-7476650D01*
X15420908Y-7488241D01*
X15334442Y-7650009D01*
X15327472Y-7660441D01*
X15211106Y-7802234D01*
X15202234Y-7811106D01*
X15060441Y-7927472D01*
X15050009Y-7934442D01*
X14888241Y-8020908D01*
X14876650Y-8025709D01*
X14701123Y-8078954D01*
X14688818Y-8081402D01*
X14501564Y-8099846D01*
X14498425Y-8100000D01*
X10321771Y-8100000D01*
X10276516Y-8081255D01*
X10267585Y-8070056D01*
X10249742Y-8041659D01*
X10133341Y-7925258D01*
X10114523Y-7913434D01*
X9993962Y-7837680D01*
X9993958Y-7837678D01*
X9838585Y-7783310D01*
X9838581Y-7783309D01*
X9838580Y-7783309D01*
X9675000Y-7764878D01*
X9511418Y-7783309D01*
X9356043Y-7837677D01*
X9323759Y-7857962D01*
X9275467Y-7866165D01*
X9249110Y-7853243D01*
X9230144Y-7837678D01*
X9197761Y-7811102D01*
X9188897Y-7802238D01*
X9072524Y-7660437D01*
X9065559Y-7650013D01*
X8979091Y-7488241D01*
X8974290Y-7476650D01*
X8921045Y-7301123D01*
X8918597Y-7288819D01*
X8918137Y-7284150D01*
X8906381Y-7164794D01*
X8920600Y-7117922D01*
X8963799Y-7094831D01*
X9010674Y-7109050D01*
X9017634Y-7115698D01*
X9069130Y-7172890D01*
X9069132Y-7172891D01*
X9222267Y-7284150D01*
X9232752Y-7288818D01*
X9395197Y-7361144D01*
X9395201Y-7361144D01*
X9395204Y-7361146D01*
X9553458Y-7394783D01*
X9580354Y-7400500D01*
X9580357Y-7400500D01*
X9769643Y-7400500D01*
X9769646Y-7400500D01*
X9862224Y-7380822D01*
X9954795Y-7361146D01*
X9954796Y-7361145D01*
X9954803Y-7361144D01*
X10127730Y-7284151D01*
X10127730Y-7284150D01*
X10127732Y-7284150D01*
X10280867Y-7172891D01*
X10280868Y-7172890D01*
X10280867Y-7172890D01*
X10280871Y-7172888D01*
X10407533Y-7032216D01*
X10502179Y-6868284D01*
X10560674Y-6688256D01*
X10580460Y-6500000D01*
X10560674Y-6311744D01*
X10502179Y-6131716D01*
X10453769Y-6047868D01*
X10407533Y-5967784D01*
X10407532Y-5967783D01*
X10299879Y-5848223D01*
X10280871Y-5827112D01*
X10280870Y-5827111D01*
X10280868Y-5827109D01*
X10280867Y-5827108D01*
X10127732Y-5715849D01*
X9954805Y-5638857D01*
X9954795Y-5638853D01*
X9769654Y-5599501D01*
X9769648Y-5599500D01*
X9769646Y-5599500D01*
X9580354Y-5599500D01*
X9580352Y-5599500D01*
X9580345Y-5599501D01*
X9395204Y-5638853D01*
X9395194Y-5638857D01*
X9222267Y-5715849D01*
X9069132Y-5827108D01*
X9069126Y-5827114D01*
X9011561Y-5891047D01*
X8967350Y-5912135D01*
X8921176Y-5895784D01*
X8900088Y-5851573D01*
X8900000Y-5848223D01*
X8900000Y-5501574D01*
X8900154Y-5498435D01*
X8902867Y-5470891D01*
X8918597Y-5311177D01*
X8921045Y-5298876D01*
X8942983Y-5226558D01*
X8974290Y-5123346D01*
X8979091Y-5111758D01*
X8985376Y-5100000D01*
X9033135Y-5010649D01*
X9070999Y-4979575D01*
X9119746Y-4984376D01*
X9138497Y-4999555D01*
X9140421Y-5001836D01*
X9144252Y-5004641D01*
X9148887Y-5008034D01*
X9156335Y-5014419D01*
X9216659Y-5074742D01*
X9356037Y-5162319D01*
X9356041Y-5162321D01*
X9356043Y-5162322D01*
X9511420Y-5216691D01*
X9675000Y-5235122D01*
X9838580Y-5216691D01*
X9948176Y-5178340D01*
X9951367Y-5177408D01*
X9971902Y-5172558D01*
X10339656Y-5004641D01*
X10604805Y-4869641D01*
X10606866Y-4868685D01*
X10821106Y-4778718D01*
X10832417Y-4775160D01*
X11033241Y-4731933D01*
X11046708Y-4730500D01*
X15108181Y-4730500D01*
X15148782Y-4745027D01*
G37*
%TD.AperFunction*%
%TD*%
%TA.AperFunction,Conductor*%
%TO.N,GND*%
G36*
X40094545Y-519245D02*
G01*
X40113290Y-564500D01*
X40094545Y-609755D01*
X40065855Y-626319D01*
X39916792Y-666260D01*
X39916790Y-666261D01*
X39574274Y-797740D01*
X39574261Y-797746D01*
X39247360Y-964310D01*
X39247354Y-964314D01*
X38939631Y-1164151D01*
X38939621Y-1164158D01*
X38654500Y-1395044D01*
X38395044Y-1654500D01*
X38164158Y-1939621D01*
X38164151Y-1939631D01*
X37964314Y-2247354D01*
X37964310Y-2247360D01*
X37797746Y-2574261D01*
X37797740Y-2574274D01*
X37666261Y-2916790D01*
X37666260Y-2916792D01*
X37571294Y-3271205D01*
X37513896Y-3633604D01*
X37494696Y-3999993D01*
X37494696Y-4000006D01*
X37513896Y-4366395D01*
X37571294Y-4728794D01*
X37666260Y-5083207D01*
X37666261Y-5083209D01*
X37797740Y-5425725D01*
X37797746Y-5425738D01*
X37964310Y-5752639D01*
X37964314Y-5752645D01*
X37964318Y-5752652D01*
X38164149Y-6060366D01*
X38164151Y-6060368D01*
X38164158Y-6060378D01*
X38395044Y-6345499D01*
X38654500Y-6604955D01*
X38939621Y-6835841D01*
X38939625Y-6835844D01*
X38939634Y-6835851D01*
X39247348Y-7035682D01*
X39247354Y-7035685D01*
X39247360Y-7035689D01*
X39392939Y-7109865D01*
X39574264Y-7202255D01*
X39574271Y-7202258D01*
X39574274Y-7202259D01*
X39916790Y-7333738D01*
X39916792Y-7333739D01*
X39916795Y-7333740D01*
X39916801Y-7333742D01*
X40152333Y-7396853D01*
X40271205Y-7428705D01*
X40313274Y-7435368D01*
X40633596Y-7486102D01*
X40633598Y-7486102D01*
X40633604Y-7486103D01*
X40633603Y-7486103D01*
X40999994Y-7505304D01*
X41000000Y-7505304D01*
X41000006Y-7505304D01*
X41366395Y-7486103D01*
X41366399Y-7486102D01*
X41366404Y-7486102D01*
X41728794Y-7428705D01*
X42083199Y-7333742D01*
X42425736Y-7202255D01*
X42705648Y-7059632D01*
X42752639Y-7035689D01*
X42752641Y-7035687D01*
X42752652Y-7035682D01*
X43060366Y-6835851D01*
X43228492Y-6699705D01*
X43345499Y-6604955D01*
X43345500Y-6604953D01*
X43345506Y-6604949D01*
X43604949Y-6345506D01*
X43666409Y-6269610D01*
X43803012Y-6100919D01*
X43835851Y-6060366D01*
X44035682Y-5752652D01*
X44036710Y-5750636D01*
X44092767Y-5640617D01*
X44202255Y-5425736D01*
X44333742Y-5083199D01*
X44373681Y-4934143D01*
X44403500Y-4895283D01*
X44452065Y-4888890D01*
X44490926Y-4918709D01*
X44499500Y-4950709D01*
X44499500Y-10999212D01*
X44499461Y-11000783D01*
X44482726Y-11341443D01*
X44482418Y-11344564D01*
X44468913Y-11435610D01*
X44432489Y-11681159D01*
X44431876Y-11684241D01*
X44349195Y-12014324D01*
X44348283Y-12017331D01*
X44233644Y-12337722D01*
X44232442Y-12340625D01*
X44086958Y-12648225D01*
X44085476Y-12650996D01*
X43910533Y-12942873D01*
X43908787Y-12945486D01*
X43706088Y-13218793D01*
X43704095Y-13221222D01*
X43475576Y-13473354D01*
X43473354Y-13475576D01*
X43221222Y-13704095D01*
X43218793Y-13706088D01*
X42945486Y-13908787D01*
X42942873Y-13910533D01*
X42650996Y-14085476D01*
X42648225Y-14086958D01*
X42340625Y-14232442D01*
X42337722Y-14233644D01*
X42017331Y-14348283D01*
X42014324Y-14349195D01*
X41684241Y-14431876D01*
X41681159Y-14432489D01*
X41475078Y-14463058D01*
X41344564Y-14482418D01*
X41341443Y-14482726D01*
X41000783Y-14499461D01*
X40999212Y-14499500D01*
X32009890Y-14499500D01*
X31964635Y-14480755D01*
X31945890Y-14435500D01*
X31964635Y-14390245D01*
X32003616Y-14371808D01*
X32116079Y-14360732D01*
X32463932Y-14291541D01*
X32803328Y-14188587D01*
X32803328Y-14188586D01*
X32803331Y-14188586D01*
X32877558Y-14157840D01*
X33130998Y-14052863D01*
X33297187Y-13964033D01*
X33311592Y-13958449D01*
X33335734Y-13952318D01*
X33822927Y-13719949D01*
X34176965Y-13557454D01*
X34485554Y-13424239D01*
X34846975Y-13274802D01*
X35346940Y-13068846D01*
X35363992Y-13057490D01*
X35373433Y-13052295D01*
X35467814Y-13010275D01*
X35626051Y-12895308D01*
X35626052Y-12895307D01*
X35626051Y-12895307D01*
X35626055Y-12895305D01*
X35756937Y-12749947D01*
X35854736Y-12580553D01*
X35915179Y-12394527D01*
X35917271Y-12374620D01*
X35935625Y-12200003D01*
X35935625Y-12199996D01*
X35915180Y-12005481D01*
X35915179Y-12005475D01*
X35915179Y-12005473D01*
X35854736Y-11819447D01*
X35846106Y-11804500D01*
X35756937Y-11650053D01*
X35756936Y-11650052D01*
X35724375Y-11613890D01*
X35626055Y-11504695D01*
X35626054Y-11504694D01*
X35626052Y-11504692D01*
X35626051Y-11504691D01*
X35467815Y-11389725D01*
X35289126Y-11310169D01*
X35289124Y-11310168D01*
X35289121Y-11310167D01*
X35289117Y-11310166D01*
X35097806Y-11269500D01*
X35097799Y-11269500D01*
X34902201Y-11269500D01*
X34902193Y-11269500D01*
X34710882Y-11310166D01*
X34710873Y-11310169D01*
X34532185Y-11389725D01*
X34373948Y-11504691D01*
X34373947Y-11504692D01*
X34243063Y-11650052D01*
X34243062Y-11650053D01*
X34145263Y-11819446D01*
X34136805Y-11845477D01*
X34131553Y-11857368D01*
X34128368Y-11862960D01*
X33960662Y-12366687D01*
X33958593Y-12372900D01*
X33956821Y-12379133D01*
X33924705Y-12514250D01*
X33860393Y-12784810D01*
X33859480Y-12787937D01*
X33757051Y-13082022D01*
X33746705Y-13100804D01*
X33587506Y-13301009D01*
X33575538Y-13312581D01*
X33427745Y-13422192D01*
X33425643Y-13423625D01*
X33147538Y-13597457D01*
X33146646Y-13598125D01*
X33143927Y-13599950D01*
X33104420Y-13623631D01*
X33101648Y-13625112D01*
X32818963Y-13758812D01*
X32816060Y-13760015D01*
X32521610Y-13865371D01*
X32518603Y-13866283D01*
X32215246Y-13942269D01*
X32212173Y-13942880D01*
X31902828Y-13988765D01*
X31899709Y-13989073D01*
X31586453Y-14004461D01*
X31584882Y-14004500D01*
X24724789Y-14004500D01*
X24723218Y-14004461D01*
X24455090Y-13991289D01*
X24451971Y-13990981D01*
X24191319Y-13952318D01*
X24187207Y-13951708D01*
X24184125Y-13951095D01*
X23924486Y-13886059D01*
X23921479Y-13885147D01*
X23831209Y-13852848D01*
X23669460Y-13794973D01*
X23666560Y-13793772D01*
X23599957Y-13762271D01*
X23424595Y-13679331D01*
X23421832Y-13677853D01*
X23192252Y-13540249D01*
X23189639Y-13538503D01*
X23135650Y-13498462D01*
X23027458Y-13418220D01*
X22974657Y-13379060D01*
X22972228Y-13377067D01*
X22773340Y-13196805D01*
X22772203Y-13195722D01*
X22663298Y-13086819D01*
X22663296Y-13086817D01*
X22424018Y-12890447D01*
X22424016Y-12890446D01*
X22424013Y-12890443D01*
X22166633Y-12718467D01*
X22112367Y-12689461D01*
X21893639Y-12572548D01*
X21893634Y-12572546D01*
X21607652Y-12454088D01*
X21311441Y-12364234D01*
X21311440Y-12364233D01*
X21311431Y-12364231D01*
X21311423Y-12364229D01*
X21311410Y-12364226D01*
X21157983Y-12333707D01*
X21117255Y-12306493D01*
X21107699Y-12258451D01*
X21134913Y-12217723D01*
X21174056Y-12207038D01*
X21250765Y-12211347D01*
X21254321Y-12211749D01*
X21412483Y-12238622D01*
X21531145Y-12258785D01*
X21534627Y-12259579D01*
X21654707Y-12294174D01*
X21804445Y-12337315D01*
X21807833Y-12338500D01*
X22067249Y-12445956D01*
X22070450Y-12447497D01*
X22316228Y-12583334D01*
X22319241Y-12585228D01*
X22548251Y-12747720D01*
X22551049Y-12749952D01*
X22761251Y-12937800D01*
X22762541Y-12939020D01*
X22861899Y-13038378D01*
X22861917Y-13038394D01*
X22950039Y-13126515D01*
X22950040Y-13126516D01*
X23028689Y-13189236D01*
X23182067Y-13311551D01*
X23182070Y-13311553D01*
X23182078Y-13311559D01*
X23433346Y-13469441D01*
X23433350Y-13469443D01*
X23433355Y-13469446D01*
X23700741Y-13598212D01*
X23705708Y-13599950D01*
X23980849Y-13696227D01*
X23980857Y-13696229D01*
X23980864Y-13696232D01*
X23980866Y-13696232D01*
X23980874Y-13696235D01*
X24182881Y-13742341D01*
X24270200Y-13762271D01*
X24565111Y-13795500D01*
X24565114Y-13795500D01*
X28971165Y-13795500D01*
X28971167Y-13795501D01*
X28983522Y-13795500D01*
X28983571Y-13795520D01*
X29010054Y-13795519D01*
X29010054Y-13795520D01*
X29155250Y-13795517D01*
X29443815Y-13762999D01*
X29483060Y-13754040D01*
X29500225Y-13752503D01*
X29517422Y-13753293D01*
X30078095Y-13668249D01*
X30083397Y-13667242D01*
X30487041Y-13575343D01*
X30490600Y-13574431D01*
X30490604Y-13574430D01*
X30494713Y-13573257D01*
X30498171Y-13572169D01*
X30540909Y-13557454D01*
X30838535Y-13454980D01*
X30839655Y-13454552D01*
X30843273Y-13453171D01*
X31226623Y-13290884D01*
X31256453Y-13278164D01*
X31748657Y-13068281D01*
X31765128Y-13057095D01*
X31775054Y-13051573D01*
X31867813Y-13010275D01*
X32026055Y-12895305D01*
X32156937Y-12749947D01*
X32254736Y-12580553D01*
X32315179Y-12394527D01*
X32317271Y-12374620D01*
X32335625Y-12200003D01*
X32335625Y-12199996D01*
X32315180Y-12005481D01*
X32315179Y-12005475D01*
X32315179Y-12005473D01*
X32254736Y-11819447D01*
X32246106Y-11804500D01*
X32156937Y-11650053D01*
X32156936Y-11650052D01*
X32124375Y-11613890D01*
X32026055Y-11504695D01*
X32026054Y-11504694D01*
X32026052Y-11504692D01*
X32026051Y-11504691D01*
X31867815Y-11389725D01*
X31689126Y-11310169D01*
X31689124Y-11310168D01*
X31689121Y-11310167D01*
X31689117Y-11310166D01*
X31497806Y-11269500D01*
X31497799Y-11269500D01*
X31302201Y-11269500D01*
X31302193Y-11269500D01*
X31110882Y-11310166D01*
X31110873Y-11310169D01*
X30932185Y-11389725D01*
X30773948Y-11504691D01*
X30773946Y-11504693D01*
X30728127Y-11555579D01*
X30726443Y-11557313D01*
X30715438Y-11567818D01*
X30715425Y-11567834D01*
X30710623Y-11574670D01*
X30708217Y-11577690D01*
X30643064Y-11650049D01*
X30576165Y-11765922D01*
X30574640Y-11768313D01*
X30379000Y-12046907D01*
X30379000Y-12046908D01*
X30378029Y-12048527D01*
X30368987Y-12063600D01*
X30367479Y-12066580D01*
X30367478Y-12066582D01*
X30367480Y-12066576D01*
X30359951Y-12084560D01*
X30359949Y-12084565D01*
X30201316Y-12556220D01*
X30188276Y-12600023D01*
X30088719Y-12934440D01*
X30078302Y-12954945D01*
X29899945Y-13189236D01*
X29869820Y-13210997D01*
X29440789Y-13358417D01*
X29430712Y-13360986D01*
X29257514Y-13390415D01*
X29253946Y-13390818D01*
X29199900Y-13393854D01*
X29011281Y-13404450D01*
X29009508Y-13404500D01*
X24714392Y-13404500D01*
X24712619Y-13404450D01*
X24468075Y-13390717D01*
X24463232Y-13390445D01*
X24459664Y-13390043D01*
X24214312Y-13348356D01*
X24210811Y-13347557D01*
X23971665Y-13278660D01*
X23968275Y-13277473D01*
X23738357Y-13182238D01*
X23735122Y-13180680D01*
X23570743Y-13089832D01*
X23517306Y-13060298D01*
X23514275Y-13058394D01*
X23311297Y-12914372D01*
X23308493Y-12912136D01*
X23289662Y-12895308D01*
X23122237Y-12745687D01*
X23120936Y-12744457D01*
X23086199Y-12709720D01*
X23022663Y-12646184D01*
X23022660Y-12646182D01*
X23021462Y-12644984D01*
X23021310Y-12644848D01*
X22936556Y-12560094D01*
X22714265Y-12377664D01*
X22714263Y-12377663D01*
X22714260Y-12377660D01*
X22475150Y-12217891D01*
X22441684Y-12200003D01*
X23264375Y-12200003D01*
X23284819Y-12394518D01*
X23284820Y-12394524D01*
X23345264Y-12580554D01*
X23440605Y-12745690D01*
X23443063Y-12749947D01*
X23558851Y-12878542D01*
X23573947Y-12895307D01*
X23573948Y-12895308D01*
X23732184Y-13010274D01*
X23792165Y-13036979D01*
X23910876Y-13089832D01*
X23962494Y-13100804D01*
X24102193Y-13130499D01*
X24102199Y-13130499D01*
X24102201Y-13130500D01*
X24102203Y-13130500D01*
X24297797Y-13130500D01*
X24297799Y-13130500D01*
X24297801Y-13130499D01*
X24297806Y-13130499D01*
X24393461Y-13110165D01*
X24489124Y-13089832D01*
X24667813Y-13010275D01*
X24667813Y-13010274D01*
X24667815Y-13010274D01*
X24826051Y-12895308D01*
X24826052Y-12895307D01*
X24826051Y-12895307D01*
X24826055Y-12895305D01*
X24956937Y-12749947D01*
X25054736Y-12580553D01*
X25115179Y-12394527D01*
X25117271Y-12374620D01*
X25135625Y-12200003D01*
X25135625Y-12199996D01*
X25115180Y-12005481D01*
X25115179Y-12005475D01*
X25115179Y-12005473D01*
X25054736Y-11819447D01*
X25046106Y-11804500D01*
X24956937Y-11650053D01*
X24956936Y-11650052D01*
X24924375Y-11613890D01*
X24826055Y-11504695D01*
X24826054Y-11504694D01*
X24826052Y-11504692D01*
X24826051Y-11504691D01*
X24667815Y-11389725D01*
X24489126Y-11310169D01*
X24489124Y-11310168D01*
X24489121Y-11310167D01*
X24489117Y-11310166D01*
X24297806Y-11269500D01*
X24297799Y-11269500D01*
X24102201Y-11269500D01*
X24102193Y-11269500D01*
X23910882Y-11310166D01*
X23910873Y-11310169D01*
X23732185Y-11389725D01*
X23573948Y-11504691D01*
X23573947Y-11504692D01*
X23443063Y-11650052D01*
X23443062Y-11650053D01*
X23345264Y-11819445D01*
X23284820Y-12005475D01*
X23284819Y-12005481D01*
X23264375Y-12199996D01*
X23264375Y-12200003D01*
X22441684Y-12200003D01*
X22221533Y-12082328D01*
X22221531Y-12082327D01*
X22221529Y-12082326D01*
X22221522Y-12082323D01*
X22057358Y-12014324D01*
X21955849Y-11972277D01*
X21955845Y-11972275D01*
X21955836Y-11972272D01*
X21680667Y-11888800D01*
X21680666Y-11888799D01*
X21680657Y-11888797D01*
X21680649Y-11888795D01*
X21680636Y-11888792D01*
X21398613Y-11832691D01*
X21112413Y-11804500D01*
X20990658Y-11804500D01*
X19828082Y-11804500D01*
X19813783Y-11802882D01*
X19797839Y-11799227D01*
X19797833Y-11799226D01*
X19650538Y-11794957D01*
X19647090Y-11794670D01*
X19553176Y-11781715D01*
X19543266Y-11779535D01*
X19485355Y-11761888D01*
X19466508Y-11756144D01*
X19463420Y-11755026D01*
X19418931Y-11736287D01*
X19359413Y-11711217D01*
X19350741Y-11707485D01*
X19334050Y-11700303D01*
X19314093Y-11686771D01*
X19308481Y-11681159D01*
X19295996Y-11668674D01*
X19295993Y-11668672D01*
X19181831Y-11610503D01*
X19181826Y-11610501D01*
X19055273Y-11590458D01*
X18928719Y-11610501D01*
X18928714Y-11610503D01*
X18814552Y-11668672D01*
X18723945Y-11759279D01*
X18665776Y-11873441D01*
X18665774Y-11873446D01*
X18644943Y-12004975D01*
X18642797Y-12004635D01*
X18626986Y-12042808D01*
X18591743Y-12060765D01*
X18473446Y-12079501D01*
X18473441Y-12079503D01*
X18359279Y-12137672D01*
X18268672Y-12228279D01*
X18210503Y-12342441D01*
X18210501Y-12342446D01*
X18190458Y-12468999D01*
X18190458Y-12469000D01*
X18210501Y-12595553D01*
X18210503Y-12595558D01*
X18268672Y-12709720D01*
X18268674Y-12709723D01*
X18359277Y-12800326D01*
X18473445Y-12858498D01*
X18519233Y-12865750D01*
X18599999Y-12878542D01*
X18599999Y-12878541D01*
X18600000Y-12878542D01*
X18726555Y-12858498D01*
X18840723Y-12800326D01*
X18858823Y-12782225D01*
X18878781Y-12768691D01*
X18904140Y-12757781D01*
X19008150Y-12713969D01*
X19011230Y-12712854D01*
X19087993Y-12689460D01*
X19097904Y-12687281D01*
X19191820Y-12674325D01*
X19195254Y-12674040D01*
X19342564Y-12669772D01*
X19359513Y-12666016D01*
X19373360Y-12664500D01*
X20506111Y-12664500D01*
X20544210Y-12664500D01*
X20545781Y-12664539D01*
X20644230Y-12669375D01*
X20813926Y-12677711D01*
X20817010Y-12678015D01*
X21081805Y-12717293D01*
X21084863Y-12717902D01*
X21344521Y-12782942D01*
X21347508Y-12783848D01*
X21599543Y-12874027D01*
X21602435Y-12875226D01*
X21844409Y-12989671D01*
X21847163Y-12991144D01*
X21925969Y-13038378D01*
X22076753Y-13128754D01*
X22079353Y-13130491D01*
X22273932Y-13274802D01*
X22294342Y-13289939D01*
X22296770Y-13291931D01*
X22492623Y-13469441D01*
X22495648Y-13472182D01*
X22496785Y-13473266D01*
X22605701Y-13582180D01*
X22605703Y-13582182D01*
X22656209Y-13623631D01*
X22844986Y-13778557D01*
X22972857Y-13863998D01*
X23102350Y-13950522D01*
X23102356Y-13950525D01*
X23102367Y-13950533D01*
X23303515Y-14058049D01*
X23359100Y-14087760D01*
X23375364Y-14096453D01*
X23555704Y-14171152D01*
X23661346Y-14214911D01*
X23661348Y-14214911D01*
X23661349Y-14214912D01*
X23957569Y-14304769D01*
X23957584Y-14304772D01*
X23957588Y-14304773D01*
X24122872Y-14337650D01*
X24261169Y-14365159D01*
X24321911Y-14371141D01*
X24328677Y-14371808D01*
X24371877Y-14394899D01*
X24386096Y-14441773D01*
X24363005Y-14484973D01*
X24322404Y-14499500D01*
X3000963Y-14499500D01*
X2999051Y-14499442D01*
X2759838Y-14484973D01*
X2700656Y-14481393D01*
X2696817Y-14480927D01*
X2403731Y-14427217D01*
X2399976Y-14426291D01*
X2115517Y-14337650D01*
X2111901Y-14336278D01*
X1880127Y-14231966D01*
X1840187Y-14213990D01*
X1836765Y-14212194D01*
X1581779Y-14058049D01*
X1578596Y-14055852D01*
X1344050Y-13872097D01*
X1341155Y-13869532D01*
X1130467Y-13658844D01*
X1127902Y-13655949D01*
X944147Y-13421403D01*
X941950Y-13418220D01*
X856865Y-13277473D01*
X787803Y-13163230D01*
X786012Y-13159818D01*
X709431Y-12989662D01*
X663721Y-12888098D01*
X662352Y-12884490D01*
X573706Y-12600016D01*
X572782Y-12596268D01*
X572651Y-12595555D01*
X519071Y-12303175D01*
X518607Y-12299353D01*
X500557Y-12000948D01*
X500500Y-11999037D01*
X500500Y-10500000D01*
X6939878Y-10500000D01*
X6953244Y-10618631D01*
X6958310Y-10663585D01*
X7012678Y-10818958D01*
X7012680Y-10818962D01*
X7086895Y-10937074D01*
X7100258Y-10958341D01*
X7216659Y-11074742D01*
X7216661Y-11074743D01*
X7356037Y-11162319D01*
X7356041Y-11162321D01*
X7356043Y-11162322D01*
X7511420Y-11216691D01*
X7675000Y-11235122D01*
X7838580Y-11216691D01*
X7993957Y-11162322D01*
X8133341Y-11074742D01*
X8249742Y-10958341D01*
X8337322Y-10818957D01*
X8391691Y-10663580D01*
X8410122Y-10500000D01*
X8939878Y-10500000D01*
X8953244Y-10618631D01*
X8958310Y-10663585D01*
X9012678Y-10818958D01*
X9012680Y-10818962D01*
X9086895Y-10937074D01*
X9100258Y-10958341D01*
X9216659Y-11074742D01*
X9216661Y-11074743D01*
X9356037Y-11162319D01*
X9356041Y-11162321D01*
X9356043Y-11162322D01*
X9511420Y-11216691D01*
X9675000Y-11235122D01*
X9838580Y-11216691D01*
X9993957Y-11162322D01*
X10093143Y-11100000D01*
X12443961Y-11100000D01*
X12464004Y-11226553D01*
X12464006Y-11226558D01*
X12517261Y-11331075D01*
X12522177Y-11340723D01*
X12612780Y-11431326D01*
X12612782Y-11431327D01*
X12704358Y-11477988D01*
X12726948Y-11489498D01*
X12853503Y-11509542D01*
X12980058Y-11489498D01*
X13094222Y-11431328D01*
X13094223Y-11431328D01*
X13094223Y-11431327D01*
X13094226Y-11431326D01*
X13148703Y-11376847D01*
X13162557Y-11366337D01*
X13166527Y-11364102D01*
X13169655Y-11362343D01*
X13169652Y-11362344D01*
X13169659Y-11362340D01*
X13176051Y-11358254D01*
X13178587Y-11356425D01*
X13184333Y-11352284D01*
X13184331Y-11352285D01*
X13190230Y-11347506D01*
X13190231Y-11347506D01*
X13195740Y-11342508D01*
X13292218Y-11254968D01*
X13357501Y-11191808D01*
X13371108Y-11181759D01*
X13419967Y-11154844D01*
X13442292Y-11147476D01*
X13559664Y-11131651D01*
X13563260Y-11130550D01*
X13567354Y-11129299D01*
X13586073Y-11126500D01*
X25594795Y-11126500D01*
X25632791Y-11126500D01*
X25634561Y-11126549D01*
X25836164Y-11137869D01*
X25861748Y-11145458D01*
X25861885Y-11145155D01*
X25864131Y-11146165D01*
X25864413Y-11146248D01*
X25864758Y-11146446D01*
X26230014Y-11269267D01*
X26283550Y-11287269D01*
X26313058Y-11307863D01*
X26487837Y-11525556D01*
X26498762Y-11545735D01*
X26571675Y-11768737D01*
X26571679Y-11768748D01*
X26585010Y-11797553D01*
X26587853Y-11802181D01*
X26607496Y-11827073D01*
X26613172Y-11832749D01*
X26624941Y-11848949D01*
X26645244Y-11888797D01*
X26654419Y-11906803D01*
X26660607Y-11925846D01*
X26670879Y-11990700D01*
X26671276Y-12003184D01*
X26671593Y-12003195D01*
X26671529Y-12005196D01*
X26671529Y-12005198D01*
X26670452Y-12039039D01*
X26670452Y-12039044D01*
X26670993Y-12044812D01*
X26670992Y-12044812D01*
X26675831Y-12066582D01*
X26678336Y-12077853D01*
X26737956Y-12244333D01*
X26774729Y-12347018D01*
X26774729Y-12347017D01*
X26778475Y-12355570D01*
X26784288Y-12366689D01*
X26784289Y-12366691D01*
X26789156Y-12374620D01*
X26789155Y-12374619D01*
X26984071Y-12648063D01*
X26985727Y-12650639D01*
X27040605Y-12745690D01*
X27043063Y-12749947D01*
X27107283Y-12821270D01*
X27109555Y-12824103D01*
X27117583Y-12835364D01*
X27117585Y-12835366D01*
X27121012Y-12839779D01*
X27124059Y-12843383D01*
X27124061Y-12843385D01*
X27124063Y-12843387D01*
X27127889Y-12846185D01*
X27137669Y-12855017D01*
X27164200Y-12884482D01*
X27173947Y-12895307D01*
X27173948Y-12895308D01*
X27332184Y-13010274D01*
X27392165Y-13036979D01*
X27510876Y-13089832D01*
X27562494Y-13100804D01*
X27702193Y-13130499D01*
X27702199Y-13130499D01*
X27702201Y-13130500D01*
X27702203Y-13130500D01*
X27897797Y-13130500D01*
X27897799Y-13130500D01*
X27897801Y-13130499D01*
X27897806Y-13130499D01*
X27993461Y-13110166D01*
X28089124Y-13089832D01*
X28267813Y-13010275D01*
X28267813Y-13010274D01*
X28267815Y-13010274D01*
X28426051Y-12895308D01*
X28426052Y-12895307D01*
X28426051Y-12895307D01*
X28426055Y-12895305D01*
X28556937Y-12749947D01*
X28654736Y-12580553D01*
X28659928Y-12564571D01*
X28667493Y-12548925D01*
X28668880Y-12546838D01*
X28863610Y-12073246D01*
X28874750Y-12048526D01*
X29013960Y-11739622D01*
X29015700Y-11736295D01*
X29170891Y-11477985D01*
X29176213Y-11470425D01*
X29186615Y-11457709D01*
X29399945Y-11196925D01*
X29401653Y-11195003D01*
X29752720Y-10831089D01*
X29762606Y-10815852D01*
X29771030Y-10805445D01*
X30698922Y-9877554D01*
X30698928Y-9877550D01*
X30707925Y-9868553D01*
X30734797Y-9841680D01*
X30736059Y-9840487D01*
X30939798Y-9658411D01*
X30942581Y-9656192D01*
X31164682Y-9498600D01*
X31167692Y-9496709D01*
X31406038Y-9364978D01*
X31409225Y-9363443D01*
X31562389Y-9300000D01*
X33590458Y-9300000D01*
X33610501Y-9426553D01*
X33610503Y-9426558D01*
X33668672Y-9540720D01*
X33668674Y-9540723D01*
X33674242Y-9546291D01*
X33688978Y-9569251D01*
X33703933Y-9609497D01*
X33704435Y-9610954D01*
X33736010Y-9710440D01*
X33743768Y-9734885D01*
X33745326Y-9739284D01*
X33787611Y-9848083D01*
X33789243Y-9851789D01*
X33790015Y-9853542D01*
X33793576Y-9860754D01*
X33793578Y-9860757D01*
X33796470Y-9866014D01*
X33801170Y-9873728D01*
X33845100Y-9945828D01*
X33848046Y-9950662D01*
X33849229Y-9952780D01*
X33891857Y-10036432D01*
X33900386Y-10053169D01*
X33984067Y-10168333D01*
X33984069Y-10168335D01*
X34004162Y-10188425D01*
X34004163Y-10188428D01*
X34040808Y-10225069D01*
X34336074Y-10520335D01*
X34345500Y-10532333D01*
X34348244Y-10536845D01*
X34368676Y-10553211D01*
X34371300Y-10555561D01*
X34378217Y-10562478D01*
X34382905Y-10565522D01*
X34387621Y-10568584D01*
X34390218Y-10570463D01*
X34450225Y-10618631D01*
X34607673Y-10706201D01*
X34777536Y-10766245D01*
X34955040Y-10797077D01*
X34989729Y-10797186D01*
X34991391Y-10797365D01*
X34997091Y-10797365D01*
X35045599Y-10797365D01*
X35090018Y-10797551D01*
X35092203Y-10797365D01*
X35795880Y-10797365D01*
X35835631Y-10797365D01*
X35837402Y-10797414D01*
X36114462Y-10812976D01*
X36118018Y-10813378D01*
X36390695Y-10859710D01*
X36394177Y-10860504D01*
X36649649Y-10934108D01*
X36659944Y-10937074D01*
X36663334Y-10938260D01*
X36918856Y-11044105D01*
X36922086Y-11045660D01*
X37133164Y-11162322D01*
X37164156Y-11179451D01*
X37167192Y-11181359D01*
X37291412Y-11269500D01*
X37296215Y-11272908D01*
X37307753Y-11283432D01*
X37374786Y-11361588D01*
X37386706Y-11382380D01*
X37481349Y-11656727D01*
X37482313Y-11660115D01*
X37542332Y-11925846D01*
X37570041Y-12048527D01*
X37570791Y-12051526D01*
X37571756Y-12055046D01*
X37572665Y-12058078D01*
X37706325Y-12469000D01*
X37728943Y-12538534D01*
X37730163Y-12541845D01*
X37730883Y-12542971D01*
X37737825Y-12557661D01*
X37745263Y-12580552D01*
X37840270Y-12745109D01*
X37843063Y-12749947D01*
X37958851Y-12878542D01*
X37973947Y-12895307D01*
X37973948Y-12895308D01*
X38132184Y-13010274D01*
X38192165Y-13036979D01*
X38310876Y-13089832D01*
X38362494Y-13100804D01*
X38502193Y-13130499D01*
X38502199Y-13130499D01*
X38502201Y-13130500D01*
X38502203Y-13130500D01*
X38697797Y-13130500D01*
X38697799Y-13130500D01*
X38697801Y-13130499D01*
X38697806Y-13130499D01*
X38793461Y-13110166D01*
X38889124Y-13089832D01*
X39067813Y-13010275D01*
X39067813Y-13010274D01*
X39067815Y-13010274D01*
X39226051Y-12895308D01*
X39226052Y-12895307D01*
X39226051Y-12895307D01*
X39226055Y-12895305D01*
X39356937Y-12749947D01*
X39454736Y-12580553D01*
X39515179Y-12394527D01*
X39517271Y-12374620D01*
X39535625Y-12200003D01*
X39535625Y-12199996D01*
X39515180Y-12005481D01*
X39515179Y-12005475D01*
X39515179Y-12005473D01*
X39454736Y-11819447D01*
X39446106Y-11804500D01*
X39356937Y-11650053D01*
X39356936Y-11650052D01*
X39324375Y-11613890D01*
X39226055Y-11504695D01*
X39226054Y-11504694D01*
X39226052Y-11504692D01*
X39226051Y-11504691D01*
X39067815Y-11389725D01*
X38973274Y-11347634D01*
X38963939Y-11342508D01*
X38946696Y-11331075D01*
X38946689Y-11331072D01*
X38465854Y-11133939D01*
X38113153Y-10995246D01*
X37805452Y-10882206D01*
X37448850Y-10757491D01*
X37215249Y-10676219D01*
X37206109Y-10672216D01*
X37103340Y-10617283D01*
X37103333Y-10617280D01*
X36834709Y-10506009D01*
X36834702Y-10506006D01*
X36556465Y-10421599D01*
X36556449Y-10421595D01*
X36271290Y-10364871D01*
X36271285Y-10364870D01*
X35981907Y-10336365D01*
X35885520Y-10336365D01*
X35836528Y-10336365D01*
X35795885Y-10336364D01*
X35795884Y-10336364D01*
X35790733Y-10336364D01*
X35790721Y-10336365D01*
X35048438Y-10336365D01*
X35045622Y-10336241D01*
X34950555Y-10327845D01*
X34939986Y-10326009D01*
X34851480Y-10302854D01*
X34841368Y-10299279D01*
X34757975Y-10261670D01*
X34748600Y-10256456D01*
X34679288Y-10209899D01*
X34669719Y-10202027D01*
X34394374Y-9926681D01*
X34394366Y-9926671D01*
X34389103Y-9921408D01*
X34361464Y-9893771D01*
X34359372Y-9891463D01*
X34309210Y-9830348D01*
X34302240Y-9819917D01*
X34269775Y-9759187D01*
X34264971Y-9710440D01*
X34267819Y-9702827D01*
X34270274Y-9697354D01*
X34287987Y-9657854D01*
X34339520Y-9540720D01*
X34347331Y-9522966D01*
X34347331Y-9522965D01*
X34347336Y-9522954D01*
X34349529Y-9516967D01*
X34350291Y-9514891D01*
X34350289Y-9514894D01*
X34353562Y-9503843D01*
X34354595Y-9499318D01*
X34359962Y-9484518D01*
X34389498Y-9426555D01*
X34409542Y-9300000D01*
X34406283Y-9279426D01*
X34392369Y-9191575D01*
X34389498Y-9173445D01*
X34383830Y-9162322D01*
X34348781Y-9093534D01*
X34331326Y-9059277D01*
X34272049Y-9000000D01*
X36990458Y-9000000D01*
X37010501Y-9126553D01*
X37010503Y-9126558D01*
X37068073Y-9239544D01*
X37068674Y-9240723D01*
X37159277Y-9331326D01*
X37273445Y-9389498D01*
X37370485Y-9404867D01*
X37384157Y-9408622D01*
X37410859Y-9419259D01*
X37515387Y-9461827D01*
X37518355Y-9463217D01*
X37523035Y-9465710D01*
X37538201Y-9476941D01*
X39821658Y-11760398D01*
X39821677Y-11760420D01*
X39835779Y-11774521D01*
X39835798Y-11774565D01*
X39854038Y-11792804D01*
X39854038Y-11792805D01*
X39940499Y-11879265D01*
X40131696Y-12031735D01*
X40338762Y-12161840D01*
X40408661Y-12195500D01*
X40559082Y-12267937D01*
X40559094Y-12267942D01*
X40760786Y-12338514D01*
X40783691Y-12352489D01*
X41011567Y-12568656D01*
X41013145Y-12570264D01*
X41255296Y-12835364D01*
X41276847Y-12858958D01*
X41287090Y-12874012D01*
X41336048Y-12974156D01*
X41336049Y-12974157D01*
X41425843Y-13063951D01*
X41539928Y-13119724D01*
X41539931Y-13119724D01*
X41539933Y-13119725D01*
X41613889Y-13130500D01*
X41613890Y-13130500D01*
X42786111Y-13130500D01*
X42860066Y-13119725D01*
X42860066Y-13119724D01*
X42860072Y-13119724D01*
X42974157Y-13063951D01*
X43063951Y-12974157D01*
X43119724Y-12860072D01*
X43121178Y-12850096D01*
X43130500Y-12786110D01*
X43130500Y-11613889D01*
X43119725Y-11539933D01*
X43119724Y-11539931D01*
X43119724Y-11539928D01*
X43063951Y-11425843D01*
X42974157Y-11336049D01*
X42860072Y-11280276D01*
X42860070Y-11280275D01*
X42860066Y-11280274D01*
X42786111Y-11269500D01*
X42786110Y-11269500D01*
X41673298Y-11269500D01*
X41665414Y-11268635D01*
X41665414Y-11268641D01*
X41651925Y-11267618D01*
X41651923Y-11267618D01*
X41638320Y-11269267D01*
X41634465Y-11269500D01*
X41613889Y-11269500D01*
X41539929Y-11280275D01*
X41539927Y-11280275D01*
X41459640Y-11319525D01*
X41455556Y-11321184D01*
X41286519Y-11376640D01*
X41282662Y-11377645D01*
X40972506Y-11438097D01*
X40968352Y-11438627D01*
X40780114Y-11450248D01*
X40659275Y-11457708D01*
X40655024Y-11457688D01*
X40345880Y-11435608D01*
X40341760Y-11435041D01*
X40207329Y-11407538D01*
X40117315Y-11389122D01*
X40084888Y-11371676D01*
X37906060Y-9192848D01*
X37894834Y-9177690D01*
X37885110Y-9159442D01*
X37863220Y-9118363D01*
X37861830Y-9115394D01*
X37819259Y-9010860D01*
X37814184Y-8998122D01*
X37808621Y-8984157D01*
X37804867Y-8970488D01*
X37800153Y-8940723D01*
X37789498Y-8873445D01*
X37731326Y-8759277D01*
X37640723Y-8668674D01*
X37640720Y-8668672D01*
X37526558Y-8610503D01*
X37526553Y-8610501D01*
X37400000Y-8590458D01*
X37273446Y-8610501D01*
X37273441Y-8610503D01*
X37159279Y-8668672D01*
X37068672Y-8759279D01*
X37010503Y-8873441D01*
X37010501Y-8873446D01*
X36990458Y-8999999D01*
X36990458Y-9000000D01*
X34272049Y-9000000D01*
X34240723Y-8968674D01*
X34240720Y-8968672D01*
X34126558Y-8910503D01*
X34126553Y-8910501D01*
X34000000Y-8890458D01*
X33873446Y-8910501D01*
X33873441Y-8910503D01*
X33759279Y-8968672D01*
X33668672Y-9059279D01*
X33610503Y-9173441D01*
X33610501Y-9173446D01*
X33590458Y-9299999D01*
X33590458Y-9300000D01*
X31562389Y-9300000D01*
X31660813Y-9259231D01*
X31664176Y-9258053D01*
X31925844Y-9182668D01*
X31929337Y-9181871D01*
X32197791Y-9136258D01*
X32201337Y-9135858D01*
X32473942Y-9120549D01*
X32475715Y-9120500D01*
X32520395Y-9120500D01*
X32520669Y-9120484D01*
X32634157Y-9120486D01*
X32907829Y-9093535D01*
X33177542Y-9039889D01*
X33440697Y-8960064D01*
X33440705Y-8960060D01*
X33440710Y-8960059D01*
X33521271Y-8926689D01*
X33694761Y-8854829D01*
X33937287Y-8725199D01*
X34165938Y-8572420D01*
X34378513Y-8397965D01*
X34454888Y-8321588D01*
X34454895Y-8321583D01*
X34460161Y-8316316D01*
X34460163Y-8316316D01*
X34691787Y-8084689D01*
X34703033Y-8075730D01*
X34716896Y-8067039D01*
X34824070Y-7965899D01*
X34826697Y-7963675D01*
X34902287Y-7906409D01*
X34910811Y-7900958D01*
X34981633Y-7863219D01*
X34984580Y-7861839D01*
X35056596Y-7832512D01*
X35089139Y-7819260D01*
X35098167Y-7815662D01*
X35115845Y-7808620D01*
X35129504Y-7804868D01*
X35226555Y-7789498D01*
X35340719Y-7731328D01*
X35340720Y-7731328D01*
X35340720Y-7731327D01*
X35340723Y-7731326D01*
X35431326Y-7640723D01*
X35489498Y-7526555D01*
X35509542Y-7400000D01*
X35508605Y-7394087D01*
X35489498Y-7273446D01*
X35489496Y-7273441D01*
X35431327Y-7159279D01*
X35431326Y-7159277D01*
X35340723Y-7068674D01*
X35340720Y-7068672D01*
X35226558Y-7010503D01*
X35226553Y-7010501D01*
X35100000Y-6990458D01*
X34973446Y-7010501D01*
X34973441Y-7010503D01*
X34859279Y-7068672D01*
X34768672Y-7159279D01*
X34710503Y-7273441D01*
X34710501Y-7273446D01*
X34695132Y-7370481D01*
X34691378Y-7384148D01*
X34680740Y-7410858D01*
X34638169Y-7515386D01*
X34636773Y-7518366D01*
X34599043Y-7589174D01*
X34593576Y-7597723D01*
X34536337Y-7673281D01*
X34534102Y-7675922D01*
X34432961Y-7783101D01*
X34432955Y-7783109D01*
X34423622Y-7797754D01*
X34414906Y-7808613D01*
X34199889Y-8023630D01*
X34198585Y-8024863D01*
X33999267Y-8202984D01*
X33996459Y-8205223D01*
X33779173Y-8359394D01*
X33776132Y-8361305D01*
X33542956Y-8490176D01*
X33539720Y-8491734D01*
X33435027Y-8535099D01*
X33293581Y-8593686D01*
X33290199Y-8594870D01*
X33034186Y-8668622D01*
X33030685Y-8669421D01*
X32768024Y-8714047D01*
X32764456Y-8714449D01*
X32711533Y-8717420D01*
X32497444Y-8729440D01*
X32495659Y-8729490D01*
X32334931Y-8729490D01*
X32056141Y-8756949D01*
X31781412Y-8811596D01*
X31781382Y-8811604D01*
X31513327Y-8892918D01*
X31513319Y-8892921D01*
X31254520Y-9000121D01*
X31254512Y-9000124D01*
X31254510Y-9000126D01*
X31172793Y-9043805D01*
X31007454Y-9132181D01*
X31007445Y-9132187D01*
X30774535Y-9287814D01*
X30774522Y-9287824D01*
X30557987Y-9465532D01*
X30557984Y-9465536D01*
X30472128Y-9551391D01*
X30472120Y-9551401D01*
X30458941Y-9564579D01*
X30444971Y-9578550D01*
X29499860Y-10523659D01*
X29485024Y-10534713D01*
X29476636Y-10539244D01*
X29085159Y-10863396D01*
X29070672Y-10872434D01*
X28761419Y-11012021D01*
X28747310Y-11016510D01*
X28447975Y-11074742D01*
X28418762Y-11080425D01*
X28004944Y-11153751D01*
X28003076Y-11154148D01*
X28000390Y-11154721D01*
X27995069Y-11156046D01*
X27995062Y-11156047D01*
X27995066Y-11156047D01*
X27990534Y-11157344D01*
X27975196Y-11162319D01*
X27861758Y-11199112D01*
X27817922Y-11197527D01*
X27632738Y-11122285D01*
X27250855Y-10985873D01*
X27247816Y-10984868D01*
X27242932Y-10983380D01*
X26901728Y-10895579D01*
X26895575Y-10894268D01*
X26628159Y-10849416D01*
X26494453Y-10826991D01*
X25945406Y-10753316D01*
X25945387Y-10753316D01*
X25937712Y-10753809D01*
X25926446Y-10753539D01*
X25766317Y-10735499D01*
X25633679Y-10735500D01*
X13572461Y-10735500D01*
X13559372Y-10734147D01*
X13541409Y-10730394D01*
X13541407Y-10730393D01*
X13541406Y-10730393D01*
X13381354Y-10728857D01*
X13260856Y-10724966D01*
X13154757Y-10720230D01*
X13154756Y-10720230D01*
X13029518Y-10716185D01*
X13029231Y-10716182D01*
X13005510Y-10715953D01*
X12985199Y-10710977D01*
X12984848Y-10712059D01*
X12980055Y-10710501D01*
X12853503Y-10690458D01*
X12726949Y-10710501D01*
X12726944Y-10710503D01*
X12612782Y-10768672D01*
X12522175Y-10859279D01*
X12464006Y-10973441D01*
X12464004Y-10973446D01*
X12443961Y-11099999D01*
X12443961Y-11100000D01*
X10093143Y-11100000D01*
X10133341Y-11074742D01*
X10249742Y-10958341D01*
X10337322Y-10818957D01*
X10391691Y-10663580D01*
X10410122Y-10500000D01*
X10391691Y-10336420D01*
X10391671Y-10336364D01*
X10352727Y-10225068D01*
X10337322Y-10181043D01*
X10337321Y-10181041D01*
X10337319Y-10181037D01*
X10249743Y-10041661D01*
X10249742Y-10041659D01*
X10133341Y-9925258D01*
X10133338Y-9925256D01*
X9993962Y-9837680D01*
X9993958Y-9837678D01*
X9838585Y-9783310D01*
X9838581Y-9783309D01*
X9838580Y-9783309D01*
X9675000Y-9764878D01*
X9511420Y-9783309D01*
X9511418Y-9783309D01*
X9511414Y-9783310D01*
X9356041Y-9837678D01*
X9356037Y-9837680D01*
X9216661Y-9925256D01*
X9100256Y-10041661D01*
X9012680Y-10181037D01*
X9012678Y-10181041D01*
X8958310Y-10336414D01*
X8958309Y-10336418D01*
X8958309Y-10336420D01*
X8939878Y-10500000D01*
X8410122Y-10500000D01*
X8391691Y-10336420D01*
X8391671Y-10336364D01*
X8352727Y-10225068D01*
X8337322Y-10181043D01*
X8337321Y-10181041D01*
X8337319Y-10181037D01*
X8249743Y-10041661D01*
X8249742Y-10041659D01*
X8133341Y-9925258D01*
X8133338Y-9925256D01*
X7993962Y-9837680D01*
X7993958Y-9837678D01*
X7838585Y-9783310D01*
X7838581Y-9783309D01*
X7838580Y-9783309D01*
X7675000Y-9764878D01*
X7511420Y-9783309D01*
X7511418Y-9783309D01*
X7511414Y-9783310D01*
X7356041Y-9837678D01*
X7356037Y-9837680D01*
X7216661Y-9925256D01*
X7100256Y-10041661D01*
X7012680Y-10181037D01*
X7012678Y-10181041D01*
X6958310Y-10336414D01*
X6958309Y-10336418D01*
X6958309Y-10336420D01*
X6939878Y-10500000D01*
X500500Y-10500000D01*
X500500Y-8700000D01*
X2690458Y-8700000D01*
X2710501Y-8826553D01*
X2710503Y-8826558D01*
X2744317Y-8892921D01*
X2768674Y-8940723D01*
X2859277Y-9031326D01*
X2973445Y-9089498D01*
X3100000Y-9109542D01*
X3226555Y-9089498D01*
X3340723Y-9031326D01*
X3431326Y-8940723D01*
X3489498Y-8826555D01*
X3509542Y-8700000D01*
X3489498Y-8573445D01*
X3431326Y-8459277D01*
X3413224Y-8441175D01*
X3399691Y-8421217D01*
X3388781Y-8395859D01*
X3344969Y-8291848D01*
X3343852Y-8288760D01*
X3333278Y-8254060D01*
X3330500Y-8235416D01*
X3330499Y-7756548D01*
X3349245Y-7711293D01*
X3394500Y-7692548D01*
X3439755Y-7711293D01*
X3449439Y-7723721D01*
X3450178Y-7724957D01*
X3456438Y-7734354D01*
X3460248Y-7740074D01*
X3460797Y-7740897D01*
X3464742Y-7746235D01*
X3584801Y-7893019D01*
X3589250Y-7897945D01*
X3589257Y-7897952D01*
X3589255Y-7897951D01*
X3597691Y-7906418D01*
X3602768Y-7911514D01*
X3607677Y-7915980D01*
X3607686Y-7915987D01*
X3607690Y-7915991D01*
X3607690Y-7915992D01*
X3682941Y-7978014D01*
X3754003Y-8036584D01*
X3754006Y-8036586D01*
X3754004Y-8036585D01*
X3755075Y-8037383D01*
X3759324Y-8040549D01*
X3759333Y-8040555D01*
X3759335Y-8040557D01*
X3764861Y-8044268D01*
X3775223Y-8051227D01*
X3780908Y-8054654D01*
X3803935Y-8067039D01*
X3947910Y-8144475D01*
X3947911Y-8144476D01*
X3953904Y-8147330D01*
X3953904Y-8147331D01*
X3971581Y-8154710D01*
X3977822Y-8156964D01*
X3977821Y-8156964D01*
X4014034Y-8168070D01*
X4159117Y-8212565D01*
X4159119Y-8212565D01*
X4159119Y-8212566D01*
X4163363Y-8213642D01*
X4165551Y-8214198D01*
X4165550Y-8214198D01*
X4169253Y-8214947D01*
X4184324Y-8217996D01*
X4184329Y-8217996D01*
X4184330Y-8217997D01*
X4190882Y-8218992D01*
X4190878Y-8218992D01*
X4295432Y-8229660D01*
X4382557Y-8238551D01*
X4383837Y-8238650D01*
X4385852Y-8238807D01*
X4391857Y-8239125D01*
X4392290Y-8239148D01*
X4395624Y-8239243D01*
X6899060Y-8248654D01*
X6944244Y-8267570D01*
X6962819Y-8312895D01*
X6959230Y-8333784D01*
X6958310Y-8336413D01*
X6958310Y-8336416D01*
X6958309Y-8336420D01*
X6939878Y-8500000D01*
X6958165Y-8662305D01*
X6958310Y-8663585D01*
X7012678Y-8818958D01*
X7012680Y-8818962D01*
X7089186Y-8940720D01*
X7100258Y-8958341D01*
X7216659Y-9074742D01*
X7225261Y-9080147D01*
X7356037Y-9162319D01*
X7356041Y-9162321D01*
X7356043Y-9162322D01*
X7511420Y-9216691D01*
X7675000Y-9235122D01*
X7838580Y-9216691D01*
X7993957Y-9162322D01*
X8133341Y-9074742D01*
X8249742Y-8958341D01*
X8337322Y-8818957D01*
X8391691Y-8663580D01*
X8410122Y-8500000D01*
X8391691Y-8336420D01*
X8337322Y-8181043D01*
X8320676Y-8154552D01*
X8312471Y-8106262D01*
X8340816Y-8066312D01*
X8340401Y-8066570D01*
X8356291Y-8056008D01*
X8356291Y-8056007D01*
X8356296Y-8056004D01*
X8361664Y-8052042D01*
X8509201Y-7931482D01*
X8514149Y-7927015D01*
X8527779Y-7913438D01*
X8527780Y-7913438D01*
X8532272Y-7908499D01*
X8532272Y-7908500D01*
X8653391Y-7761409D01*
X8653390Y-7761411D01*
X8657372Y-7756060D01*
X8657373Y-7756058D01*
X8668088Y-7740071D01*
X8668088Y-7740072D01*
X8669799Y-7737223D01*
X8671522Y-7734358D01*
X8686703Y-7706036D01*
X8724603Y-7675006D01*
X8773345Y-7679864D01*
X8800134Y-7707216D01*
X8849890Y-7804866D01*
X8853810Y-7812559D01*
X8944413Y-7903162D01*
X8944415Y-7903163D01*
X8944416Y-7903164D01*
X9063069Y-7963621D01*
X9062222Y-7965281D01*
X9094245Y-7992631D01*
X9098089Y-8041464D01*
X9091412Y-8055737D01*
X9012678Y-8181042D01*
X8958310Y-8336414D01*
X8958310Y-8336416D01*
X8958309Y-8336420D01*
X8939878Y-8500000D01*
X8958165Y-8662305D01*
X8958310Y-8663585D01*
X9012678Y-8818958D01*
X9012680Y-8818962D01*
X9089186Y-8940720D01*
X9100258Y-8958341D01*
X9216659Y-9074742D01*
X9225261Y-9080147D01*
X9356037Y-9162319D01*
X9356041Y-9162321D01*
X9356043Y-9162322D01*
X9511420Y-9216691D01*
X9675000Y-9235122D01*
X9838580Y-9216691D01*
X9993957Y-9162322D01*
X10133341Y-9074742D01*
X10249742Y-8958341D01*
X10337322Y-8818957D01*
X10391691Y-8663580D01*
X10410122Y-8500000D01*
X10391691Y-8336420D01*
X10386169Y-8320639D01*
X10388914Y-8271733D01*
X10425437Y-8239092D01*
X10446577Y-8235500D01*
X14500088Y-8235500D01*
X14503408Y-8235419D01*
X14506636Y-8235260D01*
X14509867Y-8235102D01*
X14513189Y-8234857D01*
X14705411Y-8215923D01*
X14706664Y-8215737D01*
X14711978Y-8214950D01*
X14711977Y-8214950D01*
X14711986Y-8214948D01*
X14711994Y-8214947D01*
X14723962Y-8212566D01*
X14730825Y-8211201D01*
X14730822Y-8211202D01*
X14737272Y-8209586D01*
X14737274Y-8209585D01*
X14755079Y-8204184D01*
X14919166Y-8154409D01*
X14925429Y-8152168D01*
X14925427Y-8152168D01*
X14925432Y-8152167D01*
X14925431Y-8152167D01*
X14943167Y-8144821D01*
X14943169Y-8144820D01*
X14943892Y-8144478D01*
X14949181Y-8141977D01*
X14949185Y-8141975D01*
X14949184Y-8141976D01*
X15116815Y-8052376D01*
X15116817Y-8052375D01*
X15122507Y-8048964D01*
X15122506Y-8048965D01*
X15122514Y-8048959D01*
X15122520Y-8048956D01*
X15138484Y-8038290D01*
X15138483Y-8038291D01*
X15143828Y-8034327D01*
X15274589Y-7927014D01*
X15290760Y-7913743D01*
X15290761Y-7913743D01*
X15293220Y-7911514D01*
X15295695Y-7909271D01*
X15309271Y-7895695D01*
X15313739Y-7890765D01*
X15313743Y-7890761D01*
X15313743Y-7890760D01*
X15434327Y-7743828D01*
X15438291Y-7738483D01*
X15438290Y-7738484D01*
X15448956Y-7722520D01*
X15448964Y-7722507D01*
X15448965Y-7722506D01*
X15448964Y-7722506D01*
X15452375Y-7716817D01*
X15452376Y-7716815D01*
X15541976Y-7549184D01*
X15541975Y-7549185D01*
X15541977Y-7549181D01*
X15544821Y-7543167D01*
X15552167Y-7525432D01*
X15554409Y-7519165D01*
X15609585Y-7337274D01*
X15610471Y-7333738D01*
X15611201Y-7330825D01*
X15614775Y-7312858D01*
X15614947Y-7311994D01*
X15614948Y-7311986D01*
X15614950Y-7311977D01*
X15614950Y-7311978D01*
X15615923Y-7305410D01*
X15615923Y-7305408D01*
X15619072Y-7273446D01*
X15634857Y-7113189D01*
X15635102Y-7109867D01*
X15635419Y-7103406D01*
X15635500Y-7100086D01*
X15635500Y-5499915D01*
X15635419Y-5496597D01*
X15635329Y-5494751D01*
X15635103Y-5490134D01*
X15634856Y-5486802D01*
X15633577Y-5473835D01*
X15632948Y-5467452D01*
X15632947Y-5467441D01*
X15632947Y-5467442D01*
X15631839Y-5460220D01*
X15628267Y-5443149D01*
X15628266Y-5443148D01*
X15628266Y-5443145D01*
X15598673Y-5382892D01*
X15566861Y-5345644D01*
X15566859Y-5345642D01*
X15566858Y-5345641D01*
X15560600Y-5340708D01*
X15557780Y-5338203D01*
X15486828Y-5267251D01*
X15475059Y-5251052D01*
X15451157Y-5204143D01*
X15445578Y-5193194D01*
X15439391Y-5174151D01*
X15429232Y-5110005D01*
X15429232Y-5089989D01*
X15439146Y-5027386D01*
X15443586Y-4999357D01*
X15444474Y-4995393D01*
X15445381Y-4992291D01*
X15445664Y-4991310D01*
X15445449Y-4967360D01*
X15445607Y-4963895D01*
X15446679Y-4953237D01*
X15446677Y-4953234D01*
X15446678Y-4953233D01*
X15445575Y-4945917D01*
X15445218Y-4941422D01*
X15444982Y-4914965D01*
X15430765Y-4868095D01*
X15430763Y-4868092D01*
X15430763Y-4868090D01*
X15407553Y-4824667D01*
X15402754Y-4775921D01*
X15433830Y-4738056D01*
X15463998Y-4730500D01*
X16205500Y-4730500D01*
X16250755Y-4749245D01*
X16269500Y-4794500D01*
X16269500Y-8574150D01*
X16269346Y-8577289D01*
X16254861Y-8724310D01*
X16252413Y-8736615D01*
X16210899Y-8873455D01*
X16206098Y-8885045D01*
X16138687Y-9011159D01*
X16131716Y-9021591D01*
X16037908Y-9135894D01*
X16035799Y-9138222D01*
X16021938Y-9152084D01*
X15993132Y-9168680D01*
X15919344Y-9188307D01*
X15902893Y-9190458D01*
X15899998Y-9190458D01*
X15773446Y-9210501D01*
X15773441Y-9210503D01*
X15659279Y-9268672D01*
X15568672Y-9359279D01*
X15510503Y-9473441D01*
X15510501Y-9473446D01*
X15490458Y-9599999D01*
X15490458Y-9600000D01*
X15510501Y-9726553D01*
X15510503Y-9726558D01*
X15568542Y-9840464D01*
X15568674Y-9840723D01*
X15659277Y-9931326D01*
X15773445Y-9989498D01*
X15836722Y-9999520D01*
X15899999Y-10009542D01*
X15899999Y-10009541D01*
X15900000Y-10009542D01*
X16026555Y-9989498D01*
X16140723Y-9931326D01*
X16231326Y-9840723D01*
X16289498Y-9726555D01*
X16302777Y-9642710D01*
X16307088Y-9627690D01*
X16314495Y-9610264D01*
X16357856Y-9514064D01*
X16364706Y-9499331D01*
X16393029Y-9438415D01*
X16405805Y-9420150D01*
X16432805Y-9393151D01*
X16548894Y-9233369D01*
X16634643Y-9065084D01*
X17444500Y-9065084D01*
X17444593Y-9068895D01*
X17444958Y-9076335D01*
X17445239Y-9080146D01*
X17449212Y-9120484D01*
X17464124Y-9271883D01*
X17464124Y-9271882D01*
X17465244Y-9279433D01*
X17469561Y-9301138D01*
X17471416Y-9308545D01*
X17521438Y-9473445D01*
X17526307Y-9489497D01*
X17526307Y-9489499D01*
X17528882Y-9496695D01*
X17528882Y-9496693D01*
X17528883Y-9496696D01*
X17529247Y-9497574D01*
X17537357Y-9517153D01*
X17540621Y-9524052D01*
X17540622Y-9524054D01*
X17629753Y-9690808D01*
X17629754Y-9690809D01*
X17633672Y-9697347D01*
X17633672Y-9697346D01*
X17633677Y-9697354D01*
X17638855Y-9705104D01*
X17645977Y-9715764D01*
X17650528Y-9721901D01*
X17740609Y-9831664D01*
X17770488Y-9868071D01*
X17770925Y-9868553D01*
X17775609Y-9873722D01*
X17775610Y-9873722D01*
X17775615Y-9873728D01*
X17791271Y-9889384D01*
X17791277Y-9889389D01*
X17791277Y-9889390D01*
X17793556Y-9891455D01*
X17796928Y-9894511D01*
X17796933Y-9894515D01*
X17943098Y-10014471D01*
X17946167Y-10016747D01*
X17949235Y-10019022D01*
X17967645Y-10031322D01*
X17967653Y-10031327D01*
X17967652Y-10031327D01*
X17972015Y-10033941D01*
X17974191Y-10035246D01*
X18140945Y-10124377D01*
X18140947Y-10124378D01*
X18147848Y-10127643D01*
X18147845Y-10127642D01*
X18162685Y-10133789D01*
X18168303Y-10136116D01*
X18168308Y-10136117D01*
X18168311Y-10136119D01*
X18168313Y-10136120D01*
X18175495Y-10138691D01*
X18175494Y-10138690D01*
X18356449Y-10193581D01*
X18356451Y-10193582D01*
X18363855Y-10195437D01*
X18363852Y-10195436D01*
X18371092Y-10196876D01*
X18385569Y-10199756D01*
X18385573Y-10199756D01*
X18385574Y-10199757D01*
X18390370Y-10200468D01*
X18393121Y-10200876D01*
X18393120Y-10200876D01*
X18441053Y-10205597D01*
X18584853Y-10219761D01*
X18588666Y-10220042D01*
X18592386Y-10220224D01*
X18596105Y-10220407D01*
X18599915Y-10220500D01*
X18599917Y-10220500D01*
X24000085Y-10220500D01*
X24003895Y-10220407D01*
X24007613Y-10220224D01*
X24011334Y-10220042D01*
X24015147Y-10219761D01*
X24158945Y-10205597D01*
X24206879Y-10200876D01*
X24206878Y-10200876D01*
X24209628Y-10200468D01*
X24214425Y-10199757D01*
X24214425Y-10199756D01*
X24214430Y-10199756D01*
X24228906Y-10196876D01*
X24236147Y-10195436D01*
X24236144Y-10195437D01*
X24243548Y-10193582D01*
X24243550Y-10193581D01*
X24424505Y-10138690D01*
X24424504Y-10138691D01*
X24431686Y-10136120D01*
X24431688Y-10136119D01*
X24431690Y-10136117D01*
X24431696Y-10136116D01*
X24437313Y-10133789D01*
X24452154Y-10127642D01*
X24452151Y-10127643D01*
X24459052Y-10124378D01*
X24459054Y-10124377D01*
X24625808Y-10035246D01*
X24627983Y-10033941D01*
X24632347Y-10031327D01*
X24632346Y-10031327D01*
X24632354Y-10031322D01*
X24650764Y-10019022D01*
X24653831Y-10016747D01*
X24656901Y-10014471D01*
X24803066Y-9894515D01*
X24803071Y-9894511D01*
X24806443Y-9891455D01*
X24808722Y-9889390D01*
X24808722Y-9889389D01*
X24808728Y-9889384D01*
X24824384Y-9873728D01*
X24824389Y-9873722D01*
X24824390Y-9873722D01*
X24829074Y-9868553D01*
X24829511Y-9868071D01*
X24859390Y-9831664D01*
X24949471Y-9721901D01*
X24954022Y-9715764D01*
X24961144Y-9705104D01*
X24966322Y-9697354D01*
X24966327Y-9697346D01*
X24966327Y-9697347D01*
X24970245Y-9690809D01*
X24970246Y-9690808D01*
X25059377Y-9524054D01*
X25059378Y-9524052D01*
X25062642Y-9517154D01*
X25070752Y-9497574D01*
X25071116Y-9496696D01*
X25071120Y-9496686D01*
X25073691Y-9489504D01*
X25073690Y-9489505D01*
X25128581Y-9308550D01*
X25128582Y-9308548D01*
X25130436Y-9301147D01*
X25133088Y-9287814D01*
X25134756Y-9279430D01*
X25135876Y-9271882D01*
X25135876Y-9271879D01*
X25143896Y-9190458D01*
X25154761Y-9080147D01*
X25155042Y-9076334D01*
X25155407Y-9068893D01*
X25155500Y-9065083D01*
X25155500Y-6464916D01*
X25155407Y-6461106D01*
X25155042Y-6453665D01*
X25154761Y-6449852D01*
X25135876Y-6258121D01*
X25134756Y-6250569D01*
X25131726Y-6235336D01*
X25130437Y-6228855D01*
X25128582Y-6221451D01*
X25128581Y-6221449D01*
X25076574Y-6050003D01*
X25681941Y-6050003D01*
X25692068Y-6100915D01*
X25692069Y-6100918D01*
X25717811Y-6139445D01*
X25727366Y-6187487D01*
X25717811Y-6210555D01*
X25692069Y-6249081D01*
X25692068Y-6249084D01*
X25684499Y-6287141D01*
X25684499Y-7312852D01*
X25692070Y-7350920D01*
X25720913Y-7394086D01*
X25720914Y-7394087D01*
X25729764Y-7400000D01*
X25764080Y-7422929D01*
X25764081Y-7422929D01*
X25764083Y-7422930D01*
X25789339Y-7427953D01*
X25802144Y-7430500D01*
X27327853Y-7430499D01*
X27365918Y-7422929D01*
X27404944Y-7396852D01*
X27452985Y-7387297D01*
X27493714Y-7414510D01*
X27504500Y-7450067D01*
X27504500Y-7817730D01*
X27504431Y-7819824D01*
X27490167Y-8037383D01*
X27489620Y-8041537D01*
X27447287Y-8254338D01*
X27446203Y-8258385D01*
X27376458Y-8463835D01*
X27374854Y-8467706D01*
X27278886Y-8662305D01*
X27276791Y-8665934D01*
X27156244Y-8846343D01*
X27153693Y-8849667D01*
X27058388Y-8958341D01*
X27012330Y-9010860D01*
X27009945Y-9013579D01*
X27008511Y-9015110D01*
X27003209Y-9020411D01*
X26991962Y-9029371D01*
X26978098Y-9038065D01*
X26870918Y-9139207D01*
X26868277Y-9141442D01*
X26792719Y-9198681D01*
X26784170Y-9204148D01*
X26713360Y-9241880D01*
X26710380Y-9243276D01*
X26605853Y-9285845D01*
X26579145Y-9296482D01*
X26565477Y-9300237D01*
X26468442Y-9315606D01*
X26468437Y-9315608D01*
X26354275Y-9373777D01*
X26263668Y-9464384D01*
X26205499Y-9578546D01*
X26205498Y-9578550D01*
X26185454Y-9705104D01*
X26185454Y-9705105D01*
X26205497Y-9831658D01*
X26205499Y-9831663D01*
X26256281Y-9931327D01*
X26263670Y-9945828D01*
X26354273Y-10036431D01*
X26468441Y-10094603D01*
X26594996Y-10114647D01*
X26721551Y-10094603D01*
X26835719Y-10036431D01*
X26926322Y-9945828D01*
X26984494Y-9831660D01*
X26999864Y-9734611D01*
X27003617Y-9720948D01*
X27010836Y-9702827D01*
X27014256Y-9694244D01*
X27035240Y-9642714D01*
X27056835Y-9589685D01*
X27058216Y-9586738D01*
X27095950Y-9515926D01*
X27101407Y-9507393D01*
X27158662Y-9431813D01*
X27160884Y-9429187D01*
X27222935Y-9363434D01*
X27262031Y-9322006D01*
X27262031Y-9322005D01*
X27262030Y-9322005D01*
X27262035Y-9322001D01*
X27271367Y-9307354D01*
X27280086Y-9296493D01*
X27280097Y-9296482D01*
X27285737Y-9290843D01*
X27285732Y-9290847D01*
X27328547Y-9248036D01*
X27328550Y-9248028D01*
X27368401Y-9208178D01*
X27514189Y-9025368D01*
X27638592Y-8827384D01*
X27740047Y-8616717D01*
X27817278Y-8396016D01*
X27869312Y-8168055D01*
X27876902Y-8100698D01*
X27900598Y-8057827D01*
X27947667Y-8044268D01*
X27990538Y-8067963D01*
X28004500Y-8107865D01*
X28004500Y-9021480D01*
X28000480Y-9043805D01*
X27999641Y-9046056D01*
X27984695Y-9138694D01*
X27972547Y-9167118D01*
X27960780Y-9182670D01*
X27959065Y-9184936D01*
X27940957Y-9201196D01*
X27878296Y-9238792D01*
X27876971Y-9239544D01*
X27756987Y-9303974D01*
X27751944Y-9306971D01*
X27745307Y-9311313D01*
X27745439Y-9311219D01*
X27737163Y-9316259D01*
X27624278Y-9373777D01*
X27533671Y-9464384D01*
X27475502Y-9578546D01*
X27475501Y-9578550D01*
X27455457Y-9705104D01*
X27455457Y-9705105D01*
X27475500Y-9831658D01*
X27475502Y-9831663D01*
X27526284Y-9931327D01*
X27533673Y-9945828D01*
X27624276Y-10036431D01*
X27738444Y-10094603D01*
X27864999Y-10114647D01*
X27991554Y-10094603D01*
X28105722Y-10036431D01*
X28196325Y-9945828D01*
X28254497Y-9831660D01*
X28268264Y-9744726D01*
X28272431Y-9730050D01*
X28295351Y-9675263D01*
X28345616Y-9543732D01*
X28346934Y-9539953D01*
X28348326Y-9535544D01*
X28349389Y-9531809D01*
X28367159Y-9461822D01*
X28379219Y-9414322D01*
X28380259Y-9409493D01*
X28381421Y-9402952D01*
X28382107Y-9398059D01*
X28396466Y-9258918D01*
X28396843Y-9252748D01*
X28400263Y-9071622D01*
X28400263Y-9071575D01*
X28400271Y-9070729D01*
X28396671Y-9052195D01*
X28395500Y-9040016D01*
X28395500Y-7417372D01*
X28414245Y-7372117D01*
X28459500Y-7353372D01*
X28504755Y-7372117D01*
X28512714Y-7381816D01*
X28520911Y-7394084D01*
X28520914Y-7394087D01*
X28529764Y-7400000D01*
X28564080Y-7422929D01*
X28564081Y-7422929D01*
X28564083Y-7422930D01*
X28589339Y-7427953D01*
X28602144Y-7430500D01*
X30127853Y-7430499D01*
X30165918Y-7422929D01*
X30209085Y-7394086D01*
X30237928Y-7350919D01*
X30245499Y-7312855D01*
X30245498Y-7270502D01*
X30264242Y-7225250D01*
X30309497Y-7206504D01*
X30354752Y-7225248D01*
X30361271Y-7232880D01*
X30362438Y-7234486D01*
X30362439Y-7234487D01*
X30362441Y-7234490D01*
X30453044Y-7325093D01*
X30567212Y-7383265D01*
X30668542Y-7399313D01*
X30710307Y-7424906D01*
X30721742Y-7472536D01*
X30704560Y-7506991D01*
X30572468Y-7643727D01*
X30572461Y-7643736D01*
X30562548Y-7658995D01*
X30554136Y-7669382D01*
X30419969Y-7803552D01*
X30419741Y-7803807D01*
X30391032Y-7832512D01*
X30319206Y-7939999D01*
X30269729Y-8059429D01*
X30269729Y-8059430D01*
X30244503Y-8186211D01*
X30244502Y-8186214D01*
X30244501Y-8206467D01*
X30244496Y-8206531D01*
X30244496Y-8211991D01*
X30244496Y-8211992D01*
X30244497Y-8218992D01*
X30244498Y-8248781D01*
X30244224Y-8252961D01*
X30236564Y-8311189D01*
X30232241Y-8327329D01*
X30212190Y-8375746D01*
X30203837Y-8390216D01*
X30168228Y-8436628D01*
X30165475Y-8439769D01*
X30162969Y-8442278D01*
X29561223Y-9044021D01*
X29548986Y-9053591D01*
X29536587Y-9061057D01*
X29536580Y-9061063D01*
X29432082Y-9156165D01*
X29424428Y-9162135D01*
X29352730Y-9209783D01*
X29342558Y-9215288D01*
X29268156Y-9247235D01*
X29265810Y-9248135D01*
X29152835Y-9286459D01*
X29130291Y-9294967D01*
X29117704Y-9298302D01*
X29008447Y-9315606D01*
X29008442Y-9315608D01*
X28894280Y-9373777D01*
X28803673Y-9464384D01*
X28745504Y-9578546D01*
X28745503Y-9578550D01*
X28725459Y-9705104D01*
X28725459Y-9705105D01*
X28745502Y-9831658D01*
X28745504Y-9831663D01*
X28796286Y-9931327D01*
X28803675Y-9945828D01*
X28894278Y-10036431D01*
X29008446Y-10094603D01*
X29135001Y-10114647D01*
X29261556Y-10094603D01*
X29375724Y-10036431D01*
X29466327Y-9945828D01*
X29524499Y-9831660D01*
X29538300Y-9744511D01*
X29542456Y-9729859D01*
X29553340Y-9703816D01*
X29553923Y-9702508D01*
X29598650Y-9608112D01*
X29600582Y-9604619D01*
X29643904Y-9536682D01*
X29646502Y-9533165D01*
X29712053Y-9456110D01*
X29713459Y-9454568D01*
X29816872Y-9348588D01*
X29827028Y-9333079D01*
X29835307Y-9322895D01*
X30410514Y-8747687D01*
X30410538Y-8747669D01*
X30415790Y-8742415D01*
X30415793Y-8742415D01*
X30424828Y-8733377D01*
X30424901Y-8733347D01*
X30443309Y-8714936D01*
X30443310Y-8714937D01*
X30489014Y-8669227D01*
X30560829Y-8561729D01*
X30610293Y-8442286D01*
X30610514Y-8441178D01*
X30626394Y-8361305D01*
X30635504Y-8315489D01*
X30635499Y-8252978D01*
X30635773Y-8248795D01*
X30635792Y-8248654D01*
X30643443Y-8190566D01*
X30647764Y-8174442D01*
X30667826Y-8126018D01*
X30676177Y-8111557D01*
X30696790Y-8084694D01*
X30712033Y-8064829D01*
X30714793Y-8061684D01*
X30725252Y-8051226D01*
X30735930Y-8040549D01*
X30740693Y-8035787D01*
X30740693Y-8035786D01*
X30746835Y-8029645D01*
X30746844Y-8029632D01*
X30812943Y-7963533D01*
X30829085Y-7951794D01*
X31123380Y-7801521D01*
X31125330Y-7800610D01*
X31151347Y-7789495D01*
X31328074Y-7713993D01*
X31350746Y-7701630D01*
X31354422Y-7699144D01*
X31355791Y-7698206D01*
X31403700Y-7638758D01*
X31407127Y-7630485D01*
X31412403Y-7603958D01*
X31439617Y-7563229D01*
X31475174Y-7552443D01*
X31772346Y-7552443D01*
X31772347Y-7552443D01*
X31780969Y-7551893D01*
X31792482Y-7550417D01*
X31800953Y-7548778D01*
X32033497Y-7488212D01*
X32035939Y-7487679D01*
X32331397Y-7435368D01*
X32335434Y-7434526D01*
X32336164Y-7434350D01*
X32342353Y-7432862D01*
X32342483Y-7433403D01*
X32358934Y-7430499D01*
X32927851Y-7430499D01*
X32927853Y-7430499D01*
X32965918Y-7422929D01*
X33009085Y-7394086D01*
X33037928Y-7350919D01*
X33045499Y-7312855D01*
X33045498Y-6287146D01*
X33037928Y-6249081D01*
X33037926Y-6249078D01*
X33037926Y-6249077D01*
X33012187Y-6210555D01*
X33002631Y-6162513D01*
X33012185Y-6139445D01*
X33037928Y-6100919D01*
X33048056Y-6050000D01*
X33048056Y-5504426D01*
X33066798Y-5459176D01*
X33080879Y-5445096D01*
X33080878Y-5445096D01*
X33876169Y-4649804D01*
X33894350Y-4637069D01*
X33897285Y-4635699D01*
X34407386Y-4261267D01*
X34435736Y-4240457D01*
X34437478Y-4239265D01*
X34978667Y-3895049D01*
X34980639Y-3893894D01*
X35520531Y-3603409D01*
X35522744Y-3602328D01*
X36061250Y-3365363D01*
X36063760Y-3364385D01*
X36336176Y-3271205D01*
X36591294Y-3183942D01*
X36612003Y-3180499D01*
X37036103Y-3180499D01*
X37036108Y-3180499D01*
X37110071Y-3169724D01*
X37224156Y-3113951D01*
X37313951Y-3024156D01*
X37369724Y-2910071D01*
X37380500Y-2836109D01*
X37380499Y-1163892D01*
X37369724Y-1089929D01*
X37313951Y-975844D01*
X37224156Y-886049D01*
X37110071Y-830276D01*
X37110069Y-830275D01*
X37110065Y-830274D01*
X37036109Y-819500D01*
X35363897Y-819500D01*
X35289928Y-830276D01*
X35175843Y-886049D01*
X35086049Y-975843D01*
X35030276Y-1089929D01*
X35030274Y-1089934D01*
X35019500Y-1163890D01*
X35019500Y-1581859D01*
X35013866Y-1608116D01*
X34730860Y-2237202D01*
X34436491Y-2837931D01*
X34142648Y-3384067D01*
X33849926Y-3874803D01*
X33849038Y-3876208D01*
X33560321Y-4307643D01*
X33560316Y-4307651D01*
X33559615Y-4309133D01*
X33547031Y-4326990D01*
X32883960Y-4990060D01*
X32838705Y-5008805D01*
X32796795Y-4993174D01*
X32793201Y-4990060D01*
X32775232Y-4974490D01*
X32754756Y-4961330D01*
X32743372Y-4954014D01*
X32612599Y-4894291D01*
X32612583Y-4894285D01*
X32576260Y-4883620D01*
X32576261Y-4883620D01*
X32576250Y-4883617D01*
X32433935Y-4863155D01*
X32396063Y-4863155D01*
X32384907Y-4864758D01*
X32374243Y-4866292D01*
X32365136Y-4866943D01*
X31964862Y-4866943D01*
X31955755Y-4866292D01*
X31945090Y-4864758D01*
X31933935Y-4863155D01*
X31896063Y-4863155D01*
X31753748Y-4883617D01*
X31753742Y-4883618D01*
X31753737Y-4883620D01*
X31717414Y-4894285D01*
X31717398Y-4894291D01*
X31586625Y-4954014D01*
X31586624Y-4954014D01*
X31554765Y-4974490D01*
X31446111Y-5068637D01*
X31446105Y-5068644D01*
X31421306Y-5097262D01*
X31421299Y-5097271D01*
X31343572Y-5218216D01*
X31343570Y-5218221D01*
X31337238Y-5232087D01*
X31301387Y-5265465D01*
X31279022Y-5269500D01*
X30713758Y-5269500D01*
X30710425Y-5269325D01*
X30696014Y-5267811D01*
X30675370Y-5265640D01*
X30675367Y-5265640D01*
X30673130Y-5266368D01*
X30653355Y-5269500D01*
X30250976Y-5269500D01*
X30205721Y-5250755D01*
X30192760Y-5232087D01*
X30186427Y-5218221D01*
X30186425Y-5218216D01*
X30108698Y-5097271D01*
X30108695Y-5097266D01*
X30083893Y-5068644D01*
X30083889Y-5068640D01*
X30083886Y-5068637D01*
X29975232Y-4974490D01*
X29943372Y-4954014D01*
X29812599Y-4894291D01*
X29812583Y-4894285D01*
X29776260Y-4883620D01*
X29776261Y-4883620D01*
X29776250Y-4883617D01*
X29633935Y-4863155D01*
X29596063Y-4863155D01*
X29584907Y-4864758D01*
X29574243Y-4866292D01*
X29565136Y-4866943D01*
X29164862Y-4866943D01*
X29155755Y-4866292D01*
X29145090Y-4864758D01*
X29133935Y-4863155D01*
X29096063Y-4863155D01*
X28953748Y-4883617D01*
X28953742Y-4883618D01*
X28953737Y-4883620D01*
X28917414Y-4894285D01*
X28917398Y-4894291D01*
X28786625Y-4954014D01*
X28786624Y-4954014D01*
X28754765Y-4974490D01*
X28646111Y-5068637D01*
X28646105Y-5068644D01*
X28621306Y-5097262D01*
X28621299Y-5097271D01*
X28543572Y-5218216D01*
X28543570Y-5218221D01*
X28537238Y-5232087D01*
X28501387Y-5265465D01*
X28479022Y-5269500D01*
X28423520Y-5269500D01*
X28423500Y-5269498D01*
X28403279Y-5269498D01*
X28403257Y-5269489D01*
X28312030Y-5269494D01*
X28185047Y-5294758D01*
X28102092Y-5329122D01*
X28080171Y-5338203D01*
X28065433Y-5344308D01*
X28063434Y-5345644D01*
X27995092Y-5391311D01*
X27984755Y-5398218D01*
X27936713Y-5407774D01*
X27911926Y-5397031D01*
X27862737Y-5361792D01*
X27862734Y-5361791D01*
X27768066Y-5314170D01*
X27768057Y-5314166D01*
X27705845Y-5294204D01*
X27667153Y-5281789D01*
X27667151Y-5281788D01*
X27667146Y-5281787D01*
X27653365Y-5279646D01*
X27637163Y-5274873D01*
X27628220Y-5270891D01*
X27628219Y-5270891D01*
X27602080Y-5270891D01*
X27592204Y-5270124D01*
X27574638Y-5267380D01*
X27574634Y-5267380D01*
X27562893Y-5269689D01*
X27550546Y-5270891D01*
X27451611Y-5270891D01*
X27406356Y-5252146D01*
X27393394Y-5233477D01*
X27386427Y-5218220D01*
X27308695Y-5097266D01*
X27283893Y-5068644D01*
X27283889Y-5068640D01*
X27283886Y-5068637D01*
X27175232Y-4974490D01*
X27143372Y-4954014D01*
X27012599Y-4894291D01*
X27012583Y-4894285D01*
X26976260Y-4883620D01*
X26976261Y-4883620D01*
X26976250Y-4883617D01*
X26833935Y-4863155D01*
X26796063Y-4863155D01*
X26784907Y-4864758D01*
X26774243Y-4866292D01*
X26765136Y-4866943D01*
X26364862Y-4866943D01*
X26355755Y-4866292D01*
X26345090Y-4864758D01*
X26333935Y-4863155D01*
X26296063Y-4863155D01*
X26153748Y-4883617D01*
X26153742Y-4883618D01*
X26153737Y-4883620D01*
X26117414Y-4894285D01*
X26117398Y-4894291D01*
X25986625Y-4954014D01*
X25986624Y-4954014D01*
X25954765Y-4974490D01*
X25846111Y-5068637D01*
X25846105Y-5068644D01*
X25821306Y-5097262D01*
X25821299Y-5097271D01*
X25743572Y-5218216D01*
X25743571Y-5218219D01*
X25727839Y-5252668D01*
X25727837Y-5252675D01*
X25687333Y-5390621D01*
X25687330Y-5390631D01*
X25681942Y-5428104D01*
X25681942Y-5428108D01*
X25681941Y-6050003D01*
X25076574Y-6050003D01*
X25073690Y-6040494D01*
X25073691Y-6040495D01*
X25071120Y-6033313D01*
X25071119Y-6033311D01*
X25071108Y-6033285D01*
X25067060Y-6023512D01*
X25062643Y-6012848D01*
X25059378Y-6005947D01*
X25059377Y-6005945D01*
X24970246Y-5839191D01*
X24970245Y-5839190D01*
X24970243Y-5839187D01*
X24968941Y-5837015D01*
X24966327Y-5832652D01*
X24966327Y-5832653D01*
X24966322Y-5832645D01*
X24954022Y-5814235D01*
X24951747Y-5811167D01*
X24949471Y-5808098D01*
X24829515Y-5661933D01*
X24829511Y-5661928D01*
X24827024Y-5659184D01*
X24824390Y-5656277D01*
X24824389Y-5656277D01*
X24824384Y-5656271D01*
X24808728Y-5640615D01*
X24808722Y-5640609D01*
X24803072Y-5635489D01*
X24803071Y-5635488D01*
X24782769Y-5618827D01*
X24656901Y-5515528D01*
X24653831Y-5513252D01*
X24650764Y-5510977D01*
X24632354Y-5498677D01*
X24632346Y-5498672D01*
X24632347Y-5498672D01*
X24627983Y-5496057D01*
X24625808Y-5494753D01*
X24459050Y-5405620D01*
X24458411Y-5405317D01*
X24452151Y-5402356D01*
X24452153Y-5402357D01*
X24439252Y-5397013D01*
X24431696Y-5393883D01*
X24431693Y-5393882D01*
X24431695Y-5393882D01*
X24424499Y-5391307D01*
X24424497Y-5391307D01*
X24243545Y-5336416D01*
X24243540Y-5336414D01*
X24243531Y-5336412D01*
X24243534Y-5336413D01*
X24239939Y-5335513D01*
X24236138Y-5334561D01*
X24214433Y-5330244D01*
X24208260Y-5329328D01*
X24206882Y-5329124D01*
X24206883Y-5329124D01*
X24079057Y-5316533D01*
X24015146Y-5310239D01*
X24011335Y-5309958D01*
X24008855Y-5309836D01*
X24003897Y-5309593D01*
X24000086Y-5309500D01*
X24000084Y-5309500D01*
X18599916Y-5309500D01*
X18599914Y-5309500D01*
X18596103Y-5309593D01*
X18591145Y-5309836D01*
X18588665Y-5309958D01*
X18584854Y-5310239D01*
X18558612Y-5312823D01*
X18393130Y-5329122D01*
X18393129Y-5329122D01*
X18393116Y-5329124D01*
X18385859Y-5330200D01*
X18385559Y-5330245D01*
X18385561Y-5330245D01*
X18363884Y-5334556D01*
X18363882Y-5334556D01*
X18363873Y-5334558D01*
X18363864Y-5334560D01*
X18356457Y-5336415D01*
X18175491Y-5391310D01*
X18171895Y-5392596D01*
X18168304Y-5393881D01*
X18168305Y-5393881D01*
X18168299Y-5393883D01*
X18147851Y-5402354D01*
X18140962Y-5405613D01*
X18140964Y-5405612D01*
X18140958Y-5405614D01*
X18140952Y-5405618D01*
X18064466Y-5446501D01*
X17982842Y-5490130D01*
X17974196Y-5494751D01*
X17974195Y-5494751D01*
X17974187Y-5494756D01*
X17967642Y-5498679D01*
X17949240Y-5510973D01*
X17949239Y-5510974D01*
X17943109Y-5515519D01*
X17943111Y-5515518D01*
X17796924Y-5635490D01*
X17796925Y-5635489D01*
X17793689Y-5638422D01*
X17791275Y-5640611D01*
X17775619Y-5656265D01*
X17770490Y-5661925D01*
X17661688Y-5794500D01*
X17650518Y-5808111D01*
X17645974Y-5814239D01*
X17645973Y-5814240D01*
X17633679Y-5832642D01*
X17631080Y-5836977D01*
X17629751Y-5839195D01*
X17629751Y-5839197D01*
X17540621Y-6005944D01*
X17537358Y-6012845D01*
X17537358Y-6012844D01*
X17532938Y-6023512D01*
X17528885Y-6033294D01*
X17526311Y-6040489D01*
X17471415Y-6221457D01*
X17469563Y-6228855D01*
X17469556Y-6228881D01*
X17469556Y-6228884D01*
X17465244Y-6250566D01*
X17464124Y-6258116D01*
X17464123Y-6258129D01*
X17464122Y-6258130D01*
X17452398Y-6377166D01*
X17445239Y-6449853D01*
X17444958Y-6453664D01*
X17444593Y-6461104D01*
X17444500Y-6464915D01*
X17444500Y-8633794D01*
X17444500Y-9065084D01*
X16634643Y-9065084D01*
X16638560Y-9057396D01*
X16699596Y-8869562D01*
X16730497Y-8674493D01*
X16730497Y-8634207D01*
X16730500Y-8634197D01*
X16730500Y-8572420D01*
X16730500Y-8572415D01*
X16730502Y-8535099D01*
X16730500Y-8535095D01*
X16730501Y-8529955D01*
X16730500Y-8529929D01*
X16730500Y-4794500D01*
X16749245Y-4749245D01*
X16794500Y-4730500D01*
X20906544Y-4730500D01*
X20906858Y-4730483D01*
X21018331Y-4730485D01*
X21291750Y-4699683D01*
X21560001Y-4638460D01*
X21819710Y-4547586D01*
X21876704Y-4520138D01*
X21890764Y-4515287D01*
X21987026Y-4494206D01*
X21988693Y-4493889D01*
X22237390Y-4453379D01*
X22454583Y-4418001D01*
X22458116Y-4417626D01*
X23095630Y-4385885D01*
X23104277Y-4383828D01*
X23110977Y-4382236D01*
X23125781Y-4380500D01*
X23209390Y-4380500D01*
X23209390Y-4380499D01*
X23387307Y-4347240D01*
X23424433Y-4340301D01*
X23424435Y-4340300D01*
X23424443Y-4340299D01*
X23628448Y-4261267D01*
X23814458Y-4146095D01*
X23976137Y-3998705D01*
X24107981Y-3824115D01*
X24205499Y-3628273D01*
X24265371Y-3417846D01*
X24285557Y-3200000D01*
X24265371Y-2982154D01*
X24205499Y-2771727D01*
X24205497Y-2771722D01*
X24107984Y-2575890D01*
X24107982Y-2575887D01*
X24107981Y-2575886D01*
X24107981Y-2575885D01*
X23976137Y-2401295D01*
X23852928Y-2288975D01*
X23814461Y-2253907D01*
X23628447Y-2138732D01*
X23628448Y-2138732D01*
X23424445Y-2059701D01*
X23424433Y-2059698D01*
X23209391Y-2019500D01*
X23209389Y-2019500D01*
X22990611Y-2019500D01*
X22990609Y-2019500D01*
X22775566Y-2059698D01*
X22775554Y-2059701D01*
X22571552Y-2138732D01*
X22385538Y-2253907D01*
X22223860Y-2401297D01*
X22092019Y-2575885D01*
X22092013Y-2575893D01*
X22087787Y-2584380D01*
X22081260Y-2594827D01*
X21904527Y-2824966D01*
X21811921Y-2945557D01*
X21808374Y-2950643D01*
X21803915Y-2957702D01*
X21803915Y-2957701D01*
X21800822Y-2963138D01*
X21800821Y-2963140D01*
X21528617Y-3497348D01*
X21527920Y-3498643D01*
X21293153Y-3911345D01*
X21277613Y-3929589D01*
X20963086Y-4182334D01*
X20933978Y-4195496D01*
X20514517Y-4268551D01*
X20503536Y-4269500D01*
X16513758Y-4269500D01*
X16510425Y-4269325D01*
X16496014Y-4267811D01*
X16475370Y-4265640D01*
X16475367Y-4265640D01*
X16473130Y-4266368D01*
X16453355Y-4269500D01*
X11046724Y-4269500D01*
X11033257Y-4268067D01*
X10832423Y-4224837D01*
X10821113Y-4221279D01*
X10704159Y-4172167D01*
X10606882Y-4131317D01*
X10604776Y-4130340D01*
X10339656Y-3995358D01*
X9970762Y-3826920D01*
X9969241Y-3826259D01*
X9966135Y-3825273D01*
X9966312Y-3824715D01*
X9950190Y-3817837D01*
X9950062Y-3818071D01*
X9947714Y-3816780D01*
X9947501Y-3816689D01*
X9947311Y-3816559D01*
X9947310Y-3816558D01*
X9947305Y-3816555D01*
X9557054Y-3649529D01*
X9518736Y-3633596D01*
X9265685Y-3528376D01*
X9264599Y-3527957D01*
X9262430Y-3527119D01*
X9259784Y-3526176D01*
X9258717Y-3525796D01*
X9255590Y-3524766D01*
X9165015Y-3497348D01*
X8995001Y-3445882D01*
X8990091Y-3444595D01*
X8983454Y-3443118D01*
X8978475Y-3442203D01*
X8937956Y-3436314D01*
X8843638Y-3422604D01*
X8823797Y-3416299D01*
X8817137Y-3412906D01*
X8677351Y-3367491D01*
X8677348Y-3367490D01*
X8677345Y-3367489D01*
X8677339Y-3367488D01*
X8532179Y-3344499D01*
X8532175Y-3344499D01*
X8458684Y-3344500D01*
X5047005Y-3344500D01*
X5047000Y-3344498D01*
X4899700Y-3344498D01*
X4899695Y-3344499D01*
X4659623Y-3371548D01*
X4659610Y-3371551D01*
X4424095Y-3425305D01*
X4424070Y-3425313D01*
X4196057Y-3505099D01*
X4196043Y-3505105D01*
X3978377Y-3609928D01*
X3978371Y-3609931D01*
X3773818Y-3738461D01*
X3773808Y-3738468D01*
X3584932Y-3889091D01*
X3584931Y-3889092D01*
X3552074Y-3921949D01*
X3528251Y-3945772D01*
X3499507Y-3974517D01*
X3414088Y-4059936D01*
X3263467Y-4248811D01*
X3263453Y-4248829D01*
X3134931Y-4453370D01*
X3030106Y-4671041D01*
X3030100Y-4671055D01*
X2950315Y-4899066D01*
X2950308Y-4899088D01*
X2896552Y-5134607D01*
X2896550Y-5134617D01*
X2869501Y-5374686D01*
X2869500Y-5374690D01*
X2869500Y-8235402D01*
X2866720Y-8254060D01*
X2856146Y-8288755D01*
X2855026Y-8291850D01*
X2811216Y-8395860D01*
X2800302Y-8421224D01*
X2786771Y-8441178D01*
X2768674Y-8459276D01*
X2768673Y-8459277D01*
X2710503Y-8573441D01*
X2710501Y-8573446D01*
X2690458Y-8699999D01*
X2690458Y-8700000D01*
X500500Y-8700000D01*
X500500Y-3000962D01*
X500557Y-2999052D01*
X518607Y-2700644D01*
X519070Y-2696825D01*
X572784Y-2403721D01*
X573705Y-2399987D01*
X662353Y-2115503D01*
X663721Y-2111901D01*
X687214Y-2059701D01*
X714083Y-2000000D01*
X30414443Y-2000000D01*
X30434629Y-2217847D01*
X30494502Y-2428277D01*
X30592015Y-2624109D01*
X30592017Y-2624112D01*
X30723860Y-2798702D01*
X30885538Y-2946092D01*
X30885540Y-2946093D01*
X30885542Y-2946095D01*
X31071552Y-3061267D01*
X31071551Y-3061267D01*
X31275554Y-3140298D01*
X31275557Y-3140299D01*
X31275560Y-3140299D01*
X31275566Y-3140301D01*
X31365809Y-3157170D01*
X31490609Y-3180499D01*
X31490610Y-3180500D01*
X31490611Y-3180500D01*
X31709390Y-3180500D01*
X31709390Y-3180499D01*
X31887307Y-3147240D01*
X31924433Y-3140301D01*
X31924435Y-3140300D01*
X31924443Y-3140299D01*
X32128448Y-3061267D01*
X32314458Y-2946095D01*
X32476137Y-2798705D01*
X32607981Y-2624115D01*
X32705499Y-2428273D01*
X32765371Y-2217846D01*
X32785557Y-2000000D01*
X32765371Y-1782154D01*
X32705499Y-1571727D01*
X32705497Y-1571722D01*
X32607984Y-1375890D01*
X32607982Y-1375887D01*
X32607981Y-1375886D01*
X32607981Y-1375885D01*
X32476137Y-1201295D01*
X32435106Y-1163890D01*
X32314461Y-1053907D01*
X32128447Y-938732D01*
X32128448Y-938732D01*
X31924445Y-859701D01*
X31924433Y-859698D01*
X31709391Y-819500D01*
X31709389Y-819500D01*
X31490611Y-819500D01*
X31490609Y-819500D01*
X31275566Y-859698D01*
X31275554Y-859701D01*
X31071552Y-938732D01*
X30885538Y-1053907D01*
X30723860Y-1201297D01*
X30592017Y-1375887D01*
X30592015Y-1375890D01*
X30494502Y-1571722D01*
X30434629Y-1782152D01*
X30414443Y-1999999D01*
X30414443Y-2000000D01*
X714083Y-2000000D01*
X786015Y-1840174D01*
X787799Y-1836776D01*
X941952Y-1581775D01*
X944142Y-1578601D01*
X1127904Y-1344047D01*
X1130467Y-1341155D01*
X1341155Y-1130467D01*
X1344050Y-1127902D01*
X1392519Y-1089929D01*
X1578601Y-944142D01*
X1581775Y-941952D01*
X1836776Y-787799D01*
X1840174Y-786015D01*
X2106257Y-666261D01*
X2111901Y-663721D01*
X2115503Y-662353D01*
X2399987Y-573705D01*
X2403721Y-572784D01*
X2696825Y-519070D01*
X2700644Y-518607D01*
X2999051Y-500557D01*
X3000963Y-500500D01*
X3065892Y-500500D01*
X40049290Y-500500D01*
X40094545Y-519245D01*
G37*
%TD.AperFunction*%
%TD*%
%TA.AperFunction,Conductor*%
%TO.N,/PH_RING*%
G36*
X7230359Y-3824245D02*
G01*
X7249104Y-3869500D01*
X7230359Y-3914755D01*
X7219156Y-3923689D01*
X7216661Y-3925256D01*
X7100256Y-4041661D01*
X7012680Y-4181037D01*
X7012678Y-4181041D01*
X6958310Y-4336414D01*
X6958309Y-4336418D01*
X6958309Y-4336420D01*
X6939878Y-4500000D01*
X6957047Y-4652383D01*
X6958310Y-4663585D01*
X7012678Y-4818958D01*
X7012680Y-4818962D01*
X7100256Y-4958338D01*
X7100258Y-4958341D01*
X7216659Y-5074742D01*
X7216661Y-5074743D01*
X7356037Y-5162319D01*
X7356041Y-5162321D01*
X7356043Y-5162322D01*
X7511420Y-5216691D01*
X7675000Y-5235122D01*
X7838580Y-5216691D01*
X7993957Y-5162322D01*
X8133341Y-5074742D01*
X8249742Y-4958341D01*
X8337322Y-4818957D01*
X8391691Y-4663580D01*
X8410122Y-4500000D01*
X8391691Y-4336420D01*
X8337322Y-4181043D01*
X8337321Y-4181041D01*
X8337319Y-4181037D01*
X8249743Y-4041661D01*
X8249742Y-4041659D01*
X8145338Y-3937255D01*
X8126594Y-3892002D01*
X8145339Y-3846747D01*
X8190594Y-3828002D01*
X8220909Y-3835637D01*
X8271985Y-3863108D01*
X8282375Y-3870086D01*
X8410067Y-3975332D01*
X8423581Y-3986470D01*
X8432415Y-3995337D01*
X8548271Y-4136983D01*
X8555210Y-4147400D01*
X8641281Y-4308883D01*
X8646060Y-4320451D01*
X8699055Y-4495599D01*
X8701491Y-4507876D01*
X8711240Y-4607097D01*
X8719847Y-4694698D01*
X8720000Y-4697814D01*
X8720000Y-7114660D01*
X8719845Y-7117806D01*
X8701313Y-7305496D01*
X8698854Y-7317828D01*
X8645358Y-7493737D01*
X8640535Y-7505352D01*
X8553672Y-7667404D01*
X8546670Y-7677851D01*
X8429790Y-7819792D01*
X8420881Y-7828667D01*
X8278508Y-7945007D01*
X8268033Y-7951970D01*
X8239317Y-7967223D01*
X8190557Y-7971898D01*
X8164041Y-7955958D01*
X8153090Y-7945007D01*
X8133341Y-7925258D01*
X8133338Y-7925256D01*
X7993962Y-7837680D01*
X7993958Y-7837678D01*
X7838585Y-7783310D01*
X7838581Y-7783309D01*
X7838580Y-7783309D01*
X7675000Y-7764878D01*
X7511420Y-7783309D01*
X7511418Y-7783309D01*
X7511414Y-7783310D01*
X7356041Y-7837678D01*
X7356037Y-7837680D01*
X7216661Y-7925256D01*
X7100256Y-8041661D01*
X7073868Y-8083657D01*
X7033918Y-8112002D01*
X7019437Y-8113606D01*
X4397801Y-8103750D01*
X4394671Y-8103584D01*
X4207941Y-8084529D01*
X4195673Y-8082047D01*
X4020726Y-8028393D01*
X4009176Y-8023571D01*
X3848014Y-7936891D01*
X3837624Y-7929913D01*
X3696418Y-7813529D01*
X3687584Y-7804662D01*
X3571728Y-7663016D01*
X3564789Y-7652599D01*
X3483339Y-7499785D01*
X3478715Y-7491110D01*
X3473941Y-7479555D01*
X3420944Y-7304400D01*
X3418508Y-7292123D01*
X3406793Y-7172890D01*
X3400152Y-7105302D01*
X3400000Y-7102185D01*
X3400000Y-6500000D01*
X6769540Y-6500000D01*
X6789326Y-6688256D01*
X6827804Y-6806678D01*
X6847821Y-6868285D01*
X6942466Y-7032215D01*
X6942467Y-7032216D01*
X7069131Y-7172890D01*
X7069132Y-7172891D01*
X7222267Y-7284150D01*
X7240175Y-7292123D01*
X7395197Y-7361144D01*
X7395201Y-7361144D01*
X7395204Y-7361146D01*
X7548348Y-7393697D01*
X7580354Y-7400500D01*
X7580357Y-7400500D01*
X7769643Y-7400500D01*
X7769646Y-7400500D01*
X7862224Y-7380822D01*
X7954795Y-7361146D01*
X7954796Y-7361145D01*
X7954803Y-7361144D01*
X8127730Y-7284151D01*
X8127730Y-7284150D01*
X8127732Y-7284150D01*
X8280867Y-7172891D01*
X8280868Y-7172890D01*
X8280867Y-7172890D01*
X8280871Y-7172888D01*
X8407533Y-7032216D01*
X8502179Y-6868284D01*
X8560674Y-6688256D01*
X8580460Y-6500000D01*
X8560674Y-6311744D01*
X8502179Y-6131716D01*
X8407533Y-5967784D01*
X8280871Y-5827112D01*
X8280870Y-5827111D01*
X8280868Y-5827109D01*
X8280867Y-5827108D01*
X8127732Y-5715849D01*
X7954805Y-5638857D01*
X7954795Y-5638853D01*
X7769654Y-5599501D01*
X7769648Y-5599500D01*
X7769646Y-5599500D01*
X7580354Y-5599500D01*
X7580352Y-5599500D01*
X7580345Y-5599501D01*
X7395204Y-5638853D01*
X7395194Y-5638857D01*
X7222267Y-5715849D01*
X7069132Y-5827108D01*
X7069131Y-5827109D01*
X6942467Y-5967783D01*
X6942466Y-5967784D01*
X6847821Y-6131714D01*
X6789325Y-6311748D01*
X6769540Y-6499996D01*
X6769540Y-6500000D01*
X3400000Y-6500000D01*
X3400000Y-5033552D01*
X3403397Y-5012980D01*
X3458472Y-4850736D01*
X3460070Y-4846881D01*
X3473840Y-4818958D01*
X3555991Y-4652372D01*
X3558080Y-4648755D01*
X3565776Y-4637237D01*
X3678568Y-4468431D01*
X3681109Y-4465120D01*
X3824115Y-4302054D01*
X3827064Y-4299105D01*
X3990116Y-4156112D01*
X3993427Y-4153571D01*
X4173757Y-4033079D01*
X4177371Y-4030992D01*
X4371883Y-3935069D01*
X4375737Y-3933472D01*
X4581113Y-3863755D01*
X4585148Y-3862675D01*
X4797862Y-3820363D01*
X4801987Y-3819820D01*
X4936086Y-3811030D01*
X5019420Y-3805569D01*
X5021514Y-3805500D01*
X5061139Y-3805500D01*
X7185104Y-3805500D01*
X7230359Y-3824245D01*
G37*
%TD.AperFunction*%
%TD*%
%TA.AperFunction,Conductor*%
%TO.N,/NITRATE_RING*%
G36*
X24001806Y-5465178D02*
G01*
X24036437Y-5468588D01*
X24187841Y-5483501D01*
X24202059Y-5486329D01*
X24375711Y-5539005D01*
X24389113Y-5544557D01*
X24549140Y-5630093D01*
X24561202Y-5638152D01*
X24701472Y-5753269D01*
X24711730Y-5763527D01*
X24826847Y-5903797D01*
X24834906Y-5915859D01*
X24920442Y-6075886D01*
X24925994Y-6089288D01*
X24978669Y-6262935D01*
X24981499Y-6277162D01*
X24998473Y-6449501D01*
X24999822Y-6463192D01*
X25000000Y-6466821D01*
X25000000Y-9063178D01*
X24999822Y-9066807D01*
X24981499Y-9252837D01*
X24978669Y-9267064D01*
X24925994Y-9440711D01*
X24920442Y-9454113D01*
X24834906Y-9614140D01*
X24826847Y-9626202D01*
X24711730Y-9766472D01*
X24701472Y-9776730D01*
X24561202Y-9891847D01*
X24549140Y-9899906D01*
X24389113Y-9985442D01*
X24375711Y-9990994D01*
X24202064Y-10043669D01*
X24187837Y-10046499D01*
X24001807Y-10064822D01*
X23998178Y-10065000D01*
X18601822Y-10065000D01*
X18598193Y-10064822D01*
X18412162Y-10046499D01*
X18397935Y-10043669D01*
X18224288Y-9990994D01*
X18210886Y-9985442D01*
X18050859Y-9899906D01*
X18038797Y-9891847D01*
X17898527Y-9776730D01*
X17888269Y-9766472D01*
X17773152Y-9626202D01*
X17765093Y-9614140D01*
X17679557Y-9454113D01*
X17674005Y-9440711D01*
X17621329Y-9267059D01*
X17618501Y-9252841D01*
X17600178Y-9066806D01*
X17600000Y-9063178D01*
X17600000Y-8643100D01*
X21749500Y-8643100D01*
X21749501Y-8643102D01*
X21760122Y-8731556D01*
X21760123Y-8731561D01*
X21815638Y-8872341D01*
X21815639Y-8872342D01*
X21907078Y-8992922D01*
X22027658Y-9084361D01*
X22168436Y-9139876D01*
X22256901Y-9150500D01*
X23943098Y-9150499D01*
X23943100Y-9150499D01*
X23943100Y-9150498D01*
X24031564Y-9139876D01*
X24172342Y-9084361D01*
X24292922Y-8992922D01*
X24384361Y-8872342D01*
X24439876Y-8731564D01*
X24450500Y-8643099D01*
X24450499Y-6956902D01*
X24439876Y-6868436D01*
X24384361Y-6727658D01*
X24292922Y-6607078D01*
X24172342Y-6515639D01*
X24172341Y-6515638D01*
X24111191Y-6491524D01*
X24031564Y-6460124D01*
X23972587Y-6453041D01*
X23943100Y-6449500D01*
X22256899Y-6449500D01*
X22256897Y-6449501D01*
X22168443Y-6460122D01*
X22168438Y-6460123D01*
X22027658Y-6515638D01*
X21907078Y-6607077D01*
X21907077Y-6607078D01*
X21815638Y-6727658D01*
X21760124Y-6868437D01*
X21749500Y-6956899D01*
X21749500Y-8643100D01*
X17600000Y-8643100D01*
X17600000Y-6466821D01*
X17600178Y-6463193D01*
X17601527Y-6449500D01*
X17618501Y-6277156D01*
X17621328Y-6262942D01*
X17674006Y-6089284D01*
X17679557Y-6075886D01*
X17765096Y-5915854D01*
X17773148Y-5903802D01*
X17888270Y-5763525D01*
X17898527Y-5753269D01*
X18038802Y-5638148D01*
X18050854Y-5630096D01*
X18210889Y-5544555D01*
X18224284Y-5539006D01*
X18397942Y-5486328D01*
X18412156Y-5483501D01*
X18568098Y-5468142D01*
X18598194Y-5465178D01*
X18601822Y-5465000D01*
X23998178Y-5465000D01*
X24001806Y-5465178D01*
G37*
%TD.AperFunction*%
%TD*%
%TA.AperFunction,Conductor*%
%TO.N,Net-(EEPROM1-A2)*%
G36*
X29643931Y-9161654D02*
G01*
X29719790Y-9237513D01*
X29723217Y-9245786D01*
X29719891Y-9253957D01*
X29656734Y-9318682D01*
X29612518Y-9363997D01*
X29603718Y-9374342D01*
X29535843Y-9454128D01*
X29480692Y-9540614D01*
X29429816Y-9647988D01*
X29370451Y-9790053D01*
X29364100Y-9796365D01*
X29355219Y-9796368D01*
X29138825Y-9707669D01*
X29132469Y-9701360D01*
X29132436Y-9701280D01*
X29110592Y-9647988D01*
X29043893Y-9485267D01*
X29043926Y-9476314D01*
X29050282Y-9470005D01*
X29050530Y-9469907D01*
X29198538Y-9414040D01*
X29315564Y-9374342D01*
X29315563Y-9374342D01*
X29315570Y-9374340D01*
X29351060Y-9359101D01*
X29412657Y-9332654D01*
X29512065Y-9266589D01*
X29627786Y-9161272D01*
X29636208Y-9158240D01*
X29643931Y-9161654D01*
G37*
%TD.AperFunction*%
%TD*%
%TA.AperFunction,Conductor*%
%TO.N,/GND_IN*%
G36*
X34236282Y-9299960D02*
G01*
X34244545Y-9303411D01*
X34247948Y-9311694D01*
X34247796Y-9313539D01*
X34222421Y-9469480D01*
X34221582Y-9472313D01*
X34164153Y-9602849D01*
X34114044Y-9714591D01*
X34109991Y-9825067D01*
X34109991Y-9825069D01*
X34185034Y-9945038D01*
X34186516Y-9953870D01*
X34183138Y-9959759D01*
X34104464Y-10033883D01*
X34096093Y-10037062D01*
X34087925Y-10033390D01*
X34087530Y-10032949D01*
X34067753Y-10009706D01*
X33980077Y-9906663D01*
X33978999Y-9905172D01*
X33930192Y-9825068D01*
X33913743Y-9798071D01*
X33912830Y-9796222D01*
X33872365Y-9692107D01*
X33872241Y-9691757D01*
X33832363Y-9566107D01*
X33772943Y-9406201D01*
X33773273Y-9397253D01*
X33779391Y-9391333D01*
X33997136Y-9300184D01*
X34001678Y-9299279D01*
X34236282Y-9299960D01*
G37*
%TD.AperFunction*%
%TD*%
%TA.AperFunction,Conductor*%
%TO.N,/INT*%
G36*
X34879910Y-7308789D02*
G01*
X35096175Y-7397435D01*
X35102531Y-7403744D01*
X35102564Y-7403824D01*
X35191189Y-7620036D01*
X35191156Y-7628990D01*
X35184800Y-7635299D01*
X35184693Y-7635342D01*
X35038515Y-7693570D01*
X34925511Y-7739590D01*
X34833104Y-7788831D01*
X34833096Y-7788836D01*
X34737672Y-7861125D01*
X34737661Y-7861135D01*
X34623898Y-7968491D01*
X34615529Y-7971677D01*
X34607595Y-7968255D01*
X34531744Y-7892404D01*
X34528317Y-7884131D01*
X34531507Y-7876103D01*
X34638869Y-7762331D01*
X34711165Y-7666897D01*
X34760412Y-7574478D01*
X34806428Y-7461484D01*
X34864657Y-7315305D01*
X34870902Y-7308889D01*
X34879856Y-7308767D01*
X34879910Y-7308789D01*
G37*
%TD.AperFunction*%
%TD*%
%TA.AperFunction,Conductor*%
%TO.N,/SDA*%
G36*
X34272496Y-11898645D02*
G01*
X34996406Y-12197710D01*
X35002744Y-12204037D01*
X35002754Y-12204060D01*
X35301680Y-12928281D01*
X35301669Y-12937236D01*
X35295329Y-12943560D01*
X35295321Y-12943563D01*
X34795283Y-13149550D01*
X34432812Y-13299421D01*
X34121845Y-13433662D01*
X33765497Y-13597218D01*
X33277402Y-13830017D01*
X33268459Y-13830486D01*
X33261825Y-13824533D01*
X33215025Y-13727351D01*
X33214523Y-13718411D01*
X33219365Y-13712354D01*
X33645173Y-13446202D01*
X33873863Y-13158605D01*
X33990246Y-12824456D01*
X34087965Y-12413342D01*
X34088106Y-12412846D01*
X34157618Y-12204060D01*
X34256930Y-11905763D01*
X34262795Y-11898997D01*
X34271727Y-11898359D01*
X34272496Y-11898645D01*
G37*
%TD.AperFunction*%
%TD*%
%TA.AperFunction,Conductor*%
%TO.N,/3V3_IN*%
G36*
X41650606Y-11403407D02*
G01*
X41654963Y-11407216D01*
X41889406Y-11748087D01*
X42194403Y-12191541D01*
X42196268Y-12200299D01*
X42191871Y-12207464D01*
X41419417Y-12798290D01*
X41410764Y-12800595D01*
X41403670Y-12796888D01*
X41109164Y-12474471D01*
X40820571Y-12200707D01*
X40807433Y-12188244D01*
X40807429Y-12188241D01*
X40807424Y-12188236D01*
X40505700Y-11946115D01*
X40203973Y-11748088D01*
X40203970Y-11748087D01*
X40182138Y-11736949D01*
X39916568Y-11601469D01*
X39910757Y-11594658D01*
X39911464Y-11585731D01*
X39913610Y-11582778D01*
X39989705Y-11506683D01*
X39997977Y-11503257D01*
X40000317Y-11503493D01*
X40325324Y-11569986D01*
X40656493Y-11593639D01*
X40987662Y-11573193D01*
X41318831Y-11508646D01*
X41641678Y-11402730D01*
X41650606Y-11403407D01*
G37*
%TD.AperFunction*%
%TD*%
%TA.AperFunction,Conductor*%
%TO.N,/VREF*%
G36*
X8232184Y-3512856D02*
G01*
X8651860Y-3531684D01*
X8652402Y-3531736D01*
X8956481Y-3575930D01*
X8958170Y-3576306D01*
X9214757Y-3653977D01*
X9215273Y-3654161D01*
X9504383Y-3774375D01*
X9893995Y-3941129D01*
X9900252Y-3947534D01*
X9900207Y-3956346D01*
X9676892Y-4497851D01*
X9674339Y-4501673D01*
X9260537Y-4914486D01*
X9252260Y-4917903D01*
X9243991Y-4914466D01*
X9242729Y-4912970D01*
X8999700Y-4570171D01*
X8998264Y-4567442D01*
X8872709Y-4225998D01*
X8872708Y-4225997D01*
X8769286Y-3932575D01*
X8769284Y-3932573D01*
X8769284Y-3932572D01*
X8585363Y-3725663D01*
X8585364Y-3725663D01*
X8227060Y-3644401D01*
X8219750Y-3639229D01*
X8217950Y-3632772D01*
X8219982Y-3524326D01*
X8223563Y-3516118D01*
X8231899Y-3512847D01*
X8232184Y-3512856D01*
G37*
%TD.AperFunction*%
%TD*%
%TA.AperFunction,Conductor*%
%TO.N,+3.3V*%
G36*
X30797484Y-6263398D02*
G01*
X30800872Y-6270722D01*
X30814950Y-6443961D01*
X30814951Y-6443964D01*
X30850603Y-6572099D01*
X30850607Y-6572111D01*
X30893054Y-6681361D01*
X30893237Y-6681912D01*
X30928515Y-6808698D01*
X30928905Y-6810886D01*
X30942743Y-6981169D01*
X30939997Y-6989693D01*
X30932029Y-6993779D01*
X30931128Y-6993817D01*
X30696141Y-6994757D01*
X30691577Y-6993850D01*
X30473535Y-6902590D01*
X30467226Y-6896234D01*
X30467235Y-6887337D01*
X30525023Y-6747280D01*
X30565044Y-6637212D01*
X30587672Y-6538740D01*
X30597719Y-6422712D01*
X30597719Y-6422713D01*
X30599837Y-6271507D01*
X30603380Y-6263283D01*
X30611536Y-6259971D01*
X30789211Y-6259971D01*
X30797484Y-6263398D01*
G37*
%TD.AperFunction*%
%TD*%
%TA.AperFunction,Conductor*%
%TO.N,/GND_IN*%
G36*
X37404222Y-10885431D02*
G01*
X37759721Y-11009760D01*
X38064991Y-11121907D01*
X38415358Y-11259682D01*
X38895295Y-11456447D01*
X38901650Y-11462757D01*
X38901683Y-11471711D01*
X38901672Y-11471737D01*
X38602797Y-12195837D01*
X38596473Y-12202177D01*
X38596450Y-12202186D01*
X37872579Y-12501318D01*
X37863625Y-12501311D01*
X37857298Y-12494973D01*
X37856985Y-12494124D01*
X37702009Y-12017670D01*
X37701871Y-12017167D01*
X37612455Y-11621269D01*
X37502397Y-11302241D01*
X37502397Y-11302240D01*
X37281681Y-11044901D01*
X37281680Y-11044900D01*
X36869433Y-10838424D01*
X36863571Y-10831655D01*
X36863629Y-10824101D01*
X36899312Y-10722132D01*
X36905278Y-10715457D01*
X36914198Y-10714948D01*
X37404222Y-10885431D01*
G37*
%TD.AperFunction*%
%TD*%
%TA.AperFunction,Conductor*%
%TO.N,/INT*%
G36*
X29578787Y-10644350D02*
G01*
X29655054Y-10720617D01*
X29658481Y-10728890D01*
X29655201Y-10737013D01*
X29299396Y-11105839D01*
X29299391Y-11105843D01*
X29299389Y-11105847D01*
X29211203Y-11213649D01*
X29062190Y-11395808D01*
X29062185Y-11395815D01*
X28894481Y-11674952D01*
X28894477Y-11674960D01*
X28739148Y-12019631D01*
X28543560Y-12495309D01*
X28537244Y-12501658D01*
X28528290Y-12501681D01*
X28528274Y-12501675D01*
X27803787Y-12202562D01*
X27797448Y-12196237D01*
X27797437Y-12196212D01*
X27498679Y-11472585D01*
X27498690Y-11463632D01*
X27505029Y-11457307D01*
X27505868Y-11456998D01*
X28030098Y-11286961D01*
X28030877Y-11286767D01*
X28443523Y-11213649D01*
X28443522Y-11213649D01*
X28795990Y-11145082D01*
X29150896Y-10984888D01*
X29563054Y-10643610D01*
X29571610Y-10640974D01*
X29578787Y-10644350D01*
G37*
%TD.AperFunction*%
%TD*%
%TA.AperFunction,Conductor*%
%TO.N,Net-(EEPROM1-A1)*%
G36*
X28261350Y-9061230D02*
G01*
X28264777Y-9069503D01*
X28264775Y-9069724D01*
X28261421Y-9247335D01*
X28261391Y-9247826D01*
X28247576Y-9381692D01*
X28247278Y-9383370D01*
X28218534Y-9496583D01*
X28218329Y-9497232D01*
X28169533Y-9624920D01*
X28100451Y-9790059D01*
X28094096Y-9796369D01*
X28085220Y-9796370D01*
X27867189Y-9707002D01*
X27863330Y-9704426D01*
X27697488Y-9537646D01*
X27694084Y-9529363D01*
X27697534Y-9521100D01*
X27698541Y-9520207D01*
X27821978Y-9423075D01*
X27823676Y-9421964D01*
X27944581Y-9357040D01*
X27958766Y-9348528D01*
X28043801Y-9297510D01*
X28110557Y-9209293D01*
X28133412Y-9067639D01*
X28138114Y-9060018D01*
X28144964Y-9057803D01*
X28253077Y-9057803D01*
X28261350Y-9061230D01*
G37*
%TD.AperFunction*%
%TD*%
%TA.AperFunction,Conductor*%
%TO.N,/VREF*%
G36*
X9915256Y-3950541D02*
G01*
X9915622Y-3950700D01*
X10280750Y-4117418D01*
X10548768Y-4253876D01*
X10548767Y-4253876D01*
X10548773Y-4253878D01*
X10548772Y-4253878D01*
X10785762Y-4353398D01*
X11068809Y-4414323D01*
X11463896Y-4434434D01*
X11471983Y-4438277D01*
X11475000Y-4446119D01*
X11475000Y-4553880D01*
X11471573Y-4562153D01*
X11463895Y-4565565D01*
X11068810Y-4585674D01*
X10785760Y-4646600D01*
X10548767Y-4746122D01*
X10548768Y-4746122D01*
X10280750Y-4882581D01*
X9915622Y-5049299D01*
X9906672Y-5049618D01*
X9900119Y-5043516D01*
X9899960Y-5043150D01*
X9709642Y-4585675D01*
X9675868Y-4504492D01*
X9675855Y-4495541D01*
X9899960Y-3956848D01*
X9906301Y-3950527D01*
X9915256Y-3950541D01*
G37*
%TD.AperFunction*%
%TD*%
%TA.AperFunction,Conductor*%
%TO.N,/INT*%
G36*
X13026680Y-10851664D02*
G01*
X13149549Y-10855632D01*
X13255648Y-10860368D01*
X13378516Y-10864336D01*
X13540108Y-10865888D01*
X13548347Y-10869394D01*
X13551695Y-10877587D01*
X13551695Y-10985771D01*
X13548268Y-10994044D01*
X13541558Y-10997366D01*
X13387243Y-11018173D01*
X13282420Y-11075916D01*
X13282415Y-11075919D01*
X13282415Y-11075920D01*
X13255262Y-11102189D01*
X13199561Y-11156076D01*
X13102003Y-11244596D01*
X13099881Y-11246126D01*
X12960630Y-11324520D01*
X12951739Y-11325593D01*
X12944695Y-11320065D01*
X12944103Y-11318854D01*
X12853418Y-11102188D01*
X12852512Y-11097627D01*
X12853455Y-10861762D01*
X12856915Y-10853506D01*
X12865201Y-10850112D01*
X13026680Y-10851664D01*
G37*
%TD.AperFunction*%
%TD*%
%TA.AperFunction,Conductor*%
%TO.N,/VREF*%
G36*
X22365825Y-2465955D02*
G01*
X22366967Y-2466955D01*
X22368122Y-2468108D01*
X23097563Y-3196568D01*
X23100995Y-3204838D01*
X23100995Y-3204857D01*
X23100010Y-4238878D01*
X23096575Y-4247148D01*
X23088892Y-4250553D01*
X22442037Y-4282760D01*
X22442036Y-4282760D01*
X21962442Y-4360880D01*
X21536867Y-4454081D01*
X21536525Y-4454146D01*
X21040543Y-4532190D01*
X21039910Y-4532255D01*
X20360785Y-4564419D01*
X20352358Y-4561387D01*
X20348544Y-4553286D01*
X20348531Y-4552732D01*
X20348531Y-4444837D01*
X20351958Y-4436564D01*
X20358221Y-4433312D01*
X21007883Y-4320165D01*
X21392129Y-4011397D01*
X21647599Y-3562300D01*
X21647598Y-3562300D01*
X21647607Y-3562286D01*
X21833956Y-3196567D01*
X21920140Y-3027427D01*
X21921277Y-3025627D01*
X22349421Y-2468107D01*
X22357176Y-2463634D01*
X22365825Y-2465955D01*
G37*
%TD.AperFunction*%
%TD*%
%TA.AperFunction,Conductor*%
%TO.N,/VREF*%
G36*
X3161907Y-7953427D02*
G01*
X3165329Y-7961361D01*
X3169859Y-8117716D01*
X3169860Y-8117723D01*
X3186219Y-8236315D01*
X3186220Y-8236323D01*
X3216748Y-8336499D01*
X3216751Y-8336508D01*
X3264109Y-8448937D01*
X3326299Y-8593474D01*
X3326421Y-8602428D01*
X3320176Y-8608845D01*
X3320069Y-8608891D01*
X3104517Y-8699109D01*
X3095563Y-8699142D01*
X3095483Y-8699109D01*
X2879930Y-8608891D01*
X2873621Y-8602535D01*
X2873653Y-8593582D01*
X2935890Y-8448937D01*
X2983250Y-8336500D01*
X3013778Y-8236326D01*
X3030138Y-8117723D01*
X3034670Y-7961361D01*
X3038336Y-7953191D01*
X3046366Y-7950000D01*
X3153634Y-7950000D01*
X3161907Y-7953427D01*
G37*
%TD.AperFunction*%
%TD*%
%TA.AperFunction,Conductor*%
%TO.N,/VREF*%
G36*
X16267192Y-9089478D02*
G01*
X16359286Y-9127628D01*
X16366689Y-9130695D01*
X16373021Y-9137027D01*
X16373020Y-9145982D01*
X16372979Y-9146080D01*
X16318202Y-9274962D01*
X16273910Y-9373224D01*
X16234652Y-9457657D01*
X16190361Y-9555920D01*
X16135486Y-9685043D01*
X16129096Y-9691317D01*
X16120284Y-9691294D01*
X15904146Y-9602777D01*
X15897789Y-9596471D01*
X15897758Y-9596397D01*
X15840747Y-9457657D01*
X15809056Y-9380533D01*
X15809081Y-9371580D01*
X15815431Y-9365266D01*
X15816067Y-9365026D01*
X15936285Y-9324026D01*
X15936658Y-9323914D01*
X16041061Y-9296144D01*
X16124909Y-9262496D01*
X16194792Y-9199957D01*
X16252454Y-9094667D01*
X16259434Y-9089058D01*
X16267192Y-9089478D01*
G37*
%TD.AperFunction*%
%TD*%
%TA.AperFunction,Conductor*%
%TO.N,/SCL*%
G36*
X30842619Y-11642847D02*
G01*
X30844160Y-11644141D01*
X31399334Y-12198216D01*
X31401884Y-12202033D01*
X31701734Y-12928414D01*
X31701723Y-12937368D01*
X31695508Y-12943640D01*
X31173637Y-13166173D01*
X30792669Y-13327451D01*
X30792292Y-13327595D01*
X30455776Y-13443459D01*
X30455170Y-13443632D01*
X30055700Y-13534580D01*
X30055279Y-13534660D01*
X29497102Y-13619325D01*
X29488408Y-13617177D01*
X29483779Y-13609512D01*
X29483747Y-13609284D01*
X29469583Y-13501710D01*
X29471901Y-13493063D01*
X29477379Y-13489121D01*
X29971095Y-13319475D01*
X30208191Y-13008025D01*
X30330505Y-12597161D01*
X30488380Y-12127761D01*
X30489888Y-12124781D01*
X30826322Y-11645696D01*
X30833879Y-11640897D01*
X30842619Y-11642847D01*
G37*
%TD.AperFunction*%
%TD*%
%TA.AperFunction,Conductor*%
%TO.N,/INT*%
G36*
X26474230Y-10960992D02*
G01*
X26870237Y-11027411D01*
X26870711Y-11027512D01*
X27096671Y-11085657D01*
X27206279Y-11113862D01*
X27206781Y-11114015D01*
X27584422Y-11248912D01*
X28095247Y-11456467D01*
X28101622Y-11462756D01*
X28101682Y-11471710D01*
X28101658Y-11471770D01*
X27801884Y-12197966D01*
X27799334Y-12201783D01*
X27244090Y-12755928D01*
X27235813Y-12759347D01*
X27227544Y-12755912D01*
X27226298Y-12754438D01*
X26902206Y-12299775D01*
X26900718Y-12296929D01*
X26805902Y-12032169D01*
X26805361Y-12026396D01*
X26809542Y-12000000D01*
X26789498Y-11873445D01*
X26731326Y-11759277D01*
X26703314Y-11731265D01*
X26700467Y-11726630D01*
X26616256Y-11469071D01*
X26439496Y-11248912D01*
X26382133Y-11177464D01*
X25907945Y-11018013D01*
X25901195Y-11012128D01*
X25900074Y-11005399D01*
X25914254Y-10897684D01*
X25918731Y-10889930D01*
X25927378Y-10887612D01*
X26474230Y-10960992D01*
G37*
%TD.AperFunction*%
%TD*%
%TA.AperFunction,Conductor*%
%TO.N,/SDA*%
G36*
X18706417Y-12242653D02*
G01*
X18738514Y-12256464D01*
X18742160Y-12258936D01*
X18814550Y-12331326D01*
X18928718Y-12389498D01*
X18989584Y-12399138D01*
X19055272Y-12409542D01*
X19055272Y-12409541D01*
X19055273Y-12409542D01*
X19147803Y-12394886D01*
X19151212Y-12394853D01*
X19182276Y-12399138D01*
X19338640Y-12403670D01*
X19346809Y-12407335D01*
X19350000Y-12415365D01*
X19350000Y-12522634D01*
X19346573Y-12530907D01*
X19338639Y-12534329D01*
X19182282Y-12538859D01*
X19182275Y-12538860D01*
X19063683Y-12555219D01*
X19063675Y-12555220D01*
X18963499Y-12585748D01*
X18963490Y-12585751D01*
X18851062Y-12633109D01*
X18706525Y-12695299D01*
X18697571Y-12695421D01*
X18691154Y-12689176D01*
X18691108Y-12689069D01*
X18667686Y-12633109D01*
X18600889Y-12473515D01*
X18600857Y-12464562D01*
X18691109Y-12248928D01*
X18697464Y-12242621D01*
X18706417Y-12242653D01*
G37*
%TD.AperFunction*%
%TD*%
%TA.AperFunction,Conductor*%
%TO.N,Net-(EEPROM1-A0)*%
G36*
X27087400Y-9136849D02*
G01*
X27163251Y-9212700D01*
X27166678Y-9220973D01*
X27163487Y-9229003D01*
X27056131Y-9342766D01*
X27056121Y-9342777D01*
X26983832Y-9438201D01*
X26983827Y-9438209D01*
X26934586Y-9530616D01*
X26888566Y-9643620D01*
X26830338Y-9789798D01*
X26824093Y-9796215D01*
X26815139Y-9796337D01*
X26815032Y-9796294D01*
X26598820Y-9707669D01*
X26592464Y-9701360D01*
X26592431Y-9701280D01*
X26503806Y-9485066D01*
X26503839Y-9476114D01*
X26510195Y-9469805D01*
X26510199Y-9469803D01*
X26656480Y-9411533D01*
X26769474Y-9365517D01*
X26861893Y-9316270D01*
X26957327Y-9243974D01*
X27071099Y-9136612D01*
X27079466Y-9133427D01*
X27087400Y-9136849D01*
G37*
%TD.AperFunction*%
%TD*%
%TA.AperFunction,Conductor*%
%TO.N,+3.3V*%
G36*
X35942263Y-1909880D02*
G01*
X36195333Y-1997434D01*
X36202031Y-2003377D01*
X36202565Y-2004666D01*
X36560375Y-3038903D01*
X36559841Y-3047842D01*
X36553143Y-3053785D01*
X36553105Y-3053798D01*
X36030225Y-3232648D01*
X36013173Y-3238481D01*
X35462132Y-3480963D01*
X35462131Y-3480963D01*
X35235771Y-3602754D01*
X34911092Y-3777445D01*
X34911086Y-3777449D01*
X34360059Y-4127921D01*
X34360051Y-4127927D01*
X34061778Y-4346869D01*
X33817105Y-4526468D01*
X33808408Y-4528601D01*
X33801910Y-4525309D01*
X33674382Y-4397782D01*
X33670956Y-4389510D01*
X33672930Y-4383006D01*
X33859027Y-4104917D01*
X33964067Y-3947955D01*
X34260553Y-3450907D01*
X34557035Y-2899866D01*
X34853517Y-2294825D01*
X34986468Y-1999293D01*
X35145612Y-1645537D01*
X35152131Y-1639399D01*
X35160105Y-1639281D01*
X35942263Y-1909880D01*
G37*
%TD.AperFunction*%
%TD*%
%TA.AperFunction,Conductor*%
%TO.N,+3.3V*%
G36*
X30797484Y-6263398D02*
G01*
X30800872Y-6270722D01*
X30814950Y-6443961D01*
X30814951Y-6443964D01*
X30850603Y-6572099D01*
X30850607Y-6572111D01*
X30893054Y-6681361D01*
X30893237Y-6681912D01*
X30928515Y-6808698D01*
X30928905Y-6810886D01*
X30942743Y-6981169D01*
X30939997Y-6989693D01*
X30932029Y-6993779D01*
X30931128Y-6993817D01*
X30696141Y-6994757D01*
X30691577Y-6993850D01*
X30473535Y-6902590D01*
X30467226Y-6896234D01*
X30467235Y-6887337D01*
X30525023Y-6747280D01*
X30565044Y-6637212D01*
X30587672Y-6538740D01*
X30597719Y-6422712D01*
X30597719Y-6422713D01*
X30599837Y-6271507D01*
X30603380Y-6263283D01*
X30611536Y-6259971D01*
X30789211Y-6259971D01*
X30797484Y-6263398D01*
G37*
%TD.AperFunction*%
%TD*%
%TA.AperFunction,Conductor*%
%TO.N,/SCL*%
G36*
X19161690Y-11773653D02*
G01*
X19306335Y-11835890D01*
X19418772Y-11883250D01*
X19518946Y-11913778D01*
X19637549Y-11930138D01*
X19793913Y-11934670D01*
X19802082Y-11938335D01*
X19805273Y-11946365D01*
X19805273Y-12053634D01*
X19801846Y-12061907D01*
X19793912Y-12065329D01*
X19637555Y-12069859D01*
X19637548Y-12069860D01*
X19518956Y-12086219D01*
X19518948Y-12086220D01*
X19418772Y-12116748D01*
X19418763Y-12116751D01*
X19306335Y-12164109D01*
X19161798Y-12226299D01*
X19152844Y-12226421D01*
X19146427Y-12220176D01*
X19146381Y-12220069D01*
X19056162Y-12004515D01*
X19056130Y-11995563D01*
X19146382Y-11779928D01*
X19152737Y-11773621D01*
X19161690Y-11773653D01*
G37*
%TD.AperFunction*%
%TD*%
%TA.AperFunction,Conductor*%
%TO.N,Net-(EEPROM1-A2)*%
G36*
X32158182Y-6798354D02*
G01*
X32165967Y-6802779D01*
X32167922Y-6806544D01*
X32314893Y-7287362D01*
X32314034Y-7296275D01*
X32307124Y-7301971D01*
X32305744Y-7302303D01*
X32088779Y-7340717D01*
X32005775Y-7355413D01*
X32005771Y-7355414D01*
X32005770Y-7355414D01*
X31770976Y-7416565D01*
X31768027Y-7416943D01*
X31414999Y-7416943D01*
X31364080Y-7427070D01*
X31364079Y-7427071D01*
X31320913Y-7455913D01*
X31320912Y-7455914D01*
X31292070Y-7499080D01*
X31292069Y-7499081D01*
X31281942Y-7549999D01*
X31281942Y-7578629D01*
X31278515Y-7586902D01*
X31274839Y-7589388D01*
X31066841Y-7678251D01*
X31066840Y-7678251D01*
X30761432Y-7834198D01*
X30752505Y-7834908D01*
X30747838Y-7832051D01*
X30670062Y-7754275D01*
X30666635Y-7746002D01*
X30669919Y-7737874D01*
X30812544Y-7590236D01*
X30812543Y-7590236D01*
X30812547Y-7590233D01*
X30963155Y-7408232D01*
X31040059Y-7301971D01*
X31113771Y-7200122D01*
X31114696Y-7198683D01*
X31264380Y-6965922D01*
X31356596Y-6806544D01*
X31411116Y-6712317D01*
X31418224Y-6706874D01*
X31422691Y-6706568D01*
X32158182Y-6798354D01*
G37*
%TD.AperFunction*%
%TD*%
%TA.AperFunction,Conductor*%
%TO.N,/3V3_IN*%
G36*
X37628990Y-8908843D02*
G01*
X37635299Y-8915199D01*
X37635342Y-8915306D01*
X37693570Y-9061484D01*
X37739590Y-9174487D01*
X37788831Y-9266893D01*
X37788836Y-9266901D01*
X37861125Y-9362325D01*
X37861130Y-9362331D01*
X37954363Y-9461130D01*
X37968491Y-9476101D01*
X37971677Y-9484470D01*
X37968255Y-9492404D01*
X37892404Y-9568255D01*
X37884131Y-9571682D01*
X37876101Y-9568491D01*
X37786956Y-9484368D01*
X37762331Y-9461130D01*
X37762328Y-9461127D01*
X37762325Y-9461125D01*
X37666901Y-9388836D01*
X37666893Y-9388831D01*
X37574487Y-9339590D01*
X37574480Y-9339587D01*
X37574478Y-9339586D01*
X37461484Y-9293570D01*
X37315306Y-9235342D01*
X37308889Y-9229097D01*
X37308767Y-9220143D01*
X37308768Y-9220139D01*
X37397436Y-9003822D01*
X37403743Y-8997468D01*
X37620038Y-8908810D01*
X37628990Y-8908843D01*
G37*
%TD.AperFunction*%
%TD*%
M02*
