%TF.GenerationSoftware,KiCad,Pcbnew,7.0.7*%
%TF.CreationDate,2023-11-14T13:36:37+13:00*%
%TF.ProjectId,probeDaughterBoard,70726f62-6544-4617-9567-68746572426f,rev?*%
%TF.SameCoordinates,Original*%
%TF.FileFunction,Legend,Bot*%
%TF.FilePolarity,Positive*%
%FSLAX46Y46*%
G04 Gerber Fmt 4.6, Leading zero omitted, Abs format (unit mm)*
G04 Created by KiCad (PCBNEW 7.0.7) date 2023-11-14 13:36:37*
%MOMM*%
%LPD*%
G01*
G04 APERTURE LIST*
G04 Aperture macros list*
%AMRoundRect*
0 Rectangle with rounded corners*
0 $1 Rounding radius*
0 $2 $3 $4 $5 $6 $7 $8 $9 X,Y pos of 4 corners*
0 Add a 4 corners polygon primitive as box body*
4,1,4,$2,$3,$4,$5,$6,$7,$8,$9,$2,$3,0*
0 Add four circle primitives for the rounded corners*
1,1,$1+$1,$2,$3*
1,1,$1+$1,$4,$5*
1,1,$1+$1,$6,$7*
1,1,$1+$1,$8,$9*
0 Add four rect primitives between the rounded corners*
20,1,$1+$1,$2,$3,$4,$5,0*
20,1,$1+$1,$4,$5,$6,$7,0*
20,1,$1+$1,$6,$7,$8,$9,0*
20,1,$1+$1,$8,$9,$2,$3,0*%
G04 Aperture macros list end*
%ADD10C,0.250000*%
%ADD11C,0.150000*%
%ADD12C,0.120000*%
%ADD13C,1.100000*%
%ADD14O,1.450000X1.450000*%
%ADD15RoundRect,0.050000X0.675000X0.675000X-0.675000X0.675000X-0.675000X-0.675000X0.675000X-0.675000X0*%
%ADD16RoundRect,0.300000X-0.550000X0.550000X-0.550000X-0.550000X0.550000X-0.550000X0.550000X0.550000X0*%
%ADD17C,1.700000*%
G04 APERTURE END LIST*
D10*
G36*
X21016224Y-976475D02*
G01*
X21016224Y-1157459D01*
X20536531Y-1157459D01*
X20519196Y-1157931D01*
X20503169Y-1159331D01*
X20488423Y-1161639D01*
X20474932Y-1164832D01*
X20462671Y-1168890D01*
X20451613Y-1173791D01*
X20441733Y-1179514D01*
X20433003Y-1186036D01*
X20425398Y-1193337D01*
X20418892Y-1201394D01*
X20413458Y-1210188D01*
X20409071Y-1219696D01*
X20405704Y-1229896D01*
X20403332Y-1240767D01*
X20401927Y-1252288D01*
X20401465Y-1264438D01*
X20401962Y-1277587D01*
X20403464Y-1289753D01*
X20405984Y-1300955D01*
X20409536Y-1311210D01*
X20414135Y-1320538D01*
X20419793Y-1328958D01*
X20426526Y-1336487D01*
X20434346Y-1343145D01*
X20443269Y-1348950D01*
X20453307Y-1353920D01*
X20464475Y-1358075D01*
X20476787Y-1361433D01*
X20490257Y-1364012D01*
X20504898Y-1365831D01*
X20520726Y-1366909D01*
X20537752Y-1367264D01*
X20832798Y-1367264D01*
X20832798Y-1532861D01*
X20533600Y-1532861D01*
X20516815Y-1533257D01*
X20501167Y-1534448D01*
X20486649Y-1536440D01*
X20473253Y-1539238D01*
X20460972Y-1542847D01*
X20449799Y-1547273D01*
X20439725Y-1552522D01*
X20430744Y-1558598D01*
X20422847Y-1565507D01*
X20416027Y-1573254D01*
X20410278Y-1581844D01*
X20405590Y-1591284D01*
X20401958Y-1601578D01*
X20399372Y-1612732D01*
X20397826Y-1624751D01*
X20397313Y-1637641D01*
X20397802Y-1650688D01*
X20399280Y-1662983D01*
X20401761Y-1674516D01*
X20405262Y-1685272D01*
X20409798Y-1695240D01*
X20415383Y-1704406D01*
X20422035Y-1712760D01*
X20429767Y-1720286D01*
X20438595Y-1726975D01*
X20448535Y-1732812D01*
X20459601Y-1737786D01*
X20471811Y-1741883D01*
X20485178Y-1745092D01*
X20499718Y-1747399D01*
X20515447Y-1748792D01*
X20532379Y-1749260D01*
X21017445Y-1749260D01*
X21017445Y-1930000D01*
X20532379Y-1930000D01*
X20511533Y-1929660D01*
X20491441Y-1928651D01*
X20472099Y-1926989D01*
X20453500Y-1924692D01*
X20435637Y-1921776D01*
X20418505Y-1918258D01*
X20402098Y-1914153D01*
X20386410Y-1909479D01*
X20371433Y-1904253D01*
X20357163Y-1898490D01*
X20343593Y-1892207D01*
X20330717Y-1885422D01*
X20318529Y-1878150D01*
X20307022Y-1870408D01*
X20296191Y-1862214D01*
X20286030Y-1853582D01*
X20276531Y-1844531D01*
X20267690Y-1835076D01*
X20259500Y-1825234D01*
X20251955Y-1815022D01*
X20245049Y-1804456D01*
X20238776Y-1793553D01*
X20233129Y-1782330D01*
X20228102Y-1770803D01*
X20223690Y-1758988D01*
X20219886Y-1746903D01*
X20216684Y-1734564D01*
X20214078Y-1721987D01*
X20212061Y-1709189D01*
X20210629Y-1696187D01*
X20209774Y-1682998D01*
X20209490Y-1669637D01*
X20209637Y-1658973D01*
X20210073Y-1648551D01*
X20210795Y-1638371D01*
X20211798Y-1628434D01*
X20213075Y-1618739D01*
X20216439Y-1600078D01*
X20220848Y-1582390D01*
X20226264Y-1565675D01*
X20232649Y-1549936D01*
X20239964Y-1535174D01*
X20248172Y-1521389D01*
X20257233Y-1508584D01*
X20267109Y-1496761D01*
X20277763Y-1485919D01*
X20289156Y-1476062D01*
X20301250Y-1467190D01*
X20314006Y-1459304D01*
X20327386Y-1452407D01*
X20334298Y-1449330D01*
X20321093Y-1443208D01*
X20308434Y-1436110D01*
X20296363Y-1428039D01*
X20284923Y-1418998D01*
X20274155Y-1408989D01*
X20264102Y-1398016D01*
X20254806Y-1386081D01*
X20246310Y-1373187D01*
X20238655Y-1359337D01*
X20231883Y-1344534D01*
X20226038Y-1328781D01*
X20221160Y-1312080D01*
X20217293Y-1294435D01*
X20214479Y-1275848D01*
X20212759Y-1256323D01*
X20212323Y-1246209D01*
X20212177Y-1235861D01*
X20212465Y-1222224D01*
X20213332Y-1208798D01*
X20214784Y-1195599D01*
X20216827Y-1182641D01*
X20219467Y-1169939D01*
X20222708Y-1157506D01*
X20226556Y-1145358D01*
X20231018Y-1133508D01*
X20236098Y-1121972D01*
X20241802Y-1110764D01*
X20248136Y-1099899D01*
X20255106Y-1089390D01*
X20262716Y-1079253D01*
X20270973Y-1069501D01*
X20279882Y-1060150D01*
X20289449Y-1051214D01*
X20299679Y-1042707D01*
X20310578Y-1034644D01*
X20322152Y-1027039D01*
X20334406Y-1019907D01*
X20347345Y-1013262D01*
X20360975Y-1007119D01*
X20375303Y-1001492D01*
X20390333Y-996396D01*
X20406071Y-991846D01*
X20422522Y-987855D01*
X20439693Y-984438D01*
X20457589Y-981610D01*
X20476215Y-979385D01*
X20495577Y-977778D01*
X20515680Y-976804D01*
X20536531Y-976475D01*
X21016224Y-976475D01*
G37*
G36*
X20124494Y-976475D02*
G01*
X19804047Y-1818869D01*
X19796805Y-1836030D01*
X19788658Y-1851734D01*
X19779637Y-1866030D01*
X19769777Y-1878964D01*
X19759109Y-1890586D01*
X19747667Y-1900945D01*
X19735484Y-1910087D01*
X19722592Y-1918062D01*
X19709025Y-1924918D01*
X19694815Y-1930703D01*
X19679996Y-1935466D01*
X19664600Y-1939254D01*
X19648660Y-1942116D01*
X19632209Y-1944101D01*
X19615280Y-1945257D01*
X19597906Y-1945631D01*
X19579542Y-1945208D01*
X19561913Y-1943921D01*
X19545020Y-1941741D01*
X19528865Y-1938640D01*
X19513450Y-1934588D01*
X19498777Y-1929557D01*
X19484847Y-1923518D01*
X19471663Y-1916444D01*
X19459225Y-1908305D01*
X19447537Y-1899072D01*
X19436599Y-1888718D01*
X19426413Y-1877213D01*
X19416982Y-1864528D01*
X19408306Y-1850636D01*
X19400389Y-1835507D01*
X19393230Y-1819113D01*
X19055687Y-976475D01*
X19255966Y-976475D01*
X19559071Y-1733628D01*
X19564204Y-1743567D01*
X19570982Y-1752021D01*
X19579136Y-1757442D01*
X19589218Y-1760198D01*
X19597906Y-1760739D01*
X19608390Y-1759955D01*
X19618482Y-1756856D01*
X19626578Y-1751067D01*
X19633000Y-1742237D01*
X19636741Y-1733872D01*
X19925680Y-976475D01*
X20124494Y-976475D01*
G37*
G36*
X18966538Y-976475D02*
G01*
X18966538Y-1157459D01*
X18486845Y-1157459D01*
X18469510Y-1157931D01*
X18453483Y-1159331D01*
X18438737Y-1161639D01*
X18425246Y-1164832D01*
X18412985Y-1168890D01*
X18401927Y-1173791D01*
X18392047Y-1179514D01*
X18383317Y-1186036D01*
X18375712Y-1193337D01*
X18369206Y-1201394D01*
X18363772Y-1210188D01*
X18359385Y-1219696D01*
X18356018Y-1229896D01*
X18353646Y-1240767D01*
X18352241Y-1252288D01*
X18351779Y-1264438D01*
X18352276Y-1277587D01*
X18353778Y-1289753D01*
X18356298Y-1300955D01*
X18359850Y-1311210D01*
X18364449Y-1320538D01*
X18370107Y-1328958D01*
X18376840Y-1336487D01*
X18384660Y-1343145D01*
X18393583Y-1348950D01*
X18403621Y-1353920D01*
X18414789Y-1358075D01*
X18427101Y-1361433D01*
X18440571Y-1364012D01*
X18455212Y-1365831D01*
X18471040Y-1366909D01*
X18488066Y-1367264D01*
X18783112Y-1367264D01*
X18783112Y-1532861D01*
X18483914Y-1532861D01*
X18467129Y-1533257D01*
X18451481Y-1534448D01*
X18436963Y-1536440D01*
X18423567Y-1539238D01*
X18411286Y-1542847D01*
X18400113Y-1547273D01*
X18390039Y-1552522D01*
X18381058Y-1558598D01*
X18373161Y-1565507D01*
X18366341Y-1573254D01*
X18360592Y-1581844D01*
X18355904Y-1591284D01*
X18352272Y-1601578D01*
X18349686Y-1612732D01*
X18348140Y-1624751D01*
X18347627Y-1637641D01*
X18348116Y-1650688D01*
X18349594Y-1662983D01*
X18352075Y-1674516D01*
X18355576Y-1685272D01*
X18360112Y-1695240D01*
X18365697Y-1704406D01*
X18372349Y-1712760D01*
X18380081Y-1720286D01*
X18388909Y-1726975D01*
X18398849Y-1732812D01*
X18409916Y-1737786D01*
X18422125Y-1741883D01*
X18435492Y-1745092D01*
X18450032Y-1747399D01*
X18465761Y-1748792D01*
X18482693Y-1749260D01*
X18967759Y-1749260D01*
X18967759Y-1930000D01*
X18482693Y-1930000D01*
X18461847Y-1929660D01*
X18441755Y-1928651D01*
X18422413Y-1926989D01*
X18403814Y-1924692D01*
X18385951Y-1921776D01*
X18368820Y-1918258D01*
X18352412Y-1914153D01*
X18336724Y-1909479D01*
X18321747Y-1904253D01*
X18307477Y-1898490D01*
X18293907Y-1892207D01*
X18281031Y-1885422D01*
X18268843Y-1878150D01*
X18257336Y-1870408D01*
X18246505Y-1862214D01*
X18236344Y-1853582D01*
X18226845Y-1844531D01*
X18218004Y-1835076D01*
X18209814Y-1825234D01*
X18202269Y-1815022D01*
X18195363Y-1804456D01*
X18189090Y-1793553D01*
X18183443Y-1782330D01*
X18178416Y-1770803D01*
X18174004Y-1758988D01*
X18170200Y-1746903D01*
X18166998Y-1734564D01*
X18164392Y-1721987D01*
X18162375Y-1709189D01*
X18160943Y-1696187D01*
X18160088Y-1682998D01*
X18159804Y-1669637D01*
X18159951Y-1658973D01*
X18160387Y-1648551D01*
X18161109Y-1638371D01*
X18162112Y-1628434D01*
X18163390Y-1618739D01*
X18166753Y-1600078D01*
X18171162Y-1582390D01*
X18176579Y-1565675D01*
X18182963Y-1549936D01*
X18190278Y-1535174D01*
X18198486Y-1521389D01*
X18207547Y-1508584D01*
X18217423Y-1496761D01*
X18228077Y-1485919D01*
X18239470Y-1476062D01*
X18251564Y-1467190D01*
X18264320Y-1459304D01*
X18277700Y-1452407D01*
X18284612Y-1449330D01*
X18271407Y-1443208D01*
X18258748Y-1436110D01*
X18246677Y-1428039D01*
X18235237Y-1418998D01*
X18224469Y-1408989D01*
X18214416Y-1398016D01*
X18205120Y-1386081D01*
X18196624Y-1373187D01*
X18188969Y-1359337D01*
X18182197Y-1344534D01*
X18176352Y-1328781D01*
X18171474Y-1312080D01*
X18167607Y-1294435D01*
X18164793Y-1275848D01*
X18163073Y-1256323D01*
X18162637Y-1246209D01*
X18162491Y-1235861D01*
X18162779Y-1222224D01*
X18163646Y-1208798D01*
X18165098Y-1195599D01*
X18167141Y-1182641D01*
X18169781Y-1169939D01*
X18173022Y-1157506D01*
X18176870Y-1145358D01*
X18181332Y-1133508D01*
X18186412Y-1121972D01*
X18192116Y-1110764D01*
X18198450Y-1099899D01*
X18205420Y-1089390D01*
X18213030Y-1079253D01*
X18221287Y-1069501D01*
X18230196Y-1060150D01*
X18239763Y-1051214D01*
X18249993Y-1042707D01*
X18260892Y-1034644D01*
X18272466Y-1027039D01*
X18284720Y-1019907D01*
X18297659Y-1013262D01*
X18311289Y-1007119D01*
X18325617Y-1001492D01*
X18340647Y-996396D01*
X18356385Y-991846D01*
X18372836Y-987855D01*
X18390007Y-984438D01*
X18407903Y-981610D01*
X18426529Y-979385D01*
X18445891Y-977778D01*
X18465994Y-976804D01*
X18486845Y-976475D01*
X18966538Y-976475D01*
G37*
G36*
X20726796Y-8176475D02*
G01*
X20746487Y-8176826D01*
X20765446Y-8177867D01*
X20783680Y-8179584D01*
X20801197Y-8181962D01*
X20818003Y-8184986D01*
X20834106Y-8188642D01*
X20849512Y-8192915D01*
X20864229Y-8197789D01*
X20878263Y-8203251D01*
X20891621Y-8209285D01*
X20904311Y-8215877D01*
X20916338Y-8223011D01*
X20927712Y-8230673D01*
X20938437Y-8238848D01*
X20948521Y-8247522D01*
X20957972Y-8256679D01*
X20966796Y-8266304D01*
X20975000Y-8276384D01*
X20982592Y-8286903D01*
X20989577Y-8297846D01*
X20995963Y-8309198D01*
X21001758Y-8320945D01*
X21006967Y-8333072D01*
X21011599Y-8345564D01*
X21015659Y-8358406D01*
X21019156Y-8371584D01*
X21022095Y-8385082D01*
X21024485Y-8398887D01*
X21026331Y-8412982D01*
X21027641Y-8427354D01*
X21028422Y-8441987D01*
X21028681Y-8456866D01*
X21028496Y-8469450D01*
X21027927Y-8482086D01*
X21026947Y-8494744D01*
X21025534Y-8507395D01*
X21023662Y-8520009D01*
X21021307Y-8532557D01*
X21018444Y-8545008D01*
X21015049Y-8557334D01*
X21011097Y-8569505D01*
X21006564Y-8581490D01*
X21001425Y-8593262D01*
X20995656Y-8604789D01*
X20989233Y-8616042D01*
X20982130Y-8626992D01*
X20974323Y-8637609D01*
X20965788Y-8647864D01*
X20956500Y-8657727D01*
X20946435Y-8667168D01*
X20935569Y-8676157D01*
X20923876Y-8684666D01*
X20911332Y-8692664D01*
X20897913Y-8700121D01*
X20883594Y-8707010D01*
X20868350Y-8713298D01*
X20852158Y-8718958D01*
X20834993Y-8723959D01*
X20816830Y-8728272D01*
X20797644Y-8731867D01*
X20777412Y-8734715D01*
X20756108Y-8736786D01*
X20733708Y-8738050D01*
X20710188Y-8738478D01*
X20490369Y-8738478D01*
X20480124Y-8738619D01*
X20470355Y-8739035D01*
X20452207Y-8740667D01*
X20435847Y-8743316D01*
X20421195Y-8746924D01*
X20408172Y-8751431D01*
X20396697Y-8756781D01*
X20386693Y-8762914D01*
X20378079Y-8769772D01*
X20370775Y-8777297D01*
X20364704Y-8785431D01*
X20359784Y-8794114D01*
X20355937Y-8803290D01*
X20353083Y-8812900D01*
X20351142Y-8822885D01*
X20350036Y-8833186D01*
X20349685Y-8843747D01*
X20350115Y-8855357D01*
X20351417Y-8866443D01*
X20353611Y-8876975D01*
X20356715Y-8886921D01*
X20360750Y-8896250D01*
X20365734Y-8904931D01*
X20371687Y-8912933D01*
X20378628Y-8920225D01*
X20386577Y-8926776D01*
X20395553Y-8932554D01*
X20405574Y-8937529D01*
X20416661Y-8941669D01*
X20428833Y-8944943D01*
X20442109Y-8947321D01*
X20456509Y-8948770D01*
X20472051Y-8949260D01*
X21011828Y-8949260D01*
X21011828Y-9130000D01*
X20477669Y-9130000D01*
X20457464Y-9129642D01*
X20438014Y-9128581D01*
X20419312Y-9126833D01*
X20401351Y-9124412D01*
X20384122Y-9121337D01*
X20367619Y-9117622D01*
X20351834Y-9113284D01*
X20336760Y-9108338D01*
X20322388Y-9102802D01*
X20308712Y-9096690D01*
X20295724Y-9090020D01*
X20283417Y-9082807D01*
X20271783Y-9075068D01*
X20260814Y-9066817D01*
X20250504Y-9058073D01*
X20240845Y-9048850D01*
X20231829Y-9039165D01*
X20223448Y-9029033D01*
X20215696Y-9018472D01*
X20208565Y-9007496D01*
X20202047Y-8996123D01*
X20196136Y-8984368D01*
X20190822Y-8972248D01*
X20186100Y-8959778D01*
X20181961Y-8946974D01*
X20178399Y-8933853D01*
X20175404Y-8920431D01*
X20172971Y-8906723D01*
X20171092Y-8892747D01*
X20169759Y-8878518D01*
X20168965Y-8864051D01*
X20168702Y-8849364D01*
X20168890Y-8836865D01*
X20169473Y-8824300D01*
X20170476Y-8811700D01*
X20171922Y-8799095D01*
X20173839Y-8786516D01*
X20176249Y-8773992D01*
X20179179Y-8761554D01*
X20182654Y-8749233D01*
X20186698Y-8737058D01*
X20191337Y-8725060D01*
X20196595Y-8713270D01*
X20202499Y-8701717D01*
X20209072Y-8690432D01*
X20216339Y-8679446D01*
X20224327Y-8668788D01*
X20233060Y-8658489D01*
X20242562Y-8648579D01*
X20252859Y-8639089D01*
X20263977Y-8630049D01*
X20275939Y-8621489D01*
X20288772Y-8613439D01*
X20302500Y-8605931D01*
X20317148Y-8598993D01*
X20332741Y-8592658D01*
X20349305Y-8586954D01*
X20366864Y-8581912D01*
X20385443Y-8577562D01*
X20405068Y-8573936D01*
X20425763Y-8571062D01*
X20447553Y-8568972D01*
X20470465Y-8567696D01*
X20494521Y-8567264D01*
X20715561Y-8567264D01*
X20734516Y-8566699D01*
X20751683Y-8565046D01*
X20767140Y-8562366D01*
X20780965Y-8558723D01*
X20793235Y-8554178D01*
X20804030Y-8548794D01*
X20813426Y-8542633D01*
X20821502Y-8535757D01*
X20828335Y-8528228D01*
X20834005Y-8520109D01*
X20838588Y-8511462D01*
X20842163Y-8502349D01*
X20844808Y-8492832D01*
X20846600Y-8482974D01*
X20847619Y-8472838D01*
X20847941Y-8462484D01*
X20847542Y-8450799D01*
X20846333Y-8439669D01*
X20844291Y-8429120D01*
X20841396Y-8419180D01*
X20837626Y-8409878D01*
X20832961Y-8401239D01*
X20824239Y-8389588D01*
X20817243Y-8382731D01*
X20809277Y-8376635D01*
X20800321Y-8371328D01*
X20790353Y-8366836D01*
X20779353Y-8363188D01*
X20767299Y-8360411D01*
X20754169Y-8358532D01*
X20739944Y-8357580D01*
X20732414Y-8357459D01*
X20240265Y-8357459D01*
X20240265Y-8176475D01*
X20726796Y-8176475D01*
G37*
G36*
X19925443Y-8176826D02*
G01*
X19939662Y-8178656D01*
X19952451Y-8182028D01*
X19963794Y-8186917D01*
X19973676Y-8193297D01*
X19982080Y-8201142D01*
X19988992Y-8210429D01*
X19994395Y-8221130D01*
X19998273Y-8233221D01*
X20000612Y-8246677D01*
X20001395Y-8261472D01*
X20001395Y-9045247D01*
X20001047Y-9055255D01*
X19999225Y-9069147D01*
X19995858Y-9081674D01*
X19990961Y-9092813D01*
X19984551Y-9102541D01*
X19976642Y-9110835D01*
X19967251Y-9117673D01*
X19956394Y-9123032D01*
X19944085Y-9126887D01*
X19930341Y-9129218D01*
X19920389Y-9129912D01*
X19915177Y-9130000D01*
X19582030Y-9130000D01*
X19556096Y-9129535D01*
X19530914Y-9128142D01*
X19506490Y-9125820D01*
X19482829Y-9122568D01*
X19459934Y-9118388D01*
X19437811Y-9113278D01*
X19416464Y-9107239D01*
X19395898Y-9100271D01*
X19376117Y-9092373D01*
X19357126Y-9083545D01*
X19338930Y-9073788D01*
X19321532Y-9063101D01*
X19304939Y-9051484D01*
X19289154Y-9038937D01*
X19274181Y-9025460D01*
X19260027Y-9011053D01*
X19246694Y-8995716D01*
X19234188Y-8979448D01*
X19222514Y-8962251D01*
X19211676Y-8944122D01*
X19201678Y-8925063D01*
X19192525Y-8905073D01*
X19184222Y-8884153D01*
X19176774Y-8862302D01*
X19170185Y-8839519D01*
X19164459Y-8815806D01*
X19159602Y-8791162D01*
X19155617Y-8765586D01*
X19152510Y-8739079D01*
X19150285Y-8711641D01*
X19148946Y-8683271D01*
X19148499Y-8653970D01*
X19148518Y-8652749D01*
X19329483Y-8652749D01*
X19329697Y-8672209D01*
X19330344Y-8690935D01*
X19331430Y-8708936D01*
X19332962Y-8726217D01*
X19334944Y-8742788D01*
X19337385Y-8758656D01*
X19340290Y-8773828D01*
X19343664Y-8788311D01*
X19347516Y-8802115D01*
X19351850Y-8815245D01*
X19356674Y-8827710D01*
X19361992Y-8839517D01*
X19367813Y-8850675D01*
X19374141Y-8861190D01*
X19380983Y-8871070D01*
X19388346Y-8880322D01*
X19396235Y-8888955D01*
X19404657Y-8896976D01*
X19413619Y-8904393D01*
X19423125Y-8911212D01*
X19433184Y-8917443D01*
X19443800Y-8923091D01*
X19454981Y-8928166D01*
X19466732Y-8932674D01*
X19479060Y-8936624D01*
X19491971Y-8940022D01*
X19505471Y-8942876D01*
X19519567Y-8945194D01*
X19534264Y-8946984D01*
X19549570Y-8948254D01*
X19565490Y-8949010D01*
X19582030Y-8949260D01*
X19810153Y-8949260D01*
X19819808Y-8947314D01*
X19820655Y-8940467D01*
X19820655Y-8366252D01*
X19816019Y-8357631D01*
X19810153Y-8357459D01*
X19582030Y-8357459D01*
X19565490Y-8357710D01*
X19549570Y-8358465D01*
X19534264Y-8359734D01*
X19519567Y-8361522D01*
X19505471Y-8363838D01*
X19491971Y-8366690D01*
X19479060Y-8370083D01*
X19466732Y-8374026D01*
X19454981Y-8378526D01*
X19443800Y-8383591D01*
X19433184Y-8389227D01*
X19423125Y-8395442D01*
X19413619Y-8402245D01*
X19404657Y-8409641D01*
X19396235Y-8417638D01*
X19388346Y-8426244D01*
X19380983Y-8435466D01*
X19374141Y-8445312D01*
X19367813Y-8455789D01*
X19361992Y-8466904D01*
X19356674Y-8478664D01*
X19351850Y-8491077D01*
X19347516Y-8504151D01*
X19343664Y-8517893D01*
X19340290Y-8532309D01*
X19337385Y-8547408D01*
X19334944Y-8563197D01*
X19332962Y-8579684D01*
X19331430Y-8596875D01*
X19330344Y-8614778D01*
X19329697Y-8633400D01*
X19329483Y-8652749D01*
X19148518Y-8652749D01*
X19148950Y-8624557D01*
X19150301Y-8596081D01*
X19152545Y-8568543D01*
X19155677Y-8541940D01*
X19159692Y-8516275D01*
X19164585Y-8491545D01*
X19170349Y-8467752D01*
X19176980Y-8444894D01*
X19184472Y-8422973D01*
X19192820Y-8401986D01*
X19202019Y-8381934D01*
X19212062Y-8362818D01*
X19222945Y-8344636D01*
X19234662Y-8327389D01*
X19247207Y-8311076D01*
X19260576Y-8295696D01*
X19274763Y-8281251D01*
X19289762Y-8267739D01*
X19305568Y-8255161D01*
X19322176Y-8243516D01*
X19339581Y-8232803D01*
X19357775Y-8223024D01*
X19376756Y-8214177D01*
X19396516Y-8206262D01*
X19417051Y-8199279D01*
X19438355Y-8193227D01*
X19460423Y-8188108D01*
X19483250Y-8183920D01*
X19506829Y-8180662D01*
X19531156Y-8178336D01*
X19556225Y-8176941D01*
X19582030Y-8176475D01*
X19915177Y-8176475D01*
X19925443Y-8176826D01*
G37*
G36*
X18616050Y-8357948D02*
G01*
X18610873Y-8347964D01*
X18603715Y-8339379D01*
X18595048Y-8333800D01*
X18584549Y-8330922D01*
X18575750Y-8330348D01*
X18565266Y-8331157D01*
X18555173Y-8334337D01*
X18547077Y-8340247D01*
X18540656Y-8349225D01*
X18536915Y-8357704D01*
X18247732Y-9130000D01*
X18047697Y-9130000D01*
X18370830Y-8272219D01*
X18377733Y-8255779D01*
X18385432Y-8240605D01*
X18393924Y-8226668D01*
X18403204Y-8213940D01*
X18413266Y-8202393D01*
X18424106Y-8191998D01*
X18435720Y-8182727D01*
X18448102Y-8174552D01*
X18461249Y-8167445D01*
X18475155Y-8161377D01*
X18489817Y-8156320D01*
X18505228Y-8152246D01*
X18521386Y-8149126D01*
X18538284Y-8146933D01*
X18555918Y-8145638D01*
X18574284Y-8145212D01*
X18592906Y-8145638D01*
X18610761Y-8146933D01*
X18627849Y-8149125D01*
X18644172Y-8152242D01*
X18659729Y-8156312D01*
X18674521Y-8161364D01*
X18688547Y-8167424D01*
X18701810Y-8174521D01*
X18714307Y-8182683D01*
X18726042Y-8191938D01*
X18737012Y-8202313D01*
X18747220Y-8213837D01*
X18756664Y-8226537D01*
X18765347Y-8240441D01*
X18773267Y-8255578D01*
X18780425Y-8271974D01*
X19116503Y-9130000D01*
X18917445Y-9130000D01*
X18616050Y-8357948D01*
G37*
G36*
X21059455Y-18976475D02*
G01*
X21059455Y-19157459D01*
X20783705Y-19157459D01*
X20783705Y-19930000D01*
X20601500Y-19930000D01*
X20601500Y-19157459D01*
X20325750Y-19157459D01*
X20325750Y-18976475D01*
X21059455Y-18976475D01*
G37*
G36*
X19896859Y-18976475D02*
G01*
X19917689Y-18976800D01*
X19937773Y-18977763D01*
X19957119Y-18979354D01*
X19975732Y-18981558D01*
X19993616Y-18984363D01*
X20010777Y-18987755D01*
X20027222Y-18991722D01*
X20042955Y-18996251D01*
X20057981Y-19001329D01*
X20072307Y-19006943D01*
X20085937Y-19013080D01*
X20098878Y-19019726D01*
X20111134Y-19026870D01*
X20122711Y-19034498D01*
X20133614Y-19042596D01*
X20143850Y-19051153D01*
X20153423Y-19060154D01*
X20162338Y-19069588D01*
X20170603Y-19079441D01*
X20178220Y-19089700D01*
X20185197Y-19100352D01*
X20191539Y-19111385D01*
X20197251Y-19122785D01*
X20202338Y-19134539D01*
X20206807Y-19146634D01*
X20210662Y-19159058D01*
X20213909Y-19171797D01*
X20216553Y-19184838D01*
X20218600Y-19198169D01*
X20220056Y-19211777D01*
X20220925Y-19225648D01*
X20221214Y-19239769D01*
X20220664Y-19258859D01*
X20219035Y-19277274D01*
X20216358Y-19294990D01*
X20212665Y-19311977D01*
X20207988Y-19328211D01*
X20202357Y-19343664D01*
X20195805Y-19358308D01*
X20188363Y-19372118D01*
X20180062Y-19385067D01*
X20170934Y-19397127D01*
X20161010Y-19408272D01*
X20150322Y-19418475D01*
X20138902Y-19427709D01*
X20126780Y-19435947D01*
X20113988Y-19443163D01*
X20100558Y-19449330D01*
X20113776Y-19455503D01*
X20126474Y-19462745D01*
X20138605Y-19471036D01*
X20150124Y-19480356D01*
X20160984Y-19490687D01*
X20171140Y-19502009D01*
X20180546Y-19514302D01*
X20189157Y-19527548D01*
X20196926Y-19541727D01*
X20203808Y-19556820D01*
X20209756Y-19572808D01*
X20214726Y-19589670D01*
X20218671Y-19607388D01*
X20221546Y-19625943D01*
X20223304Y-19645315D01*
X20223750Y-19655301D01*
X20223900Y-19665484D01*
X20223621Y-19679352D01*
X20222778Y-19693008D01*
X20221364Y-19706438D01*
X20219373Y-19719626D01*
X20216797Y-19732559D01*
X20213630Y-19745220D01*
X20209865Y-19757595D01*
X20205494Y-19769669D01*
X20200512Y-19781427D01*
X20194910Y-19792853D01*
X20188682Y-19803933D01*
X20181821Y-19814652D01*
X20174321Y-19824994D01*
X20166173Y-19834945D01*
X20157372Y-19844490D01*
X20147910Y-19853613D01*
X20137781Y-19862299D01*
X20126977Y-19870534D01*
X20115491Y-19878302D01*
X20103317Y-19885589D01*
X20090448Y-19892380D01*
X20076877Y-19898658D01*
X20062596Y-19904410D01*
X20047599Y-19909620D01*
X20031879Y-19914274D01*
X20015429Y-19918356D01*
X19998242Y-19921851D01*
X19980312Y-19924744D01*
X19961630Y-19927021D01*
X19942191Y-19928666D01*
X19921987Y-19929664D01*
X19901011Y-19930000D01*
X19414480Y-19930000D01*
X19414480Y-19749260D01*
X19901011Y-19749260D01*
X19917944Y-19748793D01*
X19933673Y-19747401D01*
X19948213Y-19745100D01*
X19961580Y-19741902D01*
X19973789Y-19737823D01*
X19984856Y-19732876D01*
X19994796Y-19727077D01*
X20003624Y-19720439D01*
X20011356Y-19712977D01*
X20018007Y-19704705D01*
X20023593Y-19695637D01*
X20028128Y-19685787D01*
X20031629Y-19675171D01*
X20034111Y-19663802D01*
X20035589Y-19651694D01*
X20036078Y-19638862D01*
X20035561Y-19625758D01*
X20034008Y-19613550D01*
X20031412Y-19602233D01*
X20027766Y-19591799D01*
X20023063Y-19582241D01*
X20017299Y-19573552D01*
X20010465Y-19565724D01*
X20002555Y-19558750D01*
X19993564Y-19552624D01*
X19983484Y-19547338D01*
X19972310Y-19542884D01*
X19960034Y-19539257D01*
X19946651Y-19536448D01*
X19932153Y-19534450D01*
X19916535Y-19533257D01*
X19899790Y-19532861D01*
X19422784Y-19532861D01*
X19422784Y-19367264D01*
X19895394Y-19367264D01*
X19912222Y-19366907D01*
X19927908Y-19365824D01*
X19942458Y-19364001D01*
X19955882Y-19361421D01*
X19968187Y-19358071D01*
X19979380Y-19353933D01*
X19989470Y-19348994D01*
X19998464Y-19343237D01*
X20006371Y-19336647D01*
X20013198Y-19329208D01*
X20018953Y-19320906D01*
X20023644Y-19311725D01*
X20027279Y-19301650D01*
X20029866Y-19290665D01*
X20031412Y-19278754D01*
X20031926Y-19265903D01*
X20031463Y-19253496D01*
X20030059Y-19241749D01*
X20027686Y-19230682D01*
X20024320Y-19220314D01*
X20019933Y-19210664D01*
X20014499Y-19201752D01*
X20007993Y-19193597D01*
X20000388Y-19186219D01*
X19991658Y-19179636D01*
X19981777Y-19173868D01*
X19970719Y-19168935D01*
X19958458Y-19164855D01*
X19944968Y-19161649D01*
X19930222Y-19159334D01*
X19914194Y-19157931D01*
X19896859Y-19157459D01*
X19415945Y-19157459D01*
X19415945Y-18976475D01*
X19896859Y-18976475D01*
G37*
G36*
X19037857Y-19173579D02*
G01*
X19036960Y-19161625D01*
X19034251Y-19151079D01*
X19029704Y-19141998D01*
X19023294Y-19134439D01*
X19014995Y-19128461D01*
X19004781Y-19124120D01*
X18992627Y-19121474D01*
X18982222Y-19120635D01*
X18978506Y-19120579D01*
X18966391Y-19121327D01*
X18955822Y-19123544D01*
X18946718Y-19127186D01*
X18937277Y-19133678D01*
X18929844Y-19142246D01*
X18924263Y-19152806D01*
X18921026Y-19162633D01*
X18920376Y-19165275D01*
X18786043Y-19749016D01*
X18783234Y-19760517D01*
X18780165Y-19771711D01*
X18776831Y-19782592D01*
X18773230Y-19793157D01*
X18769358Y-19803403D01*
X18765211Y-19813325D01*
X18760787Y-19822920D01*
X18756081Y-19832184D01*
X18751091Y-19841114D01*
X18745813Y-19849705D01*
X18740244Y-19857955D01*
X18734381Y-19865859D01*
X18721757Y-19880614D01*
X18707916Y-19893943D01*
X18692829Y-19905815D01*
X18676470Y-19916200D01*
X18667805Y-19920826D01*
X18658812Y-19925069D01*
X18649488Y-19928926D01*
X18639829Y-19932392D01*
X18629832Y-19935465D01*
X18619494Y-19938140D01*
X18608810Y-19940413D01*
X18597779Y-19942282D01*
X18586396Y-19943742D01*
X18574658Y-19944789D01*
X18562562Y-19945420D01*
X18550104Y-19945631D01*
X18537792Y-19945427D01*
X18525855Y-19944818D01*
X18514289Y-19943806D01*
X18503089Y-19942392D01*
X18492251Y-19940579D01*
X18481769Y-19938370D01*
X18471639Y-19935766D01*
X18461856Y-19932770D01*
X18452415Y-19929384D01*
X18443311Y-19925610D01*
X18426096Y-19916909D01*
X18410171Y-19906683D01*
X18395498Y-19894951D01*
X18382040Y-19881730D01*
X18369756Y-19867039D01*
X18358608Y-19850896D01*
X18353448Y-19842285D01*
X18348558Y-19833317D01*
X18343933Y-19823996D01*
X18339567Y-19814322D01*
X18335457Y-19804299D01*
X18331597Y-19793929D01*
X18327982Y-19783213D01*
X18324608Y-19772154D01*
X18321469Y-19760754D01*
X18318562Y-19749016D01*
X18182763Y-19165275D01*
X18179844Y-19155080D01*
X18174804Y-19144095D01*
X18167978Y-19135127D01*
X18159107Y-19128243D01*
X18147935Y-19123510D01*
X18137169Y-19121317D01*
X18124633Y-19120579D01*
X18113851Y-19121083D01*
X18104168Y-19122582D01*
X18092953Y-19126083D01*
X18083658Y-19131249D01*
X18076261Y-19138025D01*
X18070743Y-19146351D01*
X18067084Y-19156172D01*
X18065264Y-19167430D01*
X18065038Y-19173579D01*
X18065038Y-19930000D01*
X17885764Y-19930000D01*
X17885764Y-19165031D01*
X17885993Y-19153011D01*
X17886682Y-19141230D01*
X17887830Y-19129696D01*
X17889437Y-19118420D01*
X17891503Y-19107410D01*
X17894028Y-19096676D01*
X17897011Y-19086227D01*
X17900453Y-19076073D01*
X17904352Y-19066223D01*
X17908711Y-19056687D01*
X17913527Y-19047473D01*
X17918801Y-19038592D01*
X17924533Y-19030053D01*
X17930722Y-19021864D01*
X17937369Y-19014036D01*
X17944474Y-19006578D01*
X17952035Y-18999500D01*
X17960054Y-18992809D01*
X17968530Y-18986517D01*
X17977462Y-18980632D01*
X17986851Y-18975164D01*
X17996697Y-18970123D01*
X18006999Y-18965516D01*
X18017758Y-18961355D01*
X18028973Y-18957648D01*
X18040643Y-18954405D01*
X18052770Y-18951636D01*
X18065352Y-18949348D01*
X18078390Y-18947553D01*
X18091884Y-18946259D01*
X18105833Y-18945476D01*
X18120237Y-18945212D01*
X18133076Y-18945421D01*
X18145537Y-18946043D01*
X18157625Y-18947075D01*
X18169342Y-18948514D01*
X18180691Y-18950355D01*
X18191677Y-18952594D01*
X18202301Y-18955228D01*
X18212568Y-18958253D01*
X18222481Y-18961664D01*
X18232043Y-18965458D01*
X18241257Y-18969631D01*
X18250127Y-18974179D01*
X18258656Y-18979099D01*
X18274705Y-18990036D01*
X18289429Y-19002411D01*
X18302856Y-19016193D01*
X18315011Y-19031350D01*
X18320621Y-19039435D01*
X18325922Y-19047853D01*
X18330919Y-19056599D01*
X18335615Y-19065669D01*
X18340013Y-19075060D01*
X18344116Y-19084767D01*
X18347927Y-19094788D01*
X18351451Y-19105117D01*
X18354690Y-19115752D01*
X18357648Y-19126687D01*
X18360327Y-19137920D01*
X18493440Y-19721416D01*
X18496753Y-19732579D01*
X18500897Y-19742253D01*
X18507392Y-19752253D01*
X18515526Y-19759927D01*
X18525489Y-19765276D01*
X18537471Y-19768299D01*
X18548639Y-19769043D01*
X18559887Y-19768299D01*
X18569701Y-19766067D01*
X18580105Y-19761183D01*
X18588620Y-19753974D01*
X18595442Y-19744439D01*
X18599813Y-19735137D01*
X18603326Y-19724346D01*
X18604082Y-19721416D01*
X18737194Y-19137920D01*
X18739894Y-19126666D01*
X18742911Y-19115711D01*
X18746244Y-19105061D01*
X18749896Y-19094718D01*
X18753865Y-19084686D01*
X18758153Y-19074969D01*
X18762760Y-19065571D01*
X18767686Y-19056495D01*
X18772933Y-19047746D01*
X18778499Y-19039327D01*
X18784386Y-19031242D01*
X18790595Y-19023494D01*
X18797125Y-19016088D01*
X18803977Y-19009026D01*
X18811152Y-19002314D01*
X18818649Y-18995954D01*
X18826470Y-18989950D01*
X18834615Y-18984307D01*
X18843085Y-18979027D01*
X18851879Y-18974115D01*
X18860998Y-18969574D01*
X18870443Y-18965409D01*
X18880214Y-18961622D01*
X18890312Y-18958218D01*
X18900736Y-18955201D01*
X18911488Y-18952573D01*
X18922568Y-18950340D01*
X18933977Y-18948504D01*
X18945714Y-18947069D01*
X18957780Y-18946040D01*
X18970176Y-18945420D01*
X18982903Y-18945212D01*
X18997307Y-18945476D01*
X19011255Y-18946259D01*
X19024749Y-18947553D01*
X19037787Y-18949348D01*
X19050369Y-18951636D01*
X19062496Y-18954405D01*
X19074167Y-18957648D01*
X19085381Y-18961355D01*
X19096140Y-18965516D01*
X19106442Y-18970123D01*
X19116288Y-18975164D01*
X19125677Y-18980632D01*
X19134610Y-18986517D01*
X19143085Y-18992809D01*
X19151104Y-18999500D01*
X19158666Y-19006578D01*
X19165770Y-19014036D01*
X19172417Y-19021864D01*
X19178607Y-19030053D01*
X19184338Y-19038592D01*
X19189613Y-19047473D01*
X19194429Y-19056687D01*
X19198787Y-19066223D01*
X19202687Y-19076073D01*
X19206128Y-19086227D01*
X19209112Y-19096676D01*
X19211636Y-19107410D01*
X19213702Y-19118420D01*
X19215309Y-19129696D01*
X19216457Y-19141230D01*
X19217146Y-19153011D01*
X19217376Y-19165031D01*
X19217376Y-19930000D01*
X19037857Y-19930000D01*
X19037857Y-19173579D01*
G37*
G36*
X17676203Y-18976475D02*
G01*
X17676203Y-19157459D01*
X17176971Y-19157459D01*
X17161509Y-19158057D01*
X17147169Y-19159813D01*
X17133935Y-19162671D01*
X17121787Y-19166577D01*
X17110710Y-19171474D01*
X17100687Y-19177307D01*
X17091700Y-19184022D01*
X17083731Y-19191562D01*
X17076765Y-19199872D01*
X17070782Y-19208896D01*
X17065768Y-19218579D01*
X17061704Y-19228866D01*
X17058572Y-19239701D01*
X17056357Y-19251029D01*
X17055040Y-19262794D01*
X17054605Y-19274940D01*
X17055011Y-19286734D01*
X17056250Y-19298339D01*
X17058352Y-19309678D01*
X17061349Y-19320671D01*
X17065271Y-19331239D01*
X17070151Y-19341302D01*
X17076019Y-19350783D01*
X17082907Y-19359601D01*
X17090845Y-19367678D01*
X17099864Y-19374934D01*
X17109996Y-19381291D01*
X17121272Y-19386670D01*
X17133723Y-19390991D01*
X17147380Y-19394175D01*
X17162274Y-19396144D01*
X17178436Y-19396817D01*
X17518667Y-19396817D01*
X17528505Y-19396957D01*
X17547179Y-19398085D01*
X17564525Y-19400362D01*
X17580556Y-19403808D01*
X17595282Y-19408446D01*
X17608717Y-19414296D01*
X17620871Y-19421381D01*
X17631757Y-19429722D01*
X17641386Y-19439340D01*
X17649770Y-19450256D01*
X17656921Y-19462493D01*
X17662851Y-19476072D01*
X17667571Y-19491014D01*
X17671094Y-19507340D01*
X17673430Y-19525072D01*
X17674593Y-19544232D01*
X17674738Y-19554354D01*
X17674738Y-19930000D01*
X17493998Y-19930000D01*
X17493998Y-19586106D01*
X17492491Y-19576194D01*
X17483991Y-19570828D01*
X17477878Y-19570474D01*
X17183810Y-19570474D01*
X17163061Y-19570011D01*
X17143121Y-19568645D01*
X17123983Y-19566407D01*
X17105634Y-19563329D01*
X17088065Y-19559444D01*
X17071268Y-19554783D01*
X17055230Y-19549379D01*
X17039943Y-19543264D01*
X17025397Y-19536470D01*
X17011581Y-19529028D01*
X16998486Y-19520972D01*
X16986102Y-19512334D01*
X16974419Y-19503144D01*
X16963426Y-19493437D01*
X16953115Y-19483242D01*
X16943475Y-19472594D01*
X16934496Y-19461523D01*
X16926168Y-19450062D01*
X16918482Y-19438243D01*
X16911426Y-19426099D01*
X16904993Y-19413661D01*
X16899171Y-19400961D01*
X16893950Y-19388031D01*
X16889322Y-19374904D01*
X16885274Y-19361612D01*
X16881799Y-19348187D01*
X16878886Y-19334660D01*
X16876525Y-19321065D01*
X16874705Y-19307433D01*
X16873418Y-19293796D01*
X16872653Y-19280186D01*
X16872400Y-19266636D01*
X16872678Y-19252330D01*
X16873515Y-19238141D01*
X16874915Y-19224090D01*
X16876885Y-19210200D01*
X16879429Y-19196493D01*
X16882553Y-19182992D01*
X16886261Y-19169717D01*
X16890558Y-19156692D01*
X16895450Y-19143939D01*
X16900942Y-19131479D01*
X16907038Y-19119335D01*
X16913745Y-19107529D01*
X16921066Y-19096084D01*
X16929008Y-19085020D01*
X16937575Y-19074361D01*
X16946772Y-19064128D01*
X16956605Y-19054344D01*
X16967078Y-19045031D01*
X16978196Y-19036210D01*
X16989966Y-19027905D01*
X17002391Y-19020137D01*
X17015477Y-19012928D01*
X17029229Y-19006301D01*
X17043652Y-19000278D01*
X17058752Y-18994880D01*
X17074533Y-18990130D01*
X17091000Y-18986050D01*
X17108158Y-18982662D01*
X17126014Y-18979989D01*
X17144570Y-18978052D01*
X17163834Y-18976873D01*
X17183810Y-18976475D01*
X17676203Y-18976475D01*
G37*
G36*
X16273524Y-18976826D02*
G01*
X16287743Y-18978656D01*
X16300532Y-18982028D01*
X16311875Y-18986917D01*
X16321757Y-18993297D01*
X16330161Y-19001142D01*
X16337073Y-19010429D01*
X16342476Y-19021130D01*
X16346354Y-19033221D01*
X16348693Y-19046677D01*
X16349476Y-19061472D01*
X16349476Y-19845247D01*
X16349128Y-19855255D01*
X16347306Y-19869147D01*
X16343939Y-19881674D01*
X16339042Y-19892813D01*
X16332632Y-19902541D01*
X16324723Y-19910835D01*
X16315332Y-19917673D01*
X16304475Y-19923032D01*
X16292166Y-19926887D01*
X16278422Y-19929218D01*
X16268470Y-19929912D01*
X16263258Y-19930000D01*
X15930111Y-19930000D01*
X15904177Y-19929535D01*
X15878995Y-19928142D01*
X15854571Y-19925820D01*
X15830910Y-19922568D01*
X15808015Y-19918388D01*
X15785892Y-19913278D01*
X15764545Y-19907239D01*
X15743979Y-19900271D01*
X15724198Y-19892373D01*
X15705207Y-19883545D01*
X15687011Y-19873788D01*
X15669613Y-19863101D01*
X15653020Y-19851484D01*
X15637234Y-19838937D01*
X15622262Y-19825460D01*
X15608107Y-19811053D01*
X15594775Y-19795716D01*
X15582269Y-19779448D01*
X15570595Y-19762251D01*
X15559756Y-19744122D01*
X15549759Y-19725063D01*
X15540606Y-19705073D01*
X15532303Y-19684153D01*
X15524855Y-19662302D01*
X15518266Y-19639519D01*
X15512540Y-19615806D01*
X15507683Y-19591162D01*
X15503698Y-19565586D01*
X15500591Y-19539079D01*
X15498366Y-19511641D01*
X15497027Y-19483271D01*
X15496580Y-19453970D01*
X15496599Y-19452749D01*
X15677564Y-19452749D01*
X15677778Y-19472209D01*
X15678425Y-19490935D01*
X15679511Y-19508936D01*
X15681043Y-19526217D01*
X15683025Y-19542788D01*
X15685466Y-19558656D01*
X15688371Y-19573828D01*
X15691745Y-19588311D01*
X15695597Y-19602115D01*
X15699931Y-19615245D01*
X15704754Y-19627710D01*
X15710073Y-19639517D01*
X15715893Y-19650675D01*
X15722222Y-19661190D01*
X15729064Y-19671070D01*
X15736427Y-19680322D01*
X15744316Y-19688955D01*
X15752738Y-19696976D01*
X15761700Y-19704393D01*
X15771206Y-19711212D01*
X15781265Y-19717443D01*
X15791881Y-19723091D01*
X15803062Y-19728166D01*
X15814813Y-19732674D01*
X15827141Y-19736624D01*
X15840052Y-19740022D01*
X15853552Y-19742876D01*
X15867648Y-19745194D01*
X15882345Y-19746984D01*
X15897651Y-19748254D01*
X15913571Y-19749010D01*
X15930111Y-19749260D01*
X16158234Y-19749260D01*
X16167889Y-19747314D01*
X16168736Y-19740467D01*
X16168736Y-19166252D01*
X16164100Y-19157631D01*
X16158234Y-19157459D01*
X15930111Y-19157459D01*
X15913571Y-19157710D01*
X15897651Y-19158465D01*
X15882345Y-19159734D01*
X15867648Y-19161522D01*
X15853552Y-19163838D01*
X15840052Y-19166690D01*
X15827141Y-19170083D01*
X15814813Y-19174026D01*
X15803062Y-19178526D01*
X15791881Y-19183591D01*
X15781265Y-19189227D01*
X15771206Y-19195442D01*
X15761700Y-19202245D01*
X15752738Y-19209641D01*
X15744316Y-19217638D01*
X15736427Y-19226244D01*
X15729064Y-19235466D01*
X15722222Y-19245312D01*
X15715893Y-19255789D01*
X15710073Y-19266904D01*
X15704754Y-19278664D01*
X15699931Y-19291077D01*
X15695597Y-19304151D01*
X15691745Y-19317893D01*
X15688371Y-19332309D01*
X15685466Y-19347408D01*
X15683025Y-19363197D01*
X15681043Y-19379684D01*
X15679511Y-19396875D01*
X15678425Y-19414778D01*
X15677778Y-19433400D01*
X15677564Y-19452749D01*
X15496599Y-19452749D01*
X15497031Y-19424557D01*
X15498382Y-19396081D01*
X15500626Y-19368543D01*
X15503758Y-19341940D01*
X15507773Y-19316275D01*
X15512666Y-19291545D01*
X15518430Y-19267752D01*
X15525061Y-19244894D01*
X15532553Y-19222973D01*
X15540901Y-19201986D01*
X15550100Y-19181934D01*
X15560143Y-19162818D01*
X15571026Y-19144636D01*
X15582743Y-19127389D01*
X15595288Y-19111076D01*
X15608657Y-19095696D01*
X15622844Y-19081251D01*
X15637843Y-19067739D01*
X15653649Y-19055161D01*
X15670257Y-19043516D01*
X15687661Y-19032803D01*
X15705856Y-19023024D01*
X15724837Y-19014177D01*
X15744597Y-19006262D01*
X15765132Y-18999279D01*
X15786436Y-18993227D01*
X15808504Y-18988108D01*
X15831331Y-18983920D01*
X15854910Y-18980662D01*
X15879237Y-18978336D01*
X15904306Y-18976941D01*
X15930111Y-18976475D01*
X16263258Y-18976475D01*
X16273524Y-18976826D01*
G37*
G36*
X15320725Y-18976475D02*
G01*
X15320725Y-19157459D01*
X14794870Y-19157459D01*
X14779151Y-19158057D01*
X14764585Y-19159810D01*
X14751155Y-19162663D01*
X14738840Y-19166557D01*
X14727621Y-19171437D01*
X14717479Y-19177243D01*
X14708394Y-19183920D01*
X14700348Y-19191409D01*
X14693321Y-19199654D01*
X14687294Y-19208598D01*
X14682247Y-19218182D01*
X14678160Y-19228351D01*
X14675016Y-19239046D01*
X14672794Y-19250211D01*
X14671475Y-19261787D01*
X14671039Y-19273719D01*
X14671448Y-19285727D01*
X14672694Y-19297521D01*
X14674807Y-19309023D01*
X14677817Y-19320156D01*
X14681755Y-19330842D01*
X14686650Y-19341004D01*
X14692532Y-19350565D01*
X14699433Y-19359448D01*
X14707380Y-19367575D01*
X14716405Y-19374870D01*
X14726538Y-19381254D01*
X14737809Y-19386651D01*
X14750248Y-19390983D01*
X14763884Y-19394173D01*
X14778748Y-19396143D01*
X14794870Y-19396817D01*
X15163189Y-19396817D01*
X15173027Y-19396957D01*
X15191701Y-19398085D01*
X15209047Y-19400362D01*
X15225078Y-19403808D01*
X15239804Y-19408446D01*
X15253239Y-19414296D01*
X15265393Y-19421381D01*
X15276279Y-19429722D01*
X15285908Y-19439340D01*
X15294292Y-19450256D01*
X15301443Y-19462493D01*
X15307373Y-19476072D01*
X15312093Y-19491014D01*
X15315615Y-19507340D01*
X15317952Y-19525072D01*
X15319115Y-19544232D01*
X15319260Y-19554354D01*
X15319260Y-19930000D01*
X15138520Y-19930000D01*
X15138520Y-19586106D01*
X15137013Y-19576194D01*
X15128513Y-19570828D01*
X15122400Y-19570474D01*
X14880355Y-19570474D01*
X14664933Y-19930000D01*
X14463433Y-19930000D01*
X14684961Y-19555087D01*
X14672257Y-19551179D01*
X14660017Y-19546752D01*
X14648237Y-19541823D01*
X14636913Y-19536411D01*
X14626042Y-19530537D01*
X14615618Y-19524218D01*
X14605638Y-19517475D01*
X14596099Y-19510325D01*
X14586995Y-19502789D01*
X14578324Y-19494886D01*
X14570081Y-19486633D01*
X14562262Y-19478051D01*
X14554863Y-19469159D01*
X14547881Y-19459976D01*
X14541311Y-19450520D01*
X14535149Y-19440812D01*
X14529391Y-19430869D01*
X14524034Y-19420711D01*
X14519073Y-19410358D01*
X14514504Y-19399828D01*
X14510324Y-19389140D01*
X14506528Y-19378314D01*
X14503112Y-19367369D01*
X14500073Y-19356323D01*
X14497406Y-19345196D01*
X14495108Y-19334006D01*
X14493175Y-19322774D01*
X14491601Y-19311518D01*
X14490385Y-19300257D01*
X14489521Y-19289010D01*
X14489005Y-19277797D01*
X14488834Y-19266636D01*
X14489113Y-19252330D01*
X14489951Y-19238141D01*
X14491355Y-19224090D01*
X14493330Y-19210200D01*
X14495879Y-19196493D01*
X14499009Y-19182992D01*
X14502725Y-19169717D01*
X14507030Y-19156692D01*
X14511931Y-19143939D01*
X14517432Y-19131479D01*
X14523539Y-19119335D01*
X14530256Y-19107529D01*
X14537589Y-19096084D01*
X14545541Y-19085020D01*
X14554120Y-19074361D01*
X14563328Y-19064128D01*
X14573172Y-19054344D01*
X14583657Y-19045031D01*
X14594786Y-19036210D01*
X14606567Y-19027905D01*
X14619003Y-19020137D01*
X14632099Y-19012928D01*
X14645860Y-19006301D01*
X14660293Y-19000278D01*
X14675400Y-18994880D01*
X14691188Y-18990130D01*
X14707662Y-18986050D01*
X14724826Y-18982662D01*
X14742686Y-18979989D01*
X14761246Y-18978052D01*
X14780512Y-18976873D01*
X14800488Y-18976475D01*
X15320725Y-18976475D01*
G37*
G36*
X14318353Y-18976475D02*
G01*
X14318353Y-19930000D01*
X14137613Y-19930000D01*
X14137613Y-18976475D01*
X14318353Y-18976475D01*
G37*
G36*
X14017445Y-18976475D02*
G01*
X13696999Y-19818869D01*
X13689757Y-19836030D01*
X13681610Y-19851734D01*
X13672589Y-19866030D01*
X13662728Y-19878964D01*
X13652061Y-19890586D01*
X13640619Y-19900945D01*
X13628435Y-19910087D01*
X13615544Y-19918062D01*
X13601977Y-19924918D01*
X13587767Y-19930703D01*
X13572948Y-19935466D01*
X13557551Y-19939254D01*
X13541611Y-19942116D01*
X13525161Y-19944101D01*
X13508232Y-19945257D01*
X13490858Y-19945631D01*
X13472494Y-19945208D01*
X13454865Y-19943921D01*
X13437972Y-19941741D01*
X13421817Y-19938640D01*
X13406402Y-19934588D01*
X13391729Y-19929557D01*
X13377799Y-19923518D01*
X13364615Y-19916444D01*
X13352177Y-19908305D01*
X13340489Y-19899072D01*
X13329551Y-19888718D01*
X13319365Y-19877213D01*
X13309934Y-19864528D01*
X13301258Y-19850636D01*
X13293340Y-19835507D01*
X13286182Y-19819113D01*
X12948639Y-18976475D01*
X13148918Y-18976475D01*
X13452023Y-19733628D01*
X13457156Y-19743567D01*
X13463934Y-19752021D01*
X13472087Y-19757442D01*
X13482170Y-19760198D01*
X13490858Y-19760739D01*
X13501342Y-19759955D01*
X13511434Y-19756856D01*
X13519530Y-19751067D01*
X13525952Y-19742237D01*
X13529692Y-19733872D01*
X13818632Y-18976475D01*
X14017445Y-18976475D01*
G37*
G36*
X12539288Y-18976475D02*
G01*
X12560117Y-18976800D01*
X12580202Y-18977763D01*
X12599548Y-18979354D01*
X12618160Y-18981558D01*
X12636044Y-18984363D01*
X12653206Y-18987755D01*
X12669650Y-18991722D01*
X12685383Y-18996251D01*
X12700410Y-19001329D01*
X12714735Y-19006943D01*
X12728366Y-19013080D01*
X12741306Y-19019726D01*
X12753562Y-19026870D01*
X12765139Y-19034498D01*
X12776043Y-19042596D01*
X12786278Y-19051153D01*
X12795851Y-19060154D01*
X12804767Y-19069588D01*
X12813031Y-19079441D01*
X12820649Y-19089700D01*
X12827626Y-19100352D01*
X12833968Y-19111385D01*
X12839679Y-19122785D01*
X12844767Y-19134539D01*
X12849235Y-19146634D01*
X12853090Y-19159058D01*
X12856337Y-19171797D01*
X12858982Y-19184838D01*
X12861029Y-19198169D01*
X12862484Y-19211777D01*
X12863354Y-19225648D01*
X12863642Y-19239769D01*
X12863092Y-19258859D01*
X12861463Y-19277274D01*
X12858786Y-19294990D01*
X12855094Y-19311977D01*
X12850416Y-19328211D01*
X12844786Y-19343664D01*
X12838234Y-19358308D01*
X12830792Y-19372118D01*
X12822491Y-19385067D01*
X12813363Y-19397127D01*
X12803439Y-19408272D01*
X12792751Y-19418475D01*
X12781330Y-19427709D01*
X12769208Y-19435947D01*
X12756416Y-19443163D01*
X12742986Y-19449330D01*
X12756205Y-19455503D01*
X12768903Y-19462745D01*
X12781034Y-19471036D01*
X12792552Y-19480356D01*
X12803412Y-19490687D01*
X12813569Y-19502009D01*
X12822975Y-19514302D01*
X12831585Y-19527548D01*
X12839354Y-19541727D01*
X12846236Y-19556820D01*
X12852185Y-19572808D01*
X12857155Y-19589670D01*
X12861100Y-19607388D01*
X12863974Y-19625943D01*
X12865733Y-19645315D01*
X12866179Y-19655301D01*
X12866329Y-19665484D01*
X12866049Y-19679352D01*
X12865206Y-19693008D01*
X12863793Y-19706438D01*
X12861801Y-19719626D01*
X12859226Y-19732559D01*
X12856059Y-19745220D01*
X12852293Y-19757595D01*
X12847923Y-19769669D01*
X12842940Y-19781427D01*
X12837338Y-19792853D01*
X12831111Y-19803933D01*
X12824250Y-19814652D01*
X12816749Y-19824994D01*
X12808602Y-19834945D01*
X12799801Y-19844490D01*
X12790339Y-19853613D01*
X12780209Y-19862299D01*
X12769405Y-19870534D01*
X12757920Y-19878302D01*
X12745746Y-19885589D01*
X12732877Y-19892380D01*
X12719305Y-19898658D01*
X12705024Y-19904410D01*
X12690028Y-19909620D01*
X12674308Y-19914274D01*
X12657858Y-19918356D01*
X12640671Y-19921851D01*
X12622740Y-19924744D01*
X12604059Y-19927021D01*
X12584619Y-19928666D01*
X12564415Y-19929664D01*
X12543440Y-19930000D01*
X12056908Y-19930000D01*
X12056908Y-19749260D01*
X12543440Y-19749260D01*
X12560372Y-19748793D01*
X12576101Y-19747401D01*
X12590641Y-19745100D01*
X12604008Y-19741902D01*
X12616217Y-19737823D01*
X12627284Y-19732876D01*
X12637224Y-19727077D01*
X12646052Y-19720439D01*
X12653784Y-19712977D01*
X12660435Y-19704705D01*
X12666021Y-19695637D01*
X12670557Y-19685787D01*
X12674058Y-19675171D01*
X12676539Y-19663802D01*
X12678017Y-19651694D01*
X12678506Y-19638862D01*
X12677990Y-19625758D01*
X12676437Y-19613550D01*
X12673840Y-19602233D01*
X12670194Y-19591799D01*
X12665492Y-19582241D01*
X12659727Y-19573552D01*
X12652893Y-19565724D01*
X12644984Y-19558750D01*
X12635992Y-19552624D01*
X12625913Y-19547338D01*
X12614738Y-19542884D01*
X12602463Y-19539257D01*
X12589079Y-19536448D01*
X12574582Y-19534450D01*
X12558964Y-19533257D01*
X12542219Y-19532861D01*
X12065212Y-19532861D01*
X12065212Y-19367264D01*
X12537822Y-19367264D01*
X12554651Y-19366907D01*
X12570336Y-19365824D01*
X12584887Y-19364001D01*
X12598311Y-19361421D01*
X12610615Y-19358071D01*
X12621808Y-19353933D01*
X12631898Y-19348994D01*
X12640893Y-19343237D01*
X12648799Y-19336647D01*
X12655626Y-19329208D01*
X12661382Y-19320906D01*
X12666073Y-19311725D01*
X12669708Y-19301650D01*
X12672294Y-19290665D01*
X12673840Y-19278754D01*
X12674354Y-19265903D01*
X12673892Y-19253496D01*
X12672487Y-19241749D01*
X12670115Y-19230682D01*
X12666748Y-19220314D01*
X12662361Y-19210664D01*
X12656927Y-19201752D01*
X12650421Y-19193597D01*
X12642816Y-19186219D01*
X12634086Y-19179636D01*
X12624206Y-19173868D01*
X12613148Y-19168935D01*
X12600887Y-19164855D01*
X12587396Y-19161649D01*
X12572650Y-19159334D01*
X12556623Y-19157931D01*
X12539288Y-19157459D01*
X12058374Y-19157459D01*
X12058374Y-18976475D01*
X12539288Y-18976475D01*
G37*
G36*
X20585380Y-4576475D02*
G01*
X20611061Y-4576945D01*
X20636029Y-4578351D01*
X20660279Y-4580695D01*
X20683803Y-4583973D01*
X20706594Y-4588185D01*
X20728646Y-4593331D01*
X20749951Y-4599407D01*
X20770504Y-4606414D01*
X20790298Y-4614350D01*
X20809325Y-4623215D01*
X20827579Y-4633005D01*
X20845053Y-4643722D01*
X20861741Y-4655363D01*
X20877635Y-4667926D01*
X20892730Y-4681412D01*
X20907017Y-4695819D01*
X20920491Y-4711145D01*
X20933144Y-4727389D01*
X20944971Y-4744550D01*
X20955963Y-4762627D01*
X20966115Y-4781619D01*
X20975420Y-4801524D01*
X20983871Y-4822342D01*
X20991460Y-4844070D01*
X20998182Y-4866709D01*
X21004030Y-4890256D01*
X21008997Y-4914710D01*
X21013075Y-4940070D01*
X21016259Y-4966336D01*
X21018542Y-4993505D01*
X21019917Y-5021577D01*
X21020376Y-5050551D01*
X21019921Y-5080034D01*
X21018561Y-5108582D01*
X21016300Y-5136196D01*
X21013145Y-5162875D01*
X21009102Y-5188619D01*
X21004177Y-5213428D01*
X20998374Y-5237302D01*
X20991701Y-5260241D01*
X20984162Y-5282245D01*
X20975764Y-5303313D01*
X20966513Y-5323446D01*
X20956414Y-5342643D01*
X20945474Y-5360905D01*
X20933697Y-5378231D01*
X20921090Y-5394622D01*
X20907658Y-5410076D01*
X20893408Y-5424595D01*
X20878345Y-5438177D01*
X20862476Y-5450824D01*
X20845805Y-5462534D01*
X20828338Y-5473308D01*
X20810083Y-5483146D01*
X20791043Y-5492047D01*
X20771226Y-5500011D01*
X20750636Y-5507039D01*
X20729280Y-5513130D01*
X20707164Y-5518284D01*
X20684293Y-5522501D01*
X20660674Y-5525782D01*
X20636311Y-5528125D01*
X20611211Y-5529531D01*
X20585380Y-5530000D01*
X20439811Y-5530000D01*
X20419970Y-5529605D01*
X20400880Y-5528434D01*
X20382532Y-5526505D01*
X20364920Y-5523838D01*
X20348034Y-5520451D01*
X20331867Y-5516364D01*
X20316410Y-5511597D01*
X20301657Y-5506167D01*
X20287600Y-5500094D01*
X20274229Y-5493397D01*
X20261538Y-5486096D01*
X20249518Y-5478209D01*
X20238161Y-5469756D01*
X20227461Y-5460755D01*
X20217407Y-5451225D01*
X20207994Y-5441187D01*
X20199213Y-5430658D01*
X20191055Y-5419658D01*
X20183513Y-5408206D01*
X20176580Y-5396322D01*
X20170246Y-5384023D01*
X20164505Y-5371330D01*
X20159349Y-5358262D01*
X20154768Y-5344837D01*
X20150756Y-5331074D01*
X20147305Y-5316993D01*
X20144407Y-5302613D01*
X20142053Y-5287953D01*
X20140236Y-5273032D01*
X20138948Y-5257869D01*
X20138181Y-5242484D01*
X20137927Y-5226894D01*
X20138182Y-5211470D01*
X20138945Y-5196393D01*
X20140218Y-5181670D01*
X20141998Y-5167312D01*
X20144286Y-5153328D01*
X20147081Y-5139727D01*
X20150384Y-5126520D01*
X20154192Y-5113714D01*
X20158506Y-5101321D01*
X20163326Y-5089349D01*
X20168651Y-5077807D01*
X20174480Y-5066706D01*
X20180814Y-5056054D01*
X20187651Y-5045861D01*
X20194991Y-5036136D01*
X20202834Y-5026890D01*
X20211180Y-5018130D01*
X20220027Y-5009868D01*
X20229376Y-5002111D01*
X20239226Y-4994871D01*
X20249576Y-4988155D01*
X20260426Y-4981973D01*
X20271776Y-4976336D01*
X20283625Y-4971252D01*
X20295973Y-4966731D01*
X20308820Y-4962782D01*
X20322164Y-4959414D01*
X20336005Y-4956638D01*
X20350343Y-4954462D01*
X20365178Y-4952896D01*
X20380509Y-4951950D01*
X20396336Y-4951632D01*
X20631053Y-4951632D01*
X20631053Y-5111612D01*
X20413189Y-5111612D01*
X20399855Y-5112076D01*
X20387421Y-5113464D01*
X20375881Y-5115765D01*
X20365229Y-5118969D01*
X20355460Y-5123066D01*
X20346569Y-5128046D01*
X20338550Y-5133899D01*
X20331398Y-5140615D01*
X20325107Y-5148184D01*
X20319673Y-5156596D01*
X20315089Y-5165841D01*
X20311351Y-5175908D01*
X20308453Y-5186789D01*
X20306389Y-5198472D01*
X20305155Y-5210948D01*
X20304745Y-5224207D01*
X20305167Y-5237888D01*
X20306449Y-5250969D01*
X20308617Y-5263410D01*
X20311694Y-5275174D01*
X20315706Y-5286221D01*
X20320677Y-5296511D01*
X20326632Y-5306007D01*
X20333596Y-5314669D01*
X20341593Y-5322458D01*
X20350648Y-5329334D01*
X20360785Y-5335260D01*
X20372030Y-5340196D01*
X20384407Y-5344103D01*
X20397940Y-5346942D01*
X20412655Y-5348674D01*
X20428576Y-5349260D01*
X20585380Y-5349260D01*
X20601924Y-5349007D01*
X20617856Y-5348242D01*
X20633182Y-5346959D01*
X20647906Y-5345150D01*
X20662035Y-5342807D01*
X20675574Y-5339923D01*
X20688529Y-5336491D01*
X20700907Y-5332502D01*
X20712711Y-5327950D01*
X20723949Y-5322827D01*
X20734627Y-5317126D01*
X20744748Y-5310839D01*
X20754320Y-5303958D01*
X20763349Y-5296477D01*
X20771839Y-5288387D01*
X20779797Y-5279681D01*
X20787228Y-5270352D01*
X20794139Y-5260393D01*
X20800534Y-5249795D01*
X20806420Y-5238551D01*
X20811802Y-5226655D01*
X20816685Y-5214098D01*
X20821077Y-5200873D01*
X20824982Y-5186972D01*
X20828406Y-5172388D01*
X20831355Y-5157114D01*
X20833835Y-5141142D01*
X20835851Y-5124464D01*
X20837409Y-5107074D01*
X20838515Y-5088963D01*
X20839174Y-5070125D01*
X20839392Y-5050551D01*
X20839171Y-5031229D01*
X20838504Y-5012644D01*
X20837386Y-4994787D01*
X20835811Y-4977650D01*
X20833775Y-4961225D01*
X20831272Y-4945504D01*
X20828297Y-4930478D01*
X20824845Y-4916141D01*
X20820910Y-4902483D01*
X20816489Y-4889497D01*
X20811574Y-4877175D01*
X20806162Y-4865508D01*
X20800247Y-4854489D01*
X20793823Y-4844110D01*
X20786886Y-4834361D01*
X20779431Y-4825237D01*
X20771451Y-4816727D01*
X20762943Y-4808826D01*
X20753901Y-4801523D01*
X20744319Y-4794811D01*
X20734193Y-4788683D01*
X20723517Y-4783130D01*
X20712286Y-4778144D01*
X20700495Y-4773717D01*
X20688138Y-4769841D01*
X20675211Y-4766508D01*
X20661709Y-4763709D01*
X20647625Y-4761438D01*
X20632956Y-4759685D01*
X20617695Y-4758443D01*
X20601838Y-4757704D01*
X20585380Y-4757459D01*
X20188485Y-4757459D01*
X20188485Y-4576475D01*
X20585380Y-4576475D01*
G37*
G36*
X19785973Y-4767718D02*
G01*
X19785245Y-4756927D01*
X19782245Y-4745321D01*
X19776851Y-4735866D01*
X19768983Y-4728622D01*
X19758564Y-4723651D01*
X19748340Y-4721352D01*
X19736392Y-4720579D01*
X19724768Y-4721321D01*
X19714888Y-4723657D01*
X19704915Y-4728791D01*
X19696513Y-4736733D01*
X19690343Y-4745699D01*
X19685737Y-4754524D01*
X19684612Y-4756971D01*
X19409106Y-5365624D01*
X19405303Y-5375746D01*
X19401352Y-5385637D01*
X19397245Y-5395292D01*
X19392973Y-5404704D01*
X19388527Y-5413868D01*
X19383898Y-5422777D01*
X19379078Y-5431426D01*
X19374057Y-5439809D01*
X19363381Y-5455752D01*
X19351799Y-5470557D01*
X19339241Y-5484179D01*
X19325636Y-5496569D01*
X19310916Y-5507679D01*
X19295009Y-5517462D01*
X19277845Y-5525871D01*
X19268770Y-5529545D01*
X19259355Y-5532858D01*
X19249590Y-5535803D01*
X19239468Y-5538375D01*
X19228979Y-5540567D01*
X19218114Y-5542374D01*
X19206865Y-5543790D01*
X19195223Y-5544809D01*
X19183180Y-5545425D01*
X19170725Y-5545631D01*
X19156950Y-5545376D01*
X19143606Y-5544618D01*
X19130694Y-5543364D01*
X19118214Y-5541624D01*
X19106166Y-5539406D01*
X19094550Y-5536718D01*
X19083368Y-5533570D01*
X19072620Y-5529969D01*
X19062305Y-5525925D01*
X19052425Y-5521445D01*
X19042980Y-5516539D01*
X19033970Y-5511216D01*
X19025395Y-5505483D01*
X19017257Y-5499349D01*
X19009555Y-5492823D01*
X19002289Y-5485914D01*
X18995461Y-5478629D01*
X18989071Y-5470979D01*
X18983118Y-5462970D01*
X18977604Y-5454612D01*
X18972529Y-5445914D01*
X18967893Y-5436884D01*
X18963696Y-5427530D01*
X18959940Y-5417862D01*
X18956624Y-5407887D01*
X18953749Y-5397614D01*
X18951315Y-5387053D01*
X18949322Y-5376210D01*
X18947772Y-5365096D01*
X18946664Y-5353719D01*
X18945999Y-5342087D01*
X18945778Y-5330209D01*
X18945778Y-4576475D01*
X19127983Y-4576475D01*
X19127983Y-5324347D01*
X19128748Y-5334472D01*
X19131850Y-5345421D01*
X19137318Y-5354394D01*
X19145137Y-5361308D01*
X19155288Y-5366078D01*
X19165079Y-5368295D01*
X19176343Y-5369043D01*
X19186184Y-5368415D01*
X19196907Y-5365944D01*
X19206071Y-5361742D01*
X19215300Y-5354625D01*
X19221761Y-5347144D01*
X19227323Y-5338413D01*
X19229344Y-5334605D01*
X19505094Y-4737920D01*
X19508871Y-4726687D01*
X19512788Y-4715752D01*
X19516856Y-4705117D01*
X19521084Y-4694788D01*
X19525480Y-4684767D01*
X19530055Y-4675060D01*
X19534817Y-4665669D01*
X19539776Y-4656599D01*
X19544941Y-4647853D01*
X19550322Y-4639435D01*
X19555927Y-4631350D01*
X19567848Y-4616193D01*
X19580780Y-4602411D01*
X19594796Y-4590036D01*
X19609972Y-4579099D01*
X19626381Y-4569631D01*
X19644099Y-4561664D01*
X19653471Y-4558253D01*
X19663199Y-4555228D01*
X19673290Y-4552594D01*
X19683755Y-4550355D01*
X19694603Y-4548514D01*
X19705843Y-4547075D01*
X19717485Y-4546043D01*
X19729537Y-4545421D01*
X19742009Y-4545212D01*
X19755913Y-4545468D01*
X19769367Y-4546228D01*
X19782373Y-4547484D01*
X19794931Y-4549227D01*
X19807042Y-4551448D01*
X19818706Y-4554138D01*
X19829923Y-4557288D01*
X19840695Y-4560890D01*
X19851021Y-4564933D01*
X19860902Y-4569410D01*
X19870339Y-4574311D01*
X19879331Y-4579628D01*
X19887881Y-4585351D01*
X19895987Y-4591471D01*
X19903651Y-4597980D01*
X19910873Y-4604869D01*
X19917653Y-4612128D01*
X19923992Y-4619749D01*
X19929891Y-4627723D01*
X19935350Y-4636040D01*
X19940369Y-4644693D01*
X19944949Y-4653671D01*
X19949091Y-4662966D01*
X19952795Y-4672570D01*
X19956061Y-4682472D01*
X19958890Y-4692665D01*
X19961282Y-4703139D01*
X19963238Y-4713885D01*
X19964759Y-4724894D01*
X19965845Y-4736158D01*
X19966496Y-4747668D01*
X19966713Y-4759413D01*
X19966713Y-5530000D01*
X19785973Y-5530000D01*
X19785973Y-4767718D01*
G37*
G36*
X18659289Y-4576826D02*
G01*
X18673507Y-4578656D01*
X18686296Y-4582028D01*
X18697639Y-4586917D01*
X18707521Y-4593297D01*
X18715925Y-4601142D01*
X18722837Y-4610429D01*
X18728240Y-4621130D01*
X18732118Y-4633221D01*
X18734457Y-4646677D01*
X18735240Y-4661472D01*
X18735240Y-5445247D01*
X18734892Y-5455255D01*
X18733070Y-5469147D01*
X18729703Y-5481674D01*
X18724806Y-5492813D01*
X18718396Y-5502541D01*
X18710487Y-5510835D01*
X18701096Y-5517673D01*
X18690239Y-5523032D01*
X18677930Y-5526887D01*
X18664186Y-5529218D01*
X18654234Y-5529912D01*
X18649023Y-5530000D01*
X18315875Y-5530000D01*
X18289941Y-5529535D01*
X18264759Y-5528142D01*
X18240336Y-5525820D01*
X18216674Y-5522568D01*
X18193779Y-5518388D01*
X18171656Y-5513278D01*
X18150309Y-5507239D01*
X18129743Y-5500271D01*
X18109962Y-5492373D01*
X18090971Y-5483545D01*
X18072775Y-5473788D01*
X18055377Y-5463101D01*
X18038784Y-5451484D01*
X18022999Y-5438937D01*
X18008026Y-5425460D01*
X17993872Y-5411053D01*
X17980539Y-5395716D01*
X17968033Y-5379448D01*
X17956359Y-5362251D01*
X17945521Y-5344122D01*
X17935523Y-5325063D01*
X17926370Y-5305073D01*
X17918067Y-5284153D01*
X17910619Y-5262302D01*
X17904030Y-5239519D01*
X17898304Y-5215806D01*
X17893447Y-5191162D01*
X17889462Y-5165586D01*
X17886355Y-5139079D01*
X17884130Y-5111641D01*
X17882791Y-5083271D01*
X17882344Y-5053970D01*
X17882363Y-5052749D01*
X18063328Y-5052749D01*
X18063542Y-5072209D01*
X18064189Y-5090935D01*
X18065275Y-5108936D01*
X18066807Y-5126217D01*
X18068790Y-5142788D01*
X18071230Y-5158656D01*
X18074135Y-5173828D01*
X18077510Y-5188311D01*
X18081361Y-5202115D01*
X18085695Y-5215245D01*
X18090519Y-5227710D01*
X18095837Y-5239517D01*
X18101658Y-5250675D01*
X18107986Y-5261190D01*
X18114828Y-5271070D01*
X18122191Y-5280322D01*
X18130080Y-5288955D01*
X18138502Y-5296976D01*
X18147464Y-5304393D01*
X18156971Y-5311212D01*
X18167029Y-5317443D01*
X18177646Y-5323091D01*
X18188826Y-5328166D01*
X18200577Y-5332674D01*
X18212905Y-5336624D01*
X18225816Y-5340022D01*
X18239316Y-5342876D01*
X18253412Y-5345194D01*
X18268110Y-5346984D01*
X18283415Y-5348254D01*
X18299335Y-5349010D01*
X18315875Y-5349260D01*
X18543998Y-5349260D01*
X18553653Y-5347314D01*
X18554501Y-5340467D01*
X18554501Y-4766252D01*
X18549864Y-4757631D01*
X18543998Y-4757459D01*
X18315875Y-4757459D01*
X18299335Y-4757710D01*
X18283415Y-4758465D01*
X18268110Y-4759734D01*
X18253412Y-4761522D01*
X18239316Y-4763838D01*
X18225816Y-4766690D01*
X18212905Y-4770083D01*
X18200577Y-4774026D01*
X18188826Y-4778526D01*
X18177646Y-4783591D01*
X18167029Y-4789227D01*
X18156971Y-4795442D01*
X18147464Y-4802245D01*
X18138502Y-4809641D01*
X18130080Y-4817638D01*
X18122191Y-4826244D01*
X18114828Y-4835466D01*
X18107986Y-4845312D01*
X18101658Y-4855789D01*
X18095837Y-4866904D01*
X18090519Y-4878664D01*
X18085695Y-4891077D01*
X18081361Y-4904151D01*
X18077510Y-4917893D01*
X18074135Y-4932309D01*
X18071230Y-4947408D01*
X18068790Y-4963197D01*
X18066807Y-4979684D01*
X18065275Y-4996875D01*
X18064189Y-5014778D01*
X18063542Y-5033400D01*
X18063328Y-5052749D01*
X17882363Y-5052749D01*
X17882796Y-5024557D01*
X17884146Y-4996081D01*
X17886390Y-4968543D01*
X17889522Y-4941940D01*
X17893537Y-4916275D01*
X17898430Y-4891545D01*
X17904194Y-4867752D01*
X17910825Y-4844894D01*
X17918317Y-4822973D01*
X17926665Y-4801986D01*
X17935864Y-4781934D01*
X17945907Y-4762818D01*
X17956790Y-4744636D01*
X17968507Y-4727389D01*
X17981052Y-4711076D01*
X17994421Y-4695696D01*
X18008608Y-4681251D01*
X18023607Y-4667739D01*
X18039413Y-4655161D01*
X18056021Y-4643516D01*
X18073426Y-4632803D01*
X18091621Y-4623024D01*
X18110601Y-4614177D01*
X18130361Y-4606262D01*
X18150896Y-4599279D01*
X18172201Y-4593227D01*
X18194269Y-4588108D01*
X18217095Y-4583920D01*
X18240674Y-4580662D01*
X18265001Y-4578336D01*
X18290070Y-4576941D01*
X18315875Y-4576475D01*
X18649023Y-4576475D01*
X18659289Y-4576826D01*
G37*
G36*
X20696022Y-15376475D02*
G01*
X20716851Y-15376800D01*
X20736936Y-15377763D01*
X20756282Y-15379354D01*
X20774894Y-15381558D01*
X20792778Y-15384363D01*
X20809940Y-15387755D01*
X20826384Y-15391722D01*
X20842117Y-15396251D01*
X20857144Y-15401329D01*
X20871469Y-15406943D01*
X20885100Y-15413080D01*
X20898040Y-15419726D01*
X20910296Y-15426870D01*
X20921873Y-15434498D01*
X20932777Y-15442596D01*
X20943012Y-15451153D01*
X20952585Y-15460154D01*
X20961501Y-15469588D01*
X20969765Y-15479441D01*
X20977383Y-15489700D01*
X20984360Y-15500352D01*
X20990702Y-15511385D01*
X20996414Y-15522785D01*
X21001501Y-15534539D01*
X21005969Y-15546634D01*
X21009824Y-15559058D01*
X21013071Y-15571797D01*
X21015716Y-15584838D01*
X21017763Y-15598169D01*
X21019218Y-15611777D01*
X21020088Y-15625648D01*
X21020376Y-15639769D01*
X21019826Y-15658859D01*
X21018197Y-15677274D01*
X21015521Y-15694990D01*
X21011828Y-15711977D01*
X21007150Y-15728211D01*
X21001520Y-15743664D01*
X20994968Y-15758308D01*
X20987526Y-15772118D01*
X20979225Y-15785067D01*
X20970097Y-15797127D01*
X20960173Y-15808272D01*
X20949485Y-15818475D01*
X20938064Y-15827709D01*
X20925942Y-15835947D01*
X20913150Y-15843163D01*
X20899720Y-15849330D01*
X20912939Y-15855503D01*
X20925637Y-15862745D01*
X20937768Y-15871036D01*
X20949286Y-15880356D01*
X20960147Y-15890687D01*
X20970303Y-15902009D01*
X20979709Y-15914302D01*
X20988319Y-15927548D01*
X20996088Y-15941727D01*
X21002970Y-15956820D01*
X21008919Y-15972808D01*
X21013889Y-15989670D01*
X21017834Y-16007388D01*
X21020708Y-16025943D01*
X21022467Y-16045315D01*
X21022913Y-16055301D01*
X21023063Y-16065484D01*
X21022783Y-16079352D01*
X21021940Y-16093008D01*
X21020527Y-16106438D01*
X21018535Y-16119626D01*
X21015960Y-16132559D01*
X21012793Y-16145220D01*
X21009028Y-16157595D01*
X21004657Y-16169669D01*
X20999674Y-16181427D01*
X20994073Y-16192853D01*
X20987845Y-16203933D01*
X20980984Y-16214652D01*
X20973483Y-16224994D01*
X20965336Y-16234945D01*
X20956535Y-16244490D01*
X20947073Y-16253613D01*
X20936943Y-16262299D01*
X20926139Y-16270534D01*
X20914654Y-16278302D01*
X20902480Y-16285589D01*
X20889611Y-16292380D01*
X20876039Y-16298658D01*
X20861759Y-16304410D01*
X20846762Y-16309620D01*
X20831042Y-16314274D01*
X20814592Y-16318356D01*
X20797405Y-16321851D01*
X20779474Y-16324744D01*
X20760793Y-16327021D01*
X20741353Y-16328666D01*
X20721149Y-16329664D01*
X20700174Y-16330000D01*
X20213642Y-16330000D01*
X20213642Y-16149260D01*
X20700174Y-16149260D01*
X20717107Y-16148793D01*
X20732835Y-16147401D01*
X20747375Y-16145100D01*
X20760742Y-16141902D01*
X20772952Y-16137823D01*
X20784018Y-16132876D01*
X20793958Y-16127077D01*
X20802786Y-16120439D01*
X20810518Y-16112977D01*
X20817170Y-16104705D01*
X20822755Y-16095637D01*
X20827291Y-16085787D01*
X20830792Y-16075171D01*
X20833273Y-16063802D01*
X20834751Y-16051694D01*
X20835240Y-16038862D01*
X20834724Y-16025758D01*
X20833171Y-16013550D01*
X20830574Y-16002233D01*
X20826928Y-15991799D01*
X20822226Y-15982241D01*
X20816461Y-15973552D01*
X20809627Y-15965724D01*
X20801718Y-15958750D01*
X20792727Y-15952624D01*
X20782647Y-15947338D01*
X20771472Y-15942884D01*
X20759197Y-15939257D01*
X20745813Y-15936448D01*
X20731316Y-15934450D01*
X20715698Y-15933257D01*
X20698953Y-15932861D01*
X20221946Y-15932861D01*
X20221946Y-15767264D01*
X20694556Y-15767264D01*
X20711385Y-15766907D01*
X20727070Y-15765824D01*
X20741621Y-15764001D01*
X20755045Y-15761421D01*
X20767349Y-15758071D01*
X20778543Y-15753933D01*
X20788632Y-15748994D01*
X20797627Y-15743237D01*
X20805534Y-15736647D01*
X20812361Y-15729208D01*
X20818116Y-15720906D01*
X20822807Y-15711725D01*
X20826442Y-15701650D01*
X20829028Y-15690665D01*
X20830574Y-15678754D01*
X20831088Y-15665903D01*
X20830626Y-15653496D01*
X20829221Y-15641749D01*
X20826849Y-15630682D01*
X20823482Y-15620314D01*
X20819095Y-15610664D01*
X20813661Y-15601752D01*
X20807155Y-15593597D01*
X20799550Y-15586219D01*
X20790820Y-15579636D01*
X20780940Y-15573868D01*
X20769882Y-15568935D01*
X20757621Y-15564855D01*
X20744130Y-15561649D01*
X20729384Y-15559334D01*
X20713357Y-15557931D01*
X20696022Y-15557459D01*
X20215108Y-15557459D01*
X20215108Y-15376475D01*
X20696022Y-15376475D01*
G37*
G36*
X19615247Y-15376475D02*
G01*
X19640928Y-15376945D01*
X19665897Y-15378352D01*
X19690146Y-15380697D01*
X19713670Y-15383980D01*
X19736461Y-15388198D01*
X19758513Y-15393353D01*
X19779819Y-15399443D01*
X19800372Y-15406468D01*
X19820165Y-15414427D01*
X19839192Y-15423319D01*
X19857447Y-15433144D01*
X19874921Y-15443902D01*
X19891608Y-15455592D01*
X19907503Y-15468213D01*
X19922597Y-15481764D01*
X19936885Y-15496246D01*
X19950358Y-15511657D01*
X19963012Y-15527997D01*
X19974838Y-15545266D01*
X19985831Y-15563462D01*
X19995983Y-15582585D01*
X20005287Y-15602635D01*
X20013738Y-15623611D01*
X20021328Y-15645513D01*
X20028050Y-15668339D01*
X20033897Y-15692090D01*
X20038864Y-15716764D01*
X20042943Y-15742361D01*
X20046127Y-15768881D01*
X20048409Y-15796323D01*
X20049784Y-15824686D01*
X20050244Y-15853970D01*
X20049789Y-15883143D01*
X20048428Y-15911400D01*
X20046168Y-15938741D01*
X20043013Y-15965166D01*
X20038970Y-15990673D01*
X20034044Y-16015262D01*
X20028241Y-16038933D01*
X20021568Y-16061683D01*
X20014030Y-16083514D01*
X20005632Y-16104424D01*
X19996381Y-16124412D01*
X19986282Y-16143478D01*
X19975341Y-16161621D01*
X19963564Y-16178840D01*
X19950957Y-16195134D01*
X19937526Y-16210504D01*
X19923276Y-16224947D01*
X19908213Y-16238464D01*
X19892343Y-16251053D01*
X19875672Y-16262714D01*
X19858206Y-16273447D01*
X19839950Y-16283250D01*
X19820911Y-16292123D01*
X19801093Y-16300064D01*
X19780504Y-16307075D01*
X19759148Y-16313152D01*
X19737032Y-16318297D01*
X19714161Y-16322508D01*
X19690541Y-16325785D01*
X19666178Y-16328126D01*
X19641079Y-16329531D01*
X19615247Y-16330000D01*
X19242044Y-16330000D01*
X19242044Y-16149260D01*
X19615247Y-16149260D01*
X19631792Y-16149010D01*
X19647724Y-16148254D01*
X19663049Y-16146985D01*
X19677773Y-16145197D01*
X19691902Y-16142881D01*
X19705442Y-16140030D01*
X19718397Y-16136636D01*
X19730774Y-16132693D01*
X19742579Y-16128193D01*
X19753817Y-16123129D01*
X19764494Y-16117492D01*
X19774616Y-16111277D01*
X19784188Y-16104475D01*
X19793216Y-16097078D01*
X19801707Y-16089081D01*
X19809665Y-16080475D01*
X19817096Y-16071253D01*
X19824006Y-16061407D01*
X19830401Y-16050930D01*
X19836287Y-16039816D01*
X19841669Y-16028055D01*
X19846553Y-16015642D01*
X19850944Y-16002568D01*
X19854849Y-15988827D01*
X19858274Y-15974410D01*
X19861223Y-15959311D01*
X19863702Y-15943522D01*
X19865718Y-15927036D01*
X19867276Y-15909845D01*
X19868382Y-15891942D01*
X19869041Y-15873319D01*
X19869260Y-15853970D01*
X19869039Y-15834510D01*
X19868371Y-15815784D01*
X19867253Y-15797783D01*
X19865678Y-15780502D01*
X19863642Y-15763931D01*
X19861139Y-15748063D01*
X19858164Y-15732892D01*
X19854712Y-15718408D01*
X19850778Y-15704605D01*
X19846356Y-15691474D01*
X19841442Y-15679009D01*
X19836029Y-15667202D01*
X19830114Y-15656044D01*
X19823691Y-15645530D01*
X19816754Y-15635650D01*
X19809298Y-15626397D01*
X19801319Y-15617764D01*
X19792811Y-15609743D01*
X19783768Y-15602326D01*
X19774186Y-15595507D01*
X19764060Y-15589277D01*
X19753384Y-15583628D01*
X19742153Y-15578553D01*
X19730362Y-15574045D01*
X19718006Y-15570096D01*
X19705079Y-15566698D01*
X19691576Y-15563843D01*
X19677493Y-15561525D01*
X19662824Y-15559735D01*
X19647563Y-15558466D01*
X19631706Y-15557710D01*
X19615247Y-15557459D01*
X19242044Y-15557459D01*
X19242044Y-15376475D01*
X19615247Y-15376475D01*
G37*
G36*
X18611417Y-15376826D02*
G01*
X18625636Y-15378656D01*
X18638425Y-15382028D01*
X18649768Y-15386917D01*
X18659649Y-15393297D01*
X18668054Y-15401142D01*
X18674965Y-15410429D01*
X18680368Y-15421130D01*
X18684247Y-15433221D01*
X18686586Y-15446677D01*
X18687369Y-15461472D01*
X18687369Y-16245247D01*
X18687020Y-16255255D01*
X18685198Y-16269147D01*
X18681831Y-16281674D01*
X18676935Y-16292813D01*
X18670524Y-16302541D01*
X18662616Y-16310835D01*
X18653225Y-16317673D01*
X18642367Y-16323032D01*
X18630058Y-16326887D01*
X18616315Y-16329218D01*
X18606362Y-16329912D01*
X18601151Y-16330000D01*
X18268004Y-16330000D01*
X18242069Y-16329535D01*
X18216888Y-16328142D01*
X18192464Y-16325820D01*
X18168802Y-16322568D01*
X18145908Y-16318388D01*
X18123785Y-16313278D01*
X18102438Y-16307239D01*
X18081872Y-16300271D01*
X18062091Y-16292373D01*
X18043100Y-16283545D01*
X18024903Y-16273788D01*
X18007506Y-16263101D01*
X17990912Y-16251484D01*
X17975127Y-16238937D01*
X17960155Y-16225460D01*
X17946000Y-16211053D01*
X17932667Y-16195716D01*
X17920162Y-16179448D01*
X17908487Y-16162251D01*
X17897649Y-16144122D01*
X17887651Y-16125063D01*
X17878499Y-16105073D01*
X17870196Y-16084153D01*
X17862748Y-16062302D01*
X17856158Y-16039519D01*
X17850433Y-16015806D01*
X17845575Y-15991162D01*
X17841590Y-15965586D01*
X17838483Y-15939079D01*
X17836258Y-15911641D01*
X17834920Y-15883271D01*
X17834473Y-15853970D01*
X17834492Y-15852749D01*
X18015457Y-15852749D01*
X18015671Y-15872209D01*
X18016318Y-15890935D01*
X18017404Y-15908936D01*
X18018935Y-15926217D01*
X18020918Y-15942788D01*
X18023358Y-15958656D01*
X18026263Y-15973828D01*
X18029638Y-15988311D01*
X18033489Y-16002115D01*
X18037824Y-16015245D01*
X18042647Y-16027710D01*
X18047966Y-16039517D01*
X18053786Y-16050675D01*
X18060114Y-16061190D01*
X18066956Y-16071070D01*
X18074319Y-16080322D01*
X18082208Y-16088955D01*
X18090631Y-16096976D01*
X18099592Y-16104393D01*
X18109099Y-16111212D01*
X18119157Y-16117443D01*
X18129774Y-16123091D01*
X18140955Y-16128166D01*
X18152706Y-16132674D01*
X18165034Y-16136624D01*
X18177945Y-16140022D01*
X18191445Y-16142876D01*
X18205540Y-16145194D01*
X18220238Y-16146984D01*
X18235543Y-16148254D01*
X18251463Y-16149010D01*
X18268004Y-16149260D01*
X18496127Y-16149260D01*
X18505781Y-16147314D01*
X18506629Y-16140467D01*
X18506629Y-15566252D01*
X18501992Y-15557631D01*
X18496127Y-15557459D01*
X18268004Y-15557459D01*
X18251463Y-15557710D01*
X18235543Y-15558465D01*
X18220238Y-15559734D01*
X18205540Y-15561522D01*
X18191445Y-15563838D01*
X18177945Y-15566690D01*
X18165034Y-15570083D01*
X18152706Y-15574026D01*
X18140955Y-15578526D01*
X18129774Y-15583591D01*
X18119157Y-15589227D01*
X18109099Y-15595442D01*
X18099592Y-15602245D01*
X18090631Y-15609641D01*
X18082208Y-15617638D01*
X18074319Y-15626244D01*
X18066956Y-15635466D01*
X18060114Y-15645312D01*
X18053786Y-15655789D01*
X18047966Y-15666904D01*
X18042647Y-15678664D01*
X18037824Y-15691077D01*
X18033489Y-15704151D01*
X18029638Y-15717893D01*
X18026263Y-15732309D01*
X18023358Y-15747408D01*
X18020918Y-15763197D01*
X18018935Y-15779684D01*
X18017404Y-15796875D01*
X18016318Y-15814778D01*
X18015671Y-15833400D01*
X18015457Y-15852749D01*
X17834492Y-15852749D01*
X17834924Y-15824557D01*
X17836274Y-15796081D01*
X17838518Y-15768543D01*
X17841651Y-15741940D01*
X17845666Y-15716275D01*
X17850558Y-15691545D01*
X17856323Y-15667752D01*
X17862954Y-15644894D01*
X17870446Y-15622973D01*
X17878794Y-15601986D01*
X17887992Y-15581934D01*
X17898035Y-15562818D01*
X17908918Y-15544636D01*
X17920635Y-15527389D01*
X17933181Y-15511076D01*
X17946550Y-15495696D01*
X17960736Y-15481251D01*
X17975736Y-15467739D01*
X17991542Y-15455161D01*
X18008150Y-15443516D01*
X18025554Y-15432803D01*
X18043749Y-15423024D01*
X18062729Y-15414177D01*
X18082490Y-15406262D01*
X18103025Y-15399279D01*
X18124329Y-15393227D01*
X18146397Y-15388108D01*
X18169223Y-15383920D01*
X18192802Y-15380662D01*
X18217129Y-15378336D01*
X18242198Y-15376941D01*
X18268004Y-15376475D01*
X18601151Y-15376475D01*
X18611417Y-15376826D01*
G37*
G36*
X17658618Y-15376475D02*
G01*
X17658618Y-15557459D01*
X17132763Y-15557459D01*
X17117043Y-15558057D01*
X17102478Y-15559810D01*
X17089047Y-15562663D01*
X17076732Y-15566557D01*
X17065513Y-15571437D01*
X17055371Y-15577243D01*
X17046287Y-15583920D01*
X17038241Y-15591409D01*
X17031214Y-15599654D01*
X17025186Y-15608598D01*
X17020139Y-15618182D01*
X17016053Y-15628351D01*
X17012909Y-15639046D01*
X17010686Y-15650211D01*
X17009367Y-15661787D01*
X17008932Y-15673719D01*
X17009340Y-15685727D01*
X17010586Y-15697521D01*
X17012699Y-15709023D01*
X17015710Y-15720156D01*
X17019647Y-15730842D01*
X17024542Y-15741004D01*
X17030425Y-15750565D01*
X17037325Y-15759448D01*
X17045273Y-15767575D01*
X17054298Y-15774870D01*
X17064431Y-15781254D01*
X17075702Y-15786651D01*
X17088140Y-15790983D01*
X17101777Y-15794173D01*
X17116641Y-15796143D01*
X17132763Y-15796817D01*
X17501081Y-15796817D01*
X17510920Y-15796957D01*
X17529593Y-15798085D01*
X17546940Y-15800362D01*
X17562970Y-15803808D01*
X17577697Y-15808446D01*
X17591131Y-15814296D01*
X17603285Y-15821381D01*
X17614171Y-15829722D01*
X17623800Y-15839340D01*
X17632184Y-15850256D01*
X17639335Y-15862493D01*
X17645265Y-15876072D01*
X17649985Y-15891014D01*
X17653508Y-15907340D01*
X17655845Y-15925072D01*
X17657008Y-15944232D01*
X17657152Y-15954354D01*
X17657152Y-16330000D01*
X17476413Y-16330000D01*
X17476413Y-15986106D01*
X17474906Y-15976194D01*
X17466406Y-15970828D01*
X17460293Y-15970474D01*
X17218248Y-15970474D01*
X17002826Y-16330000D01*
X16801325Y-16330000D01*
X17022854Y-15955087D01*
X17010150Y-15951179D01*
X16997910Y-15946752D01*
X16986130Y-15941823D01*
X16974806Y-15936411D01*
X16963934Y-15930537D01*
X16953510Y-15924218D01*
X16943531Y-15917475D01*
X16933991Y-15910325D01*
X16924888Y-15902789D01*
X16916217Y-15894886D01*
X16907973Y-15886633D01*
X16900155Y-15878051D01*
X16892756Y-15869159D01*
X16885773Y-15859976D01*
X16879203Y-15850520D01*
X16873041Y-15840812D01*
X16867284Y-15830869D01*
X16861926Y-15820711D01*
X16856965Y-15810358D01*
X16852396Y-15799828D01*
X16848216Y-15789140D01*
X16844420Y-15778314D01*
X16841005Y-15767369D01*
X16837966Y-15756323D01*
X16835299Y-15745196D01*
X16833001Y-15734006D01*
X16831067Y-15722774D01*
X16829494Y-15711518D01*
X16828277Y-15700257D01*
X16827413Y-15689010D01*
X16826898Y-15677797D01*
X16826727Y-15666636D01*
X16827005Y-15652330D01*
X16827844Y-15638141D01*
X16829248Y-15624090D01*
X16831222Y-15610200D01*
X16833772Y-15596493D01*
X16836902Y-15582992D01*
X16840617Y-15569717D01*
X16844923Y-15556692D01*
X16849824Y-15543939D01*
X16855325Y-15531479D01*
X16861432Y-15519335D01*
X16868149Y-15507529D01*
X16875481Y-15496084D01*
X16883434Y-15485020D01*
X16892012Y-15474361D01*
X16901221Y-15464128D01*
X16911065Y-15454344D01*
X16921549Y-15445031D01*
X16932679Y-15436210D01*
X16944459Y-15427905D01*
X16956895Y-15420137D01*
X16969991Y-15412928D01*
X16983753Y-15406301D01*
X16998185Y-15400278D01*
X17013293Y-15394880D01*
X17029081Y-15390130D01*
X17045555Y-15386050D01*
X17062719Y-15382662D01*
X17080578Y-15379989D01*
X17099139Y-15378052D01*
X17118404Y-15376873D01*
X17138381Y-15376475D01*
X17658618Y-15376475D01*
G37*
G36*
X16656245Y-15376475D02*
G01*
X16656245Y-16330000D01*
X16475505Y-16330000D01*
X16475505Y-15376475D01*
X16656245Y-15376475D01*
G37*
G36*
X16355338Y-15376475D02*
G01*
X16034891Y-16218869D01*
X16027650Y-16236030D01*
X16019502Y-16251734D01*
X16010482Y-16266030D01*
X16000621Y-16278964D01*
X15989953Y-16290586D01*
X15978511Y-16300945D01*
X15966328Y-16310087D01*
X15953436Y-16318062D01*
X15939869Y-16324918D01*
X15925659Y-16330703D01*
X15910840Y-16335466D01*
X15895444Y-16339254D01*
X15879504Y-16342116D01*
X15863053Y-16344101D01*
X15846124Y-16345257D01*
X15828750Y-16345631D01*
X15810387Y-16345208D01*
X15792757Y-16343921D01*
X15775865Y-16341741D01*
X15759710Y-16338640D01*
X15744295Y-16334588D01*
X15729622Y-16329557D01*
X15715692Y-16323518D01*
X15702507Y-16316444D01*
X15690070Y-16308305D01*
X15678381Y-16299072D01*
X15667443Y-16288718D01*
X15657258Y-16277213D01*
X15647826Y-16264528D01*
X15639151Y-16250636D01*
X15631233Y-16235507D01*
X15624075Y-16219113D01*
X15286531Y-15376475D01*
X15486810Y-15376475D01*
X15789916Y-16133628D01*
X15795048Y-16143567D01*
X15801826Y-16152021D01*
X15809980Y-16157442D01*
X15820062Y-16160198D01*
X15828750Y-16160739D01*
X15839234Y-16159955D01*
X15849327Y-16156856D01*
X15857423Y-16151067D01*
X15863845Y-16142237D01*
X15867585Y-16133872D01*
X16156524Y-15376475D01*
X16355338Y-15376475D01*
G37*
G36*
X14877180Y-15376475D02*
G01*
X14898010Y-15376800D01*
X14918094Y-15377763D01*
X14937440Y-15379354D01*
X14956053Y-15381558D01*
X14973937Y-15384363D01*
X14991098Y-15387755D01*
X15007543Y-15391722D01*
X15023276Y-15396251D01*
X15038302Y-15401329D01*
X15052628Y-15406943D01*
X15066258Y-15413080D01*
X15079199Y-15419726D01*
X15091455Y-15426870D01*
X15103032Y-15434498D01*
X15113935Y-15442596D01*
X15124171Y-15451153D01*
X15133744Y-15460154D01*
X15142659Y-15469588D01*
X15150924Y-15479441D01*
X15158541Y-15489700D01*
X15165518Y-15500352D01*
X15171860Y-15511385D01*
X15177572Y-15522785D01*
X15182659Y-15534539D01*
X15187128Y-15546634D01*
X15190983Y-15559058D01*
X15194230Y-15571797D01*
X15196874Y-15584838D01*
X15198921Y-15598169D01*
X15200377Y-15611777D01*
X15201246Y-15625648D01*
X15201535Y-15639769D01*
X15200985Y-15658859D01*
X15199356Y-15677274D01*
X15196679Y-15694990D01*
X15192986Y-15711977D01*
X15188309Y-15728211D01*
X15182678Y-15743664D01*
X15176126Y-15758308D01*
X15168684Y-15772118D01*
X15160383Y-15785067D01*
X15151255Y-15797127D01*
X15141331Y-15808272D01*
X15130643Y-15818475D01*
X15119223Y-15827709D01*
X15107101Y-15835947D01*
X15094309Y-15843163D01*
X15080879Y-15849330D01*
X15094097Y-15855503D01*
X15106795Y-15862745D01*
X15118926Y-15871036D01*
X15130445Y-15880356D01*
X15141305Y-15890687D01*
X15151461Y-15902009D01*
X15160867Y-15914302D01*
X15169478Y-15927548D01*
X15177247Y-15941727D01*
X15184129Y-15956820D01*
X15190077Y-15972808D01*
X15195047Y-15989670D01*
X15198992Y-16007388D01*
X15201867Y-16025943D01*
X15203625Y-16045315D01*
X15204071Y-16055301D01*
X15204221Y-16065484D01*
X15203942Y-16079352D01*
X15203099Y-16093008D01*
X15201685Y-16106438D01*
X15199694Y-16119626D01*
X15197118Y-16132559D01*
X15193951Y-16145220D01*
X15190186Y-16157595D01*
X15185815Y-16169669D01*
X15180833Y-16181427D01*
X15175231Y-16192853D01*
X15169003Y-16203933D01*
X15162142Y-16214652D01*
X15154642Y-16224994D01*
X15146494Y-16234945D01*
X15137693Y-16244490D01*
X15128231Y-16253613D01*
X15118102Y-16262299D01*
X15107298Y-16270534D01*
X15095812Y-16278302D01*
X15083638Y-16285589D01*
X15070769Y-16292380D01*
X15057198Y-16298658D01*
X15042917Y-16304410D01*
X15027920Y-16309620D01*
X15012200Y-16314274D01*
X14995750Y-16318356D01*
X14978563Y-16321851D01*
X14960633Y-16324744D01*
X14941951Y-16327021D01*
X14922512Y-16328666D01*
X14902308Y-16329664D01*
X14881332Y-16330000D01*
X14394801Y-16330000D01*
X14394801Y-16149260D01*
X14881332Y-16149260D01*
X14898265Y-16148793D01*
X14913994Y-16147401D01*
X14928534Y-16145100D01*
X14941901Y-16141902D01*
X14954110Y-16137823D01*
X14965177Y-16132876D01*
X14975117Y-16127077D01*
X14983945Y-16120439D01*
X14991677Y-16112977D01*
X14998328Y-16104705D01*
X15003914Y-16095637D01*
X15008449Y-16085787D01*
X15011950Y-16075171D01*
X15014432Y-16063802D01*
X15015910Y-16051694D01*
X15016399Y-16038862D01*
X15015882Y-16025758D01*
X15014329Y-16013550D01*
X15011733Y-16002233D01*
X15008087Y-15991799D01*
X15003385Y-15982241D01*
X14997620Y-15973552D01*
X14990786Y-15965724D01*
X14982876Y-15958750D01*
X14973885Y-15952624D01*
X14963805Y-15947338D01*
X14952631Y-15942884D01*
X14940355Y-15939257D01*
X14926972Y-15936448D01*
X14912474Y-15934450D01*
X14896856Y-15933257D01*
X14880111Y-15932861D01*
X14403105Y-15932861D01*
X14403105Y-15767264D01*
X14875715Y-15767264D01*
X14892543Y-15766907D01*
X14908229Y-15765824D01*
X14922779Y-15764001D01*
X14936203Y-15761421D01*
X14948508Y-15758071D01*
X14959701Y-15753933D01*
X14969791Y-15748994D01*
X14978785Y-15743237D01*
X14986692Y-15736647D01*
X14993519Y-15729208D01*
X14999274Y-15720906D01*
X15003965Y-15711725D01*
X15007600Y-15701650D01*
X15010187Y-15690665D01*
X15011733Y-15678754D01*
X15012247Y-15665903D01*
X15011784Y-15653496D01*
X15010380Y-15641749D01*
X15008007Y-15630682D01*
X15004641Y-15620314D01*
X15000254Y-15610664D01*
X14994820Y-15601752D01*
X14988314Y-15593597D01*
X14980709Y-15586219D01*
X14971979Y-15579636D01*
X14962098Y-15573868D01*
X14951040Y-15568935D01*
X14938779Y-15564855D01*
X14925289Y-15561649D01*
X14910543Y-15559334D01*
X14894515Y-15557931D01*
X14877180Y-15557459D01*
X14396266Y-15557459D01*
X14396266Y-15376475D01*
X14877180Y-15376475D01*
G37*
G36*
X20726796Y-11776475D02*
G01*
X20746487Y-11776826D01*
X20765446Y-11777867D01*
X20783680Y-11779584D01*
X20801197Y-11781962D01*
X20818003Y-11784986D01*
X20834106Y-11788642D01*
X20849512Y-11792915D01*
X20864229Y-11797789D01*
X20878263Y-11803251D01*
X20891621Y-11809285D01*
X20904311Y-11815877D01*
X20916338Y-11823011D01*
X20927712Y-11830673D01*
X20938437Y-11838848D01*
X20948521Y-11847522D01*
X20957972Y-11856679D01*
X20966796Y-11866304D01*
X20975000Y-11876384D01*
X20982592Y-11886903D01*
X20989577Y-11897846D01*
X20995963Y-11909198D01*
X21001758Y-11920945D01*
X21006967Y-11933072D01*
X21011599Y-11945564D01*
X21015659Y-11958406D01*
X21019156Y-11971584D01*
X21022095Y-11985082D01*
X21024485Y-11998887D01*
X21026331Y-12012982D01*
X21027641Y-12027354D01*
X21028422Y-12041987D01*
X21028681Y-12056866D01*
X21028496Y-12069450D01*
X21027927Y-12082086D01*
X21026947Y-12094744D01*
X21025534Y-12107395D01*
X21023662Y-12120009D01*
X21021307Y-12132557D01*
X21018444Y-12145008D01*
X21015049Y-12157334D01*
X21011097Y-12169505D01*
X21006564Y-12181490D01*
X21001425Y-12193262D01*
X20995656Y-12204789D01*
X20989233Y-12216042D01*
X20982130Y-12226992D01*
X20974323Y-12237609D01*
X20965788Y-12247864D01*
X20956500Y-12257727D01*
X20946435Y-12267168D01*
X20935569Y-12276157D01*
X20923876Y-12284666D01*
X20911332Y-12292664D01*
X20897913Y-12300121D01*
X20883594Y-12307010D01*
X20868350Y-12313298D01*
X20852158Y-12318958D01*
X20834993Y-12323959D01*
X20816830Y-12328272D01*
X20797644Y-12331867D01*
X20777412Y-12334715D01*
X20756108Y-12336786D01*
X20733708Y-12338050D01*
X20710188Y-12338478D01*
X20490369Y-12338478D01*
X20480124Y-12338619D01*
X20470355Y-12339035D01*
X20452207Y-12340667D01*
X20435847Y-12343316D01*
X20421195Y-12346924D01*
X20408172Y-12351431D01*
X20396697Y-12356781D01*
X20386693Y-12362914D01*
X20378079Y-12369772D01*
X20370775Y-12377297D01*
X20364704Y-12385431D01*
X20359784Y-12394114D01*
X20355937Y-12403290D01*
X20353083Y-12412900D01*
X20351142Y-12422885D01*
X20350036Y-12433186D01*
X20349685Y-12443747D01*
X20350115Y-12455357D01*
X20351417Y-12466443D01*
X20353611Y-12476975D01*
X20356715Y-12486921D01*
X20360750Y-12496250D01*
X20365734Y-12504931D01*
X20371687Y-12512933D01*
X20378628Y-12520225D01*
X20386577Y-12526776D01*
X20395553Y-12532554D01*
X20405574Y-12537529D01*
X20416661Y-12541669D01*
X20428833Y-12544943D01*
X20442109Y-12547321D01*
X20456509Y-12548770D01*
X20472051Y-12549260D01*
X21011828Y-12549260D01*
X21011828Y-12730000D01*
X20477669Y-12730000D01*
X20457464Y-12729642D01*
X20438014Y-12728581D01*
X20419312Y-12726833D01*
X20401351Y-12724412D01*
X20384122Y-12721337D01*
X20367619Y-12717622D01*
X20351834Y-12713284D01*
X20336760Y-12708338D01*
X20322388Y-12702802D01*
X20308712Y-12696690D01*
X20295724Y-12690020D01*
X20283417Y-12682807D01*
X20271783Y-12675068D01*
X20260814Y-12666817D01*
X20250504Y-12658073D01*
X20240845Y-12648850D01*
X20231829Y-12639165D01*
X20223448Y-12629033D01*
X20215696Y-12618472D01*
X20208565Y-12607496D01*
X20202047Y-12596123D01*
X20196136Y-12584368D01*
X20190822Y-12572248D01*
X20186100Y-12559778D01*
X20181961Y-12546974D01*
X20178399Y-12533853D01*
X20175404Y-12520431D01*
X20172971Y-12506723D01*
X20171092Y-12492747D01*
X20169759Y-12478518D01*
X20168965Y-12464051D01*
X20168702Y-12449364D01*
X20168890Y-12436865D01*
X20169473Y-12424300D01*
X20170476Y-12411700D01*
X20171922Y-12399095D01*
X20173839Y-12386516D01*
X20176249Y-12373992D01*
X20179179Y-12361554D01*
X20182654Y-12349233D01*
X20186698Y-12337058D01*
X20191337Y-12325060D01*
X20196595Y-12313270D01*
X20202499Y-12301717D01*
X20209072Y-12290432D01*
X20216339Y-12279446D01*
X20224327Y-12268788D01*
X20233060Y-12258489D01*
X20242562Y-12248579D01*
X20252859Y-12239089D01*
X20263977Y-12230049D01*
X20275939Y-12221489D01*
X20288772Y-12213439D01*
X20302500Y-12205931D01*
X20317148Y-12198993D01*
X20332741Y-12192658D01*
X20349305Y-12186954D01*
X20366864Y-12181912D01*
X20385443Y-12177562D01*
X20405068Y-12173936D01*
X20425763Y-12171062D01*
X20447553Y-12168972D01*
X20470465Y-12167696D01*
X20494521Y-12167264D01*
X20715561Y-12167264D01*
X20734516Y-12166699D01*
X20751683Y-12165046D01*
X20767140Y-12162366D01*
X20780965Y-12158723D01*
X20793235Y-12154178D01*
X20804030Y-12148794D01*
X20813426Y-12142633D01*
X20821502Y-12135757D01*
X20828335Y-12128228D01*
X20834005Y-12120109D01*
X20838588Y-12111462D01*
X20842163Y-12102349D01*
X20844808Y-12092832D01*
X20846600Y-12082974D01*
X20847619Y-12072838D01*
X20847941Y-12062484D01*
X20847542Y-12050799D01*
X20846333Y-12039669D01*
X20844291Y-12029120D01*
X20841396Y-12019180D01*
X20837626Y-12009878D01*
X20832961Y-12001239D01*
X20824239Y-11989588D01*
X20817243Y-11982731D01*
X20809277Y-11976635D01*
X20800321Y-11971328D01*
X20790353Y-11966836D01*
X20779353Y-11963188D01*
X20767299Y-11960411D01*
X20754169Y-11958532D01*
X20739944Y-11957580D01*
X20732414Y-11957459D01*
X20240265Y-11957459D01*
X20240265Y-11776475D01*
X20726796Y-11776475D01*
G37*
G36*
X19607431Y-11776475D02*
G01*
X19633112Y-11776945D01*
X19658081Y-11778352D01*
X19682330Y-11780697D01*
X19705854Y-11783980D01*
X19728645Y-11788198D01*
X19750697Y-11793353D01*
X19772003Y-11799443D01*
X19792556Y-11806468D01*
X19812350Y-11814427D01*
X19831377Y-11823319D01*
X19849631Y-11833144D01*
X19867105Y-11843902D01*
X19883793Y-11855592D01*
X19899687Y-11868213D01*
X19914781Y-11881764D01*
X19929069Y-11896246D01*
X19942543Y-11911657D01*
X19955196Y-11927997D01*
X19967023Y-11945266D01*
X19978015Y-11963462D01*
X19988167Y-11982585D01*
X19997472Y-12002635D01*
X20005922Y-12023611D01*
X20013512Y-12045513D01*
X20020234Y-12068339D01*
X20026082Y-12092090D01*
X20031048Y-12116764D01*
X20035127Y-12142361D01*
X20038311Y-12168881D01*
X20040594Y-12196323D01*
X20041968Y-12224686D01*
X20042428Y-12253970D01*
X20041973Y-12283143D01*
X20040612Y-12311400D01*
X20038352Y-12338741D01*
X20035197Y-12365166D01*
X20031154Y-12390673D01*
X20026228Y-12415262D01*
X20020426Y-12438933D01*
X20013752Y-12461683D01*
X20006214Y-12483514D01*
X19997816Y-12504424D01*
X19988565Y-12524412D01*
X19978466Y-12543478D01*
X19967525Y-12561621D01*
X19955748Y-12578840D01*
X19943141Y-12595134D01*
X19929710Y-12610504D01*
X19915460Y-12624947D01*
X19900397Y-12638464D01*
X19884527Y-12651053D01*
X19867856Y-12662714D01*
X19850390Y-12673447D01*
X19832134Y-12683250D01*
X19813095Y-12692123D01*
X19793277Y-12700064D01*
X19772688Y-12707075D01*
X19751332Y-12713152D01*
X19729216Y-12718297D01*
X19706345Y-12722508D01*
X19682725Y-12725785D01*
X19658363Y-12728126D01*
X19633263Y-12729531D01*
X19607431Y-12730000D01*
X19234228Y-12730000D01*
X19234228Y-12549260D01*
X19607431Y-12549260D01*
X19623976Y-12549010D01*
X19639908Y-12548254D01*
X19655233Y-12546985D01*
X19669958Y-12545197D01*
X19684087Y-12542881D01*
X19697626Y-12540030D01*
X19710581Y-12536636D01*
X19722958Y-12532693D01*
X19734763Y-12528193D01*
X19746001Y-12523129D01*
X19756678Y-12517492D01*
X19766800Y-12511277D01*
X19776372Y-12504475D01*
X19785401Y-12497078D01*
X19793891Y-12489081D01*
X19801849Y-12480475D01*
X19809280Y-12471253D01*
X19816190Y-12461407D01*
X19822586Y-12450930D01*
X19828471Y-12439816D01*
X19833853Y-12428055D01*
X19838737Y-12415642D01*
X19843129Y-12402568D01*
X19847034Y-12388827D01*
X19850458Y-12374410D01*
X19853407Y-12359311D01*
X19855887Y-12343522D01*
X19857903Y-12327036D01*
X19859461Y-12309845D01*
X19860566Y-12291942D01*
X19861226Y-12273319D01*
X19861444Y-12253970D01*
X19861223Y-12234510D01*
X19860556Y-12215784D01*
X19859437Y-12197783D01*
X19857862Y-12180502D01*
X19855826Y-12163931D01*
X19853323Y-12148063D01*
X19850348Y-12132892D01*
X19846896Y-12118408D01*
X19842962Y-12104605D01*
X19838540Y-12091474D01*
X19833626Y-12079009D01*
X19828214Y-12067202D01*
X19822298Y-12056044D01*
X19815875Y-12045530D01*
X19808938Y-12035650D01*
X19801482Y-12026397D01*
X19793503Y-12017764D01*
X19784995Y-12009743D01*
X19775952Y-12002326D01*
X19766371Y-11995507D01*
X19756244Y-11989277D01*
X19745568Y-11983628D01*
X19734337Y-11978553D01*
X19722546Y-11974045D01*
X19710190Y-11970096D01*
X19697263Y-11966698D01*
X19683760Y-11963843D01*
X19669677Y-11961525D01*
X19655008Y-11959735D01*
X19639747Y-11958466D01*
X19623890Y-11957710D01*
X19607431Y-11957459D01*
X19234228Y-11957459D01*
X19234228Y-11776475D01*
X19607431Y-11776475D01*
G37*
G36*
X19062770Y-11776475D02*
G01*
X19062770Y-12397585D01*
X19062469Y-12415257D01*
X19061561Y-12432633D01*
X19060037Y-12449694D01*
X19057886Y-12466425D01*
X19055100Y-12482807D01*
X19051671Y-12498824D01*
X19047587Y-12514457D01*
X19042841Y-12529690D01*
X19037423Y-12544505D01*
X19031324Y-12558884D01*
X19024535Y-12572811D01*
X19017046Y-12586268D01*
X19008848Y-12599238D01*
X18999933Y-12611703D01*
X18990290Y-12623646D01*
X18979911Y-12635050D01*
X18968786Y-12645897D01*
X18956906Y-12656170D01*
X18944262Y-12665852D01*
X18930845Y-12674925D01*
X18916646Y-12683371D01*
X18901655Y-12691175D01*
X18885863Y-12698317D01*
X18869261Y-12704781D01*
X18851840Y-12710550D01*
X18833590Y-12715606D01*
X18814502Y-12719932D01*
X18794567Y-12723510D01*
X18773777Y-12726323D01*
X18752121Y-12728354D01*
X18729590Y-12729585D01*
X18706175Y-12730000D01*
X18321737Y-12730000D01*
X18321737Y-12549260D01*
X18696406Y-12549260D01*
X18709616Y-12549070D01*
X18722235Y-12548506D01*
X18734274Y-12547575D01*
X18745745Y-12546286D01*
X18756658Y-12544646D01*
X18767025Y-12542662D01*
X18776856Y-12540343D01*
X18794961Y-12534730D01*
X18811061Y-12527869D01*
X18825247Y-12519821D01*
X18837609Y-12510650D01*
X18848238Y-12500417D01*
X18857222Y-12489185D01*
X18864654Y-12477016D01*
X18870621Y-12463973D01*
X18875216Y-12450116D01*
X18878528Y-12435510D01*
X18880647Y-12420215D01*
X18881663Y-12404295D01*
X18881786Y-12396120D01*
X18881786Y-11776475D01*
X19062770Y-11776475D01*
G37*
D11*
G36*
X14270690Y-13783318D02*
G01*
X13981018Y-14830631D01*
X13800279Y-14830631D01*
X13493754Y-13783318D01*
X13682798Y-13783318D01*
X13843754Y-14449612D01*
X13846830Y-14462758D01*
X13849736Y-14475918D01*
X13852469Y-14489107D01*
X13855023Y-14502338D01*
X13857396Y-14515627D01*
X13859583Y-14528987D01*
X13861581Y-14542434D01*
X13863385Y-14555980D01*
X13864991Y-14569641D01*
X13866396Y-14583431D01*
X13867596Y-14597363D01*
X13868586Y-14611454D01*
X13869364Y-14625716D01*
X13869924Y-14640164D01*
X13870262Y-14654812D01*
X13870376Y-14669675D01*
X13899685Y-14669675D01*
X13899799Y-14655070D01*
X13900138Y-14640644D01*
X13900698Y-14626385D01*
X13901475Y-14612278D01*
X13902466Y-14598308D01*
X13903665Y-14584461D01*
X13905070Y-14570723D01*
X13906677Y-14557079D01*
X13908481Y-14543515D01*
X13910478Y-14530018D01*
X13912666Y-14516571D01*
X13915038Y-14503162D01*
X13917593Y-14489776D01*
X13920325Y-14476399D01*
X13923232Y-14463016D01*
X13926308Y-14449612D01*
X14087264Y-13783318D01*
X14270690Y-13783318D01*
G37*
G36*
X13368213Y-14815000D02*
G01*
X13173551Y-14815000D01*
X13173551Y-14382934D01*
X13156699Y-14382934D01*
X13145639Y-14382794D01*
X13134442Y-14382365D01*
X13123108Y-14381633D01*
X13111636Y-14380583D01*
X13100027Y-14379201D01*
X13088280Y-14377473D01*
X13076396Y-14375384D01*
X13064375Y-14372920D01*
X13062584Y-14383689D01*
X13060402Y-14393901D01*
X13057876Y-14403590D01*
X13054056Y-14415757D01*
X13049819Y-14427141D01*
X13045278Y-14437823D01*
X13040545Y-14447889D01*
X13035731Y-14457420D01*
X13032135Y-14464267D01*
X12858478Y-14815000D01*
X12628890Y-14815000D01*
X12830635Y-14450345D01*
X12836019Y-14440936D01*
X12841999Y-14431671D01*
X12848565Y-14422549D01*
X12855708Y-14413573D01*
X12863417Y-14404743D01*
X12871683Y-14396061D01*
X12880497Y-14387527D01*
X12889848Y-14379144D01*
X12899728Y-14370913D01*
X12910126Y-14362833D01*
X12917341Y-14357533D01*
X12917341Y-14346542D01*
X12903641Y-14341318D01*
X12890384Y-14335903D01*
X12877569Y-14330296D01*
X12865197Y-14324495D01*
X12853266Y-14318498D01*
X12841776Y-14312302D01*
X12830726Y-14305908D01*
X12820117Y-14299311D01*
X12809947Y-14292512D01*
X12800215Y-14285507D01*
X12790922Y-14278296D01*
X12782066Y-14270876D01*
X12773648Y-14263246D01*
X12765667Y-14255403D01*
X12758121Y-14247347D01*
X12751011Y-14239075D01*
X12744337Y-14230585D01*
X12738096Y-14221876D01*
X12732290Y-14212946D01*
X12726917Y-14203793D01*
X12721977Y-14194416D01*
X12717470Y-14184811D01*
X12713394Y-14174979D01*
X12709750Y-14164917D01*
X12706536Y-14154622D01*
X12703753Y-14144094D01*
X12701399Y-14133331D01*
X12699474Y-14122331D01*
X12697978Y-14111091D01*
X12696910Y-14099611D01*
X12696270Y-14087888D01*
X12696253Y-14086912D01*
X12894870Y-14086912D01*
X12895084Y-14098777D01*
X12895726Y-14110196D01*
X12896799Y-14121174D01*
X12898305Y-14131714D01*
X12900245Y-14141822D01*
X12902623Y-14151502D01*
X12908697Y-14169595D01*
X12916544Y-14186032D01*
X12926182Y-14200848D01*
X12937626Y-14214080D01*
X12950894Y-14225764D01*
X12966002Y-14235936D01*
X12982967Y-14244634D01*
X12992152Y-14248442D01*
X13001807Y-14251894D01*
X13011934Y-14254996D01*
X13022537Y-14257752D01*
X13033616Y-14260166D01*
X13045175Y-14262244D01*
X13057214Y-14263990D01*
X13069737Y-14265408D01*
X13082745Y-14266503D01*
X13096241Y-14267280D01*
X13110226Y-14267742D01*
X13124703Y-14267896D01*
X13134966Y-14267883D01*
X13145518Y-14267793D01*
X13156298Y-14267550D01*
X13167245Y-14267077D01*
X13173551Y-14266674D01*
X13173551Y-13930352D01*
X13040683Y-13930352D01*
X13022181Y-13931311D01*
X13005036Y-13934094D01*
X12989225Y-13938563D01*
X12974726Y-13944579D01*
X12961517Y-13952003D01*
X12949575Y-13960697D01*
X12938877Y-13970522D01*
X12929400Y-13981338D01*
X12921123Y-13993007D01*
X12914023Y-14005390D01*
X12908077Y-14018348D01*
X12903262Y-14031743D01*
X12899557Y-14045436D01*
X12896938Y-14059287D01*
X12895384Y-14073159D01*
X12894870Y-14086912D01*
X12696253Y-14086912D01*
X12696057Y-14075921D01*
X12696503Y-14057116D01*
X12697842Y-14038986D01*
X12700069Y-14021523D01*
X12703182Y-14004724D01*
X12707179Y-13988583D01*
X12712055Y-13973095D01*
X12717810Y-13958256D01*
X12724439Y-13944060D01*
X12731939Y-13930502D01*
X12740309Y-13917578D01*
X12749546Y-13905282D01*
X12759645Y-13893609D01*
X12770606Y-13882554D01*
X12782424Y-13872112D01*
X12795097Y-13862279D01*
X12808622Y-13853049D01*
X12822997Y-13844417D01*
X12838218Y-13836379D01*
X12854283Y-13828928D01*
X12871189Y-13822061D01*
X12888933Y-13815772D01*
X12907512Y-13810056D01*
X12926924Y-13804908D01*
X12947165Y-13800323D01*
X12968233Y-13796297D01*
X12990125Y-13792823D01*
X13012839Y-13789898D01*
X13036370Y-13787516D01*
X13060718Y-13785672D01*
X13085878Y-13784361D01*
X13111848Y-13783578D01*
X13138625Y-13783318D01*
X13368213Y-13783318D01*
X13368213Y-14815000D01*
G37*
G36*
X12513363Y-13783318D02*
G01*
X12513363Y-14815000D01*
X11909839Y-14815000D01*
X11909839Y-14654043D01*
X12318702Y-14654043D01*
X12318702Y-14346053D01*
X11967236Y-14346053D01*
X11967236Y-14197798D01*
X12318702Y-14197798D01*
X12318702Y-13947205D01*
X11922540Y-13947205D01*
X11922540Y-13783318D01*
X12513363Y-13783318D01*
G37*
G36*
X11735694Y-13783318D02*
G01*
X11735694Y-14815000D01*
X11541032Y-14815000D01*
X11541032Y-14392215D01*
X11153175Y-14392215D01*
X11153175Y-14236632D01*
X11541032Y-14236632D01*
X11541032Y-13948670D01*
X11132170Y-13948670D01*
X11132170Y-13783318D01*
X11735694Y-13783318D01*
G37*
D12*
%TO.C,J1*%
X3940000Y-7730000D02*
X-260000Y-7730000D01*
X8117886Y-9810000D02*
X7882114Y-9810000D01*
X3940000Y-7610000D02*
X-260000Y-7610000D01*
X6117886Y-7190000D02*
X5560000Y-7190000D01*
X3940000Y-6440000D02*
X5560000Y-6440000D01*
X5560000Y-6440000D02*
X5560000Y-14560000D01*
X8065000Y-7810000D02*
X7882114Y-7810000D01*
X3940000Y-7370000D02*
X-260000Y-7370000D01*
X-260000Y-11190000D02*
X-260000Y-11810000D01*
X8117886Y-11190000D02*
X7882114Y-11190000D01*
X3940000Y-7250000D02*
X-260000Y-7250000D01*
X-260000Y-7190000D02*
X-260000Y-7810000D01*
X3940000Y-7190000D02*
X-260000Y-7190000D01*
X3940000Y-11190000D02*
X-260000Y-11190000D01*
X-260000Y-13190000D02*
X-260000Y-13810000D01*
X3940000Y-7490000D02*
X-260000Y-7490000D01*
X3940000Y-13190000D02*
X-260000Y-13190000D01*
X8117886Y-13810000D02*
X7882114Y-13810000D01*
X6117886Y-9190000D02*
X5560000Y-9190000D01*
X6117886Y-13810000D02*
X5560000Y-13810000D01*
X10000000Y-6500000D02*
X9000000Y-6500000D01*
X3940000Y-14560000D02*
X3940000Y-6440000D01*
X5560000Y-14560000D02*
X3940000Y-14560000D01*
X6117886Y-7810000D02*
X5560000Y-7810000D01*
X5560000Y-8500000D02*
X3940000Y-8500000D01*
X3940000Y-9190000D02*
X-260000Y-9190000D01*
X8117886Y-9190000D02*
X7882114Y-9190000D01*
X5560000Y-12500000D02*
X3940000Y-12500000D01*
X-260000Y-13810000D02*
X3940000Y-13810000D01*
X-260000Y-7810000D02*
X3940000Y-7810000D01*
X-260000Y-11810000D02*
X3940000Y-11810000D01*
X6117886Y-9810000D02*
X5560000Y-9810000D01*
X8117886Y-11810000D02*
X7882114Y-11810000D01*
X10000000Y-7500000D02*
X10000000Y-6500000D01*
X-260000Y-9810000D02*
X3940000Y-9810000D01*
X-260000Y-9190000D02*
X-260000Y-9810000D01*
X8117886Y-13190000D02*
X7882114Y-13190000D01*
X6117886Y-11190000D02*
X5560000Y-11190000D01*
X6117886Y-11810000D02*
X5560000Y-11810000D01*
X5560000Y-10500000D02*
X3940000Y-10500000D01*
X8065000Y-7190000D02*
X7882114Y-7190000D01*
X6117886Y-13190000D02*
X5560000Y-13190000D01*
%TD*%
%LPC*%
D13*
%TO.C,REF\u002A\u002A*%
X14800000Y-14300000D03*
%TD*%
D14*
%TO.C,J1*%
X7000000Y-13500000D03*
X9000000Y-13500000D03*
X7000000Y-11500000D03*
X9000000Y-11500000D03*
X7000000Y-9500000D03*
X9000000Y-9500000D03*
X7000000Y-7500000D03*
D15*
X9000000Y-7500000D03*
%TD*%
D16*
%TO.C,J4*%
X22500000Y-1500000D03*
D17*
X22500000Y-5100000D03*
X22500000Y-8700000D03*
X22500000Y-12300000D03*
X22500000Y-15900000D03*
X22500000Y-19500000D03*
%TD*%
%LPD*%
M02*
