%TF.GenerationSoftware,KiCad,Pcbnew,7.0.7*%
%TF.CreationDate,2023-10-10T17:02:05+13:00*%
%TF.ProjectId,probeDaughterBoard,70726f62-6544-4617-9567-68746572426f,rev?*%
%TF.SameCoordinates,Original*%
%TF.FileFunction,Soldermask,Bot*%
%TF.FilePolarity,Negative*%
%FSLAX46Y46*%
G04 Gerber Fmt 4.6, Leading zero omitted, Abs format (unit mm)*
G04 Created by KiCad (PCBNEW 7.0.7) date 2023-10-10 17:02:05*
%MOMM*%
%LPD*%
G01*
G04 APERTURE LIST*
G04 APERTURE END LIST*
G36*
X42818685Y-11357969D02*
G01*
X42827893Y-11362034D01*
X42834724Y-11363030D01*
X42877422Y-11383903D01*
X42919541Y-11402501D01*
X42923441Y-11406401D01*
X42923801Y-11406577D01*
X42993422Y-11476198D01*
X42993597Y-11476557D01*
X42997499Y-11480459D01*
X43016100Y-11522588D01*
X43036969Y-11565275D01*
X43037963Y-11572103D01*
X43042031Y-11581315D01*
X43050000Y-11650000D01*
X43050000Y-12750000D01*
X43042031Y-12818685D01*
X43037963Y-12827896D01*
X43036969Y-12834724D01*
X43016105Y-12877401D01*
X42997499Y-12919541D01*
X42993597Y-12923442D01*
X42993422Y-12923801D01*
X42923801Y-12993422D01*
X42923442Y-12993597D01*
X42919541Y-12997499D01*
X42877401Y-13016105D01*
X42834724Y-13036969D01*
X42827896Y-13037963D01*
X42818685Y-13042031D01*
X42750000Y-13050000D01*
X41650000Y-13050000D01*
X41581315Y-13042031D01*
X41572103Y-13037963D01*
X41565275Y-13036969D01*
X41522588Y-13016100D01*
X41480459Y-12997499D01*
X41476557Y-12993597D01*
X41476198Y-12993422D01*
X41406577Y-12923801D01*
X41406401Y-12923441D01*
X41402501Y-12919541D01*
X41383903Y-12877422D01*
X41363030Y-12834724D01*
X41362034Y-12827893D01*
X41357969Y-12818685D01*
X41350000Y-12750000D01*
X41350000Y-11650000D01*
X41357969Y-11581315D01*
X41362034Y-11572107D01*
X41363030Y-11565275D01*
X41383908Y-11522567D01*
X41402501Y-11480459D01*
X41406400Y-11476559D01*
X41406577Y-11476198D01*
X41476198Y-11406577D01*
X41476559Y-11406400D01*
X41480459Y-11402501D01*
X41522567Y-11383908D01*
X41565275Y-11363030D01*
X41572107Y-11362034D01*
X41581315Y-11357969D01*
X41650000Y-11350000D01*
X42750000Y-11350000D01*
X42818685Y-11357969D01*
G37*
G36*
X24462664Y-11391602D02*
G01*
X24625000Y-11463878D01*
X24768761Y-11568327D01*
X24887664Y-11700383D01*
X24976514Y-11854274D01*
X25031425Y-12023275D01*
X25050000Y-12200000D01*
X25031425Y-12376725D01*
X24976514Y-12545726D01*
X24887664Y-12699617D01*
X24768761Y-12831673D01*
X24625000Y-12936122D01*
X24462664Y-13008398D01*
X24288849Y-13045344D01*
X24111151Y-13045344D01*
X23937336Y-13008398D01*
X23775000Y-12936122D01*
X23631239Y-12831673D01*
X23512336Y-12699617D01*
X23423486Y-12545726D01*
X23368575Y-12376725D01*
X23350000Y-12200000D01*
X23368575Y-12023275D01*
X23423486Y-11854274D01*
X23512336Y-11700383D01*
X23631239Y-11568327D01*
X23775000Y-11463878D01*
X23937336Y-11391602D01*
X24111151Y-11354656D01*
X24288849Y-11354656D01*
X24462664Y-11391602D01*
G37*
G36*
X28062664Y-11391602D02*
G01*
X28225000Y-11463878D01*
X28368761Y-11568327D01*
X28487664Y-11700383D01*
X28576514Y-11854274D01*
X28631425Y-12023275D01*
X28650000Y-12200000D01*
X28631425Y-12376725D01*
X28576514Y-12545726D01*
X28487664Y-12699617D01*
X28368761Y-12831673D01*
X28225000Y-12936122D01*
X28062664Y-13008398D01*
X27888849Y-13045344D01*
X27711151Y-13045344D01*
X27537336Y-13008398D01*
X27375000Y-12936122D01*
X27231239Y-12831673D01*
X27112336Y-12699617D01*
X27023486Y-12545726D01*
X26968575Y-12376725D01*
X26950000Y-12200000D01*
X26968575Y-12023275D01*
X27023486Y-11854274D01*
X27112336Y-11700383D01*
X27231239Y-11568327D01*
X27375000Y-11463878D01*
X27537336Y-11391602D01*
X27711151Y-11354656D01*
X27888849Y-11354656D01*
X28062664Y-11391602D01*
G37*
G36*
X31662664Y-11391602D02*
G01*
X31825000Y-11463878D01*
X31968761Y-11568327D01*
X32087664Y-11700383D01*
X32176514Y-11854274D01*
X32231425Y-12023275D01*
X32250000Y-12200000D01*
X32231425Y-12376725D01*
X32176514Y-12545726D01*
X32087664Y-12699617D01*
X31968761Y-12831673D01*
X31825000Y-12936122D01*
X31662664Y-13008398D01*
X31488849Y-13045344D01*
X31311151Y-13045344D01*
X31137336Y-13008398D01*
X30975000Y-12936122D01*
X30831239Y-12831673D01*
X30712336Y-12699617D01*
X30623486Y-12545726D01*
X30568575Y-12376725D01*
X30550000Y-12200000D01*
X30568575Y-12023275D01*
X30623486Y-11854274D01*
X30712336Y-11700383D01*
X30831239Y-11568327D01*
X30975000Y-11463878D01*
X31137336Y-11391602D01*
X31311151Y-11354656D01*
X31488849Y-11354656D01*
X31662664Y-11391602D01*
G37*
G36*
X35262664Y-11391602D02*
G01*
X35425000Y-11463878D01*
X35568761Y-11568327D01*
X35687664Y-11700383D01*
X35776514Y-11854274D01*
X35831425Y-12023275D01*
X35850000Y-12200000D01*
X35831425Y-12376725D01*
X35776514Y-12545726D01*
X35687664Y-12699617D01*
X35568761Y-12831673D01*
X35425000Y-12936122D01*
X35262664Y-13008398D01*
X35088849Y-13045344D01*
X34911151Y-13045344D01*
X34737336Y-13008398D01*
X34575000Y-12936122D01*
X34431239Y-12831673D01*
X34312336Y-12699617D01*
X34223486Y-12545726D01*
X34168575Y-12376725D01*
X34150000Y-12200000D01*
X34168575Y-12023275D01*
X34223486Y-11854274D01*
X34312336Y-11700383D01*
X34431239Y-11568327D01*
X34575000Y-11463878D01*
X34737336Y-11391602D01*
X34911151Y-11354656D01*
X35088849Y-11354656D01*
X35262664Y-11391602D01*
G37*
G36*
X38862664Y-11391602D02*
G01*
X39025000Y-11463878D01*
X39168761Y-11568327D01*
X39287664Y-11700383D01*
X39376514Y-11854274D01*
X39431425Y-12023275D01*
X39450000Y-12200000D01*
X39431425Y-12376725D01*
X39376514Y-12545726D01*
X39287664Y-12699617D01*
X39168761Y-12831673D01*
X39025000Y-12936122D01*
X38862664Y-13008398D01*
X38688849Y-13045344D01*
X38511151Y-13045344D01*
X38337336Y-13008398D01*
X38175000Y-12936122D01*
X38031239Y-12831673D01*
X37912336Y-12699617D01*
X37823486Y-12545726D01*
X37768575Y-12376725D01*
X37750000Y-12200000D01*
X37768575Y-12023275D01*
X37823486Y-11854274D01*
X37912336Y-11700383D01*
X38031239Y-11568327D01*
X38175000Y-11463878D01*
X38337336Y-11391602D01*
X38511151Y-11354656D01*
X38688849Y-11354656D01*
X38862664Y-11391602D01*
G37*
G36*
X7713412Y-9854739D02*
G01*
X7753349Y-9854739D01*
X7786978Y-9863027D01*
X7819543Y-9866697D01*
X7861669Y-9881437D01*
X7905493Y-9892239D01*
X7931406Y-9905839D01*
X7956849Y-9914742D01*
X7999851Y-9941762D01*
X8044242Y-9965060D01*
X8062078Y-9980861D01*
X8080012Y-9992130D01*
X8120506Y-10032624D01*
X8161532Y-10068970D01*
X8171960Y-10084078D01*
X8182869Y-10094987D01*
X8217163Y-10149567D01*
X8250546Y-10197930D01*
X8255104Y-10209949D01*
X8260257Y-10218150D01*
X8284617Y-10287767D01*
X8306112Y-10344445D01*
X8306995Y-10351722D01*
X8308302Y-10355456D01*
X8319283Y-10452923D01*
X8325000Y-10500000D01*
X8319283Y-10547080D01*
X8308302Y-10644543D01*
X8306995Y-10648275D01*
X8306112Y-10655555D01*
X8284612Y-10712244D01*
X8260257Y-10781849D01*
X8255105Y-10790047D01*
X8250546Y-10802070D01*
X8217156Y-10850442D01*
X8182869Y-10905012D01*
X8171962Y-10915918D01*
X8161532Y-10931030D01*
X8120498Y-10967382D01*
X8080012Y-11007869D01*
X8062082Y-11019135D01*
X8044242Y-11034940D01*
X7999841Y-11058243D01*
X7956849Y-11085257D01*
X7931411Y-11094157D01*
X7905493Y-11107761D01*
X7861659Y-11118564D01*
X7819543Y-11133302D01*
X7786986Y-11136970D01*
X7753349Y-11145261D01*
X7713403Y-11145261D01*
X7674999Y-11149588D01*
X7636596Y-11145261D01*
X7596651Y-11145261D01*
X7563015Y-11136970D01*
X7530456Y-11133302D01*
X7488337Y-11118564D01*
X7444507Y-11107761D01*
X7418590Y-11094158D01*
X7393150Y-11085257D01*
X7350152Y-11058239D01*
X7305758Y-11034940D01*
X7287920Y-11019137D01*
X7269987Y-11007869D01*
X7229493Y-10967375D01*
X7188468Y-10931030D01*
X7178039Y-10915921D01*
X7167130Y-10905012D01*
X7132832Y-10850426D01*
X7099454Y-10802070D01*
X7094896Y-10790051D01*
X7089742Y-10781849D01*
X7065374Y-10712210D01*
X7043888Y-10655555D01*
X7043004Y-10648280D01*
X7041697Y-10644543D01*
X7030702Y-10546966D01*
X7025000Y-10500000D01*
X7030702Y-10453037D01*
X7041697Y-10355456D01*
X7043004Y-10351718D01*
X7043888Y-10344445D01*
X7065370Y-10287801D01*
X7089742Y-10218150D01*
X7094896Y-10209945D01*
X7099454Y-10197930D01*
X7132825Y-10149583D01*
X7167130Y-10094987D01*
X7178041Y-10084075D01*
X7188468Y-10068970D01*
X7229484Y-10032632D01*
X7269987Y-9992130D01*
X7287924Y-9980859D01*
X7305758Y-9965060D01*
X7350142Y-9941765D01*
X7393150Y-9914742D01*
X7418595Y-9905838D01*
X7444507Y-9892239D01*
X7488327Y-9881438D01*
X7530456Y-9866697D01*
X7563022Y-9863027D01*
X7596651Y-9854739D01*
X7636587Y-9854739D01*
X7675000Y-9850411D01*
X7713412Y-9854739D01*
G37*
G36*
X9713412Y-9854739D02*
G01*
X9753349Y-9854739D01*
X9786978Y-9863027D01*
X9819543Y-9866697D01*
X9861669Y-9881437D01*
X9905493Y-9892239D01*
X9931406Y-9905839D01*
X9956849Y-9914742D01*
X9999851Y-9941762D01*
X10044242Y-9965060D01*
X10062078Y-9980861D01*
X10080012Y-9992130D01*
X10120506Y-10032624D01*
X10161532Y-10068970D01*
X10171960Y-10084078D01*
X10182869Y-10094987D01*
X10217163Y-10149567D01*
X10250546Y-10197930D01*
X10255104Y-10209949D01*
X10260257Y-10218150D01*
X10284617Y-10287767D01*
X10306112Y-10344445D01*
X10306995Y-10351722D01*
X10308302Y-10355456D01*
X10319283Y-10452923D01*
X10325000Y-10500000D01*
X10319283Y-10547080D01*
X10308302Y-10644543D01*
X10306995Y-10648275D01*
X10306112Y-10655555D01*
X10284612Y-10712244D01*
X10260257Y-10781849D01*
X10255105Y-10790047D01*
X10250546Y-10802070D01*
X10217156Y-10850442D01*
X10182869Y-10905012D01*
X10171962Y-10915918D01*
X10161532Y-10931030D01*
X10120498Y-10967382D01*
X10080012Y-11007869D01*
X10062082Y-11019135D01*
X10044242Y-11034940D01*
X9999841Y-11058243D01*
X9956849Y-11085257D01*
X9931411Y-11094157D01*
X9905493Y-11107761D01*
X9861659Y-11118564D01*
X9819543Y-11133302D01*
X9786986Y-11136970D01*
X9753349Y-11145261D01*
X9713403Y-11145261D01*
X9674999Y-11149588D01*
X9636596Y-11145261D01*
X9596651Y-11145261D01*
X9563015Y-11136970D01*
X9530456Y-11133302D01*
X9488337Y-11118564D01*
X9444507Y-11107761D01*
X9418590Y-11094158D01*
X9393150Y-11085257D01*
X9350152Y-11058239D01*
X9305758Y-11034940D01*
X9287920Y-11019137D01*
X9269987Y-11007869D01*
X9229493Y-10967375D01*
X9188468Y-10931030D01*
X9178039Y-10915921D01*
X9167130Y-10905012D01*
X9132832Y-10850426D01*
X9099454Y-10802070D01*
X9094896Y-10790051D01*
X9089742Y-10781849D01*
X9065374Y-10712210D01*
X9043888Y-10655555D01*
X9043004Y-10648280D01*
X9041697Y-10644543D01*
X9030702Y-10546966D01*
X9025000Y-10500000D01*
X9030702Y-10453037D01*
X9041697Y-10355456D01*
X9043004Y-10351718D01*
X9043888Y-10344445D01*
X9065370Y-10287801D01*
X9089742Y-10218150D01*
X9094896Y-10209945D01*
X9099454Y-10197930D01*
X9132825Y-10149583D01*
X9167130Y-10094987D01*
X9178041Y-10084075D01*
X9188468Y-10068970D01*
X9229484Y-10032632D01*
X9269987Y-9992130D01*
X9287924Y-9980859D01*
X9305758Y-9965060D01*
X9350142Y-9941765D01*
X9393150Y-9914742D01*
X9418595Y-9905838D01*
X9444507Y-9892239D01*
X9488327Y-9881438D01*
X9530456Y-9866697D01*
X9563022Y-9863027D01*
X9596651Y-9854739D01*
X9636587Y-9854739D01*
X9675000Y-9850411D01*
X9713412Y-9854739D01*
G37*
G36*
X7713412Y-7854739D02*
G01*
X7753349Y-7854739D01*
X7786978Y-7863027D01*
X7819543Y-7866697D01*
X7861669Y-7881437D01*
X7905493Y-7892239D01*
X7931406Y-7905839D01*
X7956849Y-7914742D01*
X7999851Y-7941762D01*
X8044242Y-7965060D01*
X8062078Y-7980861D01*
X8080012Y-7992130D01*
X8120506Y-8032624D01*
X8161532Y-8068970D01*
X8171960Y-8084078D01*
X8182869Y-8094987D01*
X8217163Y-8149567D01*
X8250546Y-8197930D01*
X8255104Y-8209949D01*
X8260257Y-8218150D01*
X8284617Y-8287767D01*
X8306112Y-8344445D01*
X8306995Y-8351722D01*
X8308302Y-8355456D01*
X8319283Y-8452923D01*
X8325000Y-8500000D01*
X8319283Y-8547080D01*
X8308302Y-8644543D01*
X8306995Y-8648275D01*
X8306112Y-8655555D01*
X8284612Y-8712244D01*
X8260257Y-8781849D01*
X8255105Y-8790047D01*
X8250546Y-8802070D01*
X8217156Y-8850442D01*
X8182869Y-8905012D01*
X8171962Y-8915918D01*
X8161532Y-8931030D01*
X8120498Y-8967382D01*
X8080012Y-9007869D01*
X8062082Y-9019135D01*
X8044242Y-9034940D01*
X7999841Y-9058243D01*
X7956849Y-9085257D01*
X7931411Y-9094157D01*
X7905493Y-9107761D01*
X7861659Y-9118564D01*
X7819543Y-9133302D01*
X7786985Y-9136970D01*
X7753349Y-9145261D01*
X7713403Y-9145261D01*
X7675000Y-9149588D01*
X7636596Y-9145261D01*
X7596651Y-9145261D01*
X7563014Y-9136970D01*
X7530456Y-9133302D01*
X7488337Y-9118564D01*
X7444507Y-9107761D01*
X7418590Y-9094158D01*
X7393150Y-9085257D01*
X7350152Y-9058239D01*
X7305758Y-9034940D01*
X7287920Y-9019137D01*
X7269987Y-9007869D01*
X7229493Y-8967375D01*
X7188468Y-8931030D01*
X7178039Y-8915921D01*
X7167130Y-8905012D01*
X7132832Y-8850426D01*
X7099454Y-8802070D01*
X7094896Y-8790051D01*
X7089742Y-8781849D01*
X7065374Y-8712210D01*
X7043888Y-8655555D01*
X7043004Y-8648280D01*
X7041697Y-8644543D01*
X7030702Y-8546966D01*
X7025000Y-8500000D01*
X7030702Y-8453037D01*
X7041697Y-8355456D01*
X7043004Y-8351718D01*
X7043888Y-8344445D01*
X7065370Y-8287801D01*
X7089742Y-8218150D01*
X7094896Y-8209945D01*
X7099454Y-8197930D01*
X7132825Y-8149583D01*
X7167130Y-8094987D01*
X7178041Y-8084075D01*
X7188468Y-8068970D01*
X7229484Y-8032632D01*
X7269987Y-7992130D01*
X7287924Y-7980859D01*
X7305758Y-7965060D01*
X7350142Y-7941765D01*
X7393150Y-7914742D01*
X7418595Y-7905838D01*
X7444507Y-7892239D01*
X7488327Y-7881438D01*
X7530456Y-7866697D01*
X7563022Y-7863027D01*
X7596651Y-7854739D01*
X7636587Y-7854739D01*
X7675000Y-7850411D01*
X7713412Y-7854739D01*
G37*
G36*
X9713412Y-7854739D02*
G01*
X9753349Y-7854739D01*
X9786978Y-7863027D01*
X9819543Y-7866697D01*
X9861669Y-7881437D01*
X9905493Y-7892239D01*
X9931406Y-7905839D01*
X9956849Y-7914742D01*
X9999851Y-7941762D01*
X10044242Y-7965060D01*
X10062078Y-7980861D01*
X10080012Y-7992130D01*
X10120506Y-8032624D01*
X10161532Y-8068970D01*
X10171960Y-8084078D01*
X10182869Y-8094987D01*
X10217163Y-8149567D01*
X10250546Y-8197930D01*
X10255104Y-8209949D01*
X10260257Y-8218150D01*
X10284617Y-8287767D01*
X10306112Y-8344445D01*
X10306995Y-8351722D01*
X10308302Y-8355456D01*
X10319283Y-8452923D01*
X10325000Y-8500000D01*
X10319283Y-8547080D01*
X10308302Y-8644543D01*
X10306995Y-8648275D01*
X10306112Y-8655555D01*
X10284612Y-8712244D01*
X10260257Y-8781849D01*
X10255105Y-8790047D01*
X10250546Y-8802070D01*
X10217156Y-8850442D01*
X10182869Y-8905012D01*
X10171962Y-8915918D01*
X10161532Y-8931030D01*
X10120498Y-8967382D01*
X10080012Y-9007869D01*
X10062082Y-9019135D01*
X10044242Y-9034940D01*
X9999841Y-9058243D01*
X9956849Y-9085257D01*
X9931411Y-9094157D01*
X9905493Y-9107761D01*
X9861659Y-9118564D01*
X9819543Y-9133302D01*
X9786985Y-9136970D01*
X9753349Y-9145261D01*
X9713403Y-9145261D01*
X9675000Y-9149588D01*
X9636596Y-9145261D01*
X9596651Y-9145261D01*
X9563014Y-9136970D01*
X9530456Y-9133302D01*
X9488337Y-9118564D01*
X9444507Y-9107761D01*
X9418590Y-9094158D01*
X9393150Y-9085257D01*
X9350152Y-9058239D01*
X9305758Y-9034940D01*
X9287920Y-9019137D01*
X9269987Y-9007869D01*
X9229493Y-8967375D01*
X9188468Y-8931030D01*
X9178039Y-8915921D01*
X9167130Y-8905012D01*
X9132832Y-8850426D01*
X9099454Y-8802070D01*
X9094896Y-8790051D01*
X9089742Y-8781849D01*
X9065374Y-8712210D01*
X9043888Y-8655555D01*
X9043004Y-8648280D01*
X9041697Y-8644543D01*
X9030702Y-8546966D01*
X9025000Y-8500000D01*
X9030702Y-8453037D01*
X9041697Y-8355456D01*
X9043004Y-8351718D01*
X9043888Y-8344445D01*
X9065370Y-8287801D01*
X9089742Y-8218150D01*
X9094896Y-8209945D01*
X9099454Y-8197930D01*
X9132825Y-8149583D01*
X9167130Y-8094987D01*
X9178041Y-8084075D01*
X9188468Y-8068970D01*
X9229484Y-8032632D01*
X9269987Y-7992130D01*
X9287924Y-7980859D01*
X9305758Y-7965060D01*
X9350142Y-7941765D01*
X9393150Y-7914742D01*
X9418595Y-7905838D01*
X9444507Y-7892239D01*
X9488327Y-7881438D01*
X9530456Y-7866697D01*
X9563022Y-7863027D01*
X9596651Y-7854739D01*
X9636587Y-7854739D01*
X9675000Y-7850411D01*
X9713412Y-7854739D01*
G37*
G36*
X23968684Y-6707969D02*
G01*
X23977891Y-6712034D01*
X23984724Y-6713030D01*
X24027431Y-6733908D01*
X24069540Y-6752501D01*
X24073439Y-6756400D01*
X24073801Y-6756577D01*
X24143422Y-6826198D01*
X24143598Y-6826559D01*
X24147499Y-6830460D01*
X24166096Y-6872578D01*
X24186969Y-6915275D01*
X24187964Y-6922105D01*
X24192031Y-6931316D01*
X24199999Y-7000002D01*
X24199999Y-7004704D01*
X24200000Y-7004711D01*
X24200000Y-7850411D01*
X24200000Y-8599999D01*
X24192031Y-8668684D01*
X24187964Y-8677894D01*
X24186969Y-8684724D01*
X24166100Y-8727410D01*
X24147499Y-8769540D01*
X24143597Y-8773441D01*
X24143422Y-8773801D01*
X24073801Y-8843422D01*
X24073441Y-8843597D01*
X24069540Y-8847499D01*
X24027410Y-8866100D01*
X23984724Y-8886969D01*
X23977894Y-8887964D01*
X23968684Y-8892031D01*
X23899998Y-8899999D01*
X23895294Y-8899999D01*
X23895288Y-8900000D01*
X22304712Y-8900000D01*
X22304711Y-8899999D01*
X22300001Y-8900000D01*
X22231316Y-8892031D01*
X22222105Y-8887964D01*
X22215275Y-8886969D01*
X22172578Y-8866096D01*
X22130460Y-8847499D01*
X22126559Y-8843598D01*
X22126198Y-8843422D01*
X22056577Y-8773801D01*
X22056400Y-8773439D01*
X22052501Y-8769540D01*
X22033908Y-8727431D01*
X22013030Y-8684724D01*
X22012034Y-8677891D01*
X22007969Y-8668684D01*
X22000001Y-8599998D01*
X22000000Y-8595294D01*
X22000000Y-8595288D01*
X22000000Y-7004711D01*
X22000000Y-7004710D01*
X22000000Y-7000001D01*
X22007969Y-6931316D01*
X22012034Y-6922108D01*
X22013030Y-6915275D01*
X22033913Y-6872557D01*
X22052501Y-6830460D01*
X22056399Y-6826561D01*
X22056577Y-6826198D01*
X22126198Y-6756577D01*
X22126561Y-6756399D01*
X22130460Y-6752501D01*
X22172557Y-6733913D01*
X22215275Y-6713030D01*
X22222108Y-6712034D01*
X22231316Y-6707969D01*
X22300002Y-6700001D01*
X22304705Y-6700000D01*
X22304712Y-6700000D01*
X23895288Y-6700000D01*
X23899999Y-6700000D01*
X23968684Y-6707969D01*
G37*
G36*
X27334133Y-7503806D02*
G01*
X27350354Y-7514645D01*
X27361193Y-7530866D01*
X27364999Y-7550000D01*
X27364999Y-8100000D01*
X27361193Y-8119134D01*
X27360064Y-8120821D01*
X27359910Y-8122390D01*
X27359910Y-8166510D01*
X27359910Y-8171157D01*
X27357885Y-8185244D01*
X27317790Y-8321795D01*
X27311878Y-8334740D01*
X27234937Y-8454462D01*
X27225617Y-8465217D01*
X27118062Y-8558414D01*
X27106090Y-8566109D01*
X26976636Y-8625228D01*
X26962981Y-8629237D01*
X26822115Y-8649491D01*
X26814999Y-8650000D01*
X26812680Y-8650000D01*
X26317318Y-8650000D01*
X26314999Y-8650000D01*
X26307883Y-8649491D01*
X26167017Y-8629237D01*
X26153362Y-8625228D01*
X26023908Y-8566109D01*
X26011936Y-8558414D01*
X25986939Y-8536754D01*
X25907897Y-8468264D01*
X25907895Y-8468262D01*
X25904381Y-8465217D01*
X25895061Y-8454462D01*
X25818120Y-8334740D01*
X25812208Y-8321795D01*
X25810897Y-8317333D01*
X25810896Y-8317329D01*
X25773422Y-8189702D01*
X25772113Y-8185244D01*
X25770088Y-8171157D01*
X25770088Y-8122389D01*
X25769933Y-8120823D01*
X25768805Y-8119134D01*
X25764999Y-8100000D01*
X25764999Y-7550000D01*
X25768805Y-7530866D01*
X25779644Y-7514645D01*
X25795865Y-7503806D01*
X25814999Y-7500000D01*
X27314999Y-7500000D01*
X27334133Y-7503806D01*
G37*
G36*
X30134133Y-7503806D02*
G01*
X30150354Y-7514645D01*
X30161193Y-7530866D01*
X30164999Y-7550000D01*
X30164999Y-8100000D01*
X30161193Y-8119134D01*
X30160063Y-8120823D01*
X30159909Y-8122389D01*
X30159910Y-8171157D01*
X30157885Y-8185244D01*
X30117790Y-8321795D01*
X30111878Y-8334740D01*
X30034937Y-8454462D01*
X30025617Y-8465217D01*
X29918062Y-8558414D01*
X29906090Y-8566109D01*
X29776636Y-8625228D01*
X29762981Y-8629237D01*
X29622115Y-8649491D01*
X29614999Y-8650000D01*
X29612680Y-8650000D01*
X29117318Y-8650000D01*
X29114999Y-8650000D01*
X29107883Y-8649491D01*
X28967017Y-8629237D01*
X28953362Y-8625228D01*
X28823908Y-8566109D01*
X28811936Y-8558414D01*
X28786939Y-8536754D01*
X28707897Y-8468264D01*
X28707895Y-8468262D01*
X28704381Y-8465217D01*
X28695061Y-8454462D01*
X28618120Y-8334740D01*
X28612208Y-8321795D01*
X28610897Y-8317333D01*
X28610896Y-8317329D01*
X28573422Y-8189702D01*
X28572113Y-8185244D01*
X28570088Y-8171157D01*
X28570088Y-8122389D01*
X28569933Y-8120823D01*
X28568805Y-8119134D01*
X28564999Y-8100000D01*
X28564999Y-7550000D01*
X28568805Y-7530866D01*
X28579644Y-7514645D01*
X28595865Y-7503806D01*
X28614999Y-7500000D01*
X30114999Y-7500000D01*
X30134133Y-7503806D01*
G37*
G36*
X32934133Y-7503806D02*
G01*
X32950354Y-7514645D01*
X32961193Y-7530866D01*
X32964999Y-7550000D01*
X32964999Y-8100000D01*
X32961193Y-8119134D01*
X32960063Y-8120823D01*
X32959909Y-8122389D01*
X32959910Y-8171157D01*
X32957885Y-8185244D01*
X32917790Y-8321795D01*
X32911878Y-8334740D01*
X32834937Y-8454462D01*
X32825617Y-8465217D01*
X32718062Y-8558414D01*
X32706090Y-8566109D01*
X32576636Y-8625228D01*
X32562981Y-8629237D01*
X32422115Y-8649491D01*
X32414999Y-8650000D01*
X32412680Y-8650000D01*
X31917318Y-8650000D01*
X31914999Y-8650000D01*
X31907883Y-8649491D01*
X31767017Y-8629237D01*
X31753362Y-8625228D01*
X31623908Y-8566109D01*
X31611936Y-8558414D01*
X31586939Y-8536754D01*
X31507897Y-8468264D01*
X31507895Y-8468262D01*
X31504381Y-8465217D01*
X31495061Y-8454462D01*
X31418120Y-8334740D01*
X31412208Y-8321795D01*
X31410897Y-8317333D01*
X31410896Y-8317329D01*
X31373422Y-8189702D01*
X31372113Y-8185244D01*
X31370088Y-8171157D01*
X31370088Y-8166516D01*
X31370087Y-8166510D01*
X31370087Y-8122389D01*
X31369932Y-8120821D01*
X31368805Y-8119134D01*
X31364999Y-8100000D01*
X31364999Y-7550000D01*
X31368805Y-7530866D01*
X31379644Y-7514645D01*
X31395865Y-7503806D01*
X31414999Y-7500000D01*
X32914999Y-7500000D01*
X32934133Y-7503806D01*
G37*
G36*
X27334133Y-6253806D02*
G01*
X27350354Y-6264645D01*
X27361193Y-6280866D01*
X27364999Y-6300000D01*
X27364999Y-7300000D01*
X27361193Y-7319134D01*
X27350354Y-7335355D01*
X27334133Y-7346194D01*
X27314999Y-7350000D01*
X25814999Y-7350000D01*
X25795865Y-7346194D01*
X25779644Y-7335355D01*
X25768805Y-7319134D01*
X25764999Y-7300000D01*
X25764999Y-6300000D01*
X25768805Y-6280866D01*
X25779644Y-6264645D01*
X25795865Y-6253806D01*
X25814999Y-6250000D01*
X27314999Y-6250000D01*
X27334133Y-6253806D01*
G37*
G36*
X30134133Y-6253806D02*
G01*
X30150354Y-6264645D01*
X30161193Y-6280866D01*
X30164999Y-6300000D01*
X30164999Y-7300000D01*
X30161193Y-7319134D01*
X30150354Y-7335355D01*
X30134133Y-7346194D01*
X30114999Y-7350000D01*
X28614999Y-7350000D01*
X28595865Y-7346194D01*
X28579644Y-7335355D01*
X28568805Y-7319134D01*
X28564999Y-7300000D01*
X28564999Y-6300000D01*
X28568805Y-6280866D01*
X28579644Y-6264645D01*
X28595865Y-6253806D01*
X28614999Y-6250000D01*
X30114999Y-6250000D01*
X30134133Y-6253806D01*
G37*
G36*
X32934133Y-6253806D02*
G01*
X32950354Y-6264645D01*
X32961193Y-6280866D01*
X32964999Y-6300000D01*
X32964999Y-7300000D01*
X32961193Y-7319134D01*
X32950354Y-7335355D01*
X32934133Y-7346194D01*
X32914999Y-7350000D01*
X31414999Y-7350000D01*
X31395865Y-7346194D01*
X31379644Y-7335355D01*
X31368805Y-7319134D01*
X31364999Y-7300000D01*
X31364999Y-6300000D01*
X31368805Y-6280866D01*
X31379644Y-6264645D01*
X31395865Y-6253806D01*
X31414999Y-6250000D01*
X32914999Y-6250000D01*
X32934133Y-6253806D01*
G37*
G36*
X7713412Y-5854739D02*
G01*
X7753349Y-5854739D01*
X7786978Y-5863027D01*
X7819543Y-5866697D01*
X7861669Y-5881437D01*
X7905493Y-5892239D01*
X7931406Y-5905839D01*
X7956849Y-5914742D01*
X7999851Y-5941762D01*
X8044242Y-5965060D01*
X8062078Y-5980861D01*
X8080012Y-5992130D01*
X8120506Y-6032624D01*
X8161532Y-6068970D01*
X8171960Y-6084078D01*
X8182869Y-6094987D01*
X8217163Y-6149567D01*
X8250546Y-6197930D01*
X8255104Y-6209949D01*
X8260257Y-6218150D01*
X8284617Y-6287767D01*
X8306112Y-6344445D01*
X8306995Y-6351722D01*
X8308302Y-6355456D01*
X8319283Y-6452923D01*
X8325000Y-6500000D01*
X8319283Y-6547080D01*
X8308302Y-6644543D01*
X8306995Y-6648275D01*
X8306112Y-6655555D01*
X8284612Y-6712244D01*
X8260257Y-6781849D01*
X8255105Y-6790047D01*
X8250546Y-6802070D01*
X8217156Y-6850442D01*
X8182869Y-6905012D01*
X8171962Y-6915918D01*
X8161532Y-6931030D01*
X8120498Y-6967382D01*
X8080012Y-7007869D01*
X8062082Y-7019135D01*
X8044242Y-7034940D01*
X7999841Y-7058243D01*
X7956849Y-7085257D01*
X7931411Y-7094157D01*
X7905493Y-7107761D01*
X7861659Y-7118564D01*
X7819543Y-7133302D01*
X7786985Y-7136970D01*
X7753349Y-7145261D01*
X7713403Y-7145261D01*
X7675000Y-7149588D01*
X7636596Y-7145261D01*
X7596651Y-7145261D01*
X7563014Y-7136970D01*
X7530456Y-7133302D01*
X7488337Y-7118564D01*
X7444507Y-7107761D01*
X7418590Y-7094158D01*
X7393150Y-7085257D01*
X7350152Y-7058239D01*
X7305758Y-7034940D01*
X7287920Y-7019137D01*
X7269987Y-7007869D01*
X7229493Y-6967375D01*
X7188468Y-6931030D01*
X7178039Y-6915921D01*
X7167130Y-6905012D01*
X7132832Y-6850426D01*
X7099454Y-6802070D01*
X7094896Y-6790051D01*
X7089742Y-6781849D01*
X7065374Y-6712210D01*
X7043888Y-6655555D01*
X7043004Y-6648280D01*
X7041697Y-6644543D01*
X7030702Y-6546966D01*
X7025000Y-6500000D01*
X7030702Y-6453037D01*
X7041697Y-6355456D01*
X7043004Y-6351718D01*
X7043888Y-6344445D01*
X7065370Y-6287801D01*
X7089742Y-6218150D01*
X7094896Y-6209945D01*
X7099454Y-6197930D01*
X7132825Y-6149583D01*
X7167130Y-6094987D01*
X7178041Y-6084075D01*
X7188468Y-6068970D01*
X7229484Y-6032632D01*
X7269987Y-5992130D01*
X7287924Y-5980859D01*
X7305758Y-5965060D01*
X7350142Y-5941765D01*
X7393150Y-5914742D01*
X7418595Y-5905838D01*
X7444507Y-5892239D01*
X7488327Y-5881438D01*
X7530456Y-5866697D01*
X7563022Y-5863027D01*
X7596651Y-5854739D01*
X7636587Y-5854739D01*
X7675000Y-5850411D01*
X7713412Y-5854739D01*
G37*
G36*
X9713412Y-5854739D02*
G01*
X9753349Y-5854739D01*
X9786978Y-5863027D01*
X9819543Y-5866697D01*
X9861669Y-5881437D01*
X9905493Y-5892239D01*
X9931406Y-5905839D01*
X9956849Y-5914742D01*
X9999851Y-5941762D01*
X10044242Y-5965060D01*
X10062078Y-5980861D01*
X10080012Y-5992130D01*
X10120506Y-6032624D01*
X10161532Y-6068970D01*
X10171960Y-6084078D01*
X10182869Y-6094987D01*
X10217163Y-6149567D01*
X10250546Y-6197930D01*
X10255104Y-6209949D01*
X10260257Y-6218150D01*
X10284617Y-6287767D01*
X10306112Y-6344445D01*
X10306995Y-6351722D01*
X10308302Y-6355456D01*
X10319283Y-6452923D01*
X10325000Y-6500000D01*
X10319283Y-6547080D01*
X10308302Y-6644543D01*
X10306995Y-6648275D01*
X10306112Y-6655555D01*
X10284612Y-6712244D01*
X10260257Y-6781849D01*
X10255105Y-6790047D01*
X10250546Y-6802070D01*
X10217156Y-6850442D01*
X10182869Y-6905012D01*
X10171962Y-6915918D01*
X10161532Y-6931030D01*
X10120498Y-6967382D01*
X10080012Y-7007869D01*
X10062082Y-7019135D01*
X10044242Y-7034940D01*
X9999841Y-7058243D01*
X9956849Y-7085257D01*
X9931411Y-7094157D01*
X9905493Y-7107761D01*
X9861659Y-7118564D01*
X9819543Y-7133302D01*
X9786985Y-7136970D01*
X9753349Y-7145261D01*
X9713403Y-7145261D01*
X9675000Y-7149588D01*
X9636596Y-7145261D01*
X9596651Y-7145261D01*
X9563014Y-7136970D01*
X9530456Y-7133302D01*
X9488337Y-7118564D01*
X9444507Y-7107761D01*
X9418590Y-7094158D01*
X9393150Y-7085257D01*
X9350152Y-7058239D01*
X9305758Y-7034940D01*
X9287920Y-7019137D01*
X9269987Y-7007869D01*
X9229493Y-6967375D01*
X9188468Y-6931030D01*
X9178039Y-6915921D01*
X9167130Y-6905012D01*
X9132832Y-6850426D01*
X9099454Y-6802070D01*
X9094896Y-6790051D01*
X9089742Y-6781849D01*
X9065374Y-6712210D01*
X9043888Y-6655555D01*
X9043004Y-6648280D01*
X9041697Y-6644543D01*
X9030702Y-6546966D01*
X9025000Y-6500000D01*
X9030702Y-6453037D01*
X9041697Y-6355456D01*
X9043004Y-6351718D01*
X9043888Y-6344445D01*
X9065370Y-6287801D01*
X9089742Y-6218150D01*
X9094896Y-6209945D01*
X9099454Y-6197930D01*
X9132825Y-6149583D01*
X9167130Y-6094987D01*
X9178041Y-6084075D01*
X9188468Y-6068970D01*
X9229484Y-6032632D01*
X9269987Y-5992130D01*
X9287924Y-5980859D01*
X9305758Y-5965060D01*
X9350142Y-5941765D01*
X9393150Y-5914742D01*
X9418595Y-5905838D01*
X9444507Y-5892239D01*
X9488327Y-5881438D01*
X9530456Y-5866697D01*
X9563022Y-5863027D01*
X9596651Y-5854739D01*
X9636587Y-5854739D01*
X9675000Y-5850411D01*
X9713412Y-5854739D01*
G37*
G36*
X26822115Y-4950509D02*
G01*
X26824408Y-4950838D01*
X26824412Y-4950839D01*
X26958380Y-4970101D01*
X26958383Y-4970101D01*
X26962981Y-4970763D01*
X26976636Y-4974772D01*
X26980864Y-4976703D01*
X27101858Y-5031958D01*
X27101859Y-5031959D01*
X27106090Y-5033891D01*
X27118062Y-5041586D01*
X27121574Y-5044629D01*
X27121575Y-5044630D01*
X27222100Y-5131735D01*
X27222101Y-5131737D01*
X27225617Y-5134783D01*
X27234937Y-5145538D01*
X27311878Y-5265260D01*
X27317790Y-5278205D01*
X27357885Y-5414756D01*
X27359910Y-5428843D01*
X27359909Y-5433487D01*
X27359910Y-5433488D01*
X27359910Y-5477609D01*
X27360064Y-5479177D01*
X27361193Y-5480866D01*
X27364999Y-5500000D01*
X27364999Y-6050000D01*
X27361193Y-6069134D01*
X27350354Y-6085355D01*
X27334133Y-6096194D01*
X27314999Y-6100000D01*
X27308597Y-6100000D01*
X25821401Y-6100000D01*
X25814999Y-6100000D01*
X25795865Y-6096194D01*
X25779644Y-6085355D01*
X25768805Y-6069134D01*
X25764999Y-6050000D01*
X25764999Y-5500000D01*
X25768805Y-5480866D01*
X25769933Y-5479176D01*
X25770088Y-5477609D01*
X25770088Y-5433488D01*
X25770088Y-5433487D01*
X25770088Y-5428843D01*
X25772113Y-5414756D01*
X25773422Y-5410297D01*
X25810896Y-5282670D01*
X25810898Y-5282664D01*
X25812208Y-5278205D01*
X25818120Y-5265260D01*
X25895061Y-5145538D01*
X25904381Y-5134783D01*
X25907892Y-5131740D01*
X25907897Y-5131735D01*
X26008422Y-5044630D01*
X26008426Y-5044627D01*
X26011936Y-5041586D01*
X26023908Y-5033891D01*
X26028134Y-5031960D01*
X26028139Y-5031958D01*
X26149133Y-4976703D01*
X26149134Y-4976702D01*
X26153362Y-4974772D01*
X26167017Y-4970763D01*
X26171612Y-4970102D01*
X26171617Y-4970101D01*
X26305585Y-4950839D01*
X26305590Y-4950838D01*
X26307883Y-4950509D01*
X26314999Y-4950000D01*
X26814999Y-4950000D01*
X26822115Y-4950509D01*
G37*
G36*
X29622115Y-4950509D02*
G01*
X29624408Y-4950838D01*
X29624412Y-4950839D01*
X29758380Y-4970101D01*
X29758383Y-4970101D01*
X29762981Y-4970763D01*
X29776636Y-4974772D01*
X29780864Y-4976703D01*
X29901858Y-5031958D01*
X29901859Y-5031959D01*
X29906090Y-5033891D01*
X29918062Y-5041586D01*
X29921574Y-5044629D01*
X29921575Y-5044630D01*
X30022100Y-5131735D01*
X30022101Y-5131737D01*
X30025617Y-5134783D01*
X30034937Y-5145538D01*
X30111878Y-5265260D01*
X30117790Y-5278205D01*
X30157885Y-5414756D01*
X30159910Y-5428843D01*
X30159909Y-5477609D01*
X30160063Y-5479175D01*
X30161193Y-5480866D01*
X30164999Y-5500000D01*
X30164999Y-6050000D01*
X30161193Y-6069134D01*
X30150354Y-6085355D01*
X30134133Y-6096194D01*
X30114999Y-6100000D01*
X30108597Y-6100000D01*
X28621401Y-6100000D01*
X28614999Y-6100000D01*
X28595865Y-6096194D01*
X28579644Y-6085355D01*
X28568805Y-6069134D01*
X28564999Y-6050000D01*
X28564999Y-5500000D01*
X28568805Y-5480866D01*
X28569933Y-5479176D01*
X28570088Y-5477609D01*
X28570088Y-5433488D01*
X28570088Y-5433487D01*
X28570088Y-5428843D01*
X28572113Y-5414756D01*
X28573422Y-5410297D01*
X28610896Y-5282670D01*
X28610898Y-5282664D01*
X28612208Y-5278205D01*
X28618120Y-5265260D01*
X28695061Y-5145538D01*
X28704381Y-5134783D01*
X28707892Y-5131740D01*
X28707897Y-5131735D01*
X28808422Y-5044630D01*
X28808426Y-5044627D01*
X28811936Y-5041586D01*
X28823908Y-5033891D01*
X28828134Y-5031960D01*
X28828139Y-5031958D01*
X28949133Y-4976703D01*
X28949134Y-4976702D01*
X28953362Y-4974772D01*
X28967017Y-4970763D01*
X28971612Y-4970102D01*
X28971617Y-4970101D01*
X29105585Y-4950839D01*
X29105590Y-4950838D01*
X29107883Y-4950509D01*
X29114999Y-4950000D01*
X29614999Y-4950000D01*
X29622115Y-4950509D01*
G37*
G36*
X32422115Y-4950509D02*
G01*
X32424408Y-4950838D01*
X32424412Y-4950839D01*
X32558380Y-4970101D01*
X32558383Y-4970101D01*
X32562981Y-4970763D01*
X32576636Y-4974772D01*
X32580864Y-4976703D01*
X32701858Y-5031958D01*
X32701859Y-5031959D01*
X32706090Y-5033891D01*
X32718062Y-5041586D01*
X32721574Y-5044629D01*
X32721575Y-5044630D01*
X32822100Y-5131735D01*
X32822101Y-5131737D01*
X32825617Y-5134783D01*
X32834937Y-5145538D01*
X32911878Y-5265260D01*
X32917790Y-5278205D01*
X32957885Y-5414756D01*
X32959910Y-5428843D01*
X32959909Y-5477609D01*
X32960063Y-5479175D01*
X32961193Y-5480866D01*
X32964999Y-5500000D01*
X32964999Y-6050000D01*
X32961193Y-6069134D01*
X32950354Y-6085355D01*
X32934133Y-6096194D01*
X32914999Y-6100000D01*
X32908597Y-6100000D01*
X31421401Y-6100000D01*
X31414999Y-6100000D01*
X31395865Y-6096194D01*
X31379644Y-6085355D01*
X31368805Y-6069134D01*
X31364999Y-6050000D01*
X31364999Y-5500000D01*
X31368805Y-5480866D01*
X31369932Y-5479177D01*
X31370087Y-5477610D01*
X31370087Y-5433489D01*
X31370088Y-5433482D01*
X31370088Y-5428843D01*
X31372113Y-5414756D01*
X31373422Y-5410297D01*
X31410896Y-5282670D01*
X31410898Y-5282664D01*
X31412208Y-5278205D01*
X31418120Y-5265260D01*
X31495061Y-5145538D01*
X31504381Y-5134783D01*
X31507892Y-5131740D01*
X31507897Y-5131735D01*
X31608422Y-5044630D01*
X31608426Y-5044627D01*
X31611936Y-5041586D01*
X31623908Y-5033891D01*
X31628134Y-5031960D01*
X31628139Y-5031958D01*
X31749133Y-4976703D01*
X31749134Y-4976702D01*
X31753362Y-4974772D01*
X31767017Y-4970763D01*
X31771612Y-4970102D01*
X31771617Y-4970101D01*
X31905585Y-4950839D01*
X31905590Y-4950838D01*
X31907883Y-4950509D01*
X31914999Y-4950000D01*
X32414999Y-4950000D01*
X32422115Y-4950509D01*
G37*
G36*
X7713412Y-3854739D02*
G01*
X7753349Y-3854739D01*
X7786978Y-3863027D01*
X7819543Y-3866697D01*
X7861669Y-3881437D01*
X7905493Y-3892239D01*
X7931406Y-3905839D01*
X7956849Y-3914742D01*
X7999851Y-3941762D01*
X8044242Y-3965060D01*
X8062078Y-3980861D01*
X8080012Y-3992130D01*
X8120506Y-4032624D01*
X8161532Y-4068970D01*
X8171960Y-4084078D01*
X8182869Y-4094987D01*
X8217163Y-4149567D01*
X8250546Y-4197930D01*
X8255104Y-4209949D01*
X8260257Y-4218150D01*
X8284617Y-4287767D01*
X8306112Y-4344445D01*
X8306995Y-4351722D01*
X8308302Y-4355456D01*
X8319283Y-4452923D01*
X8325000Y-4500000D01*
X8319283Y-4547080D01*
X8308302Y-4644543D01*
X8306995Y-4648275D01*
X8306112Y-4655555D01*
X8284612Y-4712244D01*
X8260257Y-4781849D01*
X8255105Y-4790047D01*
X8250546Y-4802070D01*
X8217156Y-4850442D01*
X8182869Y-4905012D01*
X8171962Y-4915918D01*
X8161532Y-4931030D01*
X8120498Y-4967382D01*
X8080012Y-5007869D01*
X8062082Y-5019135D01*
X8044242Y-5034940D01*
X7999841Y-5058243D01*
X7956849Y-5085257D01*
X7931411Y-5094157D01*
X7905493Y-5107761D01*
X7861659Y-5118564D01*
X7819543Y-5133302D01*
X7786985Y-5136970D01*
X7753349Y-5145261D01*
X7713403Y-5145261D01*
X7675000Y-5149588D01*
X7636596Y-5145261D01*
X7596651Y-5145261D01*
X7563014Y-5136970D01*
X7530456Y-5133302D01*
X7488337Y-5118564D01*
X7444507Y-5107761D01*
X7418590Y-5094158D01*
X7393150Y-5085257D01*
X7350152Y-5058239D01*
X7305758Y-5034940D01*
X7287920Y-5019137D01*
X7269987Y-5007869D01*
X7229493Y-4967375D01*
X7188468Y-4931030D01*
X7178039Y-4915921D01*
X7167130Y-4905012D01*
X7132832Y-4850426D01*
X7099454Y-4802070D01*
X7094896Y-4790051D01*
X7089742Y-4781849D01*
X7065374Y-4712210D01*
X7043888Y-4655555D01*
X7043004Y-4648280D01*
X7041697Y-4644543D01*
X7030702Y-4546966D01*
X7025000Y-4500000D01*
X7030702Y-4453037D01*
X7041697Y-4355456D01*
X7043004Y-4351718D01*
X7043888Y-4344445D01*
X7065370Y-4287801D01*
X7089742Y-4218150D01*
X7094896Y-4209945D01*
X7099454Y-4197930D01*
X7132825Y-4149583D01*
X7167130Y-4094987D01*
X7178041Y-4084075D01*
X7188468Y-4068970D01*
X7229484Y-4032632D01*
X7269987Y-3992130D01*
X7287924Y-3980859D01*
X7305758Y-3965060D01*
X7350142Y-3941765D01*
X7393150Y-3914742D01*
X7418595Y-3905838D01*
X7444507Y-3892239D01*
X7488327Y-3881438D01*
X7530456Y-3866697D01*
X7563022Y-3863027D01*
X7596651Y-3854739D01*
X7636587Y-3854739D01*
X7675000Y-3850411D01*
X7713412Y-3854739D01*
G37*
G36*
X9713412Y-3854739D02*
G01*
X9753349Y-3854739D01*
X9786978Y-3863027D01*
X9819543Y-3866697D01*
X9861669Y-3881437D01*
X9905493Y-3892239D01*
X9931406Y-3905839D01*
X9956849Y-3914742D01*
X9999851Y-3941762D01*
X10044242Y-3965060D01*
X10062078Y-3980861D01*
X10080012Y-3992130D01*
X10120506Y-4032624D01*
X10161532Y-4068970D01*
X10171960Y-4084078D01*
X10182869Y-4094987D01*
X10217163Y-4149567D01*
X10250546Y-4197930D01*
X10255104Y-4209949D01*
X10260257Y-4218150D01*
X10284617Y-4287767D01*
X10306112Y-4344445D01*
X10306995Y-4351722D01*
X10308302Y-4355456D01*
X10319283Y-4452923D01*
X10325000Y-4500000D01*
X10319283Y-4547080D01*
X10308302Y-4644543D01*
X10306995Y-4648275D01*
X10306112Y-4655555D01*
X10284612Y-4712244D01*
X10260257Y-4781849D01*
X10255105Y-4790047D01*
X10250546Y-4802070D01*
X10217156Y-4850442D01*
X10182869Y-4905012D01*
X10171962Y-4915918D01*
X10161532Y-4931030D01*
X10120498Y-4967382D01*
X10080012Y-5007869D01*
X10062082Y-5019135D01*
X10044242Y-5034940D01*
X9999841Y-5058243D01*
X9956849Y-5085257D01*
X9931411Y-5094157D01*
X9905493Y-5107761D01*
X9861659Y-5118564D01*
X9819543Y-5133302D01*
X9786985Y-5136970D01*
X9753349Y-5145261D01*
X9713403Y-5145261D01*
X9675000Y-5149588D01*
X9636596Y-5145261D01*
X9596651Y-5145261D01*
X9563014Y-5136970D01*
X9530456Y-5133302D01*
X9488337Y-5118564D01*
X9444507Y-5107761D01*
X9418590Y-5094158D01*
X9393150Y-5085257D01*
X9350152Y-5058239D01*
X9305758Y-5034940D01*
X9287920Y-5019137D01*
X9269987Y-5007869D01*
X9229493Y-4967375D01*
X9188468Y-4931030D01*
X9178039Y-4915921D01*
X9167130Y-4905012D01*
X9132832Y-4850426D01*
X9099454Y-4802070D01*
X9094896Y-4790051D01*
X9089742Y-4781849D01*
X9065374Y-4712210D01*
X9043888Y-4655555D01*
X9043004Y-4648280D01*
X9041697Y-4644543D01*
X9030702Y-4546966D01*
X9025000Y-4500000D01*
X9030702Y-4453037D01*
X9041697Y-4355456D01*
X9043004Y-4351718D01*
X9043888Y-4344445D01*
X9065370Y-4287801D01*
X9089742Y-4218150D01*
X9094896Y-4209945D01*
X9099454Y-4197930D01*
X9132825Y-4149583D01*
X9167130Y-4094987D01*
X9178041Y-4084075D01*
X9188468Y-4068970D01*
X9229484Y-4032632D01*
X9269987Y-3992130D01*
X9287924Y-3980859D01*
X9305758Y-3965060D01*
X9350142Y-3941765D01*
X9393150Y-3914742D01*
X9418595Y-3905838D01*
X9444507Y-3892239D01*
X9488327Y-3881438D01*
X9530456Y-3866697D01*
X9563022Y-3863027D01*
X9596651Y-3854739D01*
X9636587Y-3854739D01*
X9674999Y-3850411D01*
X9713412Y-3854739D01*
G37*
G36*
X23401029Y-2141992D02*
G01*
X23590312Y-2215320D01*
X23762898Y-2322181D01*
X23912910Y-2458935D01*
X24035239Y-2620925D01*
X24125719Y-2802634D01*
X24181270Y-2997876D01*
X24200000Y-3200000D01*
X24181270Y-3402124D01*
X24125719Y-3597366D01*
X24035239Y-3779075D01*
X23912910Y-3941065D01*
X23762898Y-4077819D01*
X23590312Y-4184680D01*
X23401029Y-4258008D01*
X23201495Y-4295308D01*
X22998505Y-4295308D01*
X22798971Y-4258008D01*
X22609688Y-4184680D01*
X22437102Y-4077819D01*
X22287090Y-3941065D01*
X22164761Y-3779075D01*
X22074281Y-3597366D01*
X22018730Y-3402124D01*
X22000000Y-3200000D01*
X22018730Y-2997876D01*
X22074281Y-2802634D01*
X22164761Y-2620925D01*
X22287090Y-2458935D01*
X22437102Y-2322181D01*
X22609688Y-2215320D01*
X22798971Y-2141992D01*
X22998505Y-2104692D01*
X23201495Y-2104692D01*
X23401029Y-2141992D01*
G37*
G36*
X37068684Y-907969D02*
G01*
X37077891Y-912034D01*
X37084724Y-913030D01*
X37127431Y-933908D01*
X37169540Y-952501D01*
X37173439Y-956400D01*
X37173801Y-956577D01*
X37243422Y-1026198D01*
X37243598Y-1026559D01*
X37247499Y-1030460D01*
X37266096Y-1072578D01*
X37286969Y-1115275D01*
X37287964Y-1122105D01*
X37292031Y-1131316D01*
X37299999Y-1200002D01*
X37299999Y-1204704D01*
X37300000Y-1204711D01*
X37300000Y-2104692D01*
X37300000Y-2799999D01*
X37292031Y-2868684D01*
X37287964Y-2877894D01*
X37286969Y-2884724D01*
X37266100Y-2927410D01*
X37247499Y-2969540D01*
X37243597Y-2973441D01*
X37243422Y-2973801D01*
X37173801Y-3043422D01*
X37173441Y-3043597D01*
X37169540Y-3047499D01*
X37127410Y-3066100D01*
X37084724Y-3086969D01*
X37077894Y-3087964D01*
X37068684Y-3092031D01*
X36999998Y-3099999D01*
X36995294Y-3099999D01*
X36995288Y-3100000D01*
X35404712Y-3100000D01*
X35404711Y-3099999D01*
X35400001Y-3100000D01*
X35331316Y-3092031D01*
X35322105Y-3087964D01*
X35315275Y-3086969D01*
X35272578Y-3066096D01*
X35230460Y-3047499D01*
X35226559Y-3043598D01*
X35226198Y-3043422D01*
X35156577Y-2973801D01*
X35156400Y-2973439D01*
X35152501Y-2969540D01*
X35133908Y-2927431D01*
X35113030Y-2884724D01*
X35112034Y-2877891D01*
X35107969Y-2868684D01*
X35100001Y-2799998D01*
X35100000Y-2795294D01*
X35100000Y-2795288D01*
X35100000Y-1204711D01*
X35100000Y-1204710D01*
X35100000Y-1200001D01*
X35107969Y-1131316D01*
X35112034Y-1122108D01*
X35113030Y-1115275D01*
X35133913Y-1072557D01*
X35152501Y-1030460D01*
X35156399Y-1026561D01*
X35156577Y-1026198D01*
X35226198Y-956577D01*
X35226561Y-956399D01*
X35230460Y-952501D01*
X35272557Y-933913D01*
X35315275Y-913030D01*
X35322108Y-912034D01*
X35331316Y-907969D01*
X35400002Y-900001D01*
X35404705Y-900000D01*
X35404712Y-900000D01*
X36995288Y-900000D01*
X36999999Y-900000D01*
X37068684Y-907969D01*
G37*
G36*
X27301029Y-941992D02*
G01*
X27490312Y-1015320D01*
X27662898Y-1122181D01*
X27812910Y-1258935D01*
X27935239Y-1420925D01*
X28025719Y-1602634D01*
X28081270Y-1797876D01*
X28100000Y-2000000D01*
X28081270Y-2202124D01*
X28025719Y-2397366D01*
X27935239Y-2579075D01*
X27812910Y-2741065D01*
X27662898Y-2877819D01*
X27490312Y-2984680D01*
X27301029Y-3058008D01*
X27101495Y-3095308D01*
X26898505Y-3095308D01*
X26698971Y-3058008D01*
X26509688Y-2984680D01*
X26337102Y-2877819D01*
X26187090Y-2741065D01*
X26064761Y-2579075D01*
X25974281Y-2397366D01*
X25918730Y-2202124D01*
X25900000Y-2000000D01*
X25918730Y-1797876D01*
X25974281Y-1602634D01*
X26064761Y-1420925D01*
X26187090Y-1258935D01*
X26337102Y-1122181D01*
X26509688Y-1015320D01*
X26698971Y-941992D01*
X26898505Y-904692D01*
X27101495Y-904692D01*
X27301029Y-941992D01*
G37*
G36*
X31901029Y-941992D02*
G01*
X32090312Y-1015320D01*
X32262898Y-1122181D01*
X32412910Y-1258935D01*
X32535239Y-1420925D01*
X32625719Y-1602634D01*
X32681270Y-1797876D01*
X32700000Y-2000000D01*
X32681270Y-2202124D01*
X32625719Y-2397366D01*
X32535239Y-2579075D01*
X32412910Y-2741065D01*
X32262898Y-2877819D01*
X32090312Y-2984680D01*
X31901029Y-3058008D01*
X31701495Y-3095308D01*
X31498505Y-3095308D01*
X31298971Y-3058008D01*
X31109688Y-2984680D01*
X30937102Y-2877819D01*
X30787090Y-2741065D01*
X30664761Y-2579075D01*
X30574281Y-2397366D01*
X30518730Y-2202124D01*
X30500000Y-2000000D01*
X30518730Y-1797876D01*
X30574281Y-1602634D01*
X30664761Y-1420925D01*
X30787090Y-1258935D01*
X30937102Y-1122181D01*
X31109688Y-1015320D01*
X31298971Y-941992D01*
X31498505Y-904692D01*
X31701495Y-904692D01*
X31901029Y-941992D01*
G37*
M02*
