%TF.GenerationSoftware,KiCad,Pcbnew,7.0.7*%
%TF.CreationDate,2023-11-14T13:36:37+13:00*%
%TF.ProjectId,probeDaughterBoard,70726f62-6544-4617-9567-68746572426f,rev?*%
%TF.SameCoordinates,Original*%
%TF.FileFunction,Paste,Top*%
%TF.FilePolarity,Positive*%
%FSLAX46Y46*%
G04 Gerber Fmt 4.6, Leading zero omitted, Abs format (unit mm)*
G04 Created by KiCad (PCBNEW 7.0.7) date 2023-11-14 13:36:37*
%MOMM*%
%LPD*%
G01*
G04 APERTURE LIST*
G04 Aperture macros list*
%AMRoundRect*
0 Rectangle with rounded corners*
0 $1 Rounding radius*
0 $2 $3 $4 $5 $6 $7 $8 $9 X,Y pos of 4 corners*
0 Add a 4 corners polygon primitive as box body*
4,1,4,$2,$3,$4,$5,$6,$7,$8,$9,$2,$3,0*
0 Add four circle primitives for the rounded corners*
1,1,$1+$1,$2,$3*
1,1,$1+$1,$4,$5*
1,1,$1+$1,$6,$7*
1,1,$1+$1,$8,$9*
0 Add four rect primitives between the rounded corners*
20,1,$1+$1,$2,$3,$4,$5,0*
20,1,$1+$1,$4,$5,$6,$7,0*
20,1,$1+$1,$6,$7,$8,$9,0*
20,1,$1+$1,$8,$9,$2,$3,0*%
G04 Aperture macros list end*
%ADD10RoundRect,0.135000X0.185000X-0.135000X0.185000X0.135000X-0.185000X0.135000X-0.185000X-0.135000X0*%
%ADD11RoundRect,0.043333X0.086667X0.681667X-0.086667X0.681667X-0.086667X-0.681667X0.086667X-0.681667X0*%
%ADD12RoundRect,0.135000X-0.135000X-0.185000X0.135000X-0.185000X0.135000X0.185000X-0.135000X0.185000X0*%
%ADD13RoundRect,0.135000X-0.185000X0.135000X-0.185000X-0.135000X0.185000X-0.135000X0.185000X0.135000X0*%
%ADD14RoundRect,0.250000X0.262500X0.450000X-0.262500X0.450000X-0.262500X-0.450000X0.262500X-0.450000X0*%
%ADD15RoundRect,0.043333X-0.681667X0.086667X-0.681667X-0.086667X0.681667X-0.086667X0.681667X0.086667X0*%
%ADD16RoundRect,0.100000X0.675000X-0.200000X0.675000X0.200000X-0.675000X0.200000X-0.675000X-0.200000X0*%
%ADD17RoundRect,0.150000X-0.325000X-0.350000X0.325000X-0.350000X0.325000X0.350000X-0.325000X0.350000X0*%
%ADD18RoundRect,0.200000X-0.200000X-0.275000X0.200000X-0.275000X0.200000X0.275000X-0.200000X0.275000X0*%
%ADD19RoundRect,0.100000X-0.200000X-0.675000X0.200000X-0.675000X0.200000X0.675000X-0.200000X0.675000X0*%
%ADD20O,1.950216X0.568402*%
%ADD21RoundRect,0.135000X0.135000X0.185000X-0.135000X0.185000X-0.135000X-0.185000X0.135000X-0.185000X0*%
G04 APERTURE END LIST*
D10*
%TO.C,C15*%
X15086700Y-16506200D03*
X15086700Y-17526200D03*
%TD*%
D11*
%TO.C,ADC2*%
X19431100Y-19517900D03*
X18930973Y-19517900D03*
X18431100Y-19517900D03*
X17930973Y-19517900D03*
X17431100Y-19517900D03*
X17431100Y-15117900D03*
X17930973Y-15117900D03*
X18431100Y-15117900D03*
X18930973Y-15117900D03*
X19431100Y-15117900D03*
%TD*%
D12*
%TO.C,C16*%
X16217200Y-7189200D03*
X15197200Y-7189200D03*
%TD*%
D10*
%TO.C,R1*%
X18436800Y-9420400D03*
X18436800Y-10440400D03*
%TD*%
D13*
%TO.C,R9*%
X20650800Y-12851500D03*
X20650800Y-11831500D03*
%TD*%
D12*
%TO.C,C9*%
X12779200Y-7189400D03*
X11759200Y-7189400D03*
%TD*%
D13*
%TO.C,R12*%
X9203300Y-15900400D03*
X9203300Y-14880400D03*
%TD*%
D14*
%TO.C,R3*%
X13493100Y-19046700D03*
X15318100Y-19046700D03*
%TD*%
D10*
%TO.C,R16*%
X4281600Y-8844900D03*
X4281600Y-9864900D03*
%TD*%
D12*
%TO.C,R13*%
X13667400Y-15590500D03*
X12647400Y-15590500D03*
%TD*%
D15*
%TO.C,ADC1*%
X6693000Y-4024800D03*
X6693000Y-4524927D03*
X6693000Y-5024800D03*
X6693000Y-5524927D03*
X6693000Y-6024800D03*
X2293000Y-6024800D03*
X2293000Y-5524927D03*
X2293000Y-5024800D03*
X2293000Y-4524927D03*
X2293000Y-4024800D03*
%TD*%
D16*
%TO.C,OP1*%
X11400000Y-13305000D03*
X11400000Y-12035000D03*
X11400000Y-10765000D03*
X11400000Y-9495000D03*
X16800000Y-9495000D03*
X16800000Y-10765000D03*
X16800000Y-12035000D03*
X16800000Y-13305000D03*
%TD*%
D10*
%TO.C,R11*%
X10293800Y-15603300D03*
X10293800Y-16623300D03*
%TD*%
%TO.C,C13*%
X16193300Y-15714900D03*
X16193300Y-16734900D03*
%TD*%
D17*
%TO.C,LED1*%
X1600000Y-1100000D03*
X3200000Y-1100000D03*
%TD*%
D18*
%TO.C,FB1*%
X20425000Y-1500000D03*
X18775000Y-1500000D03*
%TD*%
D12*
%TO.C,C6*%
X16408200Y-8279700D03*
X15388200Y-8279700D03*
%TD*%
%TO.C,C11*%
X5731900Y-7245300D03*
X4711900Y-7245300D03*
%TD*%
D10*
%TO.C,C14*%
X14800000Y-14490000D03*
X14800000Y-15510000D03*
%TD*%
D13*
%TO.C,C5*%
X16886500Y-2251300D03*
X16886500Y-1231300D03*
%TD*%
%TO.C,C3*%
X18400000Y-3810000D03*
X18400000Y-2790000D03*
%TD*%
D12*
%TO.C,C1*%
X12010000Y-14500000D03*
X10990000Y-14500000D03*
%TD*%
D19*
%TO.C,OP2*%
X1495000Y-11800000D03*
X2765000Y-11800000D03*
X4035000Y-11800000D03*
X5305000Y-11800000D03*
X5305000Y-17200000D03*
X4035000Y-17200000D03*
X2765000Y-17200000D03*
X1495000Y-17200000D03*
%TD*%
D20*
%TO.C,EEPROM1*%
X15063105Y-1365696D03*
X15063105Y-2635699D03*
X15063105Y-3905701D03*
X15063105Y-5175704D03*
X9652895Y-5175704D03*
X9652895Y-3905701D03*
X9652895Y-2635699D03*
X9652895Y-1365696D03*
%TD*%
D13*
%TO.C,C10*%
X19500000Y-3810000D03*
X19500000Y-2790000D03*
%TD*%
D12*
%TO.C,R14*%
X14045500Y-16956000D03*
X13025500Y-16956000D03*
%TD*%
D21*
%TO.C,C8*%
X4971200Y-2635100D03*
X5991200Y-2635100D03*
%TD*%
%TO.C,R17*%
X1890000Y-18800000D03*
X2910000Y-18800000D03*
%TD*%
D12*
%TO.C,R5*%
X5310000Y-1100000D03*
X4290000Y-1100000D03*
%TD*%
D10*
%TO.C,C12*%
X20505100Y-16920800D03*
X20505100Y-17940800D03*
%TD*%
D12*
%TO.C,C2*%
X2130300Y-8246800D03*
X1110300Y-8246800D03*
%TD*%
D10*
%TO.C,R2*%
X11384300Y-16091300D03*
X11384300Y-17111300D03*
%TD*%
D18*
%TO.C,FB2*%
X20425000Y-5100000D03*
X18775000Y-5100000D03*
%TD*%
D13*
%TO.C,R10*%
X21747500Y-10996600D03*
X21747500Y-9976600D03*
%TD*%
D10*
%TO.C,R6*%
X19564400Y-10933100D03*
X19564400Y-11953100D03*
%TD*%
D12*
%TO.C,C7*%
X4910000Y-18800000D03*
X3890000Y-18800000D03*
%TD*%
D21*
%TO.C,R4*%
X13346700Y-8279700D03*
X14366700Y-8279700D03*
%TD*%
D10*
%TO.C,R15*%
X10718900Y-7062400D03*
X10718900Y-8082400D03*
%TD*%
D13*
%TO.C,C4*%
X20600000Y-3810000D03*
X20600000Y-2790000D03*
%TD*%
M02*
