M48
; DRILL file {KiCad 7.0.7} date Tue Nov 14 13:36:37 2023
; FORMAT={-:-/ absolute / inch / decimal}
; #@! TF.CreationDate,2023-11-14T13:36:37+13:00
; #@! TF.GenerationSoftware,Kicad,Pcbnew,7.0.7
; #@! TF.FileFunction,Plated,1,2,PTH
FMAT,2
INCH
; #@! TA.AperFunction,Plated,PTH,ViaDrill
T1C0.0118
; #@! TA.AperFunction,Plated,PTH,ComponentDrill
T2C0.0236
; #@! TA.AperFunction,Plated,PTH,ComponentDrill
T3C0.0315
%
G90
G05
T1
X0.103Y-0.4032
X0.103Y-0.6032
X0.1305Y-0.2505
X0.1401Y-0.1773
X0.1472Y-0.1032
X0.2047Y-0.3701
X0.248Y-0.4882
X0.303Y-0.7032
X0.311Y-0.1142
X0.3772Y-0.6693
X0.3976Y-0.4213
X0.4104Y-0.3433
X0.4567Y-0.1614
X0.4758Y-0.6684
X0.4849Y-0.2601
X0.4918Y-0.1122
X0.5193Y-0.3561
X0.5197Y-0.0591
X0.6496Y-0.7677
X0.6535Y-0.1181
X0.6568Y-0.2382
X0.689Y-0.3346
X0.6897Y-0.7148
X0.7165Y-0.5472
X0.7553Y-0.723
X0.7598Y-0.2362
X0.7776Y-0.657
X0.811Y-0.7874
X0.8147Y-0.3954
X0.8189Y-0.5551
X0.8858Y-0.1299
X0.903Y-0.7032
T2
X0.8858Y-0.0591
X0.8858Y-0.2008
X0.8858Y-0.3425
X0.8858Y-0.4843
X0.8858Y-0.626
X0.8858Y-0.7677
T3
X0.2756Y-0.2953
X0.2756Y-0.374
X0.2756Y-0.4528
X0.2756Y-0.5315
X0.3543Y-0.2953
X0.3543Y-0.374
X0.3543Y-0.4528
X0.3543Y-0.5315
T0
M30
