%TF.GenerationSoftware,KiCad,Pcbnew,7.0.7*%
%TF.CreationDate,2023-10-10T17:02:05+13:00*%
%TF.ProjectId,probeDaughterBoard,70726f62-6544-4617-9567-68746572426f,rev?*%
%TF.SameCoordinates,Original*%
%TF.FileFunction,Soldermask,Top*%
%TF.FilePolarity,Negative*%
%FSLAX46Y46*%
G04 Gerber Fmt 4.6, Leading zero omitted, Abs format (unit mm)*
G04 Created by KiCad (PCBNEW 7.0.7) date 2023-10-10 17:02:05*
%MOMM*%
%LPD*%
G01*
G04 APERTURE LIST*
G04 APERTURE END LIST*
G36*
X18255796Y-13804082D02*
G01*
X18315815Y-13844185D01*
X18355918Y-13904204D01*
X18370000Y-13975000D01*
X18370000Y-14245000D01*
X18355918Y-14315796D01*
X18315815Y-14375815D01*
X18255796Y-14415918D01*
X18185000Y-14430000D01*
X17815000Y-14430000D01*
X17744204Y-14415918D01*
X17684185Y-14375815D01*
X17644082Y-14315796D01*
X17630000Y-14245000D01*
X17630000Y-13975000D01*
X17644082Y-13904204D01*
X17684185Y-13844185D01*
X17744204Y-13804082D01*
X17815000Y-13790000D01*
X18185000Y-13790000D01*
X18255796Y-13804082D01*
G37*
G36*
X12917384Y-13827105D02*
G01*
X12947663Y-13847337D01*
X12967895Y-13877616D01*
X12974999Y-13913334D01*
X12974999Y-13919728D01*
X12975000Y-13919733D01*
X12975000Y-14037819D01*
X12975000Y-14086667D01*
X12967895Y-14122384D01*
X12947663Y-14152663D01*
X12917384Y-14172895D01*
X12881666Y-14179999D01*
X12875271Y-14179999D01*
X12875266Y-14180000D01*
X11524734Y-14180000D01*
X11524733Y-14179999D01*
X11518333Y-14180000D01*
X11482616Y-14172895D01*
X11452337Y-14152663D01*
X11432105Y-14122384D01*
X11425001Y-14086666D01*
X11425000Y-14080270D01*
X11425000Y-14080266D01*
X11425000Y-13919733D01*
X11425000Y-13919732D01*
X11425000Y-13913333D01*
X11432105Y-13877616D01*
X11452337Y-13847337D01*
X11482616Y-13827105D01*
X11518334Y-13820001D01*
X11524728Y-13820000D01*
X11524734Y-13820000D01*
X12875266Y-13820000D01*
X12881667Y-13820000D01*
X12917384Y-13827105D01*
G37*
G36*
X17317384Y-13827105D02*
G01*
X17347663Y-13847337D01*
X17367895Y-13877616D01*
X17374999Y-13913334D01*
X17374999Y-13919728D01*
X17375000Y-13919733D01*
X17375000Y-14037819D01*
X17375000Y-14086667D01*
X17367895Y-14122384D01*
X17347663Y-14152663D01*
X17317384Y-14172895D01*
X17281666Y-14179999D01*
X17275271Y-14179999D01*
X17275266Y-14180000D01*
X15924734Y-14180000D01*
X15924733Y-14179999D01*
X15918333Y-14180000D01*
X15882616Y-14172895D01*
X15852337Y-14152663D01*
X15832105Y-14122384D01*
X15825001Y-14086666D01*
X15825000Y-14080270D01*
X15825000Y-14080266D01*
X15825000Y-13919733D01*
X15825000Y-13919732D01*
X15825000Y-13913333D01*
X15832105Y-13877616D01*
X15852337Y-13847337D01*
X15882616Y-13827105D01*
X15918334Y-13820001D01*
X15924728Y-13820000D01*
X15924734Y-13820000D01*
X17275266Y-13820000D01*
X17281667Y-13820000D01*
X17317384Y-13827105D01*
G37*
G36*
X2883339Y-13096658D02*
G01*
X2938125Y-13103871D01*
X2951906Y-13110297D01*
X2970671Y-13114030D01*
X2995526Y-13130637D01*
X3017819Y-13141033D01*
X3031380Y-13154594D01*
X3051777Y-13168223D01*
X3065405Y-13188619D01*
X3078966Y-13202180D01*
X3089360Y-13224470D01*
X3105970Y-13249329D01*
X3109702Y-13268095D01*
X3116128Y-13281874D01*
X3123338Y-13336648D01*
X3125000Y-13345000D01*
X3125000Y-13895000D01*
X3123338Y-13903353D01*
X3116128Y-13958125D01*
X3109703Y-13971903D01*
X3105970Y-13990671D01*
X3089358Y-14015531D01*
X3078966Y-14037819D01*
X3065407Y-14051377D01*
X3051777Y-14071777D01*
X3031377Y-14085407D01*
X3017819Y-14098966D01*
X2995531Y-14109358D01*
X2970671Y-14125970D01*
X2951903Y-14129703D01*
X2938125Y-14136128D01*
X2883353Y-14143338D01*
X2875000Y-14145000D01*
X2475000Y-14145000D01*
X2466648Y-14143338D01*
X2411874Y-14136128D01*
X2398095Y-14129702D01*
X2379329Y-14125970D01*
X2354470Y-14109360D01*
X2332180Y-14098966D01*
X2318619Y-14085405D01*
X2298223Y-14071777D01*
X2284594Y-14051380D01*
X2271033Y-14037819D01*
X2260637Y-14015526D01*
X2244030Y-13990671D01*
X2240297Y-13971906D01*
X2233871Y-13958125D01*
X2226658Y-13903339D01*
X2225000Y-13895000D01*
X2225000Y-13345000D01*
X2226658Y-13336662D01*
X2233871Y-13281874D01*
X2240297Y-13268091D01*
X2244030Y-13249329D01*
X2260636Y-13224475D01*
X2271033Y-13202180D01*
X2284596Y-13188616D01*
X2298223Y-13168223D01*
X2318616Y-13154596D01*
X2332180Y-13141033D01*
X2354475Y-13130636D01*
X2379329Y-13114030D01*
X2398091Y-13110297D01*
X2411874Y-13103871D01*
X2466662Y-13096658D01*
X2475000Y-13095000D01*
X2875000Y-13095000D01*
X2883339Y-13096658D01*
G37*
G36*
X4533339Y-13096658D02*
G01*
X4588125Y-13103871D01*
X4601906Y-13110297D01*
X4620671Y-13114030D01*
X4645526Y-13130637D01*
X4667819Y-13141033D01*
X4681380Y-13154594D01*
X4701777Y-13168223D01*
X4715405Y-13188619D01*
X4728966Y-13202180D01*
X4739360Y-13224470D01*
X4755970Y-13249329D01*
X4759702Y-13268095D01*
X4766128Y-13281874D01*
X4773338Y-13336648D01*
X4775000Y-13345000D01*
X4775000Y-13895000D01*
X4773338Y-13903353D01*
X4766128Y-13958125D01*
X4759703Y-13971903D01*
X4755970Y-13990671D01*
X4739358Y-14015531D01*
X4728966Y-14037819D01*
X4715407Y-14051377D01*
X4701777Y-14071777D01*
X4681377Y-14085407D01*
X4667819Y-14098966D01*
X4645531Y-14109358D01*
X4620671Y-14125970D01*
X4601903Y-14129703D01*
X4588125Y-14136128D01*
X4533353Y-14143338D01*
X4525000Y-14145000D01*
X4125000Y-14145000D01*
X4116648Y-14143338D01*
X4061874Y-14136128D01*
X4048095Y-14129702D01*
X4029329Y-14125970D01*
X4004470Y-14109360D01*
X3982180Y-14098966D01*
X3968619Y-14085405D01*
X3948223Y-14071777D01*
X3934594Y-14051380D01*
X3921033Y-14037819D01*
X3910637Y-14015526D01*
X3894030Y-13990671D01*
X3890297Y-13971906D01*
X3883871Y-13958125D01*
X3876658Y-13903339D01*
X3875000Y-13895000D01*
X3875000Y-13345000D01*
X3876658Y-13336662D01*
X3883871Y-13281874D01*
X3890297Y-13268091D01*
X3894030Y-13249329D01*
X3910636Y-13224475D01*
X3921033Y-13202180D01*
X3934596Y-13188616D01*
X3948223Y-13168223D01*
X3968616Y-13154596D01*
X3982180Y-13141033D01*
X4004475Y-13130636D01*
X4029329Y-13114030D01*
X4048091Y-13110297D01*
X4061874Y-13103871D01*
X4116662Y-13096658D01*
X4125000Y-13095000D01*
X4525000Y-13095000D01*
X4533339Y-13096658D01*
G37*
G36*
X6063339Y-13096658D02*
G01*
X6118125Y-13103871D01*
X6131906Y-13110297D01*
X6150671Y-13114030D01*
X6175526Y-13130637D01*
X6197819Y-13141033D01*
X6211380Y-13154594D01*
X6231777Y-13168223D01*
X6245405Y-13188619D01*
X6258966Y-13202180D01*
X6269360Y-13224470D01*
X6285970Y-13249329D01*
X6289702Y-13268095D01*
X6296128Y-13281874D01*
X6303338Y-13336648D01*
X6305000Y-13345000D01*
X6305000Y-13895000D01*
X6303338Y-13903353D01*
X6296128Y-13958125D01*
X6289703Y-13971903D01*
X6285970Y-13990671D01*
X6269358Y-14015531D01*
X6258966Y-14037819D01*
X6245407Y-14051377D01*
X6231777Y-14071777D01*
X6211377Y-14085407D01*
X6197819Y-14098966D01*
X6175531Y-14109358D01*
X6150671Y-14125970D01*
X6131903Y-14129703D01*
X6118125Y-14136128D01*
X6063353Y-14143338D01*
X6055000Y-14145000D01*
X5655000Y-14145000D01*
X5646648Y-14143338D01*
X5591874Y-14136128D01*
X5578095Y-14129702D01*
X5559329Y-14125970D01*
X5534470Y-14109360D01*
X5512180Y-14098966D01*
X5498619Y-14085405D01*
X5478223Y-14071777D01*
X5464594Y-14051380D01*
X5451033Y-14037819D01*
X5440637Y-14015526D01*
X5424030Y-13990671D01*
X5420297Y-13971906D01*
X5413871Y-13958125D01*
X5406658Y-13903339D01*
X5405000Y-13895000D01*
X5405000Y-13345000D01*
X5406658Y-13336662D01*
X5413871Y-13281874D01*
X5420297Y-13268091D01*
X5424030Y-13249329D01*
X5440636Y-13224475D01*
X5451033Y-13202180D01*
X5464596Y-13188616D01*
X5478223Y-13168223D01*
X5498616Y-13154596D01*
X5512180Y-13141033D01*
X5534475Y-13130636D01*
X5559329Y-13114030D01*
X5578091Y-13110297D01*
X5591874Y-13103871D01*
X5646662Y-13096658D01*
X5655000Y-13095000D01*
X6055000Y-13095000D01*
X6063339Y-13096658D01*
G37*
G36*
X7713339Y-13096658D02*
G01*
X7768125Y-13103871D01*
X7781906Y-13110297D01*
X7800671Y-13114030D01*
X7825526Y-13130637D01*
X7847819Y-13141033D01*
X7861380Y-13154594D01*
X7881777Y-13168223D01*
X7895405Y-13188619D01*
X7908966Y-13202180D01*
X7919360Y-13224470D01*
X7935970Y-13249329D01*
X7939702Y-13268095D01*
X7946128Y-13281874D01*
X7953338Y-13336648D01*
X7955000Y-13345000D01*
X7955000Y-13895000D01*
X7953338Y-13903353D01*
X7946128Y-13958125D01*
X7939703Y-13971903D01*
X7935970Y-13990671D01*
X7919358Y-14015531D01*
X7908966Y-14037819D01*
X7895407Y-14051377D01*
X7881777Y-14071777D01*
X7861377Y-14085407D01*
X7847819Y-14098966D01*
X7825531Y-14109358D01*
X7800671Y-14125970D01*
X7781903Y-14129703D01*
X7768125Y-14136128D01*
X7713353Y-14143338D01*
X7705000Y-14145000D01*
X7305000Y-14145000D01*
X7296648Y-14143338D01*
X7241874Y-14136128D01*
X7228095Y-14129702D01*
X7209329Y-14125970D01*
X7184470Y-14109360D01*
X7162180Y-14098966D01*
X7148619Y-14085405D01*
X7128223Y-14071777D01*
X7114594Y-14051380D01*
X7101033Y-14037819D01*
X7090637Y-14015526D01*
X7074030Y-13990671D01*
X7070297Y-13971906D01*
X7063871Y-13958125D01*
X7056658Y-13903339D01*
X7055000Y-13895000D01*
X7055000Y-13345000D01*
X7056658Y-13336662D01*
X7063871Y-13281874D01*
X7070297Y-13268091D01*
X7074030Y-13249329D01*
X7090636Y-13224475D01*
X7101033Y-13202180D01*
X7114596Y-13188616D01*
X7128223Y-13168223D01*
X7148616Y-13154596D01*
X7162180Y-13141033D01*
X7184475Y-13130636D01*
X7209329Y-13114030D01*
X7228091Y-13110297D01*
X7241874Y-13103871D01*
X7296662Y-13096658D01*
X7305000Y-13095000D01*
X7705000Y-13095000D01*
X7713339Y-13096658D01*
G37*
G36*
X12917384Y-13327232D02*
G01*
X12947663Y-13347464D01*
X12967895Y-13377743D01*
X12974999Y-13413461D01*
X12974999Y-13419855D01*
X12975000Y-13419860D01*
X12975000Y-13580393D01*
X12975000Y-13586794D01*
X12967895Y-13622511D01*
X12947663Y-13652790D01*
X12917384Y-13673022D01*
X12881666Y-13680126D01*
X12875271Y-13680126D01*
X12875266Y-13680127D01*
X11524734Y-13680127D01*
X11524733Y-13680126D01*
X11518333Y-13680127D01*
X11482616Y-13673022D01*
X11452337Y-13652790D01*
X11432105Y-13622511D01*
X11425001Y-13586793D01*
X11425000Y-13580397D01*
X11425000Y-13580393D01*
X11425000Y-13419860D01*
X11425000Y-13419859D01*
X11425000Y-13413460D01*
X11432105Y-13377743D01*
X11452337Y-13347464D01*
X11482616Y-13327232D01*
X11518334Y-13320128D01*
X11524728Y-13320127D01*
X11524734Y-13320127D01*
X12875266Y-13320127D01*
X12881667Y-13320127D01*
X12917384Y-13327232D01*
G37*
G36*
X17317384Y-13327232D02*
G01*
X17347663Y-13347464D01*
X17367895Y-13377743D01*
X17374999Y-13413461D01*
X17374999Y-13419855D01*
X17375000Y-13419860D01*
X17375000Y-13580393D01*
X17375000Y-13586794D01*
X17367895Y-13622511D01*
X17347663Y-13652790D01*
X17317384Y-13673022D01*
X17281666Y-13680126D01*
X17275271Y-13680126D01*
X17275266Y-13680127D01*
X15924734Y-13680127D01*
X15924733Y-13680126D01*
X15918333Y-13680127D01*
X15882616Y-13673022D01*
X15852337Y-13652790D01*
X15832105Y-13622511D01*
X15825001Y-13586793D01*
X15825000Y-13580397D01*
X15825000Y-13580393D01*
X15825000Y-13419860D01*
X15825000Y-13419859D01*
X15825000Y-13413460D01*
X15832105Y-13377743D01*
X15852337Y-13347464D01*
X15882616Y-13327232D01*
X15918334Y-13320128D01*
X15924728Y-13320127D01*
X15924734Y-13320127D01*
X17275266Y-13320127D01*
X17281667Y-13320127D01*
X17317384Y-13327232D01*
G37*
G36*
X18255796Y-12784082D02*
G01*
X18315815Y-12824185D01*
X18355918Y-12884204D01*
X18370000Y-12955000D01*
X18370000Y-13225000D01*
X18355918Y-13295796D01*
X18315815Y-13355815D01*
X18255796Y-13395918D01*
X18185000Y-13410000D01*
X17815000Y-13410000D01*
X17744204Y-13395918D01*
X17684185Y-13355815D01*
X17644082Y-13295796D01*
X17630000Y-13225000D01*
X17630000Y-12955000D01*
X17644082Y-12884204D01*
X17684185Y-12824185D01*
X17744204Y-12784082D01*
X17815000Y-12770000D01*
X18185000Y-12770000D01*
X18255796Y-12784082D01*
G37*
G36*
X12917384Y-12827105D02*
G01*
X12947663Y-12847337D01*
X12967895Y-12877616D01*
X12974999Y-12913334D01*
X12974999Y-12919728D01*
X12975000Y-12919733D01*
X12975000Y-13008057D01*
X12975000Y-13086667D01*
X12967895Y-13122384D01*
X12947663Y-13152663D01*
X12917384Y-13172895D01*
X12881666Y-13179999D01*
X12875271Y-13179999D01*
X12875266Y-13180000D01*
X11524734Y-13180000D01*
X11524733Y-13179999D01*
X11518333Y-13180000D01*
X11482616Y-13172895D01*
X11452337Y-13152663D01*
X11432105Y-13122384D01*
X11425001Y-13086666D01*
X11425000Y-13080270D01*
X11425000Y-13080266D01*
X11425000Y-12919733D01*
X11425000Y-12919732D01*
X11425000Y-12913333D01*
X11432105Y-12877616D01*
X11452337Y-12847337D01*
X11482616Y-12827105D01*
X11518334Y-12820001D01*
X11524728Y-12820000D01*
X11524734Y-12820000D01*
X12875266Y-12820000D01*
X12881667Y-12820000D01*
X12917384Y-12827105D01*
G37*
G36*
X17317384Y-12827105D02*
G01*
X17347663Y-12847337D01*
X17367895Y-12877616D01*
X17374999Y-12913334D01*
X17374999Y-12919728D01*
X17375000Y-12919733D01*
X17375000Y-13008057D01*
X17375000Y-13086667D01*
X17367895Y-13122384D01*
X17347663Y-13152663D01*
X17317384Y-13172895D01*
X17281666Y-13179999D01*
X17275271Y-13179999D01*
X17275266Y-13180000D01*
X15924734Y-13180000D01*
X15924733Y-13179999D01*
X15918333Y-13180000D01*
X15882616Y-13172895D01*
X15852337Y-13152663D01*
X15832105Y-13122384D01*
X15825001Y-13086666D01*
X15825000Y-13080270D01*
X15825000Y-13080266D01*
X15825000Y-12919733D01*
X15825000Y-12919732D01*
X15825000Y-12913333D01*
X15832105Y-12877616D01*
X15852337Y-12847337D01*
X15882616Y-12827105D01*
X15918334Y-12820001D01*
X15924728Y-12820000D01*
X15924734Y-12820000D01*
X17275266Y-12820000D01*
X17281667Y-12820000D01*
X17317384Y-12827105D01*
G37*
G36*
X42818685Y-11357969D02*
G01*
X42827893Y-11362034D01*
X42834724Y-11363030D01*
X42877422Y-11383903D01*
X42919541Y-11402501D01*
X42923441Y-11406401D01*
X42923801Y-11406577D01*
X42993422Y-11476198D01*
X42993597Y-11476557D01*
X42997499Y-11480459D01*
X43016100Y-11522588D01*
X43036969Y-11565275D01*
X43037963Y-11572103D01*
X43042031Y-11581315D01*
X43050000Y-11650000D01*
X43050000Y-12750000D01*
X43042031Y-12818685D01*
X43037963Y-12827896D01*
X43036969Y-12834724D01*
X43016105Y-12877401D01*
X42997499Y-12919541D01*
X42993597Y-12923442D01*
X42993422Y-12923801D01*
X42923801Y-12993422D01*
X42923442Y-12993597D01*
X42919541Y-12997499D01*
X42877401Y-13016105D01*
X42834724Y-13036969D01*
X42827896Y-13037963D01*
X42818685Y-13042031D01*
X42750000Y-13050000D01*
X41650000Y-13050000D01*
X41581315Y-13042031D01*
X41572103Y-13037963D01*
X41565275Y-13036969D01*
X41522588Y-13016100D01*
X41480459Y-12997499D01*
X41476557Y-12993597D01*
X41476198Y-12993422D01*
X41406577Y-12923801D01*
X41406401Y-12923441D01*
X41402501Y-12919541D01*
X41383903Y-12877422D01*
X41363030Y-12834724D01*
X41362034Y-12827893D01*
X41357969Y-12818685D01*
X41350000Y-12750000D01*
X41350000Y-11650000D01*
X41357969Y-11581315D01*
X41362034Y-11572107D01*
X41363030Y-11565275D01*
X41383908Y-11522567D01*
X41402501Y-11480459D01*
X41406400Y-11476559D01*
X41406577Y-11476198D01*
X41476198Y-11406577D01*
X41476559Y-11406400D01*
X41480459Y-11402501D01*
X41522567Y-11383908D01*
X41565275Y-11363030D01*
X41572107Y-11362034D01*
X41581315Y-11357969D01*
X41650000Y-11350000D01*
X42750000Y-11350000D01*
X42818685Y-11357969D01*
G37*
G36*
X24462664Y-11391602D02*
G01*
X24625000Y-11463878D01*
X24768761Y-11568327D01*
X24887664Y-11700383D01*
X24976514Y-11854274D01*
X25031425Y-12023275D01*
X25050000Y-12200000D01*
X25031425Y-12376725D01*
X24976514Y-12545726D01*
X24887664Y-12699617D01*
X24768761Y-12831673D01*
X24625000Y-12936122D01*
X24462664Y-13008398D01*
X24288849Y-13045344D01*
X24111151Y-13045344D01*
X23937336Y-13008398D01*
X23775000Y-12936122D01*
X23631239Y-12831673D01*
X23512336Y-12699617D01*
X23423486Y-12545726D01*
X23368575Y-12376725D01*
X23350000Y-12200000D01*
X23368575Y-12023275D01*
X23423486Y-11854274D01*
X23512336Y-11700383D01*
X23631239Y-11568327D01*
X23775000Y-11463878D01*
X23937336Y-11391602D01*
X24111151Y-11354656D01*
X24288849Y-11354656D01*
X24462664Y-11391602D01*
G37*
G36*
X28062664Y-11391602D02*
G01*
X28225000Y-11463878D01*
X28368761Y-11568327D01*
X28487664Y-11700383D01*
X28576514Y-11854274D01*
X28631425Y-12023275D01*
X28650000Y-12200000D01*
X28631425Y-12376725D01*
X28576514Y-12545726D01*
X28487664Y-12699617D01*
X28368761Y-12831673D01*
X28225000Y-12936122D01*
X28062664Y-13008398D01*
X27888849Y-13045344D01*
X27711151Y-13045344D01*
X27537336Y-13008398D01*
X27375000Y-12936122D01*
X27231239Y-12831673D01*
X27112336Y-12699617D01*
X27023486Y-12545726D01*
X26968575Y-12376725D01*
X26950000Y-12200000D01*
X26968575Y-12023275D01*
X27023486Y-11854274D01*
X27112336Y-11700383D01*
X27231239Y-11568327D01*
X27375000Y-11463878D01*
X27537336Y-11391602D01*
X27711151Y-11354656D01*
X27888849Y-11354656D01*
X28062664Y-11391602D01*
G37*
G36*
X31662664Y-11391602D02*
G01*
X31825000Y-11463878D01*
X31968761Y-11568327D01*
X32087664Y-11700383D01*
X32176514Y-11854274D01*
X32231425Y-12023275D01*
X32250000Y-12200000D01*
X32231425Y-12376725D01*
X32176514Y-12545726D01*
X32087664Y-12699617D01*
X31968761Y-12831673D01*
X31825000Y-12936122D01*
X31662664Y-13008398D01*
X31488849Y-13045344D01*
X31311151Y-13045344D01*
X31137336Y-13008398D01*
X30975000Y-12936122D01*
X30831239Y-12831673D01*
X30712336Y-12699617D01*
X30623486Y-12545726D01*
X30568575Y-12376725D01*
X30550000Y-12200000D01*
X30568575Y-12023275D01*
X30623486Y-11854274D01*
X30712336Y-11700383D01*
X30831239Y-11568327D01*
X30975000Y-11463878D01*
X31137336Y-11391602D01*
X31311151Y-11354656D01*
X31488849Y-11354656D01*
X31662664Y-11391602D01*
G37*
G36*
X35262664Y-11391602D02*
G01*
X35425000Y-11463878D01*
X35568761Y-11568327D01*
X35687664Y-11700383D01*
X35776514Y-11854274D01*
X35831425Y-12023275D01*
X35850000Y-12200000D01*
X35831425Y-12376725D01*
X35776514Y-12545726D01*
X35687664Y-12699617D01*
X35568761Y-12831673D01*
X35425000Y-12936122D01*
X35262664Y-13008398D01*
X35088849Y-13045344D01*
X34911151Y-13045344D01*
X34737336Y-13008398D01*
X34575000Y-12936122D01*
X34431239Y-12831673D01*
X34312336Y-12699617D01*
X34223486Y-12545726D01*
X34168575Y-12376725D01*
X34150000Y-12200000D01*
X34168575Y-12023275D01*
X34223486Y-11854274D01*
X34312336Y-11700383D01*
X34431239Y-11568327D01*
X34575000Y-11463878D01*
X34737336Y-11391602D01*
X34911151Y-11354656D01*
X35088849Y-11354656D01*
X35262664Y-11391602D01*
G37*
G36*
X38862664Y-11391602D02*
G01*
X39025000Y-11463878D01*
X39168761Y-11568327D01*
X39287664Y-11700383D01*
X39376514Y-11854274D01*
X39431425Y-12023275D01*
X39450000Y-12200000D01*
X39431425Y-12376725D01*
X39376514Y-12545726D01*
X39287664Y-12699617D01*
X39168761Y-12831673D01*
X39025000Y-12936122D01*
X38862664Y-13008398D01*
X38688849Y-13045344D01*
X38511151Y-13045344D01*
X38337336Y-13008398D01*
X38175000Y-12936122D01*
X38031239Y-12831673D01*
X37912336Y-12699617D01*
X37823486Y-12545726D01*
X37768575Y-12376725D01*
X37750000Y-12200000D01*
X37768575Y-12023275D01*
X37823486Y-11854274D01*
X37912336Y-11700383D01*
X38031239Y-11568327D01*
X38175000Y-11463878D01*
X38337336Y-11391602D01*
X38511151Y-11354656D01*
X38688849Y-11354656D01*
X38862664Y-11391602D01*
G37*
G36*
X2052403Y-11086418D02*
G01*
X2101066Y-11118934D01*
X2133582Y-11167597D01*
X2145000Y-11225000D01*
X2145000Y-12575000D01*
X2133582Y-12632403D01*
X2101066Y-12681066D01*
X2052403Y-12713582D01*
X1995000Y-12725000D01*
X1595000Y-12725000D01*
X1537597Y-12713582D01*
X1488934Y-12681066D01*
X1456418Y-12632403D01*
X1445000Y-12575000D01*
X1445000Y-11225000D01*
X1456418Y-11167597D01*
X1488934Y-11118934D01*
X1537597Y-11086418D01*
X1595000Y-11075000D01*
X1995000Y-11075000D01*
X2052403Y-11086418D01*
G37*
G36*
X3322403Y-11086418D02*
G01*
X3371066Y-11118934D01*
X3403582Y-11167597D01*
X3415000Y-11225000D01*
X3415000Y-12575000D01*
X3403582Y-12632403D01*
X3371066Y-12681066D01*
X3322403Y-12713582D01*
X3265000Y-12725000D01*
X2865000Y-12725000D01*
X2807597Y-12713582D01*
X2758934Y-12681066D01*
X2726418Y-12632403D01*
X2715000Y-12575000D01*
X2715000Y-11225000D01*
X2726418Y-11167597D01*
X2758934Y-11118934D01*
X2807597Y-11086418D01*
X2865000Y-11075000D01*
X3265000Y-11075000D01*
X3322403Y-11086418D01*
G37*
G36*
X4592403Y-11086418D02*
G01*
X4641066Y-11118934D01*
X4673582Y-11167597D01*
X4685000Y-11225000D01*
X4685000Y-12575000D01*
X4673582Y-12632403D01*
X4641066Y-12681066D01*
X4592403Y-12713582D01*
X4535000Y-12725000D01*
X4135000Y-12725000D01*
X4077597Y-12713582D01*
X4028934Y-12681066D01*
X3996418Y-12632403D01*
X3985000Y-12575000D01*
X3985000Y-11225000D01*
X3996418Y-11167597D01*
X4028934Y-11118934D01*
X4077597Y-11086418D01*
X4135000Y-11075000D01*
X4535000Y-11075000D01*
X4592403Y-11086418D01*
G37*
G36*
X5862403Y-11086418D02*
G01*
X5911066Y-11118934D01*
X5943582Y-11167597D01*
X5955000Y-11225000D01*
X5955000Y-12575000D01*
X5943582Y-12632403D01*
X5911066Y-12681066D01*
X5862403Y-12713582D01*
X5805000Y-12725000D01*
X5405000Y-12725000D01*
X5347597Y-12713582D01*
X5298934Y-12681066D01*
X5266418Y-12632403D01*
X5255000Y-12575000D01*
X5255000Y-11225000D01*
X5266418Y-11167597D01*
X5298934Y-11118934D01*
X5347597Y-11086418D01*
X5405000Y-11075000D01*
X5805000Y-11075000D01*
X5862403Y-11086418D01*
G37*
G36*
X12917384Y-12327232D02*
G01*
X12947663Y-12347464D01*
X12967895Y-12377743D01*
X12974999Y-12413461D01*
X12974999Y-12419855D01*
X12975000Y-12419860D01*
X12975000Y-12505308D01*
X12975000Y-12586794D01*
X12967895Y-12622511D01*
X12947663Y-12652790D01*
X12917384Y-12673022D01*
X12881666Y-12680126D01*
X12875271Y-12680126D01*
X12875266Y-12680127D01*
X11524734Y-12680127D01*
X11524733Y-12680126D01*
X11518333Y-12680127D01*
X11482616Y-12673022D01*
X11452337Y-12652790D01*
X11432105Y-12622511D01*
X11425001Y-12586793D01*
X11425000Y-12580397D01*
X11425000Y-12580393D01*
X11425000Y-12419860D01*
X11425000Y-12419859D01*
X11425000Y-12413460D01*
X11432105Y-12377743D01*
X11452337Y-12347464D01*
X11482616Y-12327232D01*
X11518334Y-12320128D01*
X11524728Y-12320127D01*
X11524734Y-12320127D01*
X12875266Y-12320127D01*
X12881667Y-12320127D01*
X12917384Y-12327232D01*
G37*
G36*
X17317384Y-12327232D02*
G01*
X17347663Y-12347464D01*
X17367895Y-12377743D01*
X17374999Y-12413461D01*
X17374999Y-12419855D01*
X17375000Y-12419860D01*
X17375000Y-12505308D01*
X17375000Y-12586794D01*
X17367895Y-12622511D01*
X17347663Y-12652790D01*
X17317384Y-12673022D01*
X17281666Y-12680126D01*
X17275271Y-12680126D01*
X17275266Y-12680127D01*
X15924734Y-12680127D01*
X15924733Y-12680126D01*
X15918333Y-12680127D01*
X15882616Y-12673022D01*
X15852337Y-12652790D01*
X15832105Y-12622511D01*
X15825001Y-12586793D01*
X15825000Y-12580397D01*
X15825000Y-12580393D01*
X15825000Y-12419860D01*
X15825000Y-12419859D01*
X15825000Y-12413460D01*
X15832105Y-12377743D01*
X15852337Y-12347464D01*
X15882616Y-12327232D01*
X15918334Y-12320128D01*
X15924728Y-12320127D01*
X15924734Y-12320127D01*
X17275266Y-12320127D01*
X17281667Y-12320127D01*
X17317384Y-12327232D01*
G37*
G36*
X9183339Y-11576658D02*
G01*
X9238125Y-11583871D01*
X9251906Y-11590297D01*
X9270671Y-11594030D01*
X9295526Y-11610637D01*
X9317819Y-11621033D01*
X9331380Y-11634594D01*
X9351777Y-11648223D01*
X9365405Y-11668619D01*
X9378966Y-11682180D01*
X9389360Y-11704470D01*
X9405970Y-11729329D01*
X9409702Y-11748095D01*
X9416128Y-11761874D01*
X9423338Y-11816648D01*
X9425000Y-11825000D01*
X9425000Y-12375000D01*
X9423338Y-12383353D01*
X9416128Y-12438125D01*
X9409703Y-12451903D01*
X9405970Y-12470671D01*
X9389358Y-12495531D01*
X9378966Y-12517819D01*
X9365407Y-12531377D01*
X9351777Y-12551777D01*
X9331377Y-12565407D01*
X9317819Y-12578966D01*
X9295531Y-12589358D01*
X9270671Y-12605970D01*
X9251903Y-12609703D01*
X9238125Y-12616128D01*
X9183353Y-12623338D01*
X9175000Y-12625000D01*
X8775000Y-12625000D01*
X8766648Y-12623338D01*
X8711874Y-12616128D01*
X8698095Y-12609702D01*
X8679329Y-12605970D01*
X8654470Y-12589360D01*
X8632180Y-12578966D01*
X8618619Y-12565405D01*
X8598223Y-12551777D01*
X8584594Y-12531380D01*
X8571033Y-12517819D01*
X8560637Y-12495526D01*
X8544030Y-12470671D01*
X8540297Y-12451906D01*
X8533871Y-12438125D01*
X8526658Y-12383339D01*
X8525000Y-12375000D01*
X8525000Y-11825000D01*
X8526658Y-11816662D01*
X8533871Y-11761874D01*
X8540297Y-11748091D01*
X8544030Y-11729329D01*
X8560636Y-11704475D01*
X8571033Y-11682180D01*
X8584596Y-11668616D01*
X8598223Y-11648223D01*
X8618616Y-11634596D01*
X8632180Y-11621033D01*
X8654475Y-11610636D01*
X8679329Y-11594030D01*
X8698091Y-11590297D01*
X8711874Y-11583871D01*
X8766662Y-11576658D01*
X8775000Y-11575000D01*
X9175000Y-11575000D01*
X9183339Y-11576658D01*
G37*
G36*
X10833339Y-11576658D02*
G01*
X10888125Y-11583871D01*
X10901906Y-11590297D01*
X10920671Y-11594030D01*
X10945526Y-11610637D01*
X10967819Y-11621033D01*
X10981380Y-11634594D01*
X11001777Y-11648223D01*
X11015405Y-11668619D01*
X11028966Y-11682180D01*
X11039360Y-11704470D01*
X11055970Y-11729329D01*
X11059702Y-11748095D01*
X11066128Y-11761874D01*
X11073338Y-11816648D01*
X11075000Y-11825000D01*
X11075000Y-12375000D01*
X11073338Y-12383353D01*
X11066128Y-12438125D01*
X11059703Y-12451903D01*
X11055970Y-12470671D01*
X11039358Y-12495531D01*
X11028966Y-12517819D01*
X11015407Y-12531377D01*
X11001777Y-12551777D01*
X10981377Y-12565407D01*
X10967819Y-12578966D01*
X10945531Y-12589358D01*
X10920671Y-12605970D01*
X10901903Y-12609703D01*
X10888125Y-12616128D01*
X10833353Y-12623338D01*
X10825000Y-12625000D01*
X10425000Y-12625000D01*
X10416648Y-12623338D01*
X10361874Y-12616128D01*
X10348095Y-12609702D01*
X10329329Y-12605970D01*
X10304470Y-12589360D01*
X10282180Y-12578966D01*
X10268619Y-12565405D01*
X10248223Y-12551777D01*
X10234594Y-12531380D01*
X10221033Y-12517819D01*
X10210637Y-12495526D01*
X10194030Y-12470671D01*
X10190297Y-12451906D01*
X10183871Y-12438125D01*
X10176658Y-12383339D01*
X10175000Y-12375000D01*
X10175000Y-11825000D01*
X10176658Y-11816662D01*
X10183871Y-11761874D01*
X10190297Y-11748091D01*
X10194030Y-11729329D01*
X10210636Y-11704475D01*
X10221033Y-11682180D01*
X10234596Y-11668616D01*
X10248223Y-11648223D01*
X10268616Y-11634596D01*
X10282180Y-11621033D01*
X10304475Y-11610636D01*
X10329329Y-11594030D01*
X10348091Y-11590297D01*
X10361874Y-11583871D01*
X10416662Y-11576658D01*
X10425000Y-11575000D01*
X10825000Y-11575000D01*
X10833339Y-11576658D01*
G37*
G36*
X6945796Y-11894082D02*
G01*
X7005815Y-11934185D01*
X7045918Y-11994204D01*
X7060000Y-12065000D01*
X7060000Y-12435000D01*
X7045918Y-12505796D01*
X7005815Y-12565815D01*
X6945796Y-12605918D01*
X6875000Y-12620000D01*
X6605000Y-12620000D01*
X6534204Y-12605918D01*
X6474185Y-12565815D01*
X6434082Y-12505796D01*
X6420000Y-12435000D01*
X6420000Y-12065000D01*
X6434082Y-11994204D01*
X6474185Y-11934185D01*
X6534204Y-11894082D01*
X6605000Y-11880000D01*
X6875000Y-11880000D01*
X6945796Y-11894082D01*
G37*
G36*
X7965796Y-11894082D02*
G01*
X8025815Y-11934185D01*
X8065918Y-11994204D01*
X8080000Y-12065000D01*
X8080000Y-12435000D01*
X8065918Y-12505796D01*
X8025815Y-12565815D01*
X7965796Y-12605918D01*
X7895000Y-12620000D01*
X7625000Y-12620000D01*
X7554204Y-12605918D01*
X7494185Y-12565815D01*
X7454082Y-12505796D01*
X7440000Y-12435000D01*
X7440000Y-12065000D01*
X7454082Y-11994204D01*
X7494185Y-11934185D01*
X7554204Y-11894082D01*
X7625000Y-11880000D01*
X7895000Y-11880000D01*
X7965796Y-11894082D01*
G37*
G36*
X12917384Y-11827105D02*
G01*
X12947663Y-11847337D01*
X12967895Y-11877616D01*
X12974999Y-11913334D01*
X12974999Y-11919728D01*
X12975000Y-11919733D01*
X12975000Y-12023275D01*
X12975000Y-12086667D01*
X12967895Y-12122384D01*
X12947663Y-12152663D01*
X12917384Y-12172895D01*
X12881666Y-12179999D01*
X12875271Y-12179999D01*
X12875266Y-12180000D01*
X11524734Y-12180000D01*
X11524733Y-12179999D01*
X11518333Y-12180000D01*
X11482616Y-12172895D01*
X11452337Y-12152663D01*
X11432105Y-12122384D01*
X11425001Y-12086666D01*
X11425000Y-12080270D01*
X11425000Y-12080266D01*
X11425000Y-11919733D01*
X11425000Y-11919732D01*
X11425000Y-11913333D01*
X11432105Y-11877616D01*
X11452337Y-11847337D01*
X11482616Y-11827105D01*
X11518334Y-11820001D01*
X11524728Y-11820000D01*
X11524734Y-11820000D01*
X12875266Y-11820000D01*
X12881667Y-11820000D01*
X12917384Y-11827105D01*
G37*
G36*
X17317384Y-11827105D02*
G01*
X17347663Y-11847337D01*
X17367895Y-11877616D01*
X17374999Y-11913334D01*
X17374999Y-11919728D01*
X17375000Y-11919733D01*
X17375000Y-12023275D01*
X17375000Y-12086667D01*
X17367895Y-12122384D01*
X17347663Y-12152663D01*
X17317384Y-12172895D01*
X17281666Y-12179999D01*
X17275271Y-12179999D01*
X17275266Y-12180000D01*
X15924734Y-12180000D01*
X15924733Y-12179999D01*
X15918333Y-12180000D01*
X15882616Y-12172895D01*
X15852337Y-12152663D01*
X15832105Y-12122384D01*
X15825001Y-12086666D01*
X15825000Y-12080270D01*
X15825000Y-12080266D01*
X15825000Y-11919733D01*
X15825000Y-11919732D01*
X15825000Y-11913333D01*
X15832105Y-11877616D01*
X15852337Y-11847337D01*
X15882616Y-11827105D01*
X15918334Y-11820001D01*
X15924728Y-11820000D01*
X15924734Y-11820000D01*
X17275266Y-11820000D01*
X17281667Y-11820000D01*
X17317384Y-11827105D01*
G37*
G36*
X18983339Y-10376658D02*
G01*
X19038125Y-10383871D01*
X19051906Y-10390297D01*
X19070671Y-10394030D01*
X19095526Y-10410637D01*
X19117819Y-10421033D01*
X19131380Y-10434594D01*
X19151777Y-10448223D01*
X19165405Y-10468619D01*
X19178966Y-10482180D01*
X19189360Y-10504470D01*
X19205970Y-10529329D01*
X19209702Y-10548095D01*
X19216128Y-10561874D01*
X19223338Y-10616648D01*
X19225000Y-10625000D01*
X19225000Y-11025000D01*
X19223338Y-11033353D01*
X19216128Y-11088125D01*
X19209703Y-11101903D01*
X19205970Y-11120671D01*
X19189358Y-11145531D01*
X19178966Y-11167819D01*
X19165407Y-11181377D01*
X19151777Y-11201777D01*
X19131377Y-11215407D01*
X19117819Y-11228966D01*
X19095531Y-11239358D01*
X19070671Y-11255970D01*
X19051903Y-11259703D01*
X19038125Y-11266128D01*
X18983353Y-11273338D01*
X18975000Y-11275000D01*
X18425000Y-11275000D01*
X18416648Y-11273338D01*
X18361874Y-11266128D01*
X18348095Y-11259702D01*
X18329329Y-11255970D01*
X18304470Y-11239360D01*
X18282180Y-11228966D01*
X18268619Y-11215405D01*
X18248223Y-11201777D01*
X18234594Y-11181380D01*
X18221033Y-11167819D01*
X18210637Y-11145526D01*
X18194030Y-11120671D01*
X18190297Y-11101906D01*
X18183871Y-11088125D01*
X18176658Y-11033339D01*
X18175000Y-11025000D01*
X18175000Y-10625000D01*
X18176658Y-10616662D01*
X18183871Y-10561874D01*
X18190297Y-10548091D01*
X18194030Y-10529329D01*
X18210636Y-10504475D01*
X18221033Y-10482180D01*
X18234596Y-10468616D01*
X18248223Y-10448223D01*
X18268616Y-10434596D01*
X18282180Y-10421033D01*
X18304475Y-10410636D01*
X18329329Y-10394030D01*
X18348091Y-10390297D01*
X18361874Y-10383871D01*
X18416662Y-10376658D01*
X18425000Y-10375000D01*
X18975000Y-10375000D01*
X18983339Y-10376658D01*
G37*
G36*
X7713412Y-9854739D02*
G01*
X7753349Y-9854739D01*
X7786978Y-9863027D01*
X7819543Y-9866697D01*
X7861669Y-9881437D01*
X7905493Y-9892239D01*
X7931406Y-9905839D01*
X7956849Y-9914742D01*
X7999851Y-9941762D01*
X8044242Y-9965060D01*
X8062078Y-9980861D01*
X8080012Y-9992130D01*
X8120506Y-10032624D01*
X8161532Y-10068970D01*
X8171960Y-10084078D01*
X8182869Y-10094987D01*
X8217163Y-10149567D01*
X8250546Y-10197930D01*
X8255104Y-10209949D01*
X8260257Y-10218150D01*
X8284617Y-10287767D01*
X8306112Y-10344445D01*
X8306995Y-10351722D01*
X8308302Y-10355456D01*
X8319283Y-10452923D01*
X8325000Y-10500000D01*
X8319283Y-10547080D01*
X8308302Y-10644543D01*
X8306995Y-10648275D01*
X8306112Y-10655555D01*
X8284612Y-10712244D01*
X8260257Y-10781849D01*
X8255105Y-10790047D01*
X8250546Y-10802070D01*
X8217156Y-10850442D01*
X8182869Y-10905012D01*
X8171962Y-10915918D01*
X8161532Y-10931030D01*
X8120498Y-10967382D01*
X8080012Y-11007869D01*
X8062082Y-11019135D01*
X8044242Y-11034940D01*
X7999841Y-11058243D01*
X7956849Y-11085257D01*
X7931411Y-11094157D01*
X7905493Y-11107761D01*
X7861659Y-11118564D01*
X7819543Y-11133302D01*
X7786986Y-11136970D01*
X7753349Y-11145261D01*
X7713403Y-11145261D01*
X7674999Y-11149588D01*
X7636596Y-11145261D01*
X7596651Y-11145261D01*
X7563015Y-11136970D01*
X7530456Y-11133302D01*
X7488337Y-11118564D01*
X7444507Y-11107761D01*
X7418590Y-11094158D01*
X7393150Y-11085257D01*
X7350152Y-11058239D01*
X7305758Y-11034940D01*
X7287920Y-11019137D01*
X7269987Y-11007869D01*
X7229493Y-10967375D01*
X7188468Y-10931030D01*
X7178039Y-10915921D01*
X7167130Y-10905012D01*
X7132832Y-10850426D01*
X7099454Y-10802070D01*
X7094896Y-10790051D01*
X7089742Y-10781849D01*
X7065374Y-10712210D01*
X7043888Y-10655555D01*
X7043004Y-10648280D01*
X7041697Y-10644543D01*
X7030702Y-10546966D01*
X7025000Y-10500000D01*
X7030702Y-10453037D01*
X7041697Y-10355456D01*
X7043004Y-10351718D01*
X7043888Y-10344445D01*
X7065370Y-10287801D01*
X7089742Y-10218150D01*
X7094896Y-10209945D01*
X7099454Y-10197930D01*
X7132825Y-10149583D01*
X7167130Y-10094987D01*
X7178041Y-10084075D01*
X7188468Y-10068970D01*
X7229484Y-10032632D01*
X7269987Y-9992130D01*
X7287924Y-9980859D01*
X7305758Y-9965060D01*
X7350142Y-9941765D01*
X7393150Y-9914742D01*
X7418595Y-9905838D01*
X7444507Y-9892239D01*
X7488327Y-9881438D01*
X7530456Y-9866697D01*
X7563022Y-9863027D01*
X7596651Y-9854739D01*
X7636587Y-9854739D01*
X7675000Y-9850411D01*
X7713412Y-9854739D01*
G37*
G36*
X9713412Y-9854739D02*
G01*
X9753349Y-9854739D01*
X9786978Y-9863027D01*
X9819543Y-9866697D01*
X9861669Y-9881437D01*
X9905493Y-9892239D01*
X9931406Y-9905839D01*
X9956849Y-9914742D01*
X9999851Y-9941762D01*
X10044242Y-9965060D01*
X10062078Y-9980861D01*
X10080012Y-9992130D01*
X10120506Y-10032624D01*
X10161532Y-10068970D01*
X10171960Y-10084078D01*
X10182869Y-10094987D01*
X10217163Y-10149567D01*
X10250546Y-10197930D01*
X10255104Y-10209949D01*
X10260257Y-10218150D01*
X10284617Y-10287767D01*
X10306112Y-10344445D01*
X10306995Y-10351722D01*
X10308302Y-10355456D01*
X10319283Y-10452923D01*
X10325000Y-10500000D01*
X10319283Y-10547080D01*
X10308302Y-10644543D01*
X10306995Y-10648275D01*
X10306112Y-10655555D01*
X10284612Y-10712244D01*
X10260257Y-10781849D01*
X10255105Y-10790047D01*
X10250546Y-10802070D01*
X10217156Y-10850442D01*
X10182869Y-10905012D01*
X10171962Y-10915918D01*
X10161532Y-10931030D01*
X10120498Y-10967382D01*
X10080012Y-11007869D01*
X10062082Y-11019135D01*
X10044242Y-11034940D01*
X9999841Y-11058243D01*
X9956849Y-11085257D01*
X9931411Y-11094157D01*
X9905493Y-11107761D01*
X9861659Y-11118564D01*
X9819543Y-11133302D01*
X9786986Y-11136970D01*
X9753349Y-11145261D01*
X9713403Y-11145261D01*
X9674999Y-11149588D01*
X9636596Y-11145261D01*
X9596651Y-11145261D01*
X9563015Y-11136970D01*
X9530456Y-11133302D01*
X9488337Y-11118564D01*
X9444507Y-11107761D01*
X9418590Y-11094158D01*
X9393150Y-11085257D01*
X9350152Y-11058239D01*
X9305758Y-11034940D01*
X9287920Y-11019137D01*
X9269987Y-11007869D01*
X9229493Y-10967375D01*
X9188468Y-10931030D01*
X9178039Y-10915921D01*
X9167130Y-10905012D01*
X9132832Y-10850426D01*
X9099454Y-10802070D01*
X9094896Y-10790051D01*
X9089742Y-10781849D01*
X9065374Y-10712210D01*
X9043888Y-10655555D01*
X9043004Y-10648280D01*
X9041697Y-10644543D01*
X9030702Y-10546966D01*
X9025000Y-10500000D01*
X9030702Y-10453037D01*
X9041697Y-10355456D01*
X9043004Y-10351718D01*
X9043888Y-10344445D01*
X9065370Y-10287801D01*
X9089742Y-10218150D01*
X9094896Y-10209945D01*
X9099454Y-10197930D01*
X9132825Y-10149583D01*
X9167130Y-10094987D01*
X9178041Y-10084075D01*
X9188468Y-10068970D01*
X9229484Y-10032632D01*
X9269987Y-9992130D01*
X9287924Y-9980859D01*
X9305758Y-9965060D01*
X9350142Y-9941765D01*
X9393150Y-9914742D01*
X9418595Y-9905838D01*
X9444507Y-9892239D01*
X9488327Y-9881438D01*
X9530456Y-9866697D01*
X9563022Y-9863027D01*
X9596651Y-9854739D01*
X9636587Y-9854739D01*
X9675000Y-9850411D01*
X9713412Y-9854739D01*
G37*
G36*
X14395796Y-10344082D02*
G01*
X14455815Y-10384185D01*
X14495918Y-10444204D01*
X14510000Y-10515000D01*
X14510000Y-10885000D01*
X14495918Y-10955796D01*
X14455815Y-11015815D01*
X14395796Y-11055918D01*
X14325000Y-11070000D01*
X14055000Y-11070000D01*
X13984204Y-11055918D01*
X13924185Y-11015815D01*
X13884082Y-10955796D01*
X13870000Y-10885000D01*
X13870000Y-10515000D01*
X13884082Y-10444204D01*
X13924185Y-10384185D01*
X13984204Y-10344082D01*
X14055000Y-10330000D01*
X14325000Y-10330000D01*
X14395796Y-10344082D01*
G37*
G36*
X15415796Y-10344082D02*
G01*
X15475815Y-10384185D01*
X15515918Y-10444204D01*
X15530000Y-10515000D01*
X15530000Y-10885000D01*
X15515918Y-10955796D01*
X15475815Y-11015815D01*
X15415796Y-11055918D01*
X15345000Y-11070000D01*
X15075000Y-11070000D01*
X15004204Y-11055918D01*
X14944185Y-11015815D01*
X14904082Y-10955796D01*
X14890000Y-10885000D01*
X14890000Y-10515000D01*
X14904082Y-10444204D01*
X14944185Y-10384185D01*
X15004204Y-10344082D01*
X15075000Y-10330000D01*
X15345000Y-10330000D01*
X15415796Y-10344082D01*
G37*
G36*
X16395796Y-10344082D02*
G01*
X16455815Y-10384185D01*
X16495918Y-10444204D01*
X16510000Y-10515000D01*
X16510000Y-10885000D01*
X16495918Y-10955796D01*
X16455815Y-11015815D01*
X16395796Y-11055918D01*
X16325000Y-11070000D01*
X16055000Y-11070000D01*
X15984204Y-11055918D01*
X15924185Y-11015815D01*
X15884082Y-10955796D01*
X15870000Y-10885000D01*
X15870000Y-10515000D01*
X15884082Y-10444204D01*
X15924185Y-10384185D01*
X15984204Y-10344082D01*
X16055000Y-10330000D01*
X16325000Y-10330000D01*
X16395796Y-10344082D01*
G37*
G36*
X17415796Y-10344082D02*
G01*
X17475815Y-10384185D01*
X17515918Y-10444204D01*
X17530000Y-10515000D01*
X17530000Y-10885000D01*
X17515918Y-10955796D01*
X17475815Y-11015815D01*
X17415796Y-11055918D01*
X17345000Y-11070000D01*
X17075000Y-11070000D01*
X17004204Y-11055918D01*
X16944185Y-11015815D01*
X16904082Y-10955796D01*
X16890000Y-10885000D01*
X16890000Y-10515000D01*
X16904082Y-10444204D01*
X16944185Y-10384185D01*
X17004204Y-10344082D01*
X17075000Y-10330000D01*
X17345000Y-10330000D01*
X17415796Y-10344082D01*
G37*
G36*
X21083339Y-10076658D02*
G01*
X21138125Y-10083871D01*
X21151906Y-10090297D01*
X21170671Y-10094030D01*
X21195526Y-10110637D01*
X21217819Y-10121033D01*
X21231380Y-10134594D01*
X21251777Y-10148223D01*
X21265405Y-10168619D01*
X21278966Y-10182180D01*
X21289360Y-10204470D01*
X21305970Y-10229329D01*
X21309702Y-10248095D01*
X21316128Y-10261874D01*
X21323338Y-10316648D01*
X21325000Y-10325000D01*
X21325000Y-10725000D01*
X21323338Y-10733353D01*
X21316128Y-10788125D01*
X21309703Y-10801903D01*
X21305970Y-10820671D01*
X21289358Y-10845531D01*
X21278966Y-10867819D01*
X21265407Y-10881377D01*
X21251777Y-10901777D01*
X21231377Y-10915407D01*
X21217819Y-10928966D01*
X21195531Y-10939358D01*
X21170671Y-10955970D01*
X21151903Y-10959703D01*
X21138125Y-10966128D01*
X21083353Y-10973338D01*
X21075000Y-10975000D01*
X20525000Y-10975000D01*
X20516648Y-10973338D01*
X20461874Y-10966128D01*
X20448095Y-10959702D01*
X20429329Y-10955970D01*
X20404470Y-10939360D01*
X20382180Y-10928966D01*
X20368619Y-10915405D01*
X20348223Y-10901777D01*
X20334594Y-10881380D01*
X20321033Y-10867819D01*
X20310637Y-10845526D01*
X20294030Y-10820671D01*
X20290297Y-10801906D01*
X20283871Y-10788125D01*
X20276658Y-10733339D01*
X20275000Y-10725000D01*
X20275000Y-10325000D01*
X20276658Y-10316662D01*
X20283871Y-10261874D01*
X20290297Y-10248091D01*
X20294030Y-10229329D01*
X20310636Y-10204475D01*
X20321033Y-10182180D01*
X20334596Y-10168616D01*
X20348223Y-10148223D01*
X20368616Y-10134596D01*
X20382180Y-10121033D01*
X20404475Y-10110636D01*
X20429329Y-10094030D01*
X20448091Y-10090297D01*
X20461874Y-10083871D01*
X20516662Y-10076658D01*
X20525000Y-10075000D01*
X21075000Y-10075000D01*
X21083339Y-10076658D01*
G37*
G36*
X41195796Y-10081582D02*
G01*
X41255815Y-10121685D01*
X41295918Y-10181704D01*
X41310000Y-10252500D01*
X41310000Y-10622500D01*
X41295918Y-10693296D01*
X41255815Y-10753315D01*
X41195796Y-10793418D01*
X41125000Y-10807500D01*
X40855000Y-10807500D01*
X40784204Y-10793418D01*
X40724185Y-10753315D01*
X40684082Y-10693296D01*
X40670000Y-10622500D01*
X40670000Y-10252500D01*
X40684082Y-10181704D01*
X40724185Y-10121685D01*
X40784204Y-10081582D01*
X40855000Y-10067500D01*
X41125000Y-10067500D01*
X41195796Y-10081582D01*
G37*
G36*
X42215796Y-10081582D02*
G01*
X42275815Y-10121685D01*
X42315918Y-10181704D01*
X42330000Y-10252500D01*
X42330000Y-10622500D01*
X42315918Y-10693296D01*
X42275815Y-10753315D01*
X42215796Y-10793418D01*
X42145000Y-10807500D01*
X41875000Y-10807500D01*
X41804204Y-10793418D01*
X41744185Y-10753315D01*
X41704082Y-10693296D01*
X41690000Y-10622500D01*
X41690000Y-10252500D01*
X41704082Y-10181704D01*
X41744185Y-10121685D01*
X41804204Y-10081582D01*
X41875000Y-10067500D01*
X42145000Y-10067500D01*
X42215796Y-10081582D01*
G37*
G36*
X26621937Y-8685074D02*
G01*
X26653029Y-8685074D01*
X26676982Y-8693792D01*
X26698019Y-8697124D01*
X26727730Y-8712262D01*
X26762097Y-8724771D01*
X26777275Y-8737507D01*
X26790960Y-8744480D01*
X26818993Y-8772513D01*
X26851009Y-8799378D01*
X26858045Y-8811565D01*
X26864713Y-8818233D01*
X26885886Y-8859787D01*
X26909042Y-8899895D01*
X26910481Y-8908058D01*
X26912069Y-8911174D01*
X26921233Y-8969036D01*
X26929197Y-9014198D01*
X26929197Y-10396012D01*
X26921232Y-10441182D01*
X26912069Y-10499035D01*
X26910481Y-10502150D01*
X26909042Y-10510315D01*
X26885882Y-10550429D01*
X26864713Y-10591976D01*
X26858046Y-10598642D01*
X26851009Y-10610832D01*
X26818988Y-10637700D01*
X26790960Y-10665729D01*
X26777276Y-10672701D01*
X26762096Y-10685439D01*
X26727724Y-10697948D01*
X26698019Y-10713085D01*
X26676986Y-10716416D01*
X26653029Y-10725136D01*
X26621931Y-10725136D01*
X26594996Y-10729402D01*
X26568061Y-10725136D01*
X26536963Y-10725136D01*
X26513005Y-10716416D01*
X26491972Y-10713085D01*
X26462265Y-10697948D01*
X26427895Y-10685439D01*
X26412715Y-10672701D01*
X26399031Y-10665729D01*
X26370998Y-10637696D01*
X26338983Y-10610832D01*
X26331946Y-10598644D01*
X26325278Y-10591976D01*
X26304101Y-10550414D01*
X26280950Y-10510315D01*
X26279510Y-10502153D01*
X26277922Y-10499035D01*
X26268755Y-10441156D01*
X26260795Y-10396012D01*
X26260795Y-9014198D01*
X26268753Y-8969061D01*
X26277922Y-8911174D01*
X26279511Y-8908055D01*
X26280950Y-8899895D01*
X26304097Y-8859802D01*
X26325278Y-8818233D01*
X26331948Y-8811562D01*
X26338983Y-8799378D01*
X26370990Y-8772520D01*
X26399031Y-8744480D01*
X26412720Y-8737504D01*
X26427896Y-8724771D01*
X26462256Y-8712264D01*
X26491972Y-8697124D01*
X26513010Y-8693791D01*
X26536963Y-8685074D01*
X26568055Y-8685074D01*
X26594996Y-8680807D01*
X26621937Y-8685074D01*
G37*
G36*
X27891940Y-8685074D02*
G01*
X27923032Y-8685074D01*
X27946985Y-8693792D01*
X27968022Y-8697124D01*
X27997733Y-8712262D01*
X28032100Y-8724771D01*
X28047278Y-8737507D01*
X28060963Y-8744480D01*
X28088996Y-8772513D01*
X28121012Y-8799378D01*
X28128048Y-8811565D01*
X28134716Y-8818233D01*
X28155889Y-8859787D01*
X28179045Y-8899895D01*
X28180484Y-8908058D01*
X28182072Y-8911174D01*
X28191236Y-8969036D01*
X28199200Y-9014198D01*
X28199200Y-10396012D01*
X28191235Y-10441182D01*
X28182072Y-10499035D01*
X28180484Y-10502150D01*
X28179045Y-10510315D01*
X28155885Y-10550429D01*
X28134716Y-10591976D01*
X28128049Y-10598642D01*
X28121012Y-10610832D01*
X28088991Y-10637700D01*
X28060963Y-10665729D01*
X28047279Y-10672701D01*
X28032099Y-10685439D01*
X27997727Y-10697948D01*
X27968022Y-10713085D01*
X27946989Y-10716416D01*
X27923032Y-10725136D01*
X27891934Y-10725136D01*
X27864999Y-10729402D01*
X27838064Y-10725136D01*
X27806966Y-10725136D01*
X27783008Y-10716416D01*
X27761975Y-10713085D01*
X27732268Y-10697948D01*
X27697898Y-10685439D01*
X27682718Y-10672701D01*
X27669034Y-10665729D01*
X27641001Y-10637696D01*
X27608986Y-10610832D01*
X27601949Y-10598644D01*
X27595281Y-10591976D01*
X27574104Y-10550414D01*
X27550953Y-10510315D01*
X27549513Y-10502153D01*
X27547925Y-10499035D01*
X27538758Y-10441156D01*
X27530798Y-10396012D01*
X27530798Y-9014198D01*
X27538756Y-8969061D01*
X27547925Y-8911174D01*
X27549514Y-8908055D01*
X27550953Y-8899895D01*
X27574100Y-8859802D01*
X27595281Y-8818233D01*
X27601951Y-8811562D01*
X27608986Y-8799378D01*
X27640993Y-8772520D01*
X27669034Y-8744480D01*
X27682723Y-8737504D01*
X27697899Y-8724771D01*
X27732259Y-8712264D01*
X27761975Y-8697124D01*
X27783013Y-8693791D01*
X27806966Y-8685074D01*
X27838058Y-8685074D01*
X27864999Y-8680807D01*
X27891940Y-8685074D01*
G37*
G36*
X29161942Y-8685074D02*
G01*
X29193034Y-8685074D01*
X29216987Y-8693792D01*
X29238024Y-8697124D01*
X29267735Y-8712262D01*
X29302102Y-8724771D01*
X29317280Y-8737507D01*
X29330965Y-8744480D01*
X29358998Y-8772513D01*
X29391014Y-8799378D01*
X29398050Y-8811565D01*
X29404718Y-8818233D01*
X29425891Y-8859787D01*
X29449047Y-8899895D01*
X29450486Y-8908058D01*
X29452074Y-8911174D01*
X29461238Y-8969036D01*
X29469202Y-9014198D01*
X29469202Y-10396012D01*
X29461237Y-10441182D01*
X29452074Y-10499035D01*
X29450486Y-10502150D01*
X29449047Y-10510315D01*
X29425887Y-10550429D01*
X29404718Y-10591976D01*
X29398051Y-10598642D01*
X29391014Y-10610832D01*
X29358993Y-10637700D01*
X29330965Y-10665729D01*
X29317281Y-10672701D01*
X29302101Y-10685439D01*
X29267729Y-10697948D01*
X29238024Y-10713085D01*
X29216991Y-10716416D01*
X29193034Y-10725136D01*
X29161936Y-10725136D01*
X29135001Y-10729402D01*
X29108066Y-10725136D01*
X29076968Y-10725136D01*
X29053010Y-10716416D01*
X29031977Y-10713085D01*
X29002270Y-10697948D01*
X28967900Y-10685439D01*
X28952720Y-10672701D01*
X28939036Y-10665729D01*
X28911003Y-10637696D01*
X28878988Y-10610832D01*
X28871951Y-10598644D01*
X28865283Y-10591976D01*
X28844106Y-10550414D01*
X28820955Y-10510315D01*
X28819515Y-10502153D01*
X28817927Y-10499035D01*
X28808760Y-10441156D01*
X28800800Y-10396012D01*
X28800800Y-9014198D01*
X28808758Y-8969061D01*
X28817927Y-8911174D01*
X28819516Y-8908055D01*
X28820955Y-8899895D01*
X28844102Y-8859802D01*
X28865283Y-8818233D01*
X28871953Y-8811562D01*
X28878988Y-8799378D01*
X28910995Y-8772520D01*
X28939036Y-8744480D01*
X28952725Y-8737504D01*
X28967901Y-8724771D01*
X29002261Y-8712264D01*
X29031977Y-8697124D01*
X29053015Y-8693791D01*
X29076968Y-8685074D01*
X29108060Y-8685074D01*
X29135001Y-8680807D01*
X29161942Y-8685074D01*
G37*
G36*
X30431945Y-8685074D02*
G01*
X30463037Y-8685074D01*
X30486990Y-8693792D01*
X30508027Y-8697124D01*
X30537738Y-8712262D01*
X30572105Y-8724771D01*
X30587283Y-8737507D01*
X30600968Y-8744480D01*
X30629001Y-8772513D01*
X30661017Y-8799378D01*
X30668053Y-8811565D01*
X30674721Y-8818233D01*
X30695894Y-8859787D01*
X30719050Y-8899895D01*
X30720489Y-8908058D01*
X30722077Y-8911174D01*
X30731241Y-8969036D01*
X30739205Y-9014198D01*
X30739205Y-10396012D01*
X30731240Y-10441182D01*
X30722077Y-10499035D01*
X30720489Y-10502150D01*
X30719050Y-10510315D01*
X30695890Y-10550429D01*
X30674721Y-10591976D01*
X30668054Y-10598642D01*
X30661017Y-10610832D01*
X30628996Y-10637700D01*
X30600968Y-10665729D01*
X30587284Y-10672701D01*
X30572104Y-10685439D01*
X30537732Y-10697948D01*
X30508027Y-10713085D01*
X30486994Y-10716416D01*
X30463037Y-10725136D01*
X30431939Y-10725136D01*
X30405004Y-10729402D01*
X30378069Y-10725136D01*
X30346971Y-10725136D01*
X30323013Y-10716416D01*
X30301980Y-10713085D01*
X30272273Y-10697948D01*
X30237903Y-10685439D01*
X30222723Y-10672701D01*
X30209039Y-10665729D01*
X30181006Y-10637696D01*
X30148991Y-10610832D01*
X30141954Y-10598644D01*
X30135286Y-10591976D01*
X30114109Y-10550414D01*
X30090958Y-10510315D01*
X30089518Y-10502153D01*
X30087930Y-10499035D01*
X30078763Y-10441156D01*
X30070803Y-10396012D01*
X30070803Y-9014198D01*
X30078761Y-8969061D01*
X30087930Y-8911174D01*
X30089519Y-8908055D01*
X30090958Y-8899895D01*
X30114105Y-8859802D01*
X30135286Y-8818233D01*
X30141956Y-8811562D01*
X30148991Y-8799378D01*
X30180998Y-8772520D01*
X30209039Y-8744480D01*
X30222728Y-8737504D01*
X30237904Y-8724771D01*
X30272264Y-8712264D01*
X30301980Y-8697124D01*
X30323018Y-8693791D01*
X30346971Y-8685074D01*
X30378063Y-8685074D01*
X30405004Y-8680807D01*
X30431945Y-8685074D01*
G37*
G36*
X32255796Y-10004082D02*
G01*
X32315815Y-10044185D01*
X32355918Y-10104204D01*
X32370000Y-10175000D01*
X32370000Y-10445000D01*
X32355918Y-10515796D01*
X32315815Y-10575815D01*
X32255796Y-10615918D01*
X32185000Y-10630000D01*
X31815000Y-10630000D01*
X31744204Y-10615918D01*
X31684185Y-10575815D01*
X31644082Y-10515796D01*
X31630000Y-10445000D01*
X31630000Y-10175000D01*
X31644082Y-10104204D01*
X31684185Y-10044185D01*
X31744204Y-10004082D01*
X31815000Y-9990000D01*
X32185000Y-9990000D01*
X32255796Y-10004082D01*
G37*
G36*
X39783339Y-9714158D02*
G01*
X39838125Y-9721371D01*
X39851906Y-9727797D01*
X39870671Y-9731530D01*
X39895526Y-9748137D01*
X39917819Y-9758533D01*
X39931380Y-9772094D01*
X39951777Y-9785723D01*
X39965405Y-9806119D01*
X39978966Y-9819680D01*
X39989360Y-9841970D01*
X40005970Y-9866829D01*
X40009702Y-9885595D01*
X40016128Y-9899374D01*
X40023338Y-9954148D01*
X40025000Y-9962500D01*
X40025000Y-10362500D01*
X40023338Y-10370853D01*
X40016128Y-10425625D01*
X40009703Y-10439403D01*
X40005970Y-10458171D01*
X39989358Y-10483031D01*
X39978966Y-10505319D01*
X39965407Y-10518877D01*
X39951777Y-10539277D01*
X39931377Y-10552907D01*
X39917819Y-10566466D01*
X39895531Y-10576858D01*
X39870671Y-10593470D01*
X39851903Y-10597203D01*
X39838125Y-10603628D01*
X39783353Y-10610838D01*
X39775000Y-10612500D01*
X39225000Y-10612500D01*
X39216648Y-10610838D01*
X39161874Y-10603628D01*
X39148095Y-10597202D01*
X39129329Y-10593470D01*
X39104470Y-10576860D01*
X39082180Y-10566466D01*
X39068619Y-10552905D01*
X39048223Y-10539277D01*
X39034594Y-10518880D01*
X39021033Y-10505319D01*
X39010637Y-10483026D01*
X38994030Y-10458171D01*
X38990297Y-10439406D01*
X38983871Y-10425625D01*
X38976658Y-10370839D01*
X38975000Y-10362500D01*
X38975000Y-9962500D01*
X38976658Y-9954162D01*
X38983871Y-9899374D01*
X38990297Y-9885591D01*
X38994030Y-9866829D01*
X39010636Y-9841975D01*
X39021033Y-9819680D01*
X39034596Y-9806116D01*
X39048223Y-9785723D01*
X39068616Y-9772096D01*
X39082180Y-9758533D01*
X39104475Y-9748136D01*
X39129329Y-9731530D01*
X39148091Y-9727797D01*
X39161874Y-9721371D01*
X39216662Y-9714158D01*
X39225000Y-9712500D01*
X39775000Y-9712500D01*
X39783339Y-9714158D01*
G37*
G36*
X43783339Y-9714158D02*
G01*
X43838125Y-9721371D01*
X43851906Y-9727797D01*
X43870671Y-9731530D01*
X43895526Y-9748137D01*
X43917819Y-9758533D01*
X43931380Y-9772094D01*
X43951777Y-9785723D01*
X43965405Y-9806119D01*
X43978966Y-9819680D01*
X43989360Y-9841970D01*
X44005970Y-9866829D01*
X44009702Y-9885595D01*
X44016128Y-9899374D01*
X44023338Y-9954148D01*
X44025000Y-9962500D01*
X44025000Y-10362500D01*
X44023338Y-10370853D01*
X44016128Y-10425625D01*
X44009703Y-10439403D01*
X44005970Y-10458171D01*
X43989358Y-10483031D01*
X43978966Y-10505319D01*
X43965407Y-10518877D01*
X43951777Y-10539277D01*
X43931377Y-10552907D01*
X43917819Y-10566466D01*
X43895531Y-10576858D01*
X43870671Y-10593470D01*
X43851903Y-10597203D01*
X43838125Y-10603628D01*
X43783353Y-10610838D01*
X43775000Y-10612500D01*
X43225000Y-10612500D01*
X43216648Y-10610838D01*
X43161874Y-10603628D01*
X43148095Y-10597202D01*
X43129329Y-10593470D01*
X43104470Y-10576860D01*
X43082180Y-10566466D01*
X43068619Y-10552905D01*
X43048223Y-10539277D01*
X43034594Y-10518880D01*
X43021033Y-10505319D01*
X43010637Y-10483026D01*
X42994030Y-10458171D01*
X42990297Y-10439406D01*
X42983871Y-10425625D01*
X42976658Y-10370839D01*
X42975000Y-10362500D01*
X42975000Y-9962500D01*
X42976658Y-9954162D01*
X42983871Y-9899374D01*
X42990297Y-9885591D01*
X42994030Y-9866829D01*
X43010636Y-9841975D01*
X43021033Y-9819680D01*
X43034596Y-9806116D01*
X43048223Y-9785723D01*
X43068616Y-9772096D01*
X43082180Y-9758533D01*
X43104475Y-9748136D01*
X43129329Y-9731530D01*
X43148091Y-9727797D01*
X43161874Y-9721371D01*
X43216662Y-9714158D01*
X43225000Y-9712500D01*
X43775000Y-9712500D01*
X43783339Y-9714158D01*
G37*
G36*
X37195796Y-9644082D02*
G01*
X37255815Y-9684185D01*
X37295918Y-9744204D01*
X37310000Y-9815000D01*
X37310000Y-10185000D01*
X37295918Y-10255796D01*
X37255815Y-10315815D01*
X37195796Y-10355918D01*
X37125000Y-10370000D01*
X36855000Y-10370000D01*
X36784204Y-10355918D01*
X36724185Y-10315815D01*
X36684082Y-10255796D01*
X36670000Y-10185000D01*
X36670000Y-9815000D01*
X36684082Y-9744204D01*
X36724185Y-9684185D01*
X36784204Y-9644082D01*
X36855000Y-9630000D01*
X37125000Y-9630000D01*
X37195796Y-9644082D01*
G37*
G36*
X38215796Y-9644082D02*
G01*
X38275815Y-9684185D01*
X38315918Y-9744204D01*
X38330000Y-9815000D01*
X38330000Y-10185000D01*
X38315918Y-10255796D01*
X38275815Y-10315815D01*
X38215796Y-10355918D01*
X38145000Y-10370000D01*
X37875000Y-10370000D01*
X37804204Y-10355918D01*
X37744185Y-10315815D01*
X37704082Y-10255796D01*
X37690000Y-10185000D01*
X37690000Y-9815000D01*
X37704082Y-9744204D01*
X37744185Y-9684185D01*
X37804204Y-9644082D01*
X37875000Y-9630000D01*
X38145000Y-9630000D01*
X38215796Y-9644082D01*
G37*
G36*
X33626524Y-9615186D02*
G01*
X33691408Y-9658541D01*
X33734763Y-9723425D01*
X33749987Y-9799962D01*
X33749987Y-10099962D01*
X33734763Y-10176499D01*
X33691408Y-10241383D01*
X33626524Y-10284738D01*
X33549987Y-10299962D01*
X32749987Y-10299962D01*
X32673450Y-10284738D01*
X32608566Y-10241383D01*
X32565211Y-10176499D01*
X32549987Y-10099962D01*
X32549987Y-9799962D01*
X32565211Y-9723425D01*
X32608566Y-9658541D01*
X32673450Y-9615186D01*
X32749987Y-9599962D01*
X33549987Y-9599962D01*
X33626524Y-9615186D01*
G37*
G36*
X36326550Y-9615186D02*
G01*
X36391434Y-9658541D01*
X36434789Y-9723425D01*
X36450013Y-9799962D01*
X36450013Y-10099962D01*
X36434789Y-10176499D01*
X36391434Y-10241383D01*
X36326550Y-10284738D01*
X36250013Y-10299962D01*
X35450013Y-10299962D01*
X35373476Y-10284738D01*
X35308592Y-10241383D01*
X35265237Y-10176499D01*
X35250013Y-10099962D01*
X35250013Y-9799962D01*
X35265237Y-9723425D01*
X35308592Y-9658541D01*
X35373476Y-9615186D01*
X35450013Y-9599962D01*
X36250013Y-9599962D01*
X36326550Y-9615186D01*
G37*
G36*
X14395796Y-9144082D02*
G01*
X14455815Y-9184185D01*
X14495918Y-9244204D01*
X14510000Y-9315000D01*
X14510000Y-9685000D01*
X14495918Y-9755796D01*
X14455815Y-9815815D01*
X14395796Y-9855918D01*
X14325000Y-9870000D01*
X14055000Y-9870000D01*
X13984204Y-9855918D01*
X13924185Y-9815815D01*
X13884082Y-9755796D01*
X13870000Y-9685000D01*
X13870000Y-9315000D01*
X13884082Y-9244204D01*
X13924185Y-9184185D01*
X13984204Y-9144082D01*
X14055000Y-9130000D01*
X14325000Y-9130000D01*
X14395796Y-9144082D01*
G37*
G36*
X15415796Y-9144082D02*
G01*
X15475815Y-9184185D01*
X15515918Y-9244204D01*
X15530000Y-9315000D01*
X15530000Y-9685000D01*
X15515918Y-9755796D01*
X15475815Y-9815815D01*
X15415796Y-9855918D01*
X15345000Y-9870000D01*
X15075000Y-9870000D01*
X15004204Y-9855918D01*
X14944185Y-9815815D01*
X14904082Y-9755796D01*
X14890000Y-9685000D01*
X14890000Y-9315000D01*
X14904082Y-9244204D01*
X14944185Y-9184185D01*
X15004204Y-9144082D01*
X15075000Y-9130000D01*
X15345000Y-9130000D01*
X15415796Y-9144082D01*
G37*
G36*
X41195796Y-9081582D02*
G01*
X41255815Y-9121685D01*
X41295918Y-9181704D01*
X41310000Y-9252500D01*
X41310000Y-9622500D01*
X41295918Y-9693296D01*
X41255815Y-9753315D01*
X41195796Y-9793418D01*
X41125000Y-9807500D01*
X40855000Y-9807500D01*
X40784204Y-9793418D01*
X40724185Y-9753315D01*
X40684082Y-9693296D01*
X40670000Y-9622500D01*
X40670000Y-9252500D01*
X40684082Y-9181704D01*
X40724185Y-9121685D01*
X40784204Y-9081582D01*
X40855000Y-9067500D01*
X41125000Y-9067500D01*
X41195796Y-9081582D01*
G37*
G36*
X42215796Y-9081582D02*
G01*
X42275815Y-9121685D01*
X42315918Y-9181704D01*
X42330000Y-9252500D01*
X42330000Y-9622500D01*
X42315918Y-9693296D01*
X42275815Y-9753315D01*
X42215796Y-9793418D01*
X42145000Y-9807500D01*
X41875000Y-9807500D01*
X41804204Y-9793418D01*
X41744185Y-9753315D01*
X41704082Y-9693296D01*
X41690000Y-9622500D01*
X41690000Y-9252500D01*
X41704082Y-9181704D01*
X41744185Y-9121685D01*
X41804204Y-9081582D01*
X41875000Y-9067500D01*
X42145000Y-9067500D01*
X42215796Y-9081582D01*
G37*
G36*
X12283339Y-8776658D02*
G01*
X12338125Y-8783871D01*
X12351906Y-8790297D01*
X12370671Y-8794030D01*
X12395526Y-8810637D01*
X12417819Y-8821033D01*
X12431380Y-8834594D01*
X12451777Y-8848223D01*
X12465405Y-8868619D01*
X12478966Y-8882180D01*
X12489360Y-8904470D01*
X12505970Y-8929329D01*
X12509702Y-8948095D01*
X12516128Y-8961874D01*
X12523338Y-9016648D01*
X12525000Y-9025000D01*
X12525000Y-9425000D01*
X12523338Y-9433353D01*
X12516128Y-9488125D01*
X12509703Y-9501903D01*
X12505970Y-9520671D01*
X12489358Y-9545531D01*
X12478966Y-9567819D01*
X12465407Y-9581377D01*
X12451777Y-9601777D01*
X12431377Y-9615407D01*
X12417819Y-9628966D01*
X12395531Y-9639358D01*
X12370671Y-9655970D01*
X12351903Y-9659703D01*
X12338125Y-9666128D01*
X12283353Y-9673338D01*
X12275000Y-9675000D01*
X11725000Y-9675000D01*
X11716648Y-9673338D01*
X11661874Y-9666128D01*
X11648095Y-9659702D01*
X11629329Y-9655970D01*
X11604470Y-9639360D01*
X11582180Y-9628966D01*
X11568619Y-9615405D01*
X11548223Y-9601777D01*
X11534594Y-9581380D01*
X11521033Y-9567819D01*
X11510637Y-9545526D01*
X11494030Y-9520671D01*
X11490297Y-9501906D01*
X11483871Y-9488125D01*
X11476658Y-9433339D01*
X11475000Y-9425000D01*
X11475000Y-9025000D01*
X11476658Y-9016662D01*
X11483871Y-8961874D01*
X11490297Y-8948091D01*
X11494030Y-8929329D01*
X11510636Y-8904475D01*
X11521033Y-8882180D01*
X11534596Y-8868616D01*
X11548223Y-8848223D01*
X11568616Y-8834596D01*
X11582180Y-8821033D01*
X11604475Y-8810636D01*
X11629329Y-8794030D01*
X11648091Y-8790297D01*
X11661874Y-8783871D01*
X11716662Y-8776658D01*
X11725000Y-8775000D01*
X12275000Y-8775000D01*
X12283339Y-8776658D01*
G37*
G36*
X18983339Y-8726658D02*
G01*
X19038125Y-8733871D01*
X19051906Y-8740297D01*
X19070671Y-8744030D01*
X19095526Y-8760637D01*
X19117819Y-8771033D01*
X19131380Y-8784594D01*
X19151777Y-8798223D01*
X19165405Y-8818619D01*
X19178966Y-8832180D01*
X19189360Y-8854470D01*
X19205970Y-8879329D01*
X19209702Y-8898095D01*
X19216128Y-8911874D01*
X19223338Y-8966648D01*
X19225000Y-8975000D01*
X19225000Y-9375000D01*
X19223338Y-9383353D01*
X19216128Y-9438125D01*
X19209703Y-9451903D01*
X19205970Y-9470671D01*
X19189358Y-9495531D01*
X19178966Y-9517819D01*
X19165407Y-9531377D01*
X19151777Y-9551777D01*
X19131377Y-9565407D01*
X19117819Y-9578966D01*
X19095531Y-9589358D01*
X19070671Y-9605970D01*
X19051903Y-9609703D01*
X19038125Y-9616128D01*
X18983353Y-9623338D01*
X18975000Y-9625000D01*
X18425000Y-9625000D01*
X18416648Y-9623338D01*
X18361874Y-9616128D01*
X18348095Y-9609702D01*
X18329329Y-9605970D01*
X18304470Y-9589360D01*
X18282180Y-9578966D01*
X18268619Y-9565405D01*
X18248223Y-9551777D01*
X18234594Y-9531380D01*
X18221033Y-9517819D01*
X18210637Y-9495526D01*
X18194030Y-9470671D01*
X18190297Y-9451906D01*
X18183871Y-9438125D01*
X18176658Y-9383339D01*
X18175000Y-9375000D01*
X18175000Y-8975000D01*
X18176658Y-8966662D01*
X18183871Y-8911874D01*
X18190297Y-8898091D01*
X18194030Y-8879329D01*
X18210636Y-8854475D01*
X18221033Y-8832180D01*
X18234596Y-8818616D01*
X18248223Y-8798223D01*
X18268616Y-8784596D01*
X18282180Y-8771033D01*
X18304475Y-8760636D01*
X18329329Y-8744030D01*
X18348091Y-8740297D01*
X18361874Y-8733871D01*
X18416662Y-8726658D01*
X18425000Y-8725000D01*
X18975000Y-8725000D01*
X18983339Y-8726658D01*
G37*
G36*
X32255796Y-8984082D02*
G01*
X32315815Y-9024185D01*
X32355918Y-9084204D01*
X32370000Y-9155000D01*
X32370000Y-9425000D01*
X32355918Y-9495796D01*
X32315815Y-9555815D01*
X32255796Y-9595918D01*
X32185000Y-9610000D01*
X31815000Y-9610000D01*
X31744204Y-9595918D01*
X31684185Y-9555815D01*
X31644082Y-9495796D01*
X31630000Y-9425000D01*
X31630000Y-9155000D01*
X31644082Y-9084204D01*
X31684185Y-9024185D01*
X31744204Y-8984082D01*
X31815000Y-8970000D01*
X32185000Y-8970000D01*
X32255796Y-8984082D01*
G37*
G36*
X33626524Y-8665224D02*
G01*
X33691408Y-8708579D01*
X33734763Y-8773463D01*
X33749987Y-8850000D01*
X33749987Y-9150000D01*
X33734763Y-9226537D01*
X33691408Y-9291421D01*
X33626524Y-9334776D01*
X33549987Y-9350000D01*
X32749987Y-9350000D01*
X32673450Y-9334776D01*
X32608566Y-9291421D01*
X32565211Y-9226537D01*
X32549987Y-9150000D01*
X32549987Y-8850000D01*
X32565211Y-8773463D01*
X32608566Y-8708579D01*
X32673450Y-8665224D01*
X32749987Y-8650000D01*
X33549987Y-8650000D01*
X33626524Y-8665224D01*
G37*
G36*
X36326550Y-8665224D02*
G01*
X36391434Y-8708579D01*
X36434789Y-8773463D01*
X36450013Y-8850000D01*
X36450013Y-9150000D01*
X36434789Y-9226537D01*
X36391434Y-9291421D01*
X36326550Y-9334776D01*
X36250013Y-9350000D01*
X35450013Y-9350000D01*
X35373476Y-9334776D01*
X35308592Y-9291421D01*
X35265237Y-9226537D01*
X35250013Y-9150000D01*
X35250013Y-8850000D01*
X35265237Y-8773463D01*
X35308592Y-8708579D01*
X35373476Y-8665224D01*
X35450013Y-8650000D01*
X36250013Y-8650000D01*
X36326550Y-8665224D01*
G37*
G36*
X21083339Y-8426658D02*
G01*
X21138125Y-8433871D01*
X21151906Y-8440297D01*
X21170671Y-8444030D01*
X21195526Y-8460637D01*
X21217819Y-8471033D01*
X21231380Y-8484594D01*
X21251777Y-8498223D01*
X21265405Y-8518619D01*
X21278966Y-8532180D01*
X21289360Y-8554470D01*
X21305970Y-8579329D01*
X21309702Y-8598095D01*
X21316128Y-8611874D01*
X21323338Y-8666648D01*
X21325000Y-8675000D01*
X21325000Y-9075000D01*
X21323338Y-9083353D01*
X21316128Y-9138125D01*
X21309703Y-9151903D01*
X21305970Y-9170671D01*
X21289358Y-9195531D01*
X21278966Y-9217819D01*
X21265407Y-9231377D01*
X21251777Y-9251777D01*
X21231377Y-9265407D01*
X21217819Y-9278966D01*
X21195531Y-9289358D01*
X21170671Y-9305970D01*
X21151903Y-9309703D01*
X21138125Y-9316128D01*
X21083353Y-9323338D01*
X21075000Y-9325000D01*
X20525000Y-9325000D01*
X20516648Y-9323338D01*
X20461874Y-9316128D01*
X20448095Y-9309702D01*
X20429329Y-9305970D01*
X20404470Y-9289360D01*
X20382180Y-9278966D01*
X20368619Y-9265405D01*
X20348223Y-9251777D01*
X20334594Y-9231380D01*
X20321033Y-9217819D01*
X20310637Y-9195526D01*
X20294030Y-9170671D01*
X20290297Y-9151906D01*
X20283871Y-9138125D01*
X20276658Y-9083339D01*
X20275000Y-9075000D01*
X20275000Y-8675000D01*
X20276658Y-8666662D01*
X20283871Y-8611874D01*
X20290297Y-8598091D01*
X20294030Y-8579329D01*
X20310636Y-8554475D01*
X20321033Y-8532180D01*
X20334596Y-8518616D01*
X20348223Y-8498223D01*
X20368616Y-8484596D01*
X20382180Y-8471033D01*
X20404475Y-8460636D01*
X20429329Y-8444030D01*
X20448091Y-8440297D01*
X20461874Y-8433871D01*
X20516662Y-8426658D01*
X20525000Y-8425000D01*
X21075000Y-8425000D01*
X21083339Y-8426658D01*
G37*
G36*
X7713412Y-7854739D02*
G01*
X7753349Y-7854739D01*
X7786978Y-7863027D01*
X7819543Y-7866697D01*
X7861669Y-7881437D01*
X7905493Y-7892239D01*
X7931406Y-7905839D01*
X7956849Y-7914742D01*
X7999851Y-7941762D01*
X8044242Y-7965060D01*
X8062078Y-7980861D01*
X8080012Y-7992130D01*
X8120506Y-8032624D01*
X8161532Y-8068970D01*
X8171960Y-8084078D01*
X8182869Y-8094987D01*
X8217163Y-8149567D01*
X8250546Y-8197930D01*
X8255104Y-8209949D01*
X8260257Y-8218150D01*
X8284617Y-8287767D01*
X8306112Y-8344445D01*
X8306995Y-8351722D01*
X8308302Y-8355456D01*
X8319283Y-8452923D01*
X8325000Y-8500000D01*
X8319283Y-8547080D01*
X8308302Y-8644543D01*
X8306995Y-8648275D01*
X8306112Y-8655555D01*
X8284612Y-8712244D01*
X8260257Y-8781849D01*
X8255105Y-8790047D01*
X8250546Y-8802070D01*
X8217156Y-8850442D01*
X8182869Y-8905012D01*
X8171962Y-8915918D01*
X8161532Y-8931030D01*
X8120498Y-8967382D01*
X8080012Y-9007869D01*
X8062082Y-9019135D01*
X8044242Y-9034940D01*
X7999841Y-9058243D01*
X7956849Y-9085257D01*
X7931411Y-9094157D01*
X7905493Y-9107761D01*
X7861659Y-9118564D01*
X7819543Y-9133302D01*
X7786985Y-9136970D01*
X7753349Y-9145261D01*
X7713403Y-9145261D01*
X7675000Y-9149588D01*
X7636596Y-9145261D01*
X7596651Y-9145261D01*
X7563014Y-9136970D01*
X7530456Y-9133302D01*
X7488337Y-9118564D01*
X7444507Y-9107761D01*
X7418590Y-9094158D01*
X7393150Y-9085257D01*
X7350152Y-9058239D01*
X7305758Y-9034940D01*
X7287920Y-9019137D01*
X7269987Y-9007869D01*
X7229493Y-8967375D01*
X7188468Y-8931030D01*
X7178039Y-8915921D01*
X7167130Y-8905012D01*
X7132832Y-8850426D01*
X7099454Y-8802070D01*
X7094896Y-8790051D01*
X7089742Y-8781849D01*
X7065374Y-8712210D01*
X7043888Y-8655555D01*
X7043004Y-8648280D01*
X7041697Y-8644543D01*
X7030702Y-8546966D01*
X7025000Y-8500000D01*
X7030702Y-8453037D01*
X7041697Y-8355456D01*
X7043004Y-8351718D01*
X7043888Y-8344445D01*
X7065370Y-8287801D01*
X7089742Y-8218150D01*
X7094896Y-8209945D01*
X7099454Y-8197930D01*
X7132825Y-8149583D01*
X7167130Y-8094987D01*
X7178041Y-8084075D01*
X7188468Y-8068970D01*
X7229484Y-8032632D01*
X7269987Y-7992130D01*
X7287924Y-7980859D01*
X7305758Y-7965060D01*
X7350142Y-7941765D01*
X7393150Y-7914742D01*
X7418595Y-7905838D01*
X7444507Y-7892239D01*
X7488327Y-7881438D01*
X7530456Y-7866697D01*
X7563022Y-7863027D01*
X7596651Y-7854739D01*
X7636587Y-7854739D01*
X7675000Y-7850411D01*
X7713412Y-7854739D01*
G37*
G36*
X9713412Y-7854739D02*
G01*
X9753349Y-7854739D01*
X9786978Y-7863027D01*
X9819543Y-7866697D01*
X9861669Y-7881437D01*
X9905493Y-7892239D01*
X9931406Y-7905839D01*
X9956849Y-7914742D01*
X9999851Y-7941762D01*
X10044242Y-7965060D01*
X10062078Y-7980861D01*
X10080012Y-7992130D01*
X10120506Y-8032624D01*
X10161532Y-8068970D01*
X10171960Y-8084078D01*
X10182869Y-8094987D01*
X10217163Y-8149567D01*
X10250546Y-8197930D01*
X10255104Y-8209949D01*
X10260257Y-8218150D01*
X10284617Y-8287767D01*
X10306112Y-8344445D01*
X10306995Y-8351722D01*
X10308302Y-8355456D01*
X10319283Y-8452923D01*
X10325000Y-8500000D01*
X10319283Y-8547080D01*
X10308302Y-8644543D01*
X10306995Y-8648275D01*
X10306112Y-8655555D01*
X10284612Y-8712244D01*
X10260257Y-8781849D01*
X10255105Y-8790047D01*
X10250546Y-8802070D01*
X10217156Y-8850442D01*
X10182869Y-8905012D01*
X10171962Y-8915918D01*
X10161532Y-8931030D01*
X10120498Y-8967382D01*
X10080012Y-9007869D01*
X10062082Y-9019135D01*
X10044242Y-9034940D01*
X9999841Y-9058243D01*
X9956849Y-9085257D01*
X9931411Y-9094157D01*
X9905493Y-9107761D01*
X9861659Y-9118564D01*
X9819543Y-9133302D01*
X9786985Y-9136970D01*
X9753349Y-9145261D01*
X9713403Y-9145261D01*
X9675000Y-9149588D01*
X9636596Y-9145261D01*
X9596651Y-9145261D01*
X9563014Y-9136970D01*
X9530456Y-9133302D01*
X9488337Y-9118564D01*
X9444507Y-9107761D01*
X9418590Y-9094158D01*
X9393150Y-9085257D01*
X9350152Y-9058239D01*
X9305758Y-9034940D01*
X9287920Y-9019137D01*
X9269987Y-9007869D01*
X9229493Y-8967375D01*
X9188468Y-8931030D01*
X9178039Y-8915921D01*
X9167130Y-8905012D01*
X9132832Y-8850426D01*
X9099454Y-8802070D01*
X9094896Y-8790051D01*
X9089742Y-8781849D01*
X9065374Y-8712210D01*
X9043888Y-8655555D01*
X9043004Y-8648280D01*
X9041697Y-8644543D01*
X9030702Y-8546966D01*
X9025000Y-8500000D01*
X9030702Y-8453037D01*
X9041697Y-8355456D01*
X9043004Y-8351718D01*
X9043888Y-8344445D01*
X9065370Y-8287801D01*
X9089742Y-8218150D01*
X9094896Y-8209945D01*
X9099454Y-8197930D01*
X9132825Y-8149583D01*
X9167130Y-8094987D01*
X9178041Y-8084075D01*
X9188468Y-8068970D01*
X9229484Y-8032632D01*
X9269987Y-7992130D01*
X9287924Y-7980859D01*
X9305758Y-7965060D01*
X9350142Y-7941765D01*
X9393150Y-7914742D01*
X9418595Y-7905838D01*
X9444507Y-7892239D01*
X9488327Y-7881438D01*
X9530456Y-7866697D01*
X9563022Y-7863027D01*
X9596651Y-7854739D01*
X9636587Y-7854739D01*
X9675000Y-7850411D01*
X9713412Y-7854739D01*
G37*
G36*
X39783339Y-8064158D02*
G01*
X39838125Y-8071371D01*
X39851906Y-8077797D01*
X39870671Y-8081530D01*
X39895526Y-8098137D01*
X39917819Y-8108533D01*
X39931380Y-8122094D01*
X39951777Y-8135723D01*
X39965405Y-8156119D01*
X39978966Y-8169680D01*
X39989360Y-8191970D01*
X40005970Y-8216829D01*
X40009702Y-8235595D01*
X40016128Y-8249374D01*
X40023338Y-8304148D01*
X40025000Y-8312500D01*
X40025000Y-8712500D01*
X40023338Y-8720853D01*
X40016128Y-8775625D01*
X40009703Y-8789403D01*
X40005970Y-8808171D01*
X39989358Y-8833031D01*
X39978966Y-8855319D01*
X39965407Y-8868877D01*
X39951777Y-8889277D01*
X39931377Y-8902907D01*
X39917819Y-8916466D01*
X39895531Y-8926858D01*
X39870671Y-8943470D01*
X39851903Y-8947203D01*
X39838125Y-8953628D01*
X39783353Y-8960838D01*
X39775000Y-8962500D01*
X39225000Y-8962500D01*
X39216648Y-8960838D01*
X39161874Y-8953628D01*
X39148095Y-8947202D01*
X39129329Y-8943470D01*
X39104470Y-8926860D01*
X39082180Y-8916466D01*
X39068619Y-8902905D01*
X39048223Y-8889277D01*
X39034594Y-8868880D01*
X39021033Y-8855319D01*
X39010637Y-8833026D01*
X38994030Y-8808171D01*
X38990297Y-8789406D01*
X38983871Y-8775625D01*
X38976658Y-8720839D01*
X38975000Y-8712500D01*
X38975000Y-8312500D01*
X38976658Y-8304162D01*
X38983871Y-8249374D01*
X38990297Y-8235591D01*
X38994030Y-8216829D01*
X39010636Y-8191975D01*
X39021033Y-8169680D01*
X39034596Y-8156116D01*
X39048223Y-8135723D01*
X39068616Y-8122096D01*
X39082180Y-8108533D01*
X39104475Y-8098136D01*
X39129329Y-8081530D01*
X39148091Y-8077797D01*
X39161874Y-8071371D01*
X39216662Y-8064158D01*
X39225000Y-8062500D01*
X39775000Y-8062500D01*
X39783339Y-8064158D01*
G37*
G36*
X43783339Y-8064158D02*
G01*
X43838125Y-8071371D01*
X43851906Y-8077797D01*
X43870671Y-8081530D01*
X43895526Y-8098137D01*
X43917819Y-8108533D01*
X43931380Y-8122094D01*
X43951777Y-8135723D01*
X43965405Y-8156119D01*
X43978966Y-8169680D01*
X43989360Y-8191970D01*
X44005970Y-8216829D01*
X44009702Y-8235595D01*
X44016128Y-8249374D01*
X44023338Y-8304148D01*
X44025000Y-8312500D01*
X44025000Y-8712500D01*
X44023338Y-8720853D01*
X44016128Y-8775625D01*
X44009703Y-8789403D01*
X44005970Y-8808171D01*
X43989358Y-8833031D01*
X43978966Y-8855319D01*
X43965407Y-8868877D01*
X43951777Y-8889277D01*
X43931377Y-8902907D01*
X43917819Y-8916466D01*
X43895531Y-8926858D01*
X43870671Y-8943470D01*
X43851903Y-8947203D01*
X43838125Y-8953628D01*
X43783353Y-8960838D01*
X43775000Y-8962500D01*
X43225000Y-8962500D01*
X43216648Y-8960838D01*
X43161874Y-8953628D01*
X43148095Y-8947202D01*
X43129329Y-8943470D01*
X43104470Y-8926860D01*
X43082180Y-8916466D01*
X43068619Y-8902905D01*
X43048223Y-8889277D01*
X43034594Y-8868880D01*
X43021033Y-8855319D01*
X43010637Y-8833026D01*
X42994030Y-8808171D01*
X42990297Y-8789406D01*
X42983871Y-8775625D01*
X42976658Y-8720839D01*
X42975000Y-8712500D01*
X42975000Y-8312500D01*
X42976658Y-8304162D01*
X42983871Y-8249374D01*
X42990297Y-8235591D01*
X42994030Y-8216829D01*
X43010636Y-8191975D01*
X43021033Y-8169680D01*
X43034596Y-8156116D01*
X43048223Y-8135723D01*
X43068616Y-8122096D01*
X43082180Y-8108533D01*
X43104475Y-8098136D01*
X43129329Y-8081530D01*
X43148091Y-8077797D01*
X43161874Y-8071371D01*
X43216662Y-8064158D01*
X43225000Y-8062500D01*
X43775000Y-8062500D01*
X43783339Y-8064158D01*
G37*
G36*
X23968684Y-6707969D02*
G01*
X23977891Y-6712034D01*
X23984724Y-6713030D01*
X24027431Y-6733908D01*
X24069540Y-6752501D01*
X24073439Y-6756400D01*
X24073801Y-6756577D01*
X24143422Y-6826198D01*
X24143598Y-6826559D01*
X24147499Y-6830460D01*
X24166096Y-6872578D01*
X24186969Y-6915275D01*
X24187964Y-6922105D01*
X24192031Y-6931316D01*
X24199999Y-7000002D01*
X24199999Y-7004704D01*
X24200000Y-7004711D01*
X24200000Y-7804204D01*
X24200000Y-8599999D01*
X24192031Y-8668684D01*
X24187964Y-8677894D01*
X24186969Y-8684724D01*
X24166100Y-8727410D01*
X24147499Y-8769540D01*
X24143597Y-8773441D01*
X24143422Y-8773801D01*
X24073801Y-8843422D01*
X24073441Y-8843597D01*
X24069540Y-8847499D01*
X24027410Y-8866100D01*
X23984724Y-8886969D01*
X23977894Y-8887964D01*
X23968684Y-8892031D01*
X23899998Y-8899999D01*
X23895294Y-8899999D01*
X23895288Y-8900000D01*
X22304712Y-8900000D01*
X22304711Y-8899999D01*
X22300001Y-8900000D01*
X22231316Y-8892031D01*
X22222105Y-8887964D01*
X22215275Y-8886969D01*
X22172578Y-8866096D01*
X22130460Y-8847499D01*
X22126559Y-8843598D01*
X22126198Y-8843422D01*
X22056577Y-8773801D01*
X22056400Y-8773439D01*
X22052501Y-8769540D01*
X22033908Y-8727431D01*
X22013030Y-8684724D01*
X22012034Y-8677891D01*
X22007969Y-8668684D01*
X22000001Y-8599998D01*
X22000000Y-8595294D01*
X22000000Y-8595288D01*
X22000000Y-7004711D01*
X22000000Y-7004710D01*
X22000000Y-7000001D01*
X22007969Y-6931316D01*
X22012034Y-6922108D01*
X22013030Y-6915275D01*
X22033913Y-6872557D01*
X22052501Y-6830460D01*
X22056399Y-6826561D01*
X22056577Y-6826198D01*
X22126198Y-6756577D01*
X22126561Y-6756399D01*
X22130460Y-6752501D01*
X22172557Y-6733913D01*
X22215275Y-6713030D01*
X22222108Y-6712034D01*
X22231316Y-6707969D01*
X22300002Y-6700001D01*
X22304705Y-6700000D01*
X22304712Y-6700000D01*
X23895288Y-6700000D01*
X23899999Y-6700000D01*
X23968684Y-6707969D01*
G37*
G36*
X41195796Y-8081582D02*
G01*
X41255815Y-8121685D01*
X41295918Y-8181704D01*
X41310000Y-8252500D01*
X41310000Y-8622500D01*
X41295918Y-8693296D01*
X41255815Y-8753315D01*
X41195796Y-8793418D01*
X41125000Y-8807500D01*
X40855000Y-8807500D01*
X40784204Y-8793418D01*
X40724185Y-8753315D01*
X40684082Y-8693296D01*
X40670000Y-8622500D01*
X40670000Y-8252500D01*
X40684082Y-8181704D01*
X40724185Y-8121685D01*
X40784204Y-8081582D01*
X40855000Y-8067500D01*
X41125000Y-8067500D01*
X41195796Y-8081582D01*
G37*
G36*
X42215796Y-8081582D02*
G01*
X42275815Y-8121685D01*
X42315918Y-8181704D01*
X42330000Y-8252500D01*
X42330000Y-8622500D01*
X42315918Y-8693296D01*
X42275815Y-8753315D01*
X42215796Y-8793418D01*
X42145000Y-8807500D01*
X41875000Y-8807500D01*
X41804204Y-8793418D01*
X41744185Y-8753315D01*
X41704082Y-8693296D01*
X41690000Y-8622500D01*
X41690000Y-8252500D01*
X41704082Y-8181704D01*
X41744185Y-8121685D01*
X41804204Y-8081582D01*
X41875000Y-8067500D01*
X42145000Y-8067500D01*
X42215796Y-8081582D01*
G37*
G36*
X33626524Y-7715262D02*
G01*
X33691408Y-7758617D01*
X33734763Y-7823501D01*
X33749987Y-7900038D01*
X33749987Y-8200038D01*
X33734763Y-8276575D01*
X33691408Y-8341459D01*
X33626524Y-8384814D01*
X33549987Y-8400038D01*
X32749987Y-8400038D01*
X32673450Y-8384814D01*
X32608566Y-8341459D01*
X32565211Y-8276575D01*
X32549987Y-8200038D01*
X32549987Y-7900038D01*
X32565211Y-7823501D01*
X32608566Y-7758617D01*
X32673450Y-7715262D01*
X32749987Y-7700038D01*
X33549987Y-7700038D01*
X33626524Y-7715262D01*
G37*
G36*
X36326550Y-7715262D02*
G01*
X36391434Y-7758617D01*
X36434789Y-7823501D01*
X36450013Y-7900038D01*
X36450013Y-8200038D01*
X36434789Y-8276575D01*
X36391434Y-8341459D01*
X36326550Y-8384814D01*
X36250013Y-8400038D01*
X35450013Y-8400038D01*
X35373476Y-8384814D01*
X35308592Y-8341459D01*
X35265237Y-8276575D01*
X35250013Y-8200038D01*
X35250013Y-7900038D01*
X35265237Y-7823501D01*
X35308592Y-7758617D01*
X35373476Y-7715262D01*
X35450013Y-7700038D01*
X36250013Y-7700038D01*
X36326550Y-7715262D01*
G37*
G36*
X37195796Y-7644082D02*
G01*
X37255815Y-7684185D01*
X37295918Y-7744204D01*
X37310000Y-7815000D01*
X37310000Y-8185000D01*
X37295918Y-8255796D01*
X37255815Y-8315815D01*
X37195796Y-8355918D01*
X37125000Y-8370000D01*
X36855000Y-8370000D01*
X36784204Y-8355918D01*
X36724185Y-8315815D01*
X36684082Y-8255796D01*
X36670000Y-8185000D01*
X36670000Y-7815000D01*
X36684082Y-7744204D01*
X36724185Y-7684185D01*
X36784204Y-7644082D01*
X36855000Y-7630000D01*
X37125000Y-7630000D01*
X37195796Y-7644082D01*
G37*
G36*
X38215796Y-7644082D02*
G01*
X38275815Y-7684185D01*
X38315918Y-7744204D01*
X38330000Y-7815000D01*
X38330000Y-8185000D01*
X38315918Y-8255796D01*
X38275815Y-8315815D01*
X38215796Y-8355918D01*
X38145000Y-8370000D01*
X37875000Y-8370000D01*
X37804204Y-8355918D01*
X37744185Y-8315815D01*
X37704082Y-8255796D01*
X37690000Y-8185000D01*
X37690000Y-7815000D01*
X37704082Y-7744204D01*
X37744185Y-7684185D01*
X37804204Y-7644082D01*
X37875000Y-7630000D01*
X38145000Y-7630000D01*
X38215796Y-7644082D01*
G37*
G36*
X32255796Y-7704082D02*
G01*
X32315815Y-7744185D01*
X32355918Y-7804204D01*
X32370000Y-7875000D01*
X32370000Y-8145000D01*
X32355918Y-8215796D01*
X32315815Y-8275815D01*
X32255796Y-8315918D01*
X32185000Y-8330000D01*
X31815000Y-8330000D01*
X31744204Y-8315918D01*
X31684185Y-8275815D01*
X31644082Y-8215796D01*
X31630000Y-8145000D01*
X31630000Y-7875000D01*
X31644082Y-7804204D01*
X31684185Y-7744185D01*
X31744204Y-7704082D01*
X31815000Y-7690000D01*
X32185000Y-7690000D01*
X32255796Y-7704082D01*
G37*
G36*
X14432403Y-7431418D02*
G01*
X14481066Y-7463934D01*
X14513582Y-7512597D01*
X14525000Y-7570000D01*
X14525000Y-7970000D01*
X14513582Y-8027403D01*
X14481066Y-8076066D01*
X14432403Y-8108582D01*
X14375000Y-8120000D01*
X13025000Y-8120000D01*
X12967597Y-8108582D01*
X12918934Y-8076066D01*
X12886418Y-8027403D01*
X12875000Y-7970000D01*
X12875000Y-7570000D01*
X12886418Y-7512597D01*
X12918934Y-7463934D01*
X12967597Y-7431418D01*
X13025000Y-7420000D01*
X14375000Y-7420000D01*
X14432403Y-7431418D01*
G37*
G36*
X19832403Y-7431418D02*
G01*
X19881066Y-7463934D01*
X19913582Y-7512597D01*
X19925000Y-7570000D01*
X19925000Y-7970000D01*
X19913582Y-8027403D01*
X19881066Y-8076066D01*
X19832403Y-8108582D01*
X19775000Y-8120000D01*
X18425000Y-8120000D01*
X18367597Y-8108582D01*
X18318934Y-8076066D01*
X18286418Y-8027403D01*
X18275000Y-7970000D01*
X18275000Y-7570000D01*
X18286418Y-7512597D01*
X18318934Y-7463934D01*
X18367597Y-7431418D01*
X18425000Y-7420000D01*
X19775000Y-7420000D01*
X19832403Y-7431418D01*
G37*
G36*
X12283339Y-7126658D02*
G01*
X12338125Y-7133871D01*
X12351906Y-7140297D01*
X12370671Y-7144030D01*
X12395526Y-7160637D01*
X12417819Y-7171033D01*
X12431380Y-7184594D01*
X12451777Y-7198223D01*
X12465405Y-7218619D01*
X12478966Y-7232180D01*
X12489360Y-7254470D01*
X12505970Y-7279329D01*
X12509702Y-7298095D01*
X12516128Y-7311874D01*
X12523338Y-7366648D01*
X12525000Y-7375000D01*
X12525000Y-7775000D01*
X12523338Y-7783353D01*
X12516128Y-7838125D01*
X12509703Y-7851903D01*
X12505970Y-7870671D01*
X12489358Y-7895531D01*
X12478966Y-7917819D01*
X12465407Y-7931377D01*
X12451777Y-7951777D01*
X12431377Y-7965407D01*
X12417819Y-7978966D01*
X12395531Y-7989358D01*
X12370671Y-8005970D01*
X12351903Y-8009703D01*
X12338125Y-8016128D01*
X12283353Y-8023338D01*
X12275000Y-8025000D01*
X11725000Y-8025000D01*
X11716648Y-8023338D01*
X11661874Y-8016128D01*
X11648095Y-8009702D01*
X11629329Y-8005970D01*
X11604470Y-7989360D01*
X11582180Y-7978966D01*
X11568619Y-7965405D01*
X11548223Y-7951777D01*
X11534594Y-7931380D01*
X11521033Y-7917819D01*
X11510637Y-7895526D01*
X11494030Y-7870671D01*
X11490297Y-7851906D01*
X11483871Y-7838125D01*
X11476658Y-7783339D01*
X11475000Y-7775000D01*
X11475000Y-7375000D01*
X11476658Y-7366662D01*
X11483871Y-7311874D01*
X11490297Y-7298091D01*
X11494030Y-7279329D01*
X11510636Y-7254475D01*
X11521033Y-7232180D01*
X11534596Y-7218616D01*
X11548223Y-7198223D01*
X11568616Y-7184596D01*
X11582180Y-7171033D01*
X11604475Y-7160636D01*
X11629329Y-7144030D01*
X11648091Y-7140297D01*
X11661874Y-7133871D01*
X11716662Y-7126658D01*
X11725000Y-7125000D01*
X12275000Y-7125000D01*
X12283339Y-7126658D01*
G37*
G36*
X2052403Y-5686418D02*
G01*
X2101066Y-5718934D01*
X2133582Y-5767597D01*
X2145000Y-5825000D01*
X2145000Y-7175000D01*
X2133582Y-7232403D01*
X2101066Y-7281066D01*
X2052403Y-7313582D01*
X1995000Y-7325000D01*
X1595000Y-7325000D01*
X1537597Y-7313582D01*
X1488934Y-7281066D01*
X1456418Y-7232403D01*
X1445000Y-7175000D01*
X1445000Y-5825000D01*
X1456418Y-5767597D01*
X1488934Y-5718934D01*
X1537597Y-5686418D01*
X1595000Y-5675000D01*
X1995000Y-5675000D01*
X2052403Y-5686418D01*
G37*
G36*
X3322403Y-5686418D02*
G01*
X3371066Y-5718934D01*
X3403582Y-5767597D01*
X3415000Y-5825000D01*
X3415000Y-7175000D01*
X3403582Y-7232403D01*
X3371066Y-7281066D01*
X3322403Y-7313582D01*
X3265000Y-7325000D01*
X2865000Y-7325000D01*
X2807597Y-7313582D01*
X2758934Y-7281066D01*
X2726418Y-7232403D01*
X2715000Y-7175000D01*
X2715000Y-5825000D01*
X2726418Y-5767597D01*
X2758934Y-5718934D01*
X2807597Y-5686418D01*
X2865000Y-5675000D01*
X3265000Y-5675000D01*
X3322403Y-5686418D01*
G37*
G36*
X4592403Y-5686418D02*
G01*
X4641066Y-5718934D01*
X4673582Y-5767597D01*
X4685000Y-5825000D01*
X4685000Y-7175000D01*
X4673582Y-7232403D01*
X4641066Y-7281066D01*
X4592403Y-7313582D01*
X4535000Y-7325000D01*
X4135000Y-7325000D01*
X4077597Y-7313582D01*
X4028934Y-7281066D01*
X3996418Y-7232403D01*
X3985000Y-7175000D01*
X3985000Y-5825000D01*
X3996418Y-5767597D01*
X4028934Y-5718934D01*
X4077597Y-5686418D01*
X4135000Y-5675000D01*
X4535000Y-5675000D01*
X4592403Y-5686418D01*
G37*
G36*
X5862403Y-5686418D02*
G01*
X5911066Y-5718934D01*
X5943582Y-5767597D01*
X5955000Y-5825000D01*
X5955000Y-7175000D01*
X5943582Y-7232403D01*
X5911066Y-7281066D01*
X5862403Y-7313582D01*
X5805000Y-7325000D01*
X5405000Y-7325000D01*
X5347597Y-7313582D01*
X5298934Y-7281066D01*
X5266418Y-7232403D01*
X5255000Y-7175000D01*
X5255000Y-5825000D01*
X5266418Y-5767597D01*
X5298934Y-5718934D01*
X5347597Y-5686418D01*
X5405000Y-5675000D01*
X5805000Y-5675000D01*
X5862403Y-5686418D01*
G37*
G36*
X32255796Y-6684082D02*
G01*
X32315815Y-6724185D01*
X32355918Y-6784204D01*
X32370000Y-6855000D01*
X32370000Y-7125000D01*
X32355918Y-7195796D01*
X32315815Y-7255815D01*
X32255796Y-7295918D01*
X32185000Y-7310000D01*
X31815000Y-7310000D01*
X31744204Y-7295918D01*
X31684185Y-7255815D01*
X31644082Y-7195796D01*
X31630000Y-7125000D01*
X31630000Y-6855000D01*
X31644082Y-6784204D01*
X31684185Y-6724185D01*
X31744204Y-6684082D01*
X31815000Y-6670000D01*
X32185000Y-6670000D01*
X32255796Y-6684082D01*
G37*
G36*
X21083339Y-6276658D02*
G01*
X21138125Y-6283871D01*
X21151906Y-6290297D01*
X21170671Y-6294030D01*
X21195526Y-6310637D01*
X21217819Y-6321033D01*
X21231380Y-6334594D01*
X21251777Y-6348223D01*
X21265405Y-6368619D01*
X21278966Y-6382180D01*
X21289360Y-6404470D01*
X21305970Y-6429329D01*
X21309702Y-6448095D01*
X21316128Y-6461874D01*
X21323338Y-6516648D01*
X21325000Y-6525000D01*
X21325000Y-6925000D01*
X21323338Y-6933353D01*
X21316128Y-6988125D01*
X21309703Y-7001903D01*
X21305970Y-7020671D01*
X21289358Y-7045531D01*
X21278966Y-7067819D01*
X21265407Y-7081377D01*
X21251777Y-7101777D01*
X21231377Y-7115407D01*
X21217819Y-7128966D01*
X21195531Y-7139358D01*
X21170671Y-7155970D01*
X21151903Y-7159703D01*
X21138125Y-7166128D01*
X21083353Y-7173338D01*
X21075000Y-7175000D01*
X20525000Y-7175000D01*
X20516648Y-7173338D01*
X20461874Y-7166128D01*
X20448095Y-7159702D01*
X20429329Y-7155970D01*
X20404470Y-7139360D01*
X20382180Y-7128966D01*
X20368619Y-7115405D01*
X20348223Y-7101777D01*
X20334594Y-7081380D01*
X20321033Y-7067819D01*
X20310637Y-7045526D01*
X20294030Y-7020671D01*
X20290297Y-7001906D01*
X20283871Y-6988125D01*
X20276658Y-6933339D01*
X20275000Y-6925000D01*
X20275000Y-6525000D01*
X20276658Y-6516662D01*
X20283871Y-6461874D01*
X20290297Y-6448091D01*
X20294030Y-6429329D01*
X20310636Y-6404475D01*
X20321033Y-6382180D01*
X20334596Y-6368616D01*
X20348223Y-6348223D01*
X20368616Y-6334596D01*
X20382180Y-6321033D01*
X20404475Y-6310636D01*
X20429329Y-6294030D01*
X20448091Y-6290297D01*
X20461874Y-6283871D01*
X20516662Y-6276658D01*
X20525000Y-6275000D01*
X21075000Y-6275000D01*
X21083339Y-6276658D01*
G37*
G36*
X7713412Y-5854739D02*
G01*
X7753349Y-5854739D01*
X7786978Y-5863027D01*
X7819543Y-5866697D01*
X7861669Y-5881437D01*
X7905493Y-5892239D01*
X7931406Y-5905839D01*
X7956849Y-5914742D01*
X7999851Y-5941762D01*
X8044242Y-5965060D01*
X8062078Y-5980861D01*
X8080012Y-5992130D01*
X8120506Y-6032624D01*
X8161532Y-6068970D01*
X8171960Y-6084078D01*
X8182869Y-6094987D01*
X8217163Y-6149567D01*
X8250546Y-6197930D01*
X8255104Y-6209949D01*
X8260257Y-6218150D01*
X8284617Y-6287767D01*
X8306112Y-6344445D01*
X8306995Y-6351722D01*
X8308302Y-6355456D01*
X8319283Y-6452923D01*
X8325000Y-6500000D01*
X8319283Y-6547080D01*
X8308302Y-6644543D01*
X8306995Y-6648275D01*
X8306112Y-6655555D01*
X8284612Y-6712244D01*
X8260257Y-6781849D01*
X8255105Y-6790047D01*
X8250546Y-6802070D01*
X8217156Y-6850442D01*
X8182869Y-6905012D01*
X8171962Y-6915918D01*
X8161532Y-6931030D01*
X8120498Y-6967382D01*
X8080012Y-7007869D01*
X8062082Y-7019135D01*
X8044242Y-7034940D01*
X7999841Y-7058243D01*
X7956849Y-7085257D01*
X7931411Y-7094157D01*
X7905493Y-7107761D01*
X7861659Y-7118564D01*
X7819543Y-7133302D01*
X7786985Y-7136970D01*
X7753349Y-7145261D01*
X7713403Y-7145261D01*
X7675000Y-7149588D01*
X7636596Y-7145261D01*
X7596651Y-7145261D01*
X7563014Y-7136970D01*
X7530456Y-7133302D01*
X7488337Y-7118564D01*
X7444507Y-7107761D01*
X7418590Y-7094158D01*
X7393150Y-7085257D01*
X7350152Y-7058239D01*
X7305758Y-7034940D01*
X7287920Y-7019137D01*
X7269987Y-7007869D01*
X7229493Y-6967375D01*
X7188468Y-6931030D01*
X7178039Y-6915921D01*
X7167130Y-6905012D01*
X7132832Y-6850426D01*
X7099454Y-6802070D01*
X7094896Y-6790051D01*
X7089742Y-6781849D01*
X7065374Y-6712210D01*
X7043888Y-6655555D01*
X7043004Y-6648280D01*
X7041697Y-6644543D01*
X7030702Y-6546966D01*
X7025000Y-6500000D01*
X7030702Y-6453037D01*
X7041697Y-6355456D01*
X7043004Y-6351718D01*
X7043888Y-6344445D01*
X7065370Y-6287801D01*
X7089742Y-6218150D01*
X7094896Y-6209945D01*
X7099454Y-6197930D01*
X7132825Y-6149583D01*
X7167130Y-6094987D01*
X7178041Y-6084075D01*
X7188468Y-6068970D01*
X7229484Y-6032632D01*
X7269987Y-5992130D01*
X7287924Y-5980859D01*
X7305758Y-5965060D01*
X7350142Y-5941765D01*
X7393150Y-5914742D01*
X7418595Y-5905838D01*
X7444507Y-5892239D01*
X7488327Y-5881438D01*
X7530456Y-5866697D01*
X7563022Y-5863027D01*
X7596651Y-5854739D01*
X7636587Y-5854739D01*
X7675000Y-5850411D01*
X7713412Y-5854739D01*
G37*
G36*
X9713412Y-5854739D02*
G01*
X9753349Y-5854739D01*
X9786978Y-5863027D01*
X9819543Y-5866697D01*
X9861669Y-5881437D01*
X9905493Y-5892239D01*
X9931406Y-5905839D01*
X9956849Y-5914742D01*
X9999851Y-5941762D01*
X10044242Y-5965060D01*
X10062078Y-5980861D01*
X10080012Y-5992130D01*
X10120506Y-6032624D01*
X10161532Y-6068970D01*
X10171960Y-6084078D01*
X10182869Y-6094987D01*
X10217163Y-6149567D01*
X10250546Y-6197930D01*
X10255104Y-6209949D01*
X10260257Y-6218150D01*
X10284617Y-6287767D01*
X10306112Y-6344445D01*
X10306995Y-6351722D01*
X10308302Y-6355456D01*
X10319283Y-6452923D01*
X10325000Y-6500000D01*
X10319283Y-6547080D01*
X10308302Y-6644543D01*
X10306995Y-6648275D01*
X10306112Y-6655555D01*
X10284612Y-6712244D01*
X10260257Y-6781849D01*
X10255105Y-6790047D01*
X10250546Y-6802070D01*
X10217156Y-6850442D01*
X10182869Y-6905012D01*
X10171962Y-6915918D01*
X10161532Y-6931030D01*
X10120498Y-6967382D01*
X10080012Y-7007869D01*
X10062082Y-7019135D01*
X10044242Y-7034940D01*
X9999841Y-7058243D01*
X9956849Y-7085257D01*
X9931411Y-7094157D01*
X9905493Y-7107761D01*
X9861659Y-7118564D01*
X9819543Y-7133302D01*
X9786985Y-7136970D01*
X9753349Y-7145261D01*
X9713403Y-7145261D01*
X9675000Y-7149588D01*
X9636596Y-7145261D01*
X9596651Y-7145261D01*
X9563014Y-7136970D01*
X9530456Y-7133302D01*
X9488337Y-7118564D01*
X9444507Y-7107761D01*
X9418590Y-7094158D01*
X9393150Y-7085257D01*
X9350152Y-7058239D01*
X9305758Y-7034940D01*
X9287920Y-7019137D01*
X9269987Y-7007869D01*
X9229493Y-6967375D01*
X9188468Y-6931030D01*
X9178039Y-6915921D01*
X9167130Y-6905012D01*
X9132832Y-6850426D01*
X9099454Y-6802070D01*
X9094896Y-6790051D01*
X9089742Y-6781849D01*
X9065374Y-6712210D01*
X9043888Y-6655555D01*
X9043004Y-6648280D01*
X9041697Y-6644543D01*
X9030702Y-6546966D01*
X9025000Y-6500000D01*
X9030702Y-6453037D01*
X9041697Y-6355456D01*
X9043004Y-6351718D01*
X9043888Y-6344445D01*
X9065370Y-6287801D01*
X9089742Y-6218150D01*
X9094896Y-6209945D01*
X9099454Y-6197930D01*
X9132825Y-6149583D01*
X9167130Y-6094987D01*
X9178041Y-6084075D01*
X9188468Y-6068970D01*
X9229484Y-6032632D01*
X9269987Y-5992130D01*
X9287924Y-5980859D01*
X9305758Y-5965060D01*
X9350142Y-5941765D01*
X9393150Y-5914742D01*
X9418595Y-5905838D01*
X9444507Y-5892239D01*
X9488327Y-5881438D01*
X9530456Y-5866697D01*
X9563022Y-5863027D01*
X9596651Y-5854739D01*
X9636587Y-5854739D01*
X9675000Y-5850411D01*
X9713412Y-5854739D01*
G37*
G36*
X14432403Y-6161418D02*
G01*
X14481066Y-6193934D01*
X14513582Y-6242597D01*
X14525000Y-6300000D01*
X14525000Y-6700000D01*
X14513582Y-6757403D01*
X14481066Y-6806066D01*
X14432403Y-6838582D01*
X14375000Y-6850000D01*
X13025000Y-6850000D01*
X12967597Y-6838582D01*
X12918934Y-6806066D01*
X12886418Y-6757403D01*
X12875000Y-6700000D01*
X12875000Y-6300000D01*
X12886418Y-6242597D01*
X12918934Y-6193934D01*
X12967597Y-6161418D01*
X13025000Y-6150000D01*
X14375000Y-6150000D01*
X14432403Y-6161418D01*
G37*
G36*
X19832403Y-6161418D02*
G01*
X19881066Y-6193934D01*
X19913582Y-6242597D01*
X19925000Y-6300000D01*
X19925000Y-6700000D01*
X19913582Y-6757403D01*
X19881066Y-6806066D01*
X19832403Y-6838582D01*
X19775000Y-6850000D01*
X18425000Y-6850000D01*
X18367597Y-6838582D01*
X18318934Y-6806066D01*
X18286418Y-6757403D01*
X18275000Y-6700000D01*
X18275000Y-6300000D01*
X18286418Y-6242597D01*
X18318934Y-6193934D01*
X18367597Y-6161418D01*
X18425000Y-6150000D01*
X19775000Y-6150000D01*
X19832403Y-6161418D01*
G37*
G36*
X35801537Y-5465224D02*
G01*
X35866421Y-5508579D01*
X35909776Y-5573463D01*
X35925000Y-5650000D01*
X35925000Y-6350000D01*
X35909776Y-6426537D01*
X35866421Y-6491421D01*
X35801537Y-6534776D01*
X35725000Y-6550000D01*
X35075000Y-6550000D01*
X34998463Y-6534776D01*
X34933579Y-6491421D01*
X34890224Y-6426537D01*
X34875000Y-6350000D01*
X34875000Y-5650000D01*
X34890224Y-5573463D01*
X34933579Y-5508579D01*
X34998463Y-5465224D01*
X35075000Y-5450000D01*
X35725000Y-5450000D01*
X35801537Y-5465224D01*
G37*
G36*
X37401537Y-5465224D02*
G01*
X37466421Y-5508579D01*
X37509776Y-5573463D01*
X37525000Y-5650000D01*
X37525000Y-6350000D01*
X37509776Y-6426537D01*
X37466421Y-6491421D01*
X37401537Y-6534776D01*
X37325000Y-6550000D01*
X36675000Y-6550000D01*
X36598463Y-6534776D01*
X36533579Y-6491421D01*
X36490224Y-6426537D01*
X36475000Y-6350000D01*
X36475000Y-5650000D01*
X36490224Y-5573463D01*
X36533579Y-5508579D01*
X36598463Y-5465224D01*
X36675000Y-5450000D01*
X37325000Y-5450000D01*
X37401537Y-5465224D01*
G37*
G36*
X33195796Y-5644082D02*
G01*
X33255815Y-5684185D01*
X33295918Y-5744204D01*
X33310000Y-5815000D01*
X33310000Y-6185000D01*
X33295918Y-6255796D01*
X33255815Y-6315815D01*
X33195796Y-6355918D01*
X33125000Y-6370000D01*
X32855000Y-6370000D01*
X32784204Y-6355918D01*
X32724185Y-6315815D01*
X32684082Y-6255796D01*
X32670000Y-6185000D01*
X32670000Y-5815000D01*
X32684082Y-5744204D01*
X32724185Y-5684185D01*
X32784204Y-5644082D01*
X32855000Y-5630000D01*
X33125000Y-5630000D01*
X33195796Y-5644082D01*
G37*
G36*
X34215796Y-5644082D02*
G01*
X34275815Y-5684185D01*
X34315918Y-5744204D01*
X34330000Y-5815000D01*
X34330000Y-6185000D01*
X34315918Y-6255796D01*
X34275815Y-6315815D01*
X34215796Y-6355918D01*
X34145000Y-6370000D01*
X33875000Y-6370000D01*
X33804204Y-6355918D01*
X33744185Y-6315815D01*
X33704082Y-6255796D01*
X33690000Y-6185000D01*
X33690000Y-5815000D01*
X33704082Y-5744204D01*
X33744185Y-5684185D01*
X33804204Y-5644082D01*
X33875000Y-5630000D01*
X34145000Y-5630000D01*
X34215796Y-5644082D01*
G37*
G36*
X12283339Y-4976658D02*
G01*
X12338125Y-4983871D01*
X12351906Y-4990297D01*
X12370671Y-4994030D01*
X12395526Y-5010637D01*
X12417819Y-5021033D01*
X12431380Y-5034594D01*
X12451777Y-5048223D01*
X12465405Y-5068619D01*
X12478966Y-5082180D01*
X12489360Y-5104470D01*
X12505970Y-5129329D01*
X12509702Y-5148095D01*
X12516128Y-5161874D01*
X12523338Y-5216648D01*
X12525000Y-5225000D01*
X12525000Y-5625000D01*
X12523338Y-5633353D01*
X12516128Y-5688125D01*
X12509703Y-5701903D01*
X12505970Y-5720671D01*
X12489358Y-5745531D01*
X12478966Y-5767819D01*
X12465407Y-5781377D01*
X12451777Y-5801777D01*
X12431377Y-5815407D01*
X12417819Y-5828966D01*
X12395531Y-5839358D01*
X12370671Y-5855970D01*
X12351903Y-5859703D01*
X12338125Y-5866128D01*
X12283353Y-5873338D01*
X12275000Y-5875000D01*
X11725000Y-5875000D01*
X11716648Y-5873338D01*
X11661874Y-5866128D01*
X11648095Y-5859702D01*
X11629329Y-5855970D01*
X11604470Y-5839360D01*
X11582180Y-5828966D01*
X11568619Y-5815405D01*
X11548223Y-5801777D01*
X11534594Y-5781380D01*
X11521033Y-5767819D01*
X11510637Y-5745526D01*
X11494030Y-5720671D01*
X11490297Y-5701906D01*
X11483871Y-5688125D01*
X11476658Y-5633339D01*
X11475000Y-5625000D01*
X11475000Y-5225000D01*
X11476658Y-5216662D01*
X11483871Y-5161874D01*
X11490297Y-5148091D01*
X11494030Y-5129329D01*
X11510636Y-5104475D01*
X11521033Y-5082180D01*
X11534596Y-5068616D01*
X11548223Y-5048223D01*
X11568616Y-5034596D01*
X11582180Y-5021033D01*
X11604475Y-5010636D01*
X11629329Y-4994030D01*
X11648091Y-4990297D01*
X11661874Y-4983871D01*
X11716662Y-4976658D01*
X11725000Y-4975000D01*
X12275000Y-4975000D01*
X12283339Y-4976658D01*
G37*
G36*
X14432403Y-4891418D02*
G01*
X14481066Y-4923934D01*
X14513582Y-4972597D01*
X14525000Y-5030000D01*
X14525000Y-5430000D01*
X14513582Y-5487403D01*
X14481066Y-5536066D01*
X14432403Y-5568582D01*
X14375000Y-5580000D01*
X13025000Y-5580000D01*
X12967597Y-5568582D01*
X12918934Y-5536066D01*
X12886418Y-5487403D01*
X12875000Y-5430000D01*
X12875000Y-5030000D01*
X12886418Y-4972597D01*
X12918934Y-4923934D01*
X12967597Y-4891418D01*
X13025000Y-4880000D01*
X14375000Y-4880000D01*
X14432403Y-4891418D01*
G37*
G36*
X19832403Y-4891418D02*
G01*
X19881066Y-4923934D01*
X19913582Y-4972597D01*
X19925000Y-5030000D01*
X19925000Y-5430000D01*
X19913582Y-5487403D01*
X19881066Y-5536066D01*
X19832403Y-5568582D01*
X19775000Y-5580000D01*
X18425000Y-5580000D01*
X18367597Y-5568582D01*
X18318934Y-5536066D01*
X18286418Y-5487403D01*
X18275000Y-5430000D01*
X18275000Y-5030000D01*
X18286418Y-4972597D01*
X18318934Y-4923934D01*
X18367597Y-4891418D01*
X18425000Y-4880000D01*
X19775000Y-4880000D01*
X19832403Y-4891418D01*
G37*
G36*
X21083339Y-4626658D02*
G01*
X21138125Y-4633871D01*
X21151906Y-4640297D01*
X21170671Y-4644030D01*
X21195526Y-4660637D01*
X21217819Y-4671033D01*
X21231380Y-4684594D01*
X21251777Y-4698223D01*
X21265405Y-4718619D01*
X21278966Y-4732180D01*
X21289360Y-4754470D01*
X21305970Y-4779329D01*
X21309702Y-4798095D01*
X21316128Y-4811874D01*
X21323338Y-4866648D01*
X21325000Y-4875000D01*
X21325000Y-5275000D01*
X21323338Y-5283353D01*
X21316128Y-5338125D01*
X21309703Y-5351903D01*
X21305970Y-5370671D01*
X21289358Y-5395531D01*
X21278966Y-5417819D01*
X21265407Y-5431377D01*
X21251777Y-5451777D01*
X21231377Y-5465407D01*
X21217819Y-5478966D01*
X21195531Y-5489358D01*
X21170671Y-5505970D01*
X21151903Y-5509703D01*
X21138125Y-5516128D01*
X21083353Y-5523338D01*
X21075000Y-5525000D01*
X20525000Y-5525000D01*
X20516648Y-5523338D01*
X20461874Y-5516128D01*
X20448095Y-5509702D01*
X20429329Y-5505970D01*
X20404470Y-5489360D01*
X20382180Y-5478966D01*
X20368619Y-5465405D01*
X20348223Y-5451777D01*
X20334594Y-5431380D01*
X20321033Y-5417819D01*
X20310637Y-5395526D01*
X20294030Y-5370671D01*
X20290297Y-5351906D01*
X20283871Y-5338125D01*
X20276658Y-5283339D01*
X20275000Y-5275000D01*
X20275000Y-4875000D01*
X20276658Y-4866662D01*
X20283871Y-4811874D01*
X20290297Y-4798091D01*
X20294030Y-4779329D01*
X20310636Y-4754475D01*
X20321033Y-4732180D01*
X20334596Y-4718616D01*
X20348223Y-4698223D01*
X20368616Y-4684596D01*
X20382180Y-4671033D01*
X20404475Y-4660636D01*
X20429329Y-4644030D01*
X20448091Y-4640297D01*
X20461874Y-4633871D01*
X20516662Y-4626658D01*
X20525000Y-4625000D01*
X21075000Y-4625000D01*
X21083339Y-4626658D01*
G37*
G36*
X1955796Y-4804082D02*
G01*
X2015815Y-4844185D01*
X2055918Y-4904204D01*
X2070000Y-4975000D01*
X2070000Y-5245000D01*
X2055918Y-5315796D01*
X2015815Y-5375815D01*
X1955796Y-5415918D01*
X1885000Y-5430000D01*
X1515000Y-5430000D01*
X1444204Y-5415918D01*
X1384185Y-5375815D01*
X1344082Y-5315796D01*
X1330000Y-5245000D01*
X1330000Y-4975000D01*
X1344082Y-4904204D01*
X1384185Y-4844185D01*
X1444204Y-4804082D01*
X1515000Y-4790000D01*
X1885000Y-4790000D01*
X1955796Y-4804082D01*
G37*
G36*
X25655796Y-4804082D02*
G01*
X25715815Y-4844185D01*
X25755918Y-4904204D01*
X25770000Y-4975000D01*
X25770000Y-5245000D01*
X25755918Y-5315796D01*
X25715815Y-5375815D01*
X25655796Y-5415918D01*
X25585000Y-5430000D01*
X25215000Y-5430000D01*
X25144204Y-5415918D01*
X25084185Y-5375815D01*
X25044082Y-5315796D01*
X25030000Y-5245000D01*
X25030000Y-4975000D01*
X25044082Y-4904204D01*
X25084185Y-4844185D01*
X25144204Y-4804082D01*
X25215000Y-4790000D01*
X25585000Y-4790000D01*
X25655796Y-4804082D01*
G37*
G36*
X3183339Y-4276658D02*
G01*
X3238125Y-4283871D01*
X3251906Y-4290297D01*
X3270671Y-4294030D01*
X3295526Y-4310637D01*
X3317819Y-4321033D01*
X3331380Y-4334594D01*
X3351777Y-4348223D01*
X3365405Y-4368619D01*
X3378966Y-4382180D01*
X3389360Y-4404470D01*
X3405970Y-4429329D01*
X3409702Y-4448095D01*
X3416128Y-4461874D01*
X3423338Y-4516648D01*
X3425000Y-4525000D01*
X3425000Y-5075000D01*
X3423338Y-5083353D01*
X3416128Y-5138125D01*
X3409703Y-5151903D01*
X3405970Y-5170671D01*
X3389358Y-5195531D01*
X3378966Y-5217819D01*
X3365407Y-5231377D01*
X3351777Y-5251777D01*
X3331377Y-5265407D01*
X3317819Y-5278966D01*
X3295531Y-5289358D01*
X3270671Y-5305970D01*
X3251903Y-5309703D01*
X3238125Y-5316128D01*
X3183353Y-5323338D01*
X3175000Y-5325000D01*
X2775000Y-5325000D01*
X2766648Y-5323338D01*
X2711874Y-5316128D01*
X2698095Y-5309702D01*
X2679329Y-5305970D01*
X2654470Y-5289360D01*
X2632180Y-5278966D01*
X2618619Y-5265405D01*
X2598223Y-5251777D01*
X2584594Y-5231380D01*
X2571033Y-5217819D01*
X2560637Y-5195526D01*
X2544030Y-5170671D01*
X2540297Y-5151906D01*
X2533871Y-5138125D01*
X2526658Y-5083339D01*
X2525000Y-5075000D01*
X2525000Y-4525000D01*
X2526658Y-4516662D01*
X2533871Y-4461874D01*
X2540297Y-4448091D01*
X2544030Y-4429329D01*
X2560636Y-4404475D01*
X2571033Y-4382180D01*
X2584596Y-4368616D01*
X2598223Y-4348223D01*
X2618616Y-4334596D01*
X2632180Y-4321033D01*
X2654475Y-4310636D01*
X2679329Y-4294030D01*
X2698091Y-4290297D01*
X2711874Y-4283871D01*
X2766662Y-4276658D01*
X2775000Y-4275000D01*
X3175000Y-4275000D01*
X3183339Y-4276658D01*
G37*
G36*
X4833339Y-4276658D02*
G01*
X4888125Y-4283871D01*
X4901906Y-4290297D01*
X4920671Y-4294030D01*
X4945526Y-4310637D01*
X4967819Y-4321033D01*
X4981380Y-4334594D01*
X5001777Y-4348223D01*
X5015405Y-4368619D01*
X5028966Y-4382180D01*
X5039360Y-4404470D01*
X5055970Y-4429329D01*
X5059702Y-4448095D01*
X5066128Y-4461874D01*
X5073338Y-4516648D01*
X5075000Y-4525000D01*
X5075000Y-5075000D01*
X5073338Y-5083353D01*
X5066128Y-5138125D01*
X5059703Y-5151903D01*
X5055970Y-5170671D01*
X5039358Y-5195531D01*
X5028966Y-5217819D01*
X5015407Y-5231377D01*
X5001777Y-5251777D01*
X4981377Y-5265407D01*
X4967819Y-5278966D01*
X4945531Y-5289358D01*
X4920671Y-5305970D01*
X4901903Y-5309703D01*
X4888125Y-5316128D01*
X4833353Y-5323338D01*
X4825000Y-5325000D01*
X4425000Y-5325000D01*
X4416648Y-5323338D01*
X4361874Y-5316128D01*
X4348095Y-5309702D01*
X4329329Y-5305970D01*
X4304470Y-5289360D01*
X4282180Y-5278966D01*
X4268619Y-5265405D01*
X4248223Y-5251777D01*
X4234594Y-5231380D01*
X4221033Y-5217819D01*
X4210637Y-5195526D01*
X4194030Y-5170671D01*
X4190297Y-5151906D01*
X4183871Y-5138125D01*
X4176658Y-5083339D01*
X4175000Y-5075000D01*
X4175000Y-4525000D01*
X4176658Y-4516662D01*
X4183871Y-4461874D01*
X4190297Y-4448091D01*
X4194030Y-4429329D01*
X4210636Y-4404475D01*
X4221033Y-4382180D01*
X4234596Y-4368616D01*
X4248223Y-4348223D01*
X4268616Y-4334596D01*
X4282180Y-4321033D01*
X4304475Y-4310636D01*
X4329329Y-4294030D01*
X4348091Y-4290297D01*
X4361874Y-4283871D01*
X4416662Y-4276658D01*
X4425000Y-4275000D01*
X4825000Y-4275000D01*
X4833339Y-4276658D01*
G37*
G36*
X26621937Y-3274864D02*
G01*
X26653029Y-3274864D01*
X26676982Y-3283582D01*
X26698019Y-3286914D01*
X26727730Y-3302052D01*
X26762097Y-3314561D01*
X26777275Y-3327297D01*
X26790960Y-3334270D01*
X26818993Y-3362303D01*
X26851009Y-3389168D01*
X26858045Y-3401355D01*
X26864713Y-3408023D01*
X26885886Y-3449577D01*
X26909042Y-3489685D01*
X26910481Y-3497848D01*
X26912069Y-3500964D01*
X26921233Y-3558826D01*
X26929197Y-3603988D01*
X26929197Y-4985802D01*
X26921232Y-5030972D01*
X26912069Y-5088825D01*
X26910481Y-5091940D01*
X26909042Y-5100105D01*
X26885882Y-5140219D01*
X26864713Y-5181766D01*
X26858046Y-5188432D01*
X26851009Y-5200622D01*
X26818988Y-5227490D01*
X26790960Y-5255519D01*
X26777276Y-5262491D01*
X26762096Y-5275229D01*
X26727724Y-5287738D01*
X26698019Y-5302875D01*
X26676986Y-5306206D01*
X26653029Y-5314926D01*
X26621931Y-5314926D01*
X26594996Y-5319192D01*
X26568061Y-5314926D01*
X26536963Y-5314926D01*
X26513005Y-5306206D01*
X26491972Y-5302875D01*
X26462265Y-5287738D01*
X26427895Y-5275229D01*
X26412715Y-5262491D01*
X26399031Y-5255519D01*
X26370998Y-5227486D01*
X26338983Y-5200622D01*
X26331946Y-5188434D01*
X26325278Y-5181766D01*
X26304101Y-5140204D01*
X26280950Y-5100105D01*
X26279510Y-5091943D01*
X26277922Y-5088825D01*
X26268755Y-5030946D01*
X26260795Y-4985802D01*
X26260795Y-3603988D01*
X26268753Y-3558851D01*
X26277922Y-3500964D01*
X26279511Y-3497845D01*
X26280950Y-3489685D01*
X26304097Y-3449592D01*
X26325278Y-3408023D01*
X26331948Y-3401352D01*
X26338983Y-3389168D01*
X26370990Y-3362310D01*
X26399031Y-3334270D01*
X26412720Y-3327294D01*
X26427896Y-3314561D01*
X26462256Y-3302054D01*
X26491972Y-3286914D01*
X26513010Y-3283581D01*
X26536963Y-3274864D01*
X26568055Y-3274864D01*
X26594996Y-3270597D01*
X26621937Y-3274864D01*
G37*
G36*
X27891940Y-3274864D02*
G01*
X27923032Y-3274864D01*
X27946985Y-3283582D01*
X27968022Y-3286914D01*
X27997733Y-3302052D01*
X28032100Y-3314561D01*
X28047278Y-3327297D01*
X28060963Y-3334270D01*
X28088996Y-3362303D01*
X28121012Y-3389168D01*
X28128048Y-3401355D01*
X28134716Y-3408023D01*
X28155889Y-3449577D01*
X28179045Y-3489685D01*
X28180484Y-3497848D01*
X28182072Y-3500964D01*
X28191236Y-3558826D01*
X28199200Y-3603988D01*
X28199200Y-4985802D01*
X28191235Y-5030972D01*
X28182072Y-5088825D01*
X28180484Y-5091940D01*
X28179045Y-5100105D01*
X28155885Y-5140219D01*
X28134716Y-5181766D01*
X28128049Y-5188432D01*
X28121012Y-5200622D01*
X28088991Y-5227490D01*
X28060963Y-5255519D01*
X28047279Y-5262491D01*
X28032099Y-5275229D01*
X27997727Y-5287738D01*
X27968022Y-5302875D01*
X27946989Y-5306206D01*
X27923032Y-5314926D01*
X27891934Y-5314926D01*
X27864999Y-5319192D01*
X27838064Y-5314926D01*
X27806966Y-5314926D01*
X27783008Y-5306206D01*
X27761975Y-5302875D01*
X27732268Y-5287738D01*
X27697898Y-5275229D01*
X27682718Y-5262491D01*
X27669034Y-5255519D01*
X27641001Y-5227486D01*
X27608986Y-5200622D01*
X27601949Y-5188434D01*
X27595281Y-5181766D01*
X27574104Y-5140204D01*
X27550953Y-5100105D01*
X27549513Y-5091943D01*
X27547925Y-5088825D01*
X27538758Y-5030946D01*
X27530798Y-4985802D01*
X27530798Y-3603988D01*
X27538756Y-3558851D01*
X27547925Y-3500964D01*
X27549514Y-3497845D01*
X27550953Y-3489685D01*
X27574100Y-3449592D01*
X27595281Y-3408023D01*
X27601951Y-3401352D01*
X27608986Y-3389168D01*
X27640993Y-3362310D01*
X27669034Y-3334270D01*
X27682723Y-3327294D01*
X27697899Y-3314561D01*
X27732259Y-3302054D01*
X27761975Y-3286914D01*
X27783013Y-3283581D01*
X27806966Y-3274864D01*
X27838058Y-3274864D01*
X27864999Y-3270597D01*
X27891940Y-3274864D01*
G37*
G36*
X29161942Y-3274864D02*
G01*
X29193034Y-3274864D01*
X29216987Y-3283582D01*
X29238024Y-3286914D01*
X29267735Y-3302052D01*
X29302102Y-3314561D01*
X29317280Y-3327297D01*
X29330965Y-3334270D01*
X29358998Y-3362303D01*
X29391014Y-3389168D01*
X29398050Y-3401355D01*
X29404718Y-3408023D01*
X29425891Y-3449577D01*
X29449047Y-3489685D01*
X29450486Y-3497848D01*
X29452074Y-3500964D01*
X29461238Y-3558826D01*
X29469202Y-3603988D01*
X29469202Y-4985802D01*
X29461237Y-5030972D01*
X29452074Y-5088825D01*
X29450486Y-5091940D01*
X29449047Y-5100105D01*
X29425887Y-5140219D01*
X29404718Y-5181766D01*
X29398051Y-5188432D01*
X29391014Y-5200622D01*
X29358993Y-5227490D01*
X29330965Y-5255519D01*
X29317281Y-5262491D01*
X29302101Y-5275229D01*
X29267729Y-5287738D01*
X29238024Y-5302875D01*
X29216991Y-5306206D01*
X29193034Y-5314926D01*
X29161936Y-5314926D01*
X29135001Y-5319192D01*
X29108066Y-5314926D01*
X29076968Y-5314926D01*
X29053010Y-5306206D01*
X29031977Y-5302875D01*
X29002270Y-5287738D01*
X28967900Y-5275229D01*
X28952720Y-5262491D01*
X28939036Y-5255519D01*
X28911003Y-5227486D01*
X28878988Y-5200622D01*
X28871951Y-5188434D01*
X28865283Y-5181766D01*
X28844106Y-5140204D01*
X28820955Y-5100105D01*
X28819515Y-5091943D01*
X28817927Y-5088825D01*
X28808760Y-5030946D01*
X28800800Y-4985802D01*
X28800800Y-3603988D01*
X28808758Y-3558851D01*
X28817927Y-3500964D01*
X28819516Y-3497845D01*
X28820955Y-3489685D01*
X28844102Y-3449592D01*
X28865283Y-3408023D01*
X28871953Y-3401352D01*
X28878988Y-3389168D01*
X28910995Y-3362310D01*
X28939036Y-3334270D01*
X28952725Y-3327294D01*
X28967901Y-3314561D01*
X29002261Y-3302054D01*
X29031977Y-3286914D01*
X29053015Y-3283581D01*
X29076968Y-3274864D01*
X29108060Y-3274864D01*
X29135001Y-3270597D01*
X29161942Y-3274864D01*
G37*
G36*
X30431945Y-3274864D02*
G01*
X30463037Y-3274864D01*
X30486990Y-3283582D01*
X30508027Y-3286914D01*
X30537738Y-3302052D01*
X30572105Y-3314561D01*
X30587283Y-3327297D01*
X30600968Y-3334270D01*
X30629001Y-3362303D01*
X30661017Y-3389168D01*
X30668053Y-3401355D01*
X30674721Y-3408023D01*
X30695894Y-3449577D01*
X30719050Y-3489685D01*
X30720489Y-3497848D01*
X30722077Y-3500964D01*
X30731241Y-3558826D01*
X30739205Y-3603988D01*
X30739205Y-4985802D01*
X30731240Y-5030972D01*
X30722077Y-5088825D01*
X30720489Y-5091940D01*
X30719050Y-5100105D01*
X30695890Y-5140219D01*
X30674721Y-5181766D01*
X30668054Y-5188432D01*
X30661017Y-5200622D01*
X30628996Y-5227490D01*
X30600968Y-5255519D01*
X30587284Y-5262491D01*
X30572104Y-5275229D01*
X30537732Y-5287738D01*
X30508027Y-5302875D01*
X30486994Y-5306206D01*
X30463037Y-5314926D01*
X30431939Y-5314926D01*
X30405004Y-5319192D01*
X30378069Y-5314926D01*
X30346971Y-5314926D01*
X30323013Y-5306206D01*
X30301980Y-5302875D01*
X30272273Y-5287738D01*
X30237903Y-5275229D01*
X30222723Y-5262491D01*
X30209039Y-5255519D01*
X30181006Y-5227486D01*
X30148991Y-5200622D01*
X30141954Y-5188434D01*
X30135286Y-5181766D01*
X30114109Y-5140204D01*
X30090958Y-5100105D01*
X30089518Y-5091943D01*
X30087930Y-5088825D01*
X30078763Y-5030946D01*
X30070803Y-4985802D01*
X30070803Y-3603988D01*
X30078761Y-3558851D01*
X30087930Y-3500964D01*
X30089519Y-3497845D01*
X30090958Y-3489685D01*
X30114105Y-3449592D01*
X30135286Y-3408023D01*
X30141956Y-3401352D01*
X30148991Y-3389168D01*
X30180998Y-3362310D01*
X30209039Y-3334270D01*
X30222728Y-3327294D01*
X30237904Y-3314561D01*
X30272264Y-3302054D01*
X30301980Y-3286914D01*
X30323018Y-3283581D01*
X30346971Y-3274864D01*
X30378063Y-3274864D01*
X30405004Y-3270597D01*
X30431945Y-3274864D01*
G37*
G36*
X6383339Y-4376658D02*
G01*
X6438125Y-4383871D01*
X6451906Y-4390297D01*
X6470671Y-4394030D01*
X6495526Y-4410637D01*
X6517819Y-4421033D01*
X6531380Y-4434594D01*
X6551777Y-4448223D01*
X6565405Y-4468619D01*
X6578966Y-4482180D01*
X6589360Y-4504470D01*
X6605970Y-4529329D01*
X6609702Y-4548095D01*
X6616128Y-4561874D01*
X6623338Y-4616648D01*
X6625000Y-4625000D01*
X6625000Y-5025000D01*
X6623338Y-5033353D01*
X6616128Y-5088125D01*
X6609703Y-5101903D01*
X6605970Y-5120671D01*
X6589358Y-5145531D01*
X6578966Y-5167819D01*
X6565407Y-5181377D01*
X6551777Y-5201777D01*
X6531377Y-5215407D01*
X6517819Y-5228966D01*
X6495531Y-5239358D01*
X6470671Y-5255970D01*
X6451903Y-5259703D01*
X6438125Y-5266128D01*
X6383353Y-5273338D01*
X6375000Y-5275000D01*
X5825000Y-5275000D01*
X5816648Y-5273338D01*
X5761874Y-5266128D01*
X5748095Y-5259702D01*
X5729329Y-5255970D01*
X5704470Y-5239360D01*
X5682180Y-5228966D01*
X5668619Y-5215405D01*
X5648223Y-5201777D01*
X5634594Y-5181380D01*
X5621033Y-5167819D01*
X5610637Y-5145526D01*
X5594030Y-5120671D01*
X5590297Y-5101906D01*
X5583871Y-5088125D01*
X5576658Y-5033339D01*
X5575000Y-5025000D01*
X5575000Y-4625000D01*
X5576658Y-4616662D01*
X5583871Y-4561874D01*
X5590297Y-4548091D01*
X5594030Y-4529329D01*
X5610636Y-4504475D01*
X5621033Y-4482180D01*
X5634596Y-4468616D01*
X5648223Y-4448223D01*
X5668616Y-4434596D01*
X5682180Y-4421033D01*
X5704475Y-4410636D01*
X5729329Y-4394030D01*
X5748091Y-4390297D01*
X5761874Y-4383871D01*
X5816662Y-4376658D01*
X5825000Y-4375000D01*
X6375000Y-4375000D01*
X6383339Y-4376658D01*
G37*
G36*
X7713412Y-3854739D02*
G01*
X7753349Y-3854739D01*
X7786978Y-3863027D01*
X7819543Y-3866697D01*
X7861669Y-3881437D01*
X7905493Y-3892239D01*
X7931406Y-3905839D01*
X7956849Y-3914742D01*
X7999851Y-3941762D01*
X8044242Y-3965060D01*
X8062078Y-3980861D01*
X8080012Y-3992130D01*
X8120506Y-4032624D01*
X8161532Y-4068970D01*
X8171960Y-4084078D01*
X8182869Y-4094987D01*
X8217163Y-4149567D01*
X8250546Y-4197930D01*
X8255104Y-4209949D01*
X8260257Y-4218150D01*
X8284617Y-4287767D01*
X8306112Y-4344445D01*
X8306995Y-4351722D01*
X8308302Y-4355456D01*
X8319283Y-4452923D01*
X8325000Y-4500000D01*
X8319283Y-4547080D01*
X8308302Y-4644543D01*
X8306995Y-4648275D01*
X8306112Y-4655555D01*
X8284612Y-4712244D01*
X8260257Y-4781849D01*
X8255105Y-4790047D01*
X8250546Y-4802070D01*
X8217156Y-4850442D01*
X8182869Y-4905012D01*
X8171962Y-4915918D01*
X8161532Y-4931030D01*
X8120498Y-4967382D01*
X8080012Y-5007869D01*
X8062082Y-5019135D01*
X8044242Y-5034940D01*
X7999841Y-5058243D01*
X7956849Y-5085257D01*
X7931411Y-5094157D01*
X7905493Y-5107761D01*
X7861659Y-5118564D01*
X7819543Y-5133302D01*
X7786985Y-5136970D01*
X7753349Y-5145261D01*
X7713403Y-5145261D01*
X7675000Y-5149588D01*
X7636596Y-5145261D01*
X7596651Y-5145261D01*
X7563014Y-5136970D01*
X7530456Y-5133302D01*
X7488337Y-5118564D01*
X7444507Y-5107761D01*
X7418590Y-5094158D01*
X7393150Y-5085257D01*
X7350152Y-5058239D01*
X7305758Y-5034940D01*
X7287920Y-5019137D01*
X7269987Y-5007869D01*
X7229493Y-4967375D01*
X7188468Y-4931030D01*
X7178039Y-4915921D01*
X7167130Y-4905012D01*
X7132832Y-4850426D01*
X7099454Y-4802070D01*
X7094896Y-4790051D01*
X7089742Y-4781849D01*
X7065374Y-4712210D01*
X7043888Y-4655555D01*
X7043004Y-4648280D01*
X7041697Y-4644543D01*
X7030702Y-4546966D01*
X7025000Y-4500000D01*
X7030702Y-4453037D01*
X7041697Y-4355456D01*
X7043004Y-4351718D01*
X7043888Y-4344445D01*
X7065370Y-4287801D01*
X7089742Y-4218150D01*
X7094896Y-4209945D01*
X7099454Y-4197930D01*
X7132825Y-4149583D01*
X7167130Y-4094987D01*
X7178041Y-4084075D01*
X7188468Y-4068970D01*
X7229484Y-4032632D01*
X7269987Y-3992130D01*
X7287924Y-3980859D01*
X7305758Y-3965060D01*
X7350142Y-3941765D01*
X7393150Y-3914742D01*
X7418595Y-3905838D01*
X7444507Y-3892239D01*
X7488327Y-3881438D01*
X7530456Y-3866697D01*
X7563022Y-3863027D01*
X7596651Y-3854739D01*
X7636587Y-3854739D01*
X7675000Y-3850411D01*
X7713412Y-3854739D01*
G37*
G36*
X9713412Y-3854739D02*
G01*
X9753349Y-3854739D01*
X9786978Y-3863027D01*
X9819543Y-3866697D01*
X9861669Y-3881437D01*
X9905493Y-3892239D01*
X9931406Y-3905839D01*
X9956849Y-3914742D01*
X9999851Y-3941762D01*
X10044242Y-3965060D01*
X10062078Y-3980861D01*
X10080012Y-3992130D01*
X10120506Y-4032624D01*
X10161532Y-4068970D01*
X10171960Y-4084078D01*
X10182869Y-4094987D01*
X10217163Y-4149567D01*
X10250546Y-4197930D01*
X10255104Y-4209949D01*
X10260257Y-4218150D01*
X10284617Y-4287767D01*
X10306112Y-4344445D01*
X10306995Y-4351722D01*
X10308302Y-4355456D01*
X10319283Y-4452923D01*
X10325000Y-4500000D01*
X10319283Y-4547080D01*
X10308302Y-4644543D01*
X10306995Y-4648275D01*
X10306112Y-4655555D01*
X10284612Y-4712244D01*
X10260257Y-4781849D01*
X10255105Y-4790047D01*
X10250546Y-4802070D01*
X10217156Y-4850442D01*
X10182869Y-4905012D01*
X10171962Y-4915918D01*
X10161532Y-4931030D01*
X10120498Y-4967382D01*
X10080012Y-5007869D01*
X10062082Y-5019135D01*
X10044242Y-5034940D01*
X9999841Y-5058243D01*
X9956849Y-5085257D01*
X9931411Y-5094157D01*
X9905493Y-5107761D01*
X9861659Y-5118564D01*
X9819543Y-5133302D01*
X9786985Y-5136970D01*
X9753349Y-5145261D01*
X9713403Y-5145261D01*
X9675000Y-5149588D01*
X9636596Y-5145261D01*
X9596651Y-5145261D01*
X9563014Y-5136970D01*
X9530456Y-5133302D01*
X9488337Y-5118564D01*
X9444507Y-5107761D01*
X9418590Y-5094158D01*
X9393150Y-5085257D01*
X9350152Y-5058239D01*
X9305758Y-5034940D01*
X9287920Y-5019137D01*
X9269987Y-5007869D01*
X9229493Y-4967375D01*
X9188468Y-4931030D01*
X9178039Y-4915921D01*
X9167130Y-4905012D01*
X9132832Y-4850426D01*
X9099454Y-4802070D01*
X9094896Y-4790051D01*
X9089742Y-4781849D01*
X9065374Y-4712210D01*
X9043888Y-4655555D01*
X9043004Y-4648280D01*
X9041697Y-4644543D01*
X9030702Y-4546966D01*
X9025000Y-4500000D01*
X9030702Y-4453037D01*
X9041697Y-4355456D01*
X9043004Y-4351718D01*
X9043888Y-4344445D01*
X9065370Y-4287801D01*
X9089742Y-4218150D01*
X9094896Y-4209945D01*
X9099454Y-4197930D01*
X9132825Y-4149583D01*
X9167130Y-4094987D01*
X9178041Y-4084075D01*
X9188468Y-4068970D01*
X9229484Y-4032632D01*
X9269987Y-3992130D01*
X9287924Y-3980859D01*
X9305758Y-3965060D01*
X9350142Y-3941765D01*
X9393150Y-3914742D01*
X9418595Y-3905838D01*
X9444507Y-3892239D01*
X9488327Y-3881438D01*
X9530456Y-3866697D01*
X9563022Y-3863027D01*
X9596651Y-3854739D01*
X9636587Y-3854739D01*
X9674999Y-3850411D01*
X9713412Y-3854739D01*
G37*
G36*
X35801537Y-3965224D02*
G01*
X35866421Y-4008579D01*
X35909776Y-4073463D01*
X35925000Y-4150000D01*
X35925000Y-4850000D01*
X35909776Y-4926537D01*
X35866421Y-4991421D01*
X35801537Y-5034776D01*
X35725000Y-5050000D01*
X35075000Y-5050000D01*
X34998463Y-5034776D01*
X34933579Y-4991421D01*
X34890224Y-4926537D01*
X34875000Y-4850000D01*
X34875000Y-4150000D01*
X34890224Y-4073463D01*
X34933579Y-4008579D01*
X34998463Y-3965224D01*
X35075000Y-3950000D01*
X35725000Y-3950000D01*
X35801537Y-3965224D01*
G37*
G36*
X37401537Y-3965224D02*
G01*
X37466421Y-4008579D01*
X37509776Y-4073463D01*
X37525000Y-4150000D01*
X37525000Y-4850000D01*
X37509776Y-4926537D01*
X37466421Y-4991421D01*
X37401537Y-5034776D01*
X37325000Y-5050000D01*
X36675000Y-5050000D01*
X36598463Y-5034776D01*
X36533579Y-4991421D01*
X36490224Y-4926537D01*
X36475000Y-4850000D01*
X36475000Y-4150000D01*
X36490224Y-4073463D01*
X36533579Y-4008579D01*
X36598463Y-3965224D01*
X36675000Y-3950000D01*
X37325000Y-3950000D01*
X37401537Y-3965224D01*
G37*
G36*
X33195796Y-4144082D02*
G01*
X33255815Y-4184185D01*
X33295918Y-4244204D01*
X33310000Y-4315000D01*
X33310000Y-4685000D01*
X33295918Y-4755796D01*
X33255815Y-4815815D01*
X33195796Y-4855918D01*
X33125000Y-4870000D01*
X32855000Y-4870000D01*
X32784204Y-4855918D01*
X32724185Y-4815815D01*
X32684082Y-4755796D01*
X32670000Y-4685000D01*
X32670000Y-4315000D01*
X32684082Y-4244204D01*
X32724185Y-4184185D01*
X32784204Y-4144082D01*
X32855000Y-4130000D01*
X33125000Y-4130000D01*
X33195796Y-4144082D01*
G37*
G36*
X34215796Y-4144082D02*
G01*
X34275815Y-4184185D01*
X34315918Y-4244204D01*
X34330000Y-4315000D01*
X34330000Y-4685000D01*
X34315918Y-4755796D01*
X34275815Y-4815815D01*
X34215796Y-4855918D01*
X34145000Y-4870000D01*
X33875000Y-4870000D01*
X33804204Y-4855918D01*
X33744185Y-4815815D01*
X33704082Y-4755796D01*
X33690000Y-4685000D01*
X33690000Y-4315000D01*
X33704082Y-4244204D01*
X33744185Y-4184185D01*
X33804204Y-4144082D01*
X33875000Y-4130000D01*
X34145000Y-4130000D01*
X34215796Y-4144082D01*
G37*
G36*
X1955796Y-3784082D02*
G01*
X2015815Y-3824185D01*
X2055918Y-3884204D01*
X2070000Y-3955000D01*
X2070000Y-4225000D01*
X2055918Y-4295796D01*
X2015815Y-4355815D01*
X1955796Y-4395918D01*
X1885000Y-4410000D01*
X1515000Y-4410000D01*
X1444204Y-4395918D01*
X1384185Y-4355815D01*
X1344082Y-4295796D01*
X1330000Y-4225000D01*
X1330000Y-3955000D01*
X1344082Y-3884204D01*
X1384185Y-3824185D01*
X1444204Y-3784082D01*
X1515000Y-3770000D01*
X1885000Y-3770000D01*
X1955796Y-3784082D01*
G37*
G36*
X25655796Y-3784082D02*
G01*
X25715815Y-3824185D01*
X25755918Y-3884204D01*
X25770000Y-3955000D01*
X25770000Y-4225000D01*
X25755918Y-4295796D01*
X25715815Y-4355815D01*
X25655796Y-4395918D01*
X25585000Y-4410000D01*
X25215000Y-4410000D01*
X25144204Y-4395918D01*
X25084185Y-4355815D01*
X25044082Y-4295796D01*
X25030000Y-4225000D01*
X25030000Y-3955000D01*
X25044082Y-3884204D01*
X25084185Y-3824185D01*
X25144204Y-3784082D01*
X25215000Y-3770000D01*
X25585000Y-3770000D01*
X25655796Y-3784082D01*
G37*
G36*
X14432403Y-3621418D02*
G01*
X14481066Y-3653934D01*
X14513582Y-3702597D01*
X14525000Y-3760000D01*
X14525000Y-4160000D01*
X14513582Y-4217403D01*
X14481066Y-4266066D01*
X14432403Y-4298582D01*
X14375000Y-4310000D01*
X13025000Y-4310000D01*
X12967597Y-4298582D01*
X12918934Y-4266066D01*
X12886418Y-4217403D01*
X12875000Y-4160000D01*
X12875000Y-3760000D01*
X12886418Y-3702597D01*
X12918934Y-3653934D01*
X12967597Y-3621418D01*
X13025000Y-3610000D01*
X14375000Y-3610000D01*
X14432403Y-3621418D01*
G37*
G36*
X19832403Y-3621418D02*
G01*
X19881066Y-3653934D01*
X19913582Y-3702597D01*
X19925000Y-3760000D01*
X19925000Y-4160000D01*
X19913582Y-4217403D01*
X19881066Y-4266066D01*
X19832403Y-4298582D01*
X19775000Y-4310000D01*
X18425000Y-4310000D01*
X18367597Y-4298582D01*
X18318934Y-4266066D01*
X18286418Y-4217403D01*
X18275000Y-4160000D01*
X18275000Y-3760000D01*
X18286418Y-3702597D01*
X18318934Y-3653934D01*
X18367597Y-3621418D01*
X18425000Y-3610000D01*
X19775000Y-3610000D01*
X19832403Y-3621418D01*
G37*
G36*
X23401029Y-2141992D02*
G01*
X23590312Y-2215320D01*
X23762898Y-2322181D01*
X23912910Y-2458935D01*
X24035239Y-2620925D01*
X24125719Y-2802634D01*
X24181270Y-2997876D01*
X24200000Y-3200000D01*
X24181270Y-3402124D01*
X24125719Y-3597366D01*
X24035239Y-3779075D01*
X23912910Y-3941065D01*
X23762898Y-4077819D01*
X23590312Y-4184680D01*
X23401029Y-4258008D01*
X23201495Y-4295308D01*
X22998505Y-4295308D01*
X22798971Y-4258008D01*
X22609688Y-4184680D01*
X22437102Y-4077819D01*
X22287090Y-3941065D01*
X22164761Y-3779075D01*
X22074281Y-3597366D01*
X22018730Y-3402124D01*
X22000000Y-3200000D01*
X22018730Y-2997876D01*
X22074281Y-2802634D01*
X22164761Y-2620925D01*
X22287090Y-2458935D01*
X22437102Y-2322181D01*
X22609688Y-2215320D01*
X22798971Y-2141992D01*
X22998505Y-2104692D01*
X23201495Y-2104692D01*
X23401029Y-2141992D01*
G37*
G36*
X12283339Y-3326658D02*
G01*
X12338125Y-3333871D01*
X12351906Y-3340297D01*
X12370671Y-3344030D01*
X12395526Y-3360637D01*
X12417819Y-3371033D01*
X12431380Y-3384594D01*
X12451777Y-3398223D01*
X12465405Y-3418619D01*
X12478966Y-3432180D01*
X12489360Y-3454470D01*
X12505970Y-3479329D01*
X12509702Y-3498095D01*
X12516128Y-3511874D01*
X12523338Y-3566648D01*
X12525000Y-3575000D01*
X12525000Y-3975000D01*
X12523338Y-3983353D01*
X12516128Y-4038125D01*
X12509703Y-4051903D01*
X12505970Y-4070671D01*
X12489358Y-4095531D01*
X12478966Y-4117819D01*
X12465407Y-4131377D01*
X12451777Y-4151777D01*
X12431377Y-4165407D01*
X12417819Y-4178966D01*
X12395531Y-4189358D01*
X12370671Y-4205970D01*
X12351903Y-4209703D01*
X12338125Y-4216128D01*
X12283353Y-4223338D01*
X12275000Y-4225000D01*
X11725000Y-4225000D01*
X11716648Y-4223338D01*
X11661874Y-4216128D01*
X11648095Y-4209702D01*
X11629329Y-4205970D01*
X11604470Y-4189360D01*
X11582180Y-4178966D01*
X11568619Y-4165405D01*
X11548223Y-4151777D01*
X11534594Y-4131380D01*
X11521033Y-4117819D01*
X11510637Y-4095526D01*
X11494030Y-4070671D01*
X11490297Y-4051906D01*
X11483871Y-4038125D01*
X11476658Y-3983339D01*
X11475000Y-3975000D01*
X11475000Y-3575000D01*
X11476658Y-3566662D01*
X11483871Y-3511874D01*
X11490297Y-3498091D01*
X11494030Y-3479329D01*
X11510636Y-3454475D01*
X11521033Y-3432180D01*
X11534596Y-3418616D01*
X11548223Y-3398223D01*
X11568616Y-3384596D01*
X11582180Y-3371033D01*
X11604475Y-3360636D01*
X11629329Y-3344030D01*
X11648091Y-3340297D01*
X11661874Y-3333871D01*
X11716662Y-3326658D01*
X11725000Y-3325000D01*
X12275000Y-3325000D01*
X12283339Y-3326658D01*
G37*
G36*
X6383339Y-2726658D02*
G01*
X6438125Y-2733871D01*
X6451906Y-2740297D01*
X6470671Y-2744030D01*
X6495526Y-2760637D01*
X6517819Y-2771033D01*
X6531380Y-2784594D01*
X6551777Y-2798223D01*
X6565405Y-2818619D01*
X6578966Y-2832180D01*
X6589360Y-2854470D01*
X6605970Y-2879329D01*
X6609702Y-2898095D01*
X6616128Y-2911874D01*
X6623338Y-2966648D01*
X6625000Y-2975000D01*
X6625000Y-3375000D01*
X6623338Y-3383353D01*
X6616128Y-3438125D01*
X6609703Y-3451903D01*
X6605970Y-3470671D01*
X6589358Y-3495531D01*
X6578966Y-3517819D01*
X6565407Y-3531377D01*
X6551777Y-3551777D01*
X6531377Y-3565407D01*
X6517819Y-3578966D01*
X6495531Y-3589358D01*
X6470671Y-3605970D01*
X6451903Y-3609703D01*
X6438125Y-3616128D01*
X6383353Y-3623338D01*
X6375000Y-3625000D01*
X5825000Y-3625000D01*
X5816648Y-3623338D01*
X5761874Y-3616128D01*
X5748095Y-3609702D01*
X5729329Y-3605970D01*
X5704470Y-3589360D01*
X5682180Y-3578966D01*
X5668619Y-3565405D01*
X5648223Y-3551777D01*
X5634594Y-3531380D01*
X5621033Y-3517819D01*
X5610637Y-3495526D01*
X5594030Y-3470671D01*
X5590297Y-3451906D01*
X5583871Y-3438125D01*
X5576658Y-3383339D01*
X5575000Y-3375000D01*
X5575000Y-2975000D01*
X5576658Y-2966662D01*
X5583871Y-2911874D01*
X5590297Y-2898091D01*
X5594030Y-2879329D01*
X5610636Y-2854475D01*
X5621033Y-2832180D01*
X5634596Y-2818616D01*
X5648223Y-2798223D01*
X5668616Y-2784596D01*
X5682180Y-2771033D01*
X5704475Y-2760636D01*
X5729329Y-2744030D01*
X5748091Y-2740297D01*
X5761874Y-2733871D01*
X5816662Y-2726658D01*
X5825000Y-2725000D01*
X6375000Y-2725000D01*
X6383339Y-2726658D01*
G37*
G36*
X18295796Y-2444082D02*
G01*
X18355815Y-2484185D01*
X18395918Y-2544204D01*
X18410000Y-2615000D01*
X18410000Y-2985000D01*
X18395918Y-3055796D01*
X18355815Y-3115815D01*
X18295796Y-3155918D01*
X18225000Y-3170000D01*
X17955000Y-3170000D01*
X17884204Y-3155918D01*
X17824185Y-3115815D01*
X17784082Y-3055796D01*
X17770000Y-2985000D01*
X17770000Y-2615000D01*
X17784082Y-2544204D01*
X17824185Y-2484185D01*
X17884204Y-2444082D01*
X17955000Y-2430000D01*
X18225000Y-2430000D01*
X18295796Y-2444082D01*
G37*
G36*
X19315796Y-2444082D02*
G01*
X19375815Y-2484185D01*
X19415918Y-2544204D01*
X19430000Y-2615000D01*
X19430000Y-2985000D01*
X19415918Y-3055796D01*
X19375815Y-3115815D01*
X19315796Y-3155918D01*
X19245000Y-3170000D01*
X18975000Y-3170000D01*
X18904204Y-3155918D01*
X18844185Y-3115815D01*
X18804082Y-3055796D01*
X18790000Y-2985000D01*
X18790000Y-2615000D01*
X18804082Y-2544204D01*
X18844185Y-2484185D01*
X18904204Y-2444082D01*
X18975000Y-2430000D01*
X19245000Y-2430000D01*
X19315796Y-2444082D01*
G37*
G36*
X37068684Y-907969D02*
G01*
X37077891Y-912034D01*
X37084724Y-913030D01*
X37127431Y-933908D01*
X37169540Y-952501D01*
X37173439Y-956400D01*
X37173801Y-956577D01*
X37243422Y-1026198D01*
X37243598Y-1026559D01*
X37247499Y-1030460D01*
X37266096Y-1072578D01*
X37286969Y-1115275D01*
X37287964Y-1122105D01*
X37292031Y-1131316D01*
X37299999Y-1200002D01*
X37299999Y-1204704D01*
X37300000Y-1204711D01*
X37300000Y-2021033D01*
X37300000Y-2799999D01*
X37292031Y-2868684D01*
X37287964Y-2877894D01*
X37286969Y-2884724D01*
X37266100Y-2927410D01*
X37247499Y-2969540D01*
X37243597Y-2973441D01*
X37243422Y-2973801D01*
X37173801Y-3043422D01*
X37173441Y-3043597D01*
X37169540Y-3047499D01*
X37127410Y-3066100D01*
X37084724Y-3086969D01*
X37077894Y-3087964D01*
X37068684Y-3092031D01*
X36999998Y-3099999D01*
X36995294Y-3099999D01*
X36995288Y-3100000D01*
X35404712Y-3100000D01*
X35404711Y-3099999D01*
X35400001Y-3100000D01*
X35331316Y-3092031D01*
X35322105Y-3087964D01*
X35315275Y-3086969D01*
X35272578Y-3066096D01*
X35230460Y-3047499D01*
X35226559Y-3043598D01*
X35226198Y-3043422D01*
X35156577Y-2973801D01*
X35156400Y-2973439D01*
X35152501Y-2969540D01*
X35133908Y-2927431D01*
X35113030Y-2884724D01*
X35112034Y-2877891D01*
X35107969Y-2868684D01*
X35100001Y-2799998D01*
X35100000Y-2795294D01*
X35100000Y-2795288D01*
X35100000Y-1204711D01*
X35100000Y-1204710D01*
X35100000Y-1200001D01*
X35107969Y-1131316D01*
X35112034Y-1122108D01*
X35113030Y-1115275D01*
X35133913Y-1072557D01*
X35152501Y-1030460D01*
X35156399Y-1026561D01*
X35156577Y-1026198D01*
X35226198Y-956577D01*
X35226561Y-956399D01*
X35230460Y-952501D01*
X35272557Y-933913D01*
X35315275Y-913030D01*
X35322108Y-912034D01*
X35331316Y-907969D01*
X35400002Y-900001D01*
X35404705Y-900000D01*
X35404712Y-900000D01*
X36995288Y-900000D01*
X36999999Y-900000D01*
X37068684Y-907969D01*
G37*
G36*
X27301029Y-941992D02*
G01*
X27490312Y-1015320D01*
X27662898Y-1122181D01*
X27812910Y-1258935D01*
X27935239Y-1420925D01*
X28025719Y-1602634D01*
X28081270Y-1797876D01*
X28100000Y-2000000D01*
X28081270Y-2202124D01*
X28025719Y-2397366D01*
X27935239Y-2579075D01*
X27812910Y-2741065D01*
X27662898Y-2877819D01*
X27490312Y-2984680D01*
X27301029Y-3058008D01*
X27101495Y-3095308D01*
X26898505Y-3095308D01*
X26698971Y-3058008D01*
X26509688Y-2984680D01*
X26337102Y-2877819D01*
X26187090Y-2741065D01*
X26064761Y-2579075D01*
X25974281Y-2397366D01*
X25918730Y-2202124D01*
X25900000Y-2000000D01*
X25918730Y-1797876D01*
X25974281Y-1602634D01*
X26064761Y-1420925D01*
X26187090Y-1258935D01*
X26337102Y-1122181D01*
X26509688Y-1015320D01*
X26698971Y-941992D01*
X26898505Y-904692D01*
X27101495Y-904692D01*
X27301029Y-941992D01*
G37*
G36*
X31901029Y-941992D02*
G01*
X32090312Y-1015320D01*
X32262898Y-1122181D01*
X32412910Y-1258935D01*
X32535239Y-1420925D01*
X32625719Y-1602634D01*
X32681270Y-1797876D01*
X32700000Y-2000000D01*
X32681270Y-2202124D01*
X32625719Y-2397366D01*
X32535239Y-2579075D01*
X32412910Y-2741065D01*
X32262898Y-2877819D01*
X32090312Y-2984680D01*
X31901029Y-3058008D01*
X31701495Y-3095308D01*
X31498505Y-3095308D01*
X31298971Y-3058008D01*
X31109688Y-2984680D01*
X30937102Y-2877819D01*
X30787090Y-2741065D01*
X30664761Y-2579075D01*
X30574281Y-2397366D01*
X30518730Y-2202124D01*
X30500000Y-2000000D01*
X30518730Y-1797876D01*
X30574281Y-1602634D01*
X30664761Y-1420925D01*
X30787090Y-1258935D01*
X30937102Y-1122181D01*
X31109688Y-1015320D01*
X31298971Y-941992D01*
X31498505Y-904692D01*
X31701495Y-904692D01*
X31901029Y-941992D01*
G37*
G36*
X13983339Y-1976658D02*
G01*
X14038125Y-1983871D01*
X14051906Y-1990297D01*
X14070671Y-1994030D01*
X14095526Y-2010637D01*
X14117819Y-2021033D01*
X14131380Y-2034594D01*
X14151777Y-2048223D01*
X14165405Y-2068619D01*
X14178966Y-2082180D01*
X14189360Y-2104470D01*
X14205970Y-2129329D01*
X14209702Y-2148095D01*
X14216128Y-2161874D01*
X14223338Y-2216648D01*
X14225000Y-2225000D01*
X14225000Y-2775000D01*
X14223338Y-2783353D01*
X14216128Y-2838125D01*
X14209703Y-2851903D01*
X14205970Y-2870671D01*
X14189358Y-2895531D01*
X14178966Y-2917819D01*
X14165407Y-2931377D01*
X14151777Y-2951777D01*
X14131377Y-2965407D01*
X14117819Y-2978966D01*
X14095531Y-2989358D01*
X14070671Y-3005970D01*
X14051903Y-3009703D01*
X14038125Y-3016128D01*
X13983353Y-3023338D01*
X13975000Y-3025000D01*
X13575000Y-3025000D01*
X13566648Y-3023338D01*
X13511874Y-3016128D01*
X13498095Y-3009702D01*
X13479329Y-3005970D01*
X13454470Y-2989360D01*
X13432180Y-2978966D01*
X13418619Y-2965405D01*
X13398223Y-2951777D01*
X13384594Y-2931380D01*
X13371033Y-2917819D01*
X13360637Y-2895526D01*
X13344030Y-2870671D01*
X13340297Y-2851906D01*
X13333871Y-2838125D01*
X13326658Y-2783339D01*
X13325000Y-2775000D01*
X13325000Y-2225000D01*
X13326658Y-2216662D01*
X13333871Y-2161874D01*
X13340297Y-2148091D01*
X13344030Y-2129329D01*
X13360636Y-2104475D01*
X13371033Y-2082180D01*
X13384596Y-2068616D01*
X13398223Y-2048223D01*
X13418616Y-2034596D01*
X13432180Y-2021033D01*
X13454475Y-2010636D01*
X13479329Y-1994030D01*
X13498091Y-1990297D01*
X13511874Y-1983871D01*
X13566662Y-1976658D01*
X13575000Y-1975000D01*
X13975000Y-1975000D01*
X13983339Y-1976658D01*
G37*
G36*
X15633339Y-1976658D02*
G01*
X15688125Y-1983871D01*
X15701906Y-1990297D01*
X15720671Y-1994030D01*
X15745526Y-2010637D01*
X15767819Y-2021033D01*
X15781380Y-2034594D01*
X15801777Y-2048223D01*
X15815405Y-2068619D01*
X15828966Y-2082180D01*
X15839360Y-2104470D01*
X15855970Y-2129329D01*
X15859702Y-2148095D01*
X15866128Y-2161874D01*
X15873338Y-2216648D01*
X15875000Y-2225000D01*
X15875000Y-2775000D01*
X15873338Y-2783353D01*
X15866128Y-2838125D01*
X15859703Y-2851903D01*
X15855970Y-2870671D01*
X15839358Y-2895531D01*
X15828966Y-2917819D01*
X15815407Y-2931377D01*
X15801777Y-2951777D01*
X15781377Y-2965407D01*
X15767819Y-2978966D01*
X15745531Y-2989358D01*
X15720671Y-3005970D01*
X15701903Y-3009703D01*
X15688125Y-3016128D01*
X15633353Y-3023338D01*
X15625000Y-3025000D01*
X15225000Y-3025000D01*
X15216648Y-3023338D01*
X15161874Y-3016128D01*
X15148095Y-3009702D01*
X15129329Y-3005970D01*
X15104470Y-2989360D01*
X15082180Y-2978966D01*
X15068619Y-2965405D01*
X15048223Y-2951777D01*
X15034594Y-2931380D01*
X15021033Y-2917819D01*
X15010637Y-2895526D01*
X14994030Y-2870671D01*
X14990297Y-2851906D01*
X14983871Y-2838125D01*
X14976658Y-2783339D01*
X14975000Y-2775000D01*
X14975000Y-2225000D01*
X14976658Y-2216662D01*
X14983871Y-2161874D01*
X14990297Y-2148091D01*
X14994030Y-2129329D01*
X15010636Y-2104475D01*
X15021033Y-2082180D01*
X15034596Y-2068616D01*
X15048223Y-2048223D01*
X15068616Y-2034596D01*
X15082180Y-2021033D01*
X15104475Y-2010636D01*
X15129329Y-1994030D01*
X15148091Y-1990297D01*
X15161874Y-1983871D01*
X15216662Y-1976658D01*
X15225000Y-1975000D01*
X15625000Y-1975000D01*
X15633339Y-1976658D01*
G37*
M02*
