M48
; DRILL file {KiCad 7.0.7} date Tue Oct 10 16:57:59 2023
; FORMAT={-:-/ absolute / inch / decimal}
; #@! TF.CreationDate,2023-10-10T16:57:59+13:00
; #@! TF.GenerationSoftware,Kicad,Pcbnew,7.0.7
; #@! TF.FileFunction,Plated,1,2,PTH
FMAT,2
INCH
; #@! TA.AperFunction,Plated,PTH,ViaDrill
T1C0.0118
; #@! TA.AperFunction,Plated,PTH,ComponentDrill
T2C0.0118
; #@! TA.AperFunction,Plated,PTH,ComponentDrill
T3C0.0197
; #@! TA.AperFunction,Plated,PTH,ComponentDrill
T4C0.0236
; #@! TA.AperFunction,Plated,PTH,ComponentDrill
T5C0.0472
; #@! TA.AperFunction,Plated,PTH,ComponentDrill
T6C0.0591
; #@! TA.AperFunction,Plated,PTH,ComponentDrill
T7C0.1220
%
G90
G05
T1
X0.126Y-1.1451
X0.1264Y-0.8366
X0.127Y-1.0049
X0.2284Y-1.0275
X0.2344Y-0.5784
X0.2485Y-0.6309
X0.2604Y-0.6643
X0.29Y-0.8531
X0.327Y-0.2072
X0.3559Y-1.0658
X0.3586Y-0.271
X0.3639Y-1.2586
X0.3791Y-0.8359
X0.3792Y-0.4106
X0.3861Y-0.4492
X0.4072Y-0.9477
X0.4213Y-0.6969
X0.4463Y-0.9196
X0.4494Y-0.9475
X0.4553Y-0.5591
X0.4714Y-0.7918
X0.4764Y-0.3189
X0.4836Y-1.0481
X0.5128Y-0.4295
X0.561Y-0.6716
X0.5891Y-0.1173
X0.5945Y-1.0709
X0.6011Y-1.2835
X0.6375Y-0.8698
X0.6431Y-0.4331
X0.6535Y-1.1614
X0.6644Y-1.2224
X0.6929Y-0.6772
X0.7008Y-1.0709
X0.7105Y-0.4287
X0.7227Y-0.5346
X0.7559Y-0.752
X0.7598Y-1.3189
X0.8307Y-0.5315
X0.8346Y-0.4803
X0.874Y-0.9567
X0.8897Y-0.3985
X0.9139Y-1.3812
X0.915Y-1.0733
X0.9213Y-1.2953
X0.9377Y-0.2024
X0.9445Y-1.2098
X0.9449Y-0.8465
X0.9631Y-0.6448
X0.9694Y-0.6098
X0.9724Y-0.9961
X0.9843Y-1.3504
X0.9872Y-0.2574
X1.0032Y-1.0922
X1.0399Y-1.0111
X1.0463Y-0.5394
X1.0512Y-0.4606
X1.1142Y-0.7992
X1.1142Y-1.384
X1.1221Y-0.4903
X1.126Y-0.6929
X1.1409Y-0.3137
X1.1417Y-0.7559
X1.1732Y-0.189
X1.2047Y-1.2165
X1.205Y-0.2862
X1.2126Y-0.0394
X1.2224Y-1.013
X1.236Y-1.0945
X1.2402Y-0.2913
X1.2469Y-0.7406
X1.2641Y-0.6544
X1.2665Y-0.7101
X1.2756Y-0.3976
X1.2874Y-0.878
X1.2874Y-0.7302
X1.3307Y-0.7913
X1.3426Y-0.7393
X1.3583Y-0.8898
X1.4292Y-0.2362
X1.4409Y-1.4567
X1.5039Y-0.7913
X1.5157Y-1.2992
X1.5236Y-1.1378
X1.524Y-0.3473
X1.5434Y-0.0763
X1.5707Y-1.3488
X1.5801Y-1.2217
X1.5821Y-0.3271
X1.5868Y-0.7857
X1.6457Y-0.4921
X1.6635Y-0.3395
X1.6966Y-1.304
X1.7051Y-1.0704
X1.7125Y-0.9293
X1.7433Y-0.9484
X1.7533Y-0.7993
X1.7638Y-1.2756
X1.7676Y-0.8317
X1.7698Y-0.8671
X1.7992Y-1.311
X1.8031Y-0.6693
X1.8413Y-0.7937
X1.8543Y-0.0472
X1.8759Y-1.1543
X1.9004Y-0.2817
X1.937Y-0.2283
X1.9593Y-0.711
X1.9618Y-1.1248
X1.9724Y-0.3465
X2.0Y-0.437
X2.0001Y-1.2637
X2.0137Y-0.6646
X2.0472Y-1.4409
X2.0681Y-1.145
X2.1184Y-0.0937
X2.1319Y-0.732
X2.1457Y-0.5472
X2.2168Y-1.2893
X2.2211Y-0.4124
X2.2328Y-0.0972
X2.2457Y-1.1278
X2.315Y-1.2008
X2.3268Y-1.437
X2.335Y-0.9013
X2.3441Y-1.3489
X2.3619Y-1.247
X2.4374Y-0.1743
X2.4574Y-0.0822
X2.4646Y-0.4961
X2.4881Y-0.654
X2.5354Y-1.2047
X2.5384Y-0.3816
X2.5553Y-0.5527
X2.5901Y-0.4845
X2.5984Y-1.2953
X2.6417Y-0.9291
X2.6457Y-0.752
X2.6535Y-0.6102
X2.666Y-0.3835
X2.6732Y-0.5669
X2.6843Y-0.4397
X2.6852Y-1.1647
X2.7717Y-0.7087
X2.8031Y-0.8819
X2.8124Y-1.2531
X2.8164Y-1.0876
X2.8432Y-0.3801
X2.8433Y-0.2943
X2.8532Y-0.2602
X2.9063Y-0.2941
X2.9226Y-1.2799
X2.9323Y-0.5586
X2.9347Y-0.0906
X2.9372Y-0.6592
X2.9495Y-1.0079
X2.9582Y-0.7764
X2.9843Y-0.9213
X3.0425Y-1.1454
X3.0446Y-0.7842
X3.0527Y-0.3123
X3.0551Y-1.3583
X3.0658Y-0.5525
X3.0826Y-1.2833
X3.0945Y-1.0551
X3.1598Y-1.0113
X3.167Y-0.3034
X3.1803Y-0.5545
X3.1863Y-1.2898
X3.1887Y-0.7894
X3.1929Y-0.9016
X3.1929Y-1.1371
X3.2008Y-1.3583
X3.202Y-0.4241
X3.2999Y-1.2764
X3.3035Y-0.3027
X3.3069Y-0.7893
X3.3071Y-1.0118
X3.3071Y-1.1575
X3.3077Y-0.4266
X3.3189Y-0.8976
X3.3504Y-1.4331
X3.4016Y-1.0079
X3.4068Y-0.3342
X3.4094Y-0.9252
X3.4208Y-1.385
X3.4252Y-1.1614
X3.4331Y-1.2677
X3.4362Y-0.4602
X3.4606Y-0.7441
X3.4685Y-0.7087
X3.4724Y-0.6024
X3.4764Y-0.7874
X3.5155Y-1.3932
X3.5186Y-1.2881
X3.5197Y-0.5984
X3.5197Y-0.8071
X3.5383Y-0.8954
X3.5548Y-1.1681
X3.563Y-0.6024
X3.563Y-0.7953
X3.5748Y-0.7126
X3.5866Y-0.752
X3.6327Y-0.2127
X3.6373Y-0.5614
X3.6444Y-0.8006
X3.649Y-1.282
X3.6543Y-1.0255
X3.6545Y-1.4071
X3.6591Y-0.6968
X3.6604Y-0.8959
X3.6632Y-0.0826
X3.6652Y-0.3004
X3.6712Y-0.4346
X3.7441Y-0.9291
X3.7604Y-0.6744
X3.7742Y-1.1386
X3.7753Y-0.3409
X3.7756Y-0.8031
X3.7776Y-1.0331
X3.7866Y-0.5465
X3.7897Y-0.4224
X3.8701Y-0.5354
X3.8851Y-1.2678
X3.8865Y-0.6693
X3.8868Y-0.912
X3.8869Y-1.1381
X3.895Y-0.3452
X3.8994Y-0.4229
X3.9016Y-0.811
X3.9101Y-1.0392
T2
X1.4409Y-0.5945
X1.4409Y-0.6496
X1.4685Y-0.5669
X1.4685Y-0.622
X1.4685Y-0.6772
X1.4961Y-0.5945
X1.4961Y-0.6496
X1.5236Y-0.5669
X1.5236Y-0.622
X1.5236Y-0.6772
X1.5512Y-0.5945
X1.5512Y-0.6496
T3
X2.3756Y-1.0087
X2.3756Y-1.0559
X2.3756Y-1.1032
X2.4386Y-1.0087
X2.4386Y-1.0559
X2.4386Y-1.1032
T5
X3.5197Y-0.7441
T6
X0.3331Y-0.502
X0.3331Y-0.9941
X0.5331Y-0.502
X0.5331Y-0.9941
X0.8449Y-0.187
X0.8449Y-0.6791
X0.8449Y-0.8169
X0.8449Y-1.3091
X1.0449Y-0.187
X1.0449Y-0.6791
X1.0449Y-0.8169
X1.0449Y-1.3091
T7
X0.2441Y-0.1181
X0.2441Y-1.378
X3.8189Y-0.1181
X3.8189Y-1.378
T4
G00X1.7981Y-1.2071
M15
G01X1.7981Y-1.2504
M16
G05
G00X1.7981Y-1.3775
M15
G01X1.7981Y-1.409
M16
G05
G00X2.1383Y-1.2071
M15
G01X2.1383Y-1.2504
M16
G05
G00X2.1383Y-1.3775
M15
G01X2.1383Y-1.409
M16
G05
T0
M30
